<?xml version="1.0" standalone="no"?>
<!DOCTYPE svg PUBLIC "-//W3C//DTD SVG 1.1//EN" "http://www.w3.org/Graphics/SVG/1.1/DTD/svg11.dtd" >
<svg xmlns="http://www.w3.org/2000/svg" xmlns:xlink="http://www.w3.org/1999/xlink" version="1.1">
<metadata>
Created by FontForge 20201107 at Mon Jun  3 19:36:50 2024
 By 
Copyright (C) 2006 Emigre Inc., Designed Jonathan Barnbrook
</metadata>
<defs>
<font id="PrioriSansOT-Regular" horiz-adv-x="962" >
  <font-face 
    font-family="Priori Sans OT"
    font-weight="400"
    font-stretch="normal"
    units-per-em="2048"
    panose-1="2 0 6 3 8 0 0 2 0 3"
    ascent="1495"
    descent="-553"
    x-height="723"
    cap-height="1163"
    bbox="-410 -590 2060 1649"
    underline-thickness="114"
    underline-position="-378"
    unicode-range="U+0020-FB06"
  />
<missing-glyph horiz-adv-x="1024" 
 />
    <glyph glyph-name="ff" unicode="ff" horiz-adv-x="1005" 
d="M662 993q-105 105 -226 105q-74 0 -123 -51t-49 -140v-184h387v188q0 27 11 82zM1130 1100l-69 -70q-73 68 -143 68q-67 0 -111.5 -51t-44.5 -138v-186h229l-33 -84h-196v-639h-111v639h-387v-639h-110v639h-127l30 84h97v184q0 130 79.5 210.5t196.5 80.5
q128 0 272 -115q9 13 22.5 27.5t40.5 37t66.5 36.5t83.5 14q111 0 215 -98z" />
    <glyph glyph-name="fi" unicode="fi" horiz-adv-x="894" 
d="M762 0h-111v639h-387v-639h-110v639h-127l30 84h97v184q0 131 80 211t184 80q111 0 215 -98l-70 -70q-73 68 -143 68q-65 0 -110.5 -50.5t-45.5 -138.5v-186h498v-723z" />
    <glyph glyph-name="fl" unicode="fl" horiz-adv-x="972" 
d="M922 12q-70 -35 -125 -35q-74 0 -120 49.5t-46 143.5v844q-84 84 -197 84q-72 0 -121 -48.5t-49 -136.5v-190h230l-33 -84h-197v-639h-110v639h-127l30 84h97v184q0 133 80.5 212t193.5 79q166 0 313 -147v-875q0 -49 24 -73.5t58 -24.5q43 0 99 28v-94z" />
    <glyph glyph-name="ffi" unicode="ffi" horiz-adv-x="1392" 
d="M1260 0h-111v639h-387v-639h-111v639h-387v-639h-110v639h-127l30 84h97v184q0 130 79.5 210.5t196.5 80.5q128 0 272 -115q9 13 22.5 27.5t40.5 37t66.5 36.5t83.5 14q111 0 215 -98l-69 -70q-73 68 -143 68q-67 0 -111.5 -51t-44.5 -138v-186h498v-723zM662 993
q-105 105 -226 105q-74 0 -123 -51t-49 -140v-184h387v188q0 27 11 82z" />
    <glyph glyph-name="ffl" unicode="ffl" horiz-adv-x="1470" 
d="M1419 12q-70 -35 -125 -35q-74 0 -120 49.5t-46 143.5v844q-84 84 -196 84q-71 0 -120.5 -50.5t-49.5 -138.5v-186h229l-33 -84h-196v-639h-111v639h-387v-639h-110v639h-127l30 84h97v184q0 130 79.5 210.5t196.5 80.5q131 0 272 -113q38 53 97.5 83t126.5 30
q166 0 313 -147v-875q0 -49 24 -73.5t58 -24.5q42 0 98 28v-94zM659 993q-105 105 -223 105q-74 0 -123 -51t-49 -140v-184h387v188q0 42 8 82z" />
    <glyph glyph-name=".notdef" horiz-adv-x="1024" 
 />
    <glyph glyph-name=".null" horiz-adv-x="0" 
 />
    <glyph glyph-name="nonmarkingreturn" horiz-adv-x="682" 
 />
    <glyph glyph-name="space" unicode=" " horiz-adv-x="368" 
 />
    <glyph glyph-name="exclam" unicode="!" horiz-adv-x="516" 
d="M342 1163l-47 -899h-76l-47 899h170zM360 70l-102 -103l-102 103l102 102z" />
    <glyph glyph-name="quotedbl" unicode="&#x22;" horiz-adv-x="604" 
d="M522 1163l-47 -407h-65l-48 407h160zM242 1163l-47 -407h-66l-47 407h160z" />
    <glyph glyph-name="numbersign" unicode="#" horiz-adv-x="1161" 
d="M1110 834l-18 -97h-261l-67 -311h258l-18 -96h-261l-71 -330h-97l72 330h-241l-72 -330h-96l71 330h-258l21 96h258l67 311h-258l21 97h258l71 329h97l-72 -329h242l71 329h97l-72 -329h258zM735 737h-241l-68 -311h242z" />
    <glyph glyph-name="dollar" unicode="$" horiz-adv-x="923" 
d="M483 -31v-190h-57v188q-149 0 -301 84v133q174 -106 301 -108v465l-98 65q-33 21 -56 37.5t-53.5 45.5t-49.5 56.5t-32.5 66.5t-13.5 81q0 134 85.5 213t217.5 88v186h57v-184q128 -5 252 -68v-122q-129 76 -252 84v-441l99 -65q35 -23 57 -39.5t56.5 -48t55.5 -61.5
t36.5 -73.5t15.5 -89.5q0 -126 -89.5 -207.5t-230.5 -95.5zM483 504v-424q87 13 143 63t56 125q0 106 -176 221zM426 686v401q-82 -9 -134 -60t-52 -124q0 -34 13.5 -63.5t45 -58t50.5 -42.5t63 -43z" />
    <glyph glyph-name="percent" unicode="%" horiz-adv-x="991" 
d="M516 983q0 -90 -65 -152.5t-162 -62.5t-162.5 62.5t-65.5 152.5t65.5 152.5t162.5 62.5t162 -62.5t65 -152.5zM786 1198l-522 -1233h-59l522 1233h59zM930 190q0 -90 -65.5 -152.5t-162.5 -62.5t-162 62.5t-65 152.5q0 89 65 151t162 62t162.5 -62t65.5 -151zM420 983
q0 55 -37 92t-94 37q-55 0 -93 -37.5t-38 -91.5t37.5 -90.5t93.5 -36.5q57 0 94 36.5t37 90.5zM834 190q0 54 -38 90.5t-94 36.5q-57 0 -94 -36.5t-37 -90.5q0 -56 37 -92.5t94 -36.5q56 0 94 37t38 92z" />
    <glyph glyph-name="ampersand" unicode="&#x26;" horiz-adv-x="1232" 
d="M1233 59q-74 -94 -156 -94q-73 0 -124.5 36.5t-102.5 109.5q-146 -146 -354 -146q-184 0 -294 103.5t-110 267.5q0 82 30 152.5t80.5 120t99.5 82t104 57.5l-271 387v28h801v-104h-608l534 -766q70 120 117 323h100q-48 -246 -155 -413l39 -56q64 -90 139 -90q8 0 16.5 2
t15.5 6t12.5 7.5t12 10.5t9.5 9.5t8 9.5l6 7zM791 197l-328 469q-32 -13 -62.5 -30t-66 -45.5t-61 -61t-43 -79.5t-17.5 -100q0 -124 84 -203t215 -79q157 0 279 129z" />
    <glyph glyph-name="quotesingle" unicode="'" horiz-adv-x="331" 
d="M250 1163l-49 -407h-70l-49 407h168z" />
    <glyph glyph-name="parenleft" unicode="(" horiz-adv-x="665" 
d="M625 -254l-64 -63q-194 151 -316 361.5t-122 442.5q0 234 122 445t316 362l62 -65q-85 -78 -149 -153.5t-118 -167.5t-82 -198t-28 -223t28.5 -223t82.5 -197.5t118 -167t150 -153.5z" />
    <glyph glyph-name="parenright" unicode=")" horiz-adv-x="665" 
d="M543 487q0 -232 -122.5 -442.5t-316.5 -361.5l-63 63q86 78 150 153.5t118 167t82.5 197.5t28.5 223t-28 223t-82 198t-118 167.5t-149 153.5l61 65q194 -151 316.5 -362t122.5 -445z" />
    <glyph glyph-name="asterisk" unicode="*" horiz-adv-x="899" 
d="M817 864l-340 -57l242 -246l-109 -80l-159 305l-160 -305l-111 80l242 246l-340 57l43 129l307 -153l-51 342h137l-51 -342l309 153z" />
    <glyph glyph-name="plus" unicode="+" horiz-adv-x="1245" 
d="M1143 473h-471v-473h-99v473h-471v98h471v469h99v-469h471v-98z" />
    <glyph glyph-name="comma" unicode="," horiz-adv-x="512" 
d="M362 -47q0 -102 -65 -180t-164 -95v33q48 18 83.5 61.5t35.5 112.5q0 20 -4 38.5t-12.5 36t-16 30.5t-21.5 29t-20.5 23t-22 22t-18.5 18l103 102l24 -22q98 -98 98 -209z" />
    <glyph glyph-name="hyphen" unicode="-" horiz-adv-x="563" 
d="M461 377h-359v98h359v-98z" />
    <glyph glyph-name="hyphen" unicode="&#xad;" horiz-adv-x="563" 
d="M461 377h-359v98h359v-98z" />
    <glyph glyph-name="period" unicode="." horiz-adv-x="512" 
d="M379 90l-123 -123l-123 123l123 123z" />
    <glyph glyph-name="slash" unicode="/" horiz-adv-x="712" 
d="M692 1219l-577 -1244h-95l580 1244h92z" />
    <glyph glyph-name="zero" unicode="0" horiz-adv-x="1019" 
d="M918 580q0 -157 -48.5 -296.5t-143.5 -230t-216 -90.5t-216 90.5t-143.5 230t-48.5 296.5t48.5 296.5t143.5 230.5t216 91t216 -91t143.5 -230.5t48.5 -296.5zM793 580q0 128 -32.5 243.5t-99 192t-151.5 76.5t-151.5 -76.5t-99 -192t-32.5 -243.5t32.5 -243t99 -191
t151.5 -76t151.5 76t99 191t32.5 243z" />
    <glyph glyph-name="one" unicode="1" horiz-adv-x="466" 
d="M295 0h-123v1141l123 65v-1206z" />
    <glyph glyph-name="two" unicode="2" horiz-adv-x="892" 
d="M791 0h-713v37l385 430q93 105 146 195.5t53 181.5q0 109 -66.5 178.5t-173.5 69.5q-99 0 -173 -64.5t-81 -163.5h-107q8 141 113 239.5t250 98.5q159 0 259.5 -97.5t100.5 -258.5q0 -186 -215 -422l-286 -315h508v-109z" />
    <glyph glyph-name="three" unicode="3" horiz-adv-x="841" 
d="M739 354q0 -172 -115.5 -279.5t-279.5 -107.5q-179 0 -303 119l65 80q39 -39 98.5 -68.5t129.5 -29.5q111 0 195.5 76.5t84.5 205.5q0 81 -40 139t-97 83.5t-121 25.5q-49 0 -114 -25l-39 54q48 27 80.5 47t84.5 61t88.5 82.5t73.5 104t58 133.5h-516v108h643v-59
q-11 -74 -39 -141.5t-58.5 -111.5t-69.5 -83t-61 -56t-45 -32q29 -4 64 -16t77.5 -38t76 -60.5t56.5 -90t23 -121.5z" />
    <glyph glyph-name="four" unicode="4" horiz-adv-x="956" 
d="M936 330h-250v-330h-119v330h-508l-18 51l549 782h96v-729h250v-104zM567 434v549l-385 -549h385z" />
    <glyph glyph-name="five" unicode="5" horiz-adv-x="878" 
d="M776 358q0 -110 -55 -201t-145.5 -141.5t-194.5 -50.5q-169 0 -303 109q-28 21 -37 30l65 84q39 -42 82 -67q82 -53 179 -53q118 0 202 86t84 213q0 122 -85 202t-212 80q-55 0 -108 -22q-37 -13 -60 -31l-30 8l39 559h548v-108h-456l-23 -324q69 19 117 19
q103 0 192.5 -48.5t145 -139.5t55.5 -204z" />
    <glyph glyph-name="six" unicode="6" horiz-adv-x="987" 
d="M885 1098q-212 -35 -371 -140.5t-238 -293.5q1 0 15 7.5t22.5 11.5t29 11t39 11t46 7t57.5 3q97 0 184 -43.5t144 -131.5t57 -202q0 -154 -108.5 -263.5t-259.5 -109.5q-94 0 -171.5 38t-126.5 101.5t-75.5 143.5t-26.5 168q0 154 63.5 293t171 239t250 164.5t298.5 77.5
v-92zM756 338q0 115 -79.5 196.5t-209.5 81.5q-117 0 -217 -55q-23 -57 -23 -141q0 -95 28.5 -172.5t94.5 -128.5t160 -51q106 0 176 82.5t70 187.5z" />
    <glyph glyph-name="seven" unicode="7" horiz-adv-x="868" 
d="M827 1126l-493 -1126h-135l481 1055h-639v108h764z" />
    <glyph glyph-name="eight" unicode="8" horiz-adv-x="880" 
d="M778 281q0 -131 -98 -223.5t-240 -92.5q-144 0 -241 90.5t-97 220.5q0 203 256 338q-239 115 -239 306q0 117 92.5 197.5t228.5 80.5t228 -79.5t92 -196.5q0 -184 -236 -299q254 -137 254 -342zM647 911q0 74 -56.5 129.5t-150.5 55.5t-151.5 -54t-57.5 -124
q0 -56 37 -107q41 -54 127 -106l54 -33l38 24q160 101 160 215zM664 283q0 63 -31 110q-51 80 -150 142l-47 28l-39 -22q-180 -106 -180 -254q0 -88 62.5 -152.5t160.5 -64.5q98 -1 161 62.5t63 150.5z" />
    <glyph glyph-name="nine" unicode="9" horiz-adv-x="987" 
d="M102 66q212 35 371 140.5t238 293.5q-1 0 -15 -7.5t-22.5 -11.5t-29 -11t-39 -11t-46 -7t-57.5 -3q-72 0 -140.5 26t-123 72.5t-88 119t-33.5 158.5q0 154 108.5 263.5t259.5 109.5q94 0 171.5 -37.5t126.5 -101t75.5 -143.5t26.5 -168q0 -154 -63.5 -293t-171 -239.5
t-250 -165t-298.5 -77.5v93zM231 825q0 -115 79.5 -196.5t209.5 -81.5q117 0 217 55q23 58 23 141q0 70 -17 132t-50.5 112.5t-89 79.5t-126.5 29q-106 0 -176 -83t-70 -188z" />
    <glyph glyph-name="colon" unicode=":" horiz-adv-x="512" 
d="M379 631l-123 -123l-123 123l123 123zM379 90l-123 -123l-123 123l123 123z" />
    <glyph glyph-name="semicolon" unicode=";" horiz-adv-x="512" 
d="M379 631l-123 -123l-123 123l123 123zM379 -47q0 -102 -65 -180t-164 -95v33q48 18 83 61.5t35 112.5q0 20 -3.5 38.5t-12.5 36.5t-16 30t-21.5 29t-20.5 23.5t-22 22t-18 17.5l102 102l25 -22q98 -98 98 -209z" />
    <glyph glyph-name="less" unicode="&#x3c;" horiz-adv-x="804" 
d="M723 117l-641 362v80l641 363v-107l-543 -295l543 -295v-108z" />
    <glyph glyph-name="equal" unicode="=" horiz-adv-x="1054" 
d="M952 600h-850v98h850v-98zM952 346h-850v98h850v-98z" />
    <glyph glyph-name="greater" unicode="&#x3e;" horiz-adv-x="804" 
d="M723 479l-641 -362v108l543 295l-543 295v107l641 -363v-80z" />
    <glyph glyph-name="question" unicode="?" horiz-adv-x="729" 
d="M668 844q0 -74 -32.5 -141t-87.5 -116.5t-117.5 -86.5t-131.5 -60v-176h-84l-16 244l30 8q122 32 221 121t99 205q0 103 -67.5 171t-182.5 68q-95 0 -197 -39v103q117 35 197 35q155 0 262 -93.5t107 -242.5zM362 70l-102 -103l-102 103l102 102z" />
    <glyph glyph-name="at" unicode="@" horiz-adv-x="1654" 
d="M1602 121q-84 -239 -290 -384t-466 -145q-164 0 -306 58t-242.5 159t-158 244t-57.5 307q0 174 64.5 329.5t174.5 267t263 176.5t325 65q279 0 451 -162.5t172 -431.5q0 -125 -40.5 -239t-106 -194t-151 -127.5t-173.5 -47.5q-141 0 -141 121q0 20 3.5 43t7 37t9 33
t6.5 22q-36 -78 -140.5 -165t-205.5 -87q-73 0 -119.5 57.5t-46.5 153.5q0 71 25 153t71.5 158.5t105 140t132.5 102t147 38.5q34 0 62 -11t42.5 -22t28.5 -32.5t16.5 -27t8.5 -20.5l31 111h115l-166 -578q-49 -168 57 -168q58 0 123 41.5t121 112t92.5 176.5t36.5 221
q0 237 -155 385t-400 148q-132 0 -251 -44.5t-208 -122t-154.5 -180t-99 -221.5t-33.5 -243q0 -134 47 -256t132 -215.5t213 -149t280 -55.5q237 0 423 124.5t275 344.5h50zM1038 631q0 62 -31.5 96.5t-86.5 34.5q-56 0 -112 -39.5t-99 -101.5t-76.5 -133.5t-51.5 -139
t-18 -115.5q0 -59 30.5 -97t76.5 -38q56 0 113 40t101 102t79.5 134.5t54 141t18.5 117.5z" />
    <glyph glyph-name="A" unicode="A" horiz-adv-x="989" 
d="M969 0h-129l-146 420h-399l-145 -420h-130l414 1163h121zM662 518l-115 340l-51 164l-54 -164l-114 -340h334z" />
    <glyph glyph-name="B" unicode="B" 
d="M877 319q0 -146 -100 -232.5t-257 -86.5h-368v1163h319q85 0 154 -26t111 -69.5t64.5 -98.5t22.5 -115q0 -138 -102 -223q-5 -5 -11 -10t-13 -10.5t-11 -8.5q94 -43 142.5 -117t48.5 -166zM752 330q0 97 -76 160t-209 63h-195v-447h230q108 0 179 61t71 163zM698 848
q0 101 -64.5 157t-182.5 56h-179v-408h232q44 0 82 -6l28 21q84 66 84 180z" />
    <glyph glyph-name="C" unicode="C" horiz-adv-x="1191" 
d="M1106 68q-87 -45 -127 -60q-123 -43 -274 -43q-121 0 -233.5 46t-197.5 126t-136.5 196t-51.5 247t52.5 247.5t138 197t198 127t230.5 46.5q86 0 174.5 -20t136.5 -39t86 -39l-2 -125q-35 19 -46.5 25t-60.5 28t-84.5 32.5t-92 21t-109.5 10.5q-96 0 -186 -38.5
t-158.5 -105t-110 -162.5t-41.5 -204q0 -107 39.5 -202t107 -162.5t158.5 -106.5t191 -39q91 0 181.5 24.5t128.5 43.5t89 48v-120z" />
    <glyph glyph-name="D" unicode="D" horiz-adv-x="1243" 
d="M1157 578q0 -138 -53.5 -249.5t-144 -182t-205 -108.5t-240.5 -38h-362v1163h352q127 0 243.5 -39.5t208 -111.5t146.5 -185t55 -249zM1032 578q0 143 -72 253.5t-189.5 167t-260.5 56.5h-238v-942h248q143 0 258 53.5t184.5 160.5t69.5 251z" />
    <glyph glyph-name="E" unicode="E" horiz-adv-x="917" 
d="M831 0h-679v1163h653v-108h-533v-414h410v-106h-410v-426h559v-109z" />
    <glyph glyph-name="F" unicode="F" horiz-adv-x="835" 
d="M764 1055h-492v-414h400v-106h-400v-535h-120v1163h612v-108z" />
    <glyph glyph-name="G" unicode="G" horiz-adv-x="1236" 
d="M985 127v371h121v-430q-87 -45 -127 -60q-123 -43 -274 -43q-121 0 -233.5 46t-197.5 126t-136.5 196t-51.5 247t52.5 247.5t138 197t198 127t230.5 46.5q209 0 395 -98v-125q-35 19 -46.5 25t-60.5 28t-84.5 32.5t-92 21t-109.5 10.5q-96 0 -186 -38.5t-158.5 -105
t-110 -162.5t-41.5 -204q0 -107 39.5 -202t107 -162.5t158.5 -106.5t191 -39q141 0 278 55z" />
    <glyph glyph-name="H" unicode="H" horiz-adv-x="1183" 
d="M1032 0h-121v535h-639v-535h-120v1163h120v-522h639v522h121v-1163z" />
    <glyph glyph-name="I" unicode="I" horiz-adv-x="444" 
d="M283 0h-121v1163h121v-1163z" />
    <glyph glyph-name="J" unicode="J" horiz-adv-x="423" 
d="M272 -406l-120 -120v1689h120v-1569z" />
    <glyph glyph-name="K" unicode="K" horiz-adv-x="1015" 
d="M995 0h-149l-424 604l-150 -149v-455h-120v1163h120v-561l557 561h152l-473 -473z" />
    <glyph glyph-name="L" unicode="L" horiz-adv-x="884" 
d="M864 0h-712v1163h120v-1054h592v-109z" />
    <glyph glyph-name="M" unicode="M" horiz-adv-x="1452" 
d="M1300 0h-116v846l-420 -846h-76l-420 846v-846h-116v1163h79l496 -985l494 985h79v-1163z" />
    <glyph glyph-name="N" unicode="N" horiz-adv-x="1255" 
d="M1104 0h-121v242l-711 710v-952h-120v1163h73l758 -757v757h121v-1163z" />
    <glyph glyph-name="O" unicode="O" horiz-adv-x="1429" 
d="M1343 582q0 -126 -48 -239.5t-130.5 -196.5t-200 -132t-249.5 -49q-176 0 -321 83t-226.5 224.5t-81.5 309.5q0 126 48 239.5t131 196.5t200.5 131.5t249.5 48.5t249.5 -48.5t200 -131.5t130.5 -196.5t48 -239.5zM1219 582q0 139 -65 256t-181 185.5t-258 68.5
t-258 -68.5t-181 -185.5t-65 -256t65 -256t181 -185.5t258 -68.5t258 68.5t181 185.5t65 256z" />
    <glyph glyph-name="P" unicode="P" horiz-adv-x="876" 
d="M825 836q0 -83 -34 -148.5t-89.5 -104.5t-121.5 -59t-136 -20h-172v-504h-120v1163h288q182 0 283.5 -87.5t101.5 -239.5zM700 838q0 219 -268 219h-160v-455h152q52 0 99 12.5t88 39t65 74t24 110.5z" />
    <glyph glyph-name="Q" unicode="Q" horiz-adv-x="1429" 
d="M1343 582q0 -226 -141.5 -394t-359.5 -211v-4h499l-30 -104h-348q-130 0 -256.5 30t-238.5 91t-197 145t-135 199.5t-50 247.5q0 168 82.5 309.5t227 224t319.5 82.5q133 0 250 -48t199.5 -130.5t130.5 -196.5t48 -241zM1219 571q0 142 -65 261.5t-181 189.5t-258 70
t-258 -70t-181 -189.5t-65 -261.5t65 -261t181 -189t258 -70t258 70t181 189t65 261z" />
    <glyph glyph-name="R" unicode="R" horiz-adv-x="985" 
d="M1006 70q-56 -90 -150 -90q-46 0 -81.5 17t-54 37.5t-44.5 59.5l-266 395h-138v-489h-120v1163h270q185 0 289 -90.5t104 -245.5q0 -129 -78 -212.5t-194 -112.5l241 -352q52 -74 99 -74q44 0 78 39zM690 829q0 228 -280 228h-138v-471h129q55 0 103.5 12.5t91.5 39.5
t68.5 76t25.5 115z" />
    <glyph glyph-name="S" unicode="S" horiz-adv-x="849" 
d="M764 272q0 -139 -102 -222t-263 -83q-158 0 -313 84v133q178 -108 313 -108q104 0 173 52t69 140q0 107 -168 217l-178 117q-39 25 -68.5 50t-61 61t-48.5 82t-17 98q0 144 93 223.5t237 79.5q133 0 266 -68v-122q-143 84 -266 84q-95 0 -153 -52.5t-58 -134.5
q0 -64 42.5 -111t119.5 -98l170 -112q33 -22 56 -39t55.5 -48t52.5 -61t34.5 -73t14.5 -89z" />
    <glyph glyph-name="T" unicode="T" horiz-adv-x="980" 
d="M961 1057h-410v-1057h-121v1057h-410v106h941v-106z" />
    <glyph glyph-name="U" unicode="U" horiz-adv-x="1169" 
d="M1018 0h-121v182q-18 -25 -29 -39t-48 -49.5t-73.5 -56.5t-97 -39t-127.5 -18q-171 0 -276 115.5t-105 299.5v768h123v-768q0 -139 75 -225t200 -86q59 0 112 19t88 45t68 63.5t50 63.5t35 56q3 6 5 9v823h121v-1163z" />
    <glyph glyph-name="V" unicode="V" horiz-adv-x="968" 
d="M948 1163l-413 -1163h-101l-414 1163h127l295 -858l41 -131l43 131l293 858h129z" />
    <glyph glyph-name="W" unicode="W" horiz-adv-x="1392" 
d="M641 586l-207 577h121l141 -415l142 415h120l-206 -577l96 -277l51 -153l49 153l295 854h129l-414 -1163h-110l-152 430l-151 -430h-111l-414 1163h130l294 -854l50 -153l51 153z" />
    <glyph glyph-name="X" unicode="X" horiz-adv-x="1026" 
d="M995 0h-147l-334 492l-336 -492h-147l415 586l-409 577h147l330 -481l328 481h147l-409 -577z" />
    <glyph glyph-name="Y" unicode="Y" horiz-adv-x="917" 
d="M897 1163l-377 -674v-489h-121v489l-379 674h138l301 -569l301 569h137z" />
    <glyph glyph-name="Z" unicode="Z" horiz-adv-x="1005" 
d="M965 0h-924v47l723 1014h-694v102h880v-51l-723 -1010h738v-102z" />
    <glyph glyph-name="bracketleft" unicode="[" horiz-adv-x="518" 
d="M436 -287h-293v1583h293v-86h-178v-1411h178v-86z" />
    <glyph glyph-name="backslash" unicode="\" horiz-adv-x="548" 
d="M610 -25h-94l-577 1244h92z" />
    <glyph glyph-name="bracketright" unicode="]" horiz-adv-x="518" 
d="M375 -287h-293v86h178v1411h-178v86h293v-1583z" />
    <glyph glyph-name="asciicircum" unicode="^" horiz-adv-x="1040" 
d="M958 664h-116l-322 608l-321 -608h-117l381 718h115z" />
    <glyph glyph-name="underscore" unicode="_" horiz-adv-x="1024" 
d="M1024 -106h-1024v106h1024v-106z" />
    <glyph glyph-name="grave" unicode="`" horiz-adv-x="681" 
d="M487 905h-102l-195 379h111z" />
    <glyph glyph-name="a" unicode="a" horiz-adv-x="722" 
d="M610 0h-92l-10 61q-1 -1 -12 -10t-18.5 -14l-22.5 -15t-30 -16t-35.5 -12.5t-45 -10t-51.5 -3.5q-96 0 -164 63.5t-68 167.5q0 115 82 183t224 83l135 15v137h-396l21 94h483v-723zM502 160v248l-119 -15q-102 -12 -156.5 -57t-54.5 -119q0 -63 43 -105t109 -42
q32 0 61.5 9t54.5 27.5t35 27.5t27 26z" />
    <glyph glyph-name="b" unicode="b" horiz-adv-x="874" 
d="M803 360q0 -162 -107.5 -272.5t-261.5 -110.5q-23 0 -45 3t-39 7t-35 10.5t-29.5 12t-25.5 14t-20 12.5t-16 11t-11 8l-16 -55h-84v1163h110v-483l8 6q8 5 14 8.5t19 10.5t24.5 11.5t29.5 10.5t36 9.5t41 6t47 2.5q145 0 253 -112t108 -273zM688 360q0 121 -77 202
t-195 81q-100 0 -193 -72v-415q95 -76 193 -76q117 0 194.5 80.5t77.5 199.5z" />
    <glyph glyph-name="c" unicode="c" horiz-adv-x="788" 
d="M717 51q-1 -1 -9.5 -6t-13.5 -8t-16.5 -9t-20.5 -10t-23.5 -10t-27.5 -9.5t-30.5 -8t-34.5 -7.5t-38 -4.5t-42 -1.5q-163 0 -276 108t-113 273t112 275t277 110q118 0 252 -69v-107q-1 0 -13.5 7t-19.5 10.5t-24 11t-30.5 12.5t-34.5 11.5t-39.5 10.5t-42 6.5t-46.5 2.5
q-122 0 -199.5 -80.5t-77.5 -200.5q0 -122 79.5 -199t197.5 -77q21 0 42 2t40.5 6t36.5 8t33.5 10t29 11t26 11.5t20 9.5t16 8.5t10.5 5.5v-103z" />
    <glyph glyph-name="d" unicode="d" horiz-adv-x="870" 
d="M758 0h-111v98l-225 -121q-27 8 -45.5 14t-58 23t-68.5 36t-65 52t-58.5 71t-38.5 92.5t-16 117.5q0 149 106.5 255.5t253.5 106.5q35 0 66.5 -4.5t56.5 -13t40 -15t33 -16t19 -10.5v477h111v-1163zM647 199v379q-98 65 -186 65q-111 0 -193 -77.5t-82 -186.5
q0 -58 19 -106.5t43 -77t62 -54t59 -35t51 -20.5z" />
    <glyph glyph-name="e" unicode="e" horiz-adv-x="841" 
d="M756 350h-574q7 -131 88 -202.5t191 -71.5q42 0 82 7t72 19t53.5 22t42.5 22t24 14v-103q-133 -80 -286 -80q-99 0 -184 44.5t-139 133.5t-54 205q0 171 112.5 278t266.5 107q128 0 216.5 -94.5t88.5 -247.5v-53zM649 436q0 87 -58 149t-151 62q-59 0 -106 -20.5
t-75.5 -54.5t-45 -67t-25.5 -69h461z" />
    <glyph glyph-name="f" unicode="f" horiz-adv-x="507" 
d="M633 1100l-70 -70q-73 68 -143 68q-65 0 -110.5 -50.5t-45.5 -138.5v-186h230l-33 -84h-197v-639h-110v639h-127l30 84h97v184q0 131 80 211t184 80q111 0 215 -98z" />
    <glyph glyph-name="g" unicode="g" horiz-adv-x="796" 
d="M823 637h-188q78 -84 78 -199q0 -128 -94.5 -218.5t-229.5 -90.5q-57 0 -110 18l-76 -100q26 -3 39 -8l262 -84q217 -68 217 -246q0 -110 -93.5 -181t-224.5 -71q-153 0 -250.5 81t-97.5 190q0 45 16.5 85.5t43.5 69t45 43t35 25.5l-134 43l142 190q-64 43 -100.5 109.5
t-36.5 142.5q0 128 95 218.5t228 90.5t225 -86l64 64h145v-86zM608 436q0 90 -64 151.5t-155 61.5q-90 0 -153.5 -61.5t-63.5 -151.5q0 -89 63.5 -150t153.5 -61q91 0 155 61t64 150zM616 -291q0 108 -139 154l-188 59q-46 -27 -72 -57q-57 -65 -57 -135q0 -74 68.5 -126.5
t174.5 -52.5q102 0 157.5 47.5t55.5 110.5z" />
    <glyph glyph-name="h" unicode="h" horiz-adv-x="823" 
d="M711 0h-111v518q0 52 -32.5 88.5t-88.5 36.5q-79 0 -137.5 -38t-118.5 -109v-496h-110v1163h110v-551q18 18 29 28t40.5 33t56 36t66 24.5t79.5 11.5q90 0 153.5 -57.5t63.5 -165.5v-522z" />
    <glyph glyph-name="i" unicode="i" horiz-adv-x="376" 
d="M244 0h-111v723h111v-723zM281 956l-93 -92l-94 92l92 93z" />
    <glyph glyph-name="j" unicode="j" horiz-adv-x="376" 
d="M244 -408l-111 -108v1239h111v-1131zM281 956l-93 -92l-94 92l92 93z" />
    <glyph glyph-name="k" unicode="k" horiz-adv-x="722" 
d="M713 0h-138l-245 350l-107 -108v-242h-110v1163h110v-796l348 356h134l-299 -297z" />
    <glyph glyph-name="l" unicode="l" horiz-adv-x="454" 
d="M403 104v-94q-66 -33 -124 -33q-74 0 -120 50t-46 143v993h110v-987q0 -49 24 -73.5t58 -24.5q46 0 98 26z" />
    <glyph glyph-name="m" unicode="m" horiz-adv-x="1273" 
d="M1161 0h-110v494q0 69 -35 109t-98 40q-23 0 -45.5 -5.5t-40.5 -13t-36.5 -19.5t-31.5 -22.5t-26.5 -24t-21 -21.5t-15.5 -18t-9 -11v-508h-110v494q0 69 -35 109t-98 40q-23 0 -45.5 -5.5t-40.5 -13t-36.5 -19.5t-31.5 -22.5t-26.5 -24t-21 -21.5t-15.5 -18t-9 -11v-508
h-110v723h110v-98q39 44 68 65q77 55 172 55q73 0 129 -35.5t82 -101.5q1 1 17.5 18.5t20.5 21.5t21 19.5t25.5 20.5t26 17.5t31.5 17t33.5 11t40.5 9t44 2.5q99 0 163 -63t64 -176v-506z" />
    <glyph glyph-name="n" unicode="n" horiz-adv-x="823" 
d="M711 0h-111v487q0 71 -38 113.5t-105 42.5q-124 0 -231 -137q-2 -3 -3 -4v-502h-110v723h110v-102q39 44 68 65q81 59 182 59q103 0 170.5 -66t67.5 -183v-496z" />
    <glyph glyph-name="o" unicode="o" horiz-adv-x="905" 
d="M834 360q0 -162 -111 -272.5t-270 -110.5t-270 110.5t-111 272.5t111 273.5t270 111.5t270 -111.5t111 -273.5zM721 360q0 120 -77.5 201.5t-190.5 81.5t-191 -81.5t-78 -201.5q0 -119 78 -199.5t191 -80.5t190.5 80.5t77.5 199.5z" />
    <glyph glyph-name="p" unicode="p" horiz-adv-x="870" 
d="M799 340q0 -149 -107 -256t-254 -107q-35 0 -66.5 4.5t-56 13.5t-40 15.5t-33 16t-19.5 10.5v-502h-110v1188h110v-98l226 120q27 -8 45.5 -14t58.5 -23t68.5 -36t64.5 -52t58.5 -70.5t38.5 -92t16 -117.5zM684 344q0 58 -19 106.5t-43 77t-61.5 54t-58.5 35t-51 20.5
l-228 -113v-379q1 -1 11 -7.5t18.5 -11t22 -12t28 -13t31.5 -10.5t36.5 -8t39.5 -3q111 0 192.5 77.5t81.5 186.5z" />
    <glyph glyph-name="q" unicode="q" horiz-adv-x="874" 
d="M762 -465h-111v508q-1 0 -8.5 -5.5t-14 -9.5t-19 -10.5t-24.5 -11.5t-29.5 -10.5t-35.5 -9.5t-41 -6.5t-47 -2.5q-145 0 -252.5 111.5t-107.5 273.5t107 272.5t261 110.5q20 0 39.5 -2t36.5 -6t31.5 -8t29 -11t24.5 -11.5t21.5 -11.5t16.5 -10.5t13.5 -9.5t9.5 -7l16 55
h84v-1188zM186 362q0 -121 77.5 -201.5t195.5 -80.5q99 0 192 72v415q-95 76 -192 76q-117 0 -195 -81t-78 -200z" />
    <glyph glyph-name="r" unicode="r" horiz-adv-x="501" 
d="M502 633q-2 0 -29 4t-51 4q-93 0 -199 -106v-535h-110v723h110v-105q2 2 12.5 14.5t19.5 21.5t24.5 24t31.5 25.5t36 20.5t43.5 15.5t47.5 5.5q40 0 64 -8v-104z" />
    <glyph glyph-name="s" unicode="s" horiz-adv-x="620" 
d="M549 186q0 -100 -74 -154.5t-186 -54.5q-18 0 -35.5 1.5t-33 4t-29 5t-27 7.5t-23 8t-21 8t-16.5 7.5t-15 7t-11 5.5v110q3 -1 22.5 -11t38 -18t44 -17.5t53.5 -15t53 -5.5q64 0 107.5 27.5t43.5 78.5q0 20 -10.5 38t-32.5 33.5t-38.5 25.5t-47 25t-39.5 20q-4 2 -13 7
q-40 21 -62.5 35.5t-56.5 42t-51 61t-17 73.5q0 94 69.5 149t180.5 55q112 0 200 -53v-104q-42 26 -96 44.5t-98 18.5q-67 0 -107.5 -28.5t-40.5 -71.5q0 -11 3 -21.5t9.5 -20t12.5 -17t18.5 -16t19.5 -13.5t22.5 -13t22 -11t23.5 -11t21 -10q96 -46 135 -79q82 -66 82 -153
z" />
    <glyph glyph-name="t" unicode="t" horiz-adv-x="546" 
d="M526 27q-90 -50 -172 -50q-42 0 -77.5 12.5t-66.5 40t-49 79.5t-18 124v406h-153l30 84h123v285h111v-285h266l-31 -84h-235v-410q0 -82 31 -115.5t94 -33.5q22 0 47 6.5t40.5 13t36.5 16.5t23 11v-100z" />
    <glyph glyph-name="u" unicode="u" horiz-adv-x="813" 
d="M700 0h-110v92q-85 -115 -232 -115q-109 0 -177 73.5t-68 201.5v471h110v-461q0 -86 44.5 -133t117.5 -47q124 0 205 145v496h110v-723z" />
    <glyph glyph-name="v" unicode="v" horiz-adv-x="653" 
d="M643 723l-260 -723h-113l-260 723h119l197 -578l198 578h119z" />
    <glyph glyph-name="w" unicode="w" horiz-adv-x="1089" 
d="M1079 723l-262 -723h-102l-170 487l-170 -487h-103l-262 723h117l199 -578l192 578h53l193 -578l199 578h116z" />
    <glyph glyph-name="x" unicode="x" horiz-adv-x="722" 
d="M713 0h-138l-213 285l-215 -285h-137l291 365l-285 358h138l208 -279l207 279h138l-283 -358z" />
    <glyph glyph-name="y" unicode="y" horiz-adv-x="653" 
d="M643 723l-262 -723l-164 -465h-111l164 465l-260 723h119l197 -578l198 578h119z" />
    <glyph glyph-name="z" unicode="z" horiz-adv-x="686" 
d="M635 0h-584v39l414 594h-404v90h564v-39l-414 -594h424v-90z" />
    <glyph glyph-name="braceleft" unicode="{" horiz-adv-x="587" 
d="M547 -352l-8 -76q-134 19 -223 100t-89 217q0 64 20.5 191.5t20.5 191.5q0 170 -217 207v70q217 37 217 207q0 64 -20.5 191.5t-20.5 193.5q0 136 88.5 216t223.5 101l8 -78q-96 -14 -152.5 -71.5t-56.5 -145.5q0 -65 20.5 -190t20.5 -191q0 -92 -61 -162t-150 -100v-10
q89 -30 150 -101t61 -163q0 -66 -20.5 -191t-20.5 -190q0 -87 56.5 -144.5t152.5 -72.5z" />
    <glyph glyph-name="bar" unicode="|" horiz-adv-x="520" 
d="M305 -389h-90v1843h90v-1843z" />
    <glyph glyph-name="braceright" unicode="}" horiz-adv-x="589" 
d="M539 479q-217 -36 -217 -207q0 -64 20 -191t20 -192q0 -136 -88.5 -217t-222.5 -100l-10 76q98 15 154.5 72.5t56.5 144.5q0 65 -20.5 190t-20.5 191q0 93 60.5 164t150.5 100v10q-90 29 -150.5 99.5t-60.5 162.5q0 66 20.5 191t20.5 190q0 88 -56.5 145.5t-154.5 71.5
l10 78q134 -20 222.5 -100.5t88.5 -216.5q0 -66 -20 -193.5t-20 -191.5q0 -171 217 -207v-70z" />
    <glyph glyph-name="asciitilde" unicode="~" horiz-adv-x="1191" 
d="M1120 670q-8 -129 -78.5 -218.5t-187.5 -89.5q-16 0 -33.5 2t-36.5 7.5t-34.5 10t-37 13.5t-33.5 14t-35 16.5t-30.5 15.5t-30.5 16.5t-26 13.5q-7 3 -32 16t-35.5 18t-33 15.5t-35.5 15.5t-30 11.5t-30.5 9t-24.5 2.5q-40 0 -72 -16.5t-50.5 -39.5t-31.5 -52.5t-18 -51
t-6 -39.5h-86q8 131 80 219.5t190 88.5q21 0 47 -6t45.5 -12.5t52 -21t46 -21t47.5 -24.5t38 -20q60 -30 88 -43.5t76.5 -31t75.5 -17.5q73 0 119.5 53.5t54.5 145.5h88z" />
    <glyph glyph-name="nbspace" unicode="&#xa0;" horiz-adv-x="368" 
 />
    <glyph glyph-name="exclamdown" unicode="&#xa1;" horiz-adv-x="516" 
d="M360 623l-102 -103l-102 103l102 102zM342 -471h-170l47 899h76z" />
    <glyph glyph-name="cent" unicode="&#xa2;" horiz-adv-x="829" 
d="M737 272q-118 -65 -239 -69v-203h-58v205q-150 14 -249 119t-99 260q0 153 98 259.5t250 121.5v198h58v-196q112 -4 235 -68v-106q-108 65 -235 69v-555q29 1 59 6t51 10.5t45.5 15t35.5 14.5t29 14.5t19 9.5v-105zM440 309v551q-104 -15 -168.5 -91.5t-64.5 -184.5
q0 -110 65.5 -185t167.5 -90z" />
    <glyph glyph-name="sterling" unicode="&#xa3;" horiz-adv-x="954" 
d="M883 0h-822v106h144v371h-144v98h144v181q0 94 23.5 171t61.5 126t88 83t100 48t100 14q152 0 274 -74v-112l-18 10q-17 9 -32 16.5t-42.5 19t-52 19t-56 13.5t-59.5 6q-32 0 -64.5 -8t-69 -31.5t-64 -59.5t-46 -98t-18.5 -141v-183h403v-98h-403v-371h553v-106z" />
    <glyph glyph-name="currency" unicode="&#xa4;" horiz-adv-x="1236" 
d="M154 686h-93v57h105q53 202 218 328.5t366 126.5q206 0 405 -104l-33 -109q-197 107 -374 107q-150 0 -277 -97t-176 -252h754l-17 -57h-751q-11 -60 -11 -104t6 -84h697l-17 -58h-667q43 -162 170.5 -264t288.5 -102q116 0 224 37t179 77v-120q-185 -103 -401 -103
q-140 0 -263.5 59t-210 167.5t-116.5 248.5h-99v58h89q-5 68 -5 82q0 54 9 106z" />
    <glyph glyph-name="yen" unicode="&#xa5;" horiz-adv-x="884" 
d="M864 1163l-360 -579h340v-90h-342v-156h342v-90h-342v-248h-119v248h-342v90h342v156h-342v90h340l-361 579h150l272 -471l273 471h149z" />
    <glyph glyph-name="brokenbar" unicode="&#xa6;" horiz-adv-x="520" 
d="M305 676h-90v778h90v-778zM305 -389h-90v801h90v-801z" />
    <glyph glyph-name="section" unicode="&#xa7;" horiz-adv-x="792" 
d="M721 330q0 -157 -156 -240q28 -23 43 -37.5t40.5 -47t38.5 -74t13 -91.5q0 -116 -90 -193t-227 -77q-26 0 -52.5 2.5t-51 8t-43.5 10.5t-40.5 13t-31.5 12t-28 12l-17 7v121q2 -1 19 -8.5t30 -12.5t35.5 -14t43 -15t45 -12.5t49 -9.5t46.5 -3q83 0 137 43.5t54 109.5
q0 59 -34 103t-100 88l-194 133q-178 125 -178 278q0 78 42 142t113 102q-133 101 -133 246q0 119 91.5 195.5t213.5 76.5q54 0 109 -11t75 -18.5t60 -23.5v-119q-137 61 -235 61q-82 0 -137.5 -46.5t-55.5 -110.5q0 -59 33.5 -103t97.5 -86l195 -131q92 -62 136 -130
t44 -150zM604 328q0 54 -33.5 94t-91.5 78l-160 106q-56 -15 -93.5 -61.5t-37.5 -104.5q0 -56 33 -96.5t90 -77.5l164 -106q56 18 92.5 63t36.5 105z" />
    <glyph glyph-name="dieresis" unicode="&#xa8;" horiz-adv-x="681" 
d="M590 1069l-92 -92l-92 92l92 92zM276 1069l-92 -92l-92 92l92 92z" />
    <glyph glyph-name="copyright" unicode="&#xa9;" horiz-adv-x="1353" 
d="M1292 582q0 -125 -49 -239.5t-131.5 -197t-196.5 -131.5t-239 -49t-239 49t-196.5 131.5t-131 197t-48.5 239.5t48.5 239t131 196t196.5 130.5t239 48.5q167 0 309 -82t224.5 -223.5t82.5 -308.5zM1241 582q0 156 -76.5 288.5t-206.5 209.5t-282 77t-281.5 -77
t-205.5 -209.5t-76 -288.5t75.5 -288.5t205.5 -210t282 -77.5t282 77.5t206.5 210t76.5 288.5zM965 264q-1 -1 -18.5 -10.5t-30.5 -16t-39.5 -17.5t-51.5 -17.5t-60.5 -11.5t-72.5 -5q-106 0 -199 50t-150.5 142.5t-57.5 205.5t58 205.5t151 143t198 50.5q41 0 80.5 -6
t71 -17t52.5 -19.5t42 -19.5t23 -12v-116q-57 32 -91 45q-92 39 -178 39q-111 0 -195.5 -84.5t-84.5 -208.5t82 -206.5t198 -82.5q91 0 182 37q46 18 91 43v-111z" />
    <glyph glyph-name="ordfeminine" unicode="&#xaa;" horiz-adv-x="526" 
d="M485 674h-82l-8 39q-1 -1 -9.5 -7.5t-14 -10t-16 -9.5t-21 -10t-23.5 -8.5t-28 -6.5t-31 -2q-73 0 -126.5 45.5t-53.5 118.5q0 56 25 96.5t65.5 61.5t84.5 30t91 7l47 -2v76h-276l12 86h364v-504zM387 788v156h-61q-69 0 -111.5 -32t-42.5 -83q0 -40 28 -64t72 -24
q55 0 115 47z" />
    <glyph glyph-name="guillemotleft" unicode="&#xab;" horiz-adv-x="800" 
d="M719 166h-115l-266 356l268 363h113l-258 -361zM444 166h-116l-267 356l269 363h114l-258 -361z" />
    <glyph glyph-name="registered" unicode="&#xae;" horiz-adv-x="985" 
d="M924 768q0 -178 -127 -305t-305 -127t-304.5 126.5t-126.5 305.5q0 178 126 304t305 126t305.5 -126t126.5 -304zM881 768q0 163 -114.5 279t-274.5 116t-275 -116t-115 -279q0 -164 115 -280.5t275 -116.5t274.5 116.5t114.5 280.5zM737 565q-1 -1 -7 -8.5t-13 -14.5
t-16.5 -15t-22.5 -12.5t-27 -4.5q-36 0 -59 14t-47 49l-94 144h-52v-199h-86v512h148q85 0 134.5 -41.5t49.5 -111.5q0 -48 -28.5 -85t-73.5 -57l84 -125q10 -16 18.5 -20t22.5 -4q5 0 10 2.5t7 4t7 7t6 6.5zM559 877q0 79 -104 79h-56v-172h39q51 0 86 27.5t35 65.5z" />
    <glyph glyph-name="macron" unicode="&#xaf;" horiz-adv-x="681" 
d="M651 989h-620v111h620v-111z" />
    <glyph glyph-name="macron" unicode="&#x2c9;" horiz-adv-x="681" 
d="M651 989h-620v111h620v-111z" />
    <glyph glyph-name="degree" unicode="&#xb0;" horiz-adv-x="786" 
d="M684 1102q0 -124 -84.5 -205.5t-206.5 -81.5t-206.5 81t-84.5 206q0 122 85 204.5t206 82.5t206 -82t85 -205zM596 1102q0 93 -58 154t-145 61q-86 0 -144.5 -61t-58.5 -154t58 -154t145 -61q86 0 144.5 61t58.5 154z" />
    <glyph glyph-name="twosuperior" unicode="&#xb2;" horiz-adv-x="604" 
d="M506 844h-414v35l213 231q107 115 107 190q0 54 -32.5 87.5t-86.5 33.5q-51 0 -88 -33t-41 -88h-82q4 87 65.5 144t145.5 57q92 0 151.5 -55t59.5 -146q0 -101 -123 -229l-143 -151h268v-76z" />
    <glyph glyph-name="threesuperior" unicode="&#xb3;" horiz-adv-x="567" 
d="M469 1042q0 -96 -66.5 -156.5t-160.5 -60.5q-105 0 -183 74l52 59q61 -57 125 -57q56 0 98.5 37.5t42.5 101.5q0 56 -39 87.5t-90 31.5q-24 0 -68 -14l-33 45q35 18 60 34t57 42t56.5 60.5t39.5 76.5h-280v78h377v-43q-21 -137 -135 -219q57 -15 102 -59t45 -118z" />
    <glyph glyph-name="acute" unicode="&#xb4;" horiz-adv-x="681" 
d="M485 1284l-252 -377h-36l120 377h168z" />
    <glyph glyph-name="mu" unicode="&#xb5;" horiz-adv-x="813" 
d="M223 16v-426h-110v1133h110v-461q0 -86 44.5 -133t117.5 -47q124 0 205 145v496h110v-723h-110v92q-85 -115 -232 -115q-82 0 -135 39z" />
    <glyph glyph-name="mu" unicode="&#x3bc;" horiz-adv-x="813" 
d="M223 16v-426h-110v1133h110v-461q0 -86 44.5 -133t117.5 -47q124 0 205 145v496h110v-723h-110v92q-85 -115 -232 -115q-82 0 -135 39z" />
    <glyph glyph-name="paragraph" unicode="&#xb6;" horiz-adv-x="919" 
d="M817 -410h-102v1481h-119v-219h-193l-59 57l-121 -121l121 -120l53 53h199v-721h-107v414h-90q-157 0 -268 109t-111 265t119.5 265.5t300.5 109.5h377v-1573z" />
    <glyph glyph-name="periodcentered" unicode="&#xb7;" horiz-adv-x="512" 
d="M379 586l-123 -123l-123 123l123 123z" />
    <glyph glyph-name="periodcentered" unicode="&#x2219;" horiz-adv-x="512" 
d="M379 586l-123 -123l-123 123l123 123z" />
    <glyph glyph-name="cedilla" unicode="&#xb8;" horiz-adv-x="681" 
d="M489 41l-194 -379h-102l186 379h110z" />
    <glyph glyph-name="onesuperior" unicode="&#xb9;" horiz-adv-x="380" 
d="M236 844h-91v620l91 47v-667z" />
    <glyph glyph-name="ordmasculine" unicode="&#xba;" horiz-adv-x="741" 
d="M649 928q0 -112 -80.5 -189t-197.5 -77q-116 0 -197.5 77t-81.5 189q0 113 81.5 191.5t197.5 78.5q117 0 197.5 -78t80.5 -192zM549 928q0 76 -52 128t-126 52q-73 0 -124.5 -52t-51.5 -128q0 -74 51.5 -125t124.5 -51q74 0 126 51t52 125z" />
    <glyph glyph-name="guillemotright" unicode="&#xbb;" horiz-adv-x="800" 
d="M739 524l-266 -358h-115l256 358l-256 361h113zM465 524l-268 -358h-115l258 358l-258 361h115z" />
    <glyph glyph-name="onequarter" unicode="&#xbc;" horiz-adv-x="1310" 
d="M1221 182h-140v-182h-94v182h-274l-15 33l312 426h69v-379h142v-80zM1063 1202l-850 -1202h-49l852 1202h47zM342 528h-96v611l96 45v-656zM987 262v223l-166 -223h166z" />
    <glyph glyph-name="onehalf" unicode="&#xbd;" horiz-adv-x="1316" 
d="M1186 0h-420v33l215 233q106 113 106 189q0 54 -31.5 85t-84.5 31q-49 0 -85 -31.5t-40 -86.5h-88q6 90 66.5 146t146.5 56q92 0 152.5 -55t60.5 -143q0 -101 -123 -230l-143 -147h268v-80zM1065 1202l-852 -1202h-49l852 1202h49zM342 528h-96v611l96 45v-656z" />
    <glyph glyph-name="threequarters" unicode="&#xbe;" horiz-adv-x="1351" 
d="M1262 182h-140v-182h-92v182h-274l-13 33l312 426h67v-379h140v-80zM1167 1202l-850 -1202h-47l852 1202h45zM547 725q0 -95 -68 -156t-162 -61q-104 0 -184 76l53 63q59 -59 125 -59q55 0 97.5 36.5t42.5 98.5q0 56 -38 86.5t-89 30.5q-26 0 -68 -17l-35 49
q37 20 59.5 35t55 40.5t56.5 59t40 74.5h-278v80h378v-45q-18 -123 -129 -215q144 -53 144 -176zM1030 262v223l-164 -223h164z" />
    <glyph glyph-name="questiondown" unicode="&#xbf;" horiz-adv-x="729" 
d="M573 623l-102 -103l-102 103l102 102zM627 -453q-109 -34 -197 -34q-155 0 -262 93t-107 242q0 74 32.5 141t87.5 116.5t117.5 86.5t131.5 60v176h84l18 -244l-32 -8q-55 -14 -110 -43.5t-102.5 -70t-77.5 -96.5t-30 -116q0 -103 67.5 -171t182.5 -68q100 0 197 39v-103z
" />
    <glyph glyph-name="Agrave" unicode="&#xc0;" horiz-adv-x="989" 
d="M528 1270h-102l-195 379h111zM969 0h-129l-146 420h-399l-145 -420h-130l414 1163h121zM662 518l-115 340l-51 164l-54 -164l-114 -340h334z" />
    <glyph glyph-name="Aacute" unicode="&#xc1;" horiz-adv-x="989" 
d="M762 1649l-193 -379h-102l184 379h111zM969 0h-129l-146 420h-399l-145 -420h-130l414 1163h121zM662 518l-115 340l-51 164l-54 -164l-114 -340h334z" />
    <glyph glyph-name="Acircumflex" unicode="&#xc2;" horiz-adv-x="989" 
d="M737 1270h-98l-141 272l-144 -272h-98l205 379h74zM969 0h-129l-146 420h-399l-145 -420h-130l414 1163h121zM662 518l-115 340l-51 164l-54 -164l-114 -340h334z" />
    <glyph glyph-name="Atilde" unicode="&#xc3;" horiz-adv-x="989" 
d="M786 1505q-2 -75 -45 -130.5t-116 -55.5q-47 0 -99 23t-92.5 46t-60.5 23q-28 0 -48.5 -22t-23.5 -70l-94 2q5 77 49.5 132.5t118.5 55.5q43 0 91.5 -22.5t90 -45t68.5 -22.5t47.5 21.5t21.5 64.5h92zM969 0h-129l-146 420h-399l-145 -420h-130l414 1163h121zM662 518
l-115 340l-51 164l-54 -164l-114 -340h334z" />
    <glyph glyph-name="Adieresis" unicode="&#xc4;" horiz-adv-x="989" 
d="M745 1434l-92 -93l-92 93l92 92zM434 1434l-92 -93l-92 93l92 92zM969 0h-129l-146 420h-399l-145 -420h-130l414 1163h121zM662 518l-115 340l-51 164l-54 -164l-114 -340h334z" />
    <glyph glyph-name="Aring" unicode="&#xc5;" horiz-adv-x="989" 
d="M682 1456q0 -77 -54 -131.5t-130 -54.5q-78 0 -132.5 53.5t-54.5 130.5q0 78 54.5 133t132.5 55q76 0 130 -54.5t54 -131.5zM618 1456q0 51 -34.5 87t-85.5 36q-50 0 -85.5 -36t-35.5 -87t35.5 -87t85.5 -36q51 0 85.5 36t34.5 87zM969 0h-129l-146 420h-399l-145 -420
h-130l414 1163h121zM662 518l-115 340l-51 164l-54 -164l-114 -340h334z" />
    <glyph glyph-name="AE" unicode="&#xc6;" horiz-adv-x="1480" 
d="M1395 0h-680v514h-305l-287 -514h-123l659 1163h709v-108h-532v-434h409v-107h-409v-405h559v-109zM715 621v450l-246 -450h246z" />
    <glyph glyph-name="Ccedilla" unicode="&#xc7;" horiz-adv-x="1191" 
d="M702 -35l-153 -303h-103l152 311q-105 18 -198 70.5t-162.5 130t-110.5 183t-41 223.5q0 131 52.5 247.5t138 197t198 127t230.5 46.5q86 0 174.5 -20t136.5 -39t86 -39l-2 -125q-35 19 -46.5 25t-60.5 28t-84.5 32.5t-92 21t-109.5 10.5q-96 0 -186 -38.5t-158.5 -105
t-110 -162.5t-41.5 -204q0 -107 39.5 -202t107 -162.5t158.5 -106.5t191 -39q91 0 181.5 24.5t128.5 43.5t89 48v-120q-87 -45 -127 -60q-123 -43 -274 -43h-3z" />
    <glyph glyph-name="Egrave" unicode="&#xc8;" horiz-adv-x="917" 
d="M555 1270h-102l-193 379h111zM831 0h-679v1163h653v-108h-533v-414h410v-106h-410v-426h559v-109z" />
    <glyph glyph-name="Eacute" unicode="&#xc9;" horiz-adv-x="917" 
d="M698 1649l-194 -379h-101l185 379h110zM831 0h-679v1163h653v-108h-533v-414h410v-106h-410v-426h559v-109z" />
    <glyph glyph-name="Ecircumflex" unicode="&#xca;" horiz-adv-x="917" 
d="M719 1270h-98l-142 272l-143 -272h-98l204 379h72zM831 0h-679v1163h653v-108h-533v-414h410v-106h-410v-426h559v-109z" />
    <glyph glyph-name="Edieresis" unicode="&#xcb;" horiz-adv-x="917" 
d="M739 1434l-92 -93l-92 93l92 92zM426 1434l-92 -93l-92 93l92 92zM831 0h-679v1163h653v-108h-533v-414h410v-106h-410v-426h559v-109z" />
    <glyph glyph-name="Igrave" unicode="&#xcc;" horiz-adv-x="444" 
d="M262 1270h-102l-193 379h111zM283 0h-121v1163h121v-1163z" />
    <glyph glyph-name="Iacute" unicode="&#xcd;" horiz-adv-x="444" 
d="M477 1649l-192 -379h-103l185 379h110zM283 0h-121v1163h121v-1163z" />
    <glyph glyph-name="Icircumflex" unicode="&#xce;" horiz-adv-x="444" 
d="M465 1270h-98l-144 272l-143 -272h-100l204 379h74zM283 0h-121v1163h121v-1163z" />
    <glyph glyph-name="Idieresis" unicode="&#xcf;" horiz-adv-x="444" 
d="M471 1434l-92 -93l-92 93l92 92zM158 1434l-92 -93l-93 93l93 92zM285 0h-123v1163h123v-1163z" />
    <glyph glyph-name="Eth" unicode="&#xd0;" horiz-adv-x="1243" 
d="M1157 578q0 -138 -53.5 -249.5t-144 -182t-205 -108.5t-240.5 -38h-362v541h-134v77h134v545h352q127 0 243.5 -39.5t208 -111.5t146.5 -185t55 -249zM1032 578q0 143 -72 253.5t-189.5 167t-260.5 56.5h-238v-437h349v-77h-349v-428h248q143 0 258 53.5t184.5 160.5
t69.5 251z" />
    <glyph glyph-name="Ntilde" unicode="&#xd1;" horiz-adv-x="1255" 
d="M918 1505q-2 -75 -45.5 -130.5t-116.5 -55.5q-48 0 -100 23t-92 46t-60 23q-66 0 -74 -92l-92 2q5 77 49.5 132.5t118.5 55.5q43 0 91 -22.5t89.5 -45t69.5 -22.5q27 0 47.5 21.5t21.5 64.5h93zM1104 0h-121v242l-711 710v-952h-120v1163h73l758 -757v757h121v-1163z" />
    <glyph glyph-name="Ograve" unicode="&#xd2;" horiz-adv-x="1429" 
d="M764 1270h-102l-193 379h111zM1343 582q0 -126 -48 -239.5t-130.5 -196.5t-200 -132t-249.5 -49q-176 0 -321 83t-226.5 224.5t-81.5 309.5q0 126 48 239.5t131 196.5t200.5 131.5t249.5 48.5t249.5 -48.5t200 -131.5t130.5 -196.5t48 -239.5zM1219 582q0 139 -65 256
t-181 185.5t-258 68.5t-258 -68.5t-181 -185.5t-65 -256t65 -256t181 -185.5t258 -68.5t258 68.5t181 185.5t65 256z" />
    <glyph glyph-name="Oacute" unicode="&#xd3;" horiz-adv-x="1429" 
d="M961 1649l-193 -379h-102l184 379h111zM1343 582q0 -126 -48 -239.5t-130.5 -196.5t-200 -132t-249.5 -49q-176 0 -321 83t-226.5 224.5t-81.5 309.5q0 126 48 239.5t131 196.5t200.5 131.5t249.5 48.5t249.5 -48.5t200 -131.5t130.5 -196.5t48 -239.5zM1219 582
q0 139 -65 256t-181 185.5t-258 68.5t-258 -68.5t-181 -185.5t-65 -256t65 -256t181 -185.5t258 -68.5t258 68.5t181 185.5t65 256z" />
    <glyph glyph-name="Ocircumflex" unicode="&#xd4;" horiz-adv-x="1429" 
d="M956 1270h-98l-143 272l-144 -272h-98l205 379h74zM1343 582q0 -126 -48 -239.5t-130.5 -196.5t-200 -132t-249.5 -49q-176 0 -321 83t-226.5 224.5t-81.5 309.5q0 126 48 239.5t131 196.5t200.5 131.5t249.5 48.5t249.5 -48.5t200 -131.5t130.5 -196.5t48 -239.5z
M1219 582q0 139 -65 256t-181 185.5t-258 68.5t-258 -68.5t-181 -185.5t-65 -256t65 -256t181 -185.5t258 -68.5t258 68.5t181 185.5t65 256z" />
    <glyph glyph-name="Otilde" unicode="&#xd5;" horiz-adv-x="1429" 
d="M1004 1505q0 -75 -43.5 -130.5t-116.5 -55.5q-48 0 -100.5 23t-93 46t-60.5 23q-28 0 -48.5 -22t-23.5 -70l-94 2q5 77 49.5 132.5t118.5 55.5q43 0 91.5 -22.5t90 -45t68.5 -22.5q29 0 48.5 21.5t20.5 64.5h93zM1343 582q0 -126 -48 -239.5t-130.5 -196.5t-200 -132
t-249.5 -49q-176 0 -321 83t-226.5 224.5t-81.5 309.5q0 126 48 239.5t131 196.5t200.5 131.5t249.5 48.5t249.5 -48.5t200 -131.5t130.5 -196.5t48 -239.5zM1219 582q0 139 -65 256t-181 185.5t-258 68.5t-258 -68.5t-181 -185.5t-65 -256t65 -256t181 -185.5t258 -68.5
t258 68.5t181 185.5t65 256z" />
    <glyph glyph-name="Odieresis" unicode="&#xd6;" horiz-adv-x="1429" 
d="M963 1434l-93 -93l-92 93l92 92zM651 1434l-92 -93l-92 93l92 92zM1343 582q0 -126 -48 -239.5t-130.5 -196.5t-200 -132t-249.5 -49q-176 0 -321 83t-226.5 224.5t-81.5 309.5q0 126 48 239.5t131 196.5t200.5 131.5t249.5 48.5t249.5 -48.5t200 -131.5t130.5 -196.5
t48 -239.5zM1219 582q0 139 -65 256t-181 185.5t-258 68.5t-258 -68.5t-181 -185.5t-65 -256t65 -256t181 -185.5t258 -68.5t258 68.5t181 185.5t65 256z" />
    <glyph glyph-name="multiply" unicode="&#xd7;" horiz-adv-x="1280" 
d="M1128 942l-421 -420l419 -418l-69 -69l-416 420l-420 -420l-69 69l419 418l-419 420l67 70l420 -422l420 422z" />
    <glyph glyph-name="Oslash" unicode="&#xd8;" horiz-adv-x="1429" 
d="M1343 582q0 -126 -48 -239.5t-130.5 -196.5t-200 -132t-249.5 -49q-225 0 -391 131l-174 -188l-62 59l172 185q-83 85 -128.5 195.5t-45.5 234.5q0 126 48 239.5t131 196.5t200.5 131.5t249.5 48.5q224 0 393 -131l172 188l61 -59l-170 -184q81 -87 126.5 -197.5
t45.5 -232.5zM1219 582q0 199 -129 344l-689 -746q133 -108 314 -108q142 0 258 68.5t181 185.5t65 256zM1028 983q-135 109 -313 109q-142 0 -258 -68.5t-181 -185.5t-65 -256q0 -199 129 -344z" />
    <glyph glyph-name="Ugrave" unicode="&#xd9;" horiz-adv-x="1169" 
d="M631 1270h-103l-192 379h110zM1018 0h-121v176q-1 -2 -5 -7q-145 -204 -370 -204q-171 0 -276 116t-105 300v782h123v-782q0 -139 75 -225t200 -86q71 0 131 25t105.5 73.5t65.5 76.5t48 76q6 9 8 13v829h121v-1163z" />
    <glyph glyph-name="Uacute" unicode="&#xda;" horiz-adv-x="1169" 
d="M823 1649l-192 -379h-103l185 379h110zM1018 0h-121v176q-1 -2 -5 -7q-145 -204 -370 -204q-171 0 -276 116t-105 300v782h123v-782q0 -139 75 -225t200 -86q71 0 131 25t105.5 73.5t65.5 76.5t48 76q6 9 8 13v829h121v-1163z" />
    <glyph glyph-name="Ucircumflex" unicode="&#xdb;" horiz-adv-x="1169" 
d="M819 1270h-98l-141 272l-144 -272h-98l205 379h73zM1018 0h-121v176q-1 -2 -5 -7q-145 -204 -370 -204q-171 0 -276 116t-105 300v782h123v-782q0 -139 75 -225t200 -86q71 0 131 25t105.5 73.5t65.5 76.5t48 76q6 9 8 13v829h121v-1163z" />
    <glyph glyph-name="Udieresis" unicode="&#xdc;" horiz-adv-x="1169" 
d="M827 1434l-92 -93l-92 93l92 92zM516 1434l-92 -93l-92 93l92 92zM1018 0h-121v176q-1 -2 -5 -7q-145 -204 -370 -204q-171 0 -276 116t-105 300v782h123v-782q0 -139 75 -225t200 -86q71 0 131 25t105.5 73.5t65.5 76.5t48 76q6 9 8 13v829h121v-1163z" />
    <glyph glyph-name="Yacute" unicode="&#xdd;" horiz-adv-x="917" 
d="M709 1649l-193 -379h-102l184 379h111zM897 1163l-377 -674v-489h-121v489l-379 674h138l301 -569l301 569h137z" />
    <glyph glyph-name="Thorn" unicode="&#xde;" horiz-adv-x="876" 
d="M825 600q0 -83 -34 -148.5t-89.5 -104.5t-121.5 -59t-136 -20h-172v-268h-120v1163h120v-235h168q182 0 283.5 -88t101.5 -240zM700 602q0 219 -268 219h-160v-454h152q41 0 79 7.5t74.5 25t63 43.5t43 67t16.5 92z" />
    <glyph glyph-name="germandbls" unicode="&#xdf;" horiz-adv-x="897" 
d="M825 297q0 -134 -92 -227t-225 -93q-64 0 -117 11q-27 4 -63 16l8 107q34 -14 47 -17q47 -14 113 -14q89 0 152 64t63 153q0 58 -27.5 108.5t-68 83t-91.5 58t-91.5 37.5t-74.5 18l-2 62q10 0 50 8q190 48 190 227q0 78 -55 134.5t-131 56.5q-85 0 -142 -60.5t-57 -173.5
v-856h-109v862q0 142 86 233t222 91q131 0 214 -83.5t83 -203.5q0 -55 -21 -103.5t-52.5 -79t-60.5 -49t-53 -26.5q20 -6 43 -14.5t61 -27t70.5 -45.5t63.5 -62.5t49 -86t18 -108.5z" />
    <glyph glyph-name="agrave" unicode="&#xe0;" horiz-adv-x="722" 
d="M444 803h-102l-195 379h111zM610 0h-92l-10 61q-1 -1 -12 -10t-18.5 -14l-22.5 -15t-30 -16t-35.5 -12.5t-45 -10t-51.5 -3.5q-96 0 -164 63.5t-68 167.5q0 116 81 183.5t225 82.5l135 15v135h-396l21 96h483v-723zM502 160v248l-119 -15q-102 -12 -156.5 -57t-54.5 -119
q0 -63 43 -105t109 -42q32 0 61.5 9t54.5 27.5t35 27.5t27 26z" />
    <glyph glyph-name="aacute" unicode="&#xe1;" horiz-adv-x="722" 
d="M584 1182l-195 -379h-102l186 379h111zM610 0h-92l-10 61q-1 -1 -12 -10t-18.5 -14l-22.5 -15t-30 -16t-35.5 -12.5t-45 -10t-51.5 -3.5q-96 0 -164 63.5t-68 167.5q0 116 81 183.5t225 82.5l135 15v135h-396l21 96h483v-723zM502 160v248l-119 -15q-102 -12 -156.5 -57
t-54.5 -119q0 -63 43 -105t109 -42q88 0 178 90z" />
    <glyph glyph-name="acircumflex" unicode="&#xe2;" horiz-adv-x="722" 
d="M608 803h-98l-141 272l-144 -272h-98l205 379h71zM610 0h-92l-10 61q-1 -1 -12 -10t-18.5 -14l-22.5 -15t-30 -16t-35.5 -12.5t-45 -10t-51.5 -3.5q-96 0 -164 63.5t-68 167.5q0 116 81 183.5t225 82.5l135 15v135h-396l21 96h483v-723zM502 160v248l-119 -15
q-102 -12 -156.5 -57t-54.5 -119q0 -63 43 -105t109 -42q88 0 178 90z" />
    <glyph glyph-name="atilde" unicode="&#xe3;" horiz-adv-x="722" 
d="M651 1038q-2 -75 -45.5 -130.5t-116.5 -55.5q-47 0 -98.5 23t-92 46t-60.5 23q-66 0 -74 -92l-92 2q5 77 49.5 132.5t118.5 55.5q43 0 90.5 -22.5t89 -45t69.5 -22.5t48.5 21.5t21.5 64.5h92zM610 0h-92l-10 61q-1 -1 -12 -10t-18.5 -14l-22.5 -15t-30 -16t-35.5 -12.5
t-45 -10t-51.5 -3.5q-96 0 -164 63.5t-68 167.5q0 116 81 183.5t225 82.5l135 15v135h-396l21 96h483v-723zM502 160v248l-119 -15q-102 -12 -156.5 -57t-54.5 -119q0 -63 43 -105t109 -42q88 0 178 90z" />
    <glyph glyph-name="adieresis" unicode="&#xe4;" horiz-adv-x="722" 
d="M606 967l-92 -93l-92 93l92 92zM293 967l-92 -93l-92 93l92 92zM610 0h-92l-10 61q-1 -1 -12 -10t-18.5 -14l-22.5 -15t-30 -16t-35.5 -12.5t-45 -10t-51.5 -3.5q-96 0 -164 63.5t-68 167.5q0 116 81 183.5t225 82.5l135 15v135h-396l21 96h483v-723zM502 160v248
l-119 -15q-102 -12 -156.5 -57t-54.5 -119q0 -63 43 -105t109 -42q88 0 178 90z" />
    <glyph glyph-name="aring" unicode="&#xe5;" horiz-adv-x="722" 
d="M545 989q0 -77 -54.5 -131.5t-130.5 -54.5q-78 0 -132 53.5t-54 130.5q0 78 54 133.5t132 55.5q76 0 130.5 -55t54.5 -132zM610 0h-92l-10 61q-1 -1 -12 -10t-18.5 -14l-22.5 -15t-30 -16t-35.5 -12.5t-45 -10t-51.5 -3.5q-96 0 -164 63.5t-68 167.5q0 116 81 183.5
t225 82.5l135 15v135h-396l21 96h483v-723zM481 989q0 51 -35 87t-86 36q-50 0 -85 -36t-35 -87t35 -87t85 -36q51 0 86 36t35 87zM502 160v248l-119 -15q-102 -12 -156.5 -57t-54.5 -119q0 -63 43 -105t109 -42q88 0 178 90z" />
    <glyph glyph-name="ae" unicode="&#xe6;" horiz-adv-x="1251" 
d="M1165 350h-573q5 -90 47 -153.5t102 -92t129 -28.5q30 0 59 3.5t54 10.5t45.5 13.5t41 16t31.5 15.5t26.5 15t17.5 10v-103q-133 -80 -287 -80q-162 0 -276 133q-3 3 -4 5l-5 -5q-126 -130 -280 -130q-96 0 -164 63.5t-68 167.5q0 115 82 183t224 83l135 15v137h-396
l21 94h471v-92q102 114 262 114q128 0 216.5 -94.5t88.5 -247.5v-53zM1059 436q0 87 -58 149t-151 62q-59 0 -106 -20.5t-75.5 -54.5t-45 -67t-25.5 -69h461zM502 160v248l-119 -15q-102 -12 -156.5 -57t-54.5 -119q0 -63 43 -105t109 -42q32 0 61.5 9t54.5 27.5t35 27.5
t27 26z" />
    <glyph glyph-name="ccedilla" unicode="&#xe7;" horiz-adv-x="788" 
d="M717 51q-110 -70 -240 -74l-160 -315h-102l158 324q-132 28 -216.5 129t-84.5 243q0 165 112 275t277 110q118 0 252 -69v-107q-1 0 -13.5 7t-19.5 10.5t-24 11t-30.5 12.5t-34.5 11.5t-39.5 10.5t-42 6.5t-46.5 2.5q-122 0 -199.5 -80.5t-77.5 -200.5q0 -122 79.5 -199
t197.5 -77q21 0 42 2t40.5 6t36.5 8t33.5 10t29 11t26 11.5t20 9.5t16 8.5t10.5 5.5v-103z" />
    <glyph glyph-name="egrave" unicode="&#xe8;" horiz-adv-x="841" 
d="M496 803h-103l-194 379h110zM756 350h-574q7 -131 88 -202.5t191 -71.5q42 0 82 7t72 19t53.5 22t42.5 22t24 14v-103q-133 -80 -286 -80q-99 0 -184 44.5t-139 133.5t-54 205q0 171 112.5 278t266.5 107q128 0 216.5 -94.5t88.5 -247.5v-53zM649 436q0 87 -58 149
t-151 62q-59 0 -106 -20.5t-75.5 -54.5t-45 -67t-25.5 -69h461z" />
    <glyph glyph-name="eacute" unicode="&#xe9;" horiz-adv-x="841" 
d="M690 1182l-194 -379h-103l187 379h110zM756 350h-574q7 -131 88 -202.5t191 -71.5q42 0 82 7t72 19t53.5 22t42.5 22t24 14v-103q-133 -80 -286 -80q-99 0 -184 44.5t-139 133.5t-54 205q0 171 112.5 278t266.5 107q128 0 216.5 -94.5t88.5 -247.5v-53zM649 436
q0 87 -58 149t-151 62q-59 0 -106 -20.5t-75.5 -54.5t-45 -67t-25.5 -69h461z" />
    <glyph glyph-name="ecircumflex" unicode="&#xea;" horiz-adv-x="841" 
d="M686 803h-98l-144 272l-143 -272h-98l205 379h73zM756 350h-574q7 -131 88 -202.5t191 -71.5q42 0 82 7t72 19t53.5 22t42.5 22t24 14v-103q-133 -80 -286 -80q-99 0 -184 44.5t-139 133.5t-54 205q0 171 112.5 278t266.5 107q128 0 216.5 -94.5t88.5 -247.5v-53z
M649 436q0 87 -58 149t-151 62q-59 0 -106 -20.5t-75.5 -54.5t-45 -67t-25.5 -69h461z" />
    <glyph glyph-name="edieresis" unicode="&#xeb;" horiz-adv-x="841" 
d="M694 967l-92 -93l-94 93l92 92zM381 967l-92 -93l-94 93l92 92zM756 350h-574q7 -131 88 -202.5t191 -71.5q42 0 82 7t72 19t53.5 22t42.5 22t24 14v-103q-133 -80 -286 -80q-99 0 -184 44.5t-139 133.5t-54 205q0 171 112.5 278t266.5 107q128 0 216.5 -94.5
t88.5 -247.5v-53zM649 436q0 87 -58 149t-151 62q-59 0 -106 -20.5t-75.5 -54.5t-45 -67t-25.5 -69h461z" />
    <glyph glyph-name="igrave" unicode="&#xec;" horiz-adv-x="376" 
d="M238 803h-103l-192 379h110zM244 0h-111v723h111v-723z" />
    <glyph glyph-name="iacute" unicode="&#xed;" horiz-adv-x="376" 
d="M432 1182l-192 -379h-103l185 379h110zM244 0h-111v723h111v-723z" />
    <glyph glyph-name="icircumflex" unicode="&#xee;" horiz-adv-x="376" 
d="M428 803h-98l-142 272l-143 -272h-98l205 379h71zM244 0h-111v723h111v-723z" />
    <glyph glyph-name="idieresis" unicode="&#xef;" horiz-adv-x="376" 
d="M436 967l-92 -93l-92 93l92 92zM123 967l-92 -93l-92 93l92 92zM244 0h-111v723h111v-723z" />
    <glyph glyph-name="eth" unicode="&#xf0;" horiz-adv-x="923" 
d="M852 487q0 -245 -112 -377.5t-287 -132.5q-159 0 -270 110.5t-111 272.5t111 273.5t270 111.5q44 0 85.5 -12t67 -24.5t55.5 -38t38 -34t28 -30.5q-37 242 -192 443l-205 -136l-35 52l199 131q-35 42 -134 137l64 63q89 -70 156 -145l202 133l35 -51l-196 -129
q231 -290 231 -617zM725 360q0 118 -78.5 200.5t-191.5 82.5q-111 0 -191 -82.5t-80 -200.5q0 -117 80 -198.5t191 -81.5q113 0 191.5 81t78.5 199z" />
    <glyph glyph-name="ntilde" unicode="&#xf1;" horiz-adv-x="823" 
d="M707 1038q-2 -75 -45.5 -130.5t-116.5 -55.5q-48 0 -100 23t-92 46t-60 23q-66 0 -74 -92l-92 2q5 77 49.5 132.5t118.5 55.5q43 0 91 -22.5t89.5 -45t69.5 -22.5q27 0 47.5 21.5t21.5 64.5h93zM711 0h-111v487q0 71 -38 113.5t-105 42.5q-124 0 -231 -137q-2 -3 -3 -4
v-502h-110v723h110v-102q39 44 68 65q81 59 182 59q103 0 170.5 -66t67.5 -183v-496z" />
    <glyph glyph-name="ograve" unicode="&#xf2;" horiz-adv-x="905" 
d="M504 803h-103l-194 379h110zM834 360q0 -162 -111 -272.5t-270 -110.5t-270 110.5t-111 272.5t111 273.5t270 111.5t270 -111.5t111 -273.5zM721 360q0 120 -77.5 201.5t-190.5 81.5t-191 -81.5t-78 -201.5q0 -119 78 -199.5t191 -80.5t190.5 80.5t77.5 199.5z" />
    <glyph glyph-name="oacute" unicode="&#xf3;" horiz-adv-x="905" 
d="M698 1182l-194 -379h-103l187 379h110zM834 360q0 -162 -111 -272.5t-270 -110.5t-270 110.5t-111 272.5t111 273.5t270 111.5t270 -111.5t111 -273.5zM721 360q0 120 -77.5 201.5t-190.5 81.5t-191 -81.5t-78 -201.5q0 -119 78 -199.5t191 -80.5t190.5 80.5t77.5 199.5z
" />
    <glyph glyph-name="ocircumflex" unicode="&#xf4;" horiz-adv-x="905" 
d="M694 803h-98l-143 272l-142 -272h-98l203 379h73zM834 360q0 -162 -111 -272.5t-270 -110.5t-270 110.5t-111 272.5t111 273.5t270 111.5t270 -111.5t111 -273.5zM721 360q0 120 -77.5 201.5t-190.5 81.5t-191 -81.5t-78 -201.5q0 -119 78 -199.5t191 -80.5t190.5 80.5
t77.5 199.5z" />
    <glyph glyph-name="otilde" unicode="&#xf5;" horiz-adv-x="905" 
d="M743 1038q-2 -75 -45 -130.5t-116 -55.5q-48 0 -100.5 23t-93 46t-60.5 23q-28 0 -48.5 -22t-23.5 -70l-92 2q5 77 49.5 132.5t118.5 55.5q43 0 90.5 -22.5t89 -45t68.5 -22.5q29 0 48.5 21.5t20.5 64.5h94zM834 360q0 -162 -111 -272.5t-270 -110.5t-270 110.5
t-111 272.5t111 273.5t270 111.5t270 -111.5t111 -273.5zM721 360q0 120 -77.5 201.5t-190.5 81.5t-191 -81.5t-78 -201.5q0 -119 78 -199.5t191 -80.5t190.5 80.5t77.5 199.5z" />
    <glyph glyph-name="odieresis" unicode="&#xf6;" horiz-adv-x="905" 
d="M700 967l-92 -93l-92 93l92 92zM389 967l-92 -93l-92 93l92 92zM834 360q0 -162 -111 -272.5t-270 -110.5t-270 110.5t-111 272.5t111 273.5t270 111.5t270 -111.5t111 -273.5zM721 360q0 120 -77.5 201.5t-190.5 81.5t-191 -81.5t-78 -201.5q0 -119 78 -199.5t191 -80.5
t190.5 80.5t77.5 199.5z" />
    <glyph glyph-name="divide" unicode="&#xf7;" horiz-adv-x="1054" 
d="M952 473h-850v98h850v-98zM618 848l-92 -92l-94 92l92 92zM618 195l-92 -93l-94 93l92 92z" />
    <glyph glyph-name="oslash" unicode="&#xf8;" horiz-adv-x="905" 
d="M653 549l-364 -414q71 -55 164 -55q113 0 190.5 80.5t77.5 199.5q0 112 -68 189zM252 172l362 414q-69 57 -161 57q-113 0 -191 -81.5t-78 -201.5q0 -111 68 -188zM180 90q-108 111 -108 270q0 162 111 273.5t270 111.5q131 0 233 -79l129 149l39 -37l-129 -147
q109 -112 109 -271q0 -162 -111 -272.5t-270 -110.5q-129 0 -234 78l-129 -147l-39 37z" />
    <glyph glyph-name="ugrave" unicode="&#xf9;" horiz-adv-x="813" 
d="M463 803h-103l-194 379h110zM700 0h-110v92q-85 -115 -232 -115q-109 0 -177 73.5t-68 201.5v471h110v-461q0 -86 44.5 -133t117.5 -47q124 0 205 145v496h110v-723z" />
    <glyph glyph-name="uacute" unicode="&#xfa;" horiz-adv-x="813" 
d="M647 1182l-194 -379h-101l185 379h110zM700 0h-110v92q-85 -115 -232 -115q-109 0 -177 73.5t-68 201.5v471h110v-461q0 -86 44.5 -133t117.5 -47q124 0 205 145v496h110v-723z" />
    <glyph glyph-name="ucircumflex" unicode="&#xfb;" horiz-adv-x="813" 
d="M647 803h-98l-141 272l-144 -272h-98l205 379h71zM700 0h-110v92q-85 -115 -232 -115q-109 0 -177 73.5t-68 201.5v471h110v-461q0 -86 44.5 -133t117.5 -47q124 0 205 145v496h110v-723z" />
    <glyph glyph-name="udieresis" unicode="&#xfc;" horiz-adv-x="813" 
d="M655 967l-92 -93l-92 93l92 92zM342 967l-92 -93l-92 93l92 92zM700 0h-110v92q-85 -115 -232 -115q-109 0 -177 73.5t-68 201.5v471h110v-461q0 -86 44.5 -133t117.5 -47q124 0 205 145v496h110v-723z" />
    <glyph glyph-name="yacute" unicode="&#xfd;" horiz-adv-x="653" 
d="M578 1182l-195 -379h-102l186 379h111zM643 723l-262 -723l-164 -465h-111l164 465l-260 723h119l197 -578l198 578h119z" />
    <glyph glyph-name="thorn" unicode="&#xfe;" horiz-adv-x="870" 
d="M799 340q0 -149 -107 -256t-254 -107q-35 0 -66.5 4.5t-56 13.5t-40 15.5t-33 16t-19.5 10.5v-502h-110v1628h110v-538l226 120q27 -8 45.5 -14t58.5 -23t68.5 -36t64.5 -52t58.5 -70.5t38.5 -92t16 -117.5zM684 344q0 58 -19 106.5t-43 77t-61.5 54t-58.5 35t-51 20.5
l-228 -113v-379q1 -1 11 -7.5t18.5 -11t22 -12t28 -13t31.5 -10.5t36.5 -8t39.5 -3q111 0 192.5 77.5t81.5 186.5z" />
    <glyph glyph-name="ydieresis" unicode="&#xff;" horiz-adv-x="653" 
d="M573 967l-92 -93l-92 93l92 92zM260 967l-92 -93l-92 93l92 92zM643 723l-262 -723l-164 -465h-111l164 465l-260 723h119l197 -578l198 578h119z" />
    <glyph glyph-name="dotlessi" unicode="&#x131;" horiz-adv-x="376" 
d="M244 0h-111v723h111v-723z" />
    <glyph glyph-name="Lslash" unicode="&#x141;" horiz-adv-x="884" 
d="M864 0h-712v365l-134 -127v102l134 127v696h120v-579l351 334v-103l-351 -334v-372h592v-109z" />
    <glyph glyph-name="lslash" unicode="&#x142;" horiz-adv-x="454" 
d="M403 104v-94q-66 -33 -124 -33q-74 0 -120 50t-46 143v305l-113 -147v100l113 147v588h110v-442l180 240v-101l-180 -239v-445q0 -49 24 -73.5t58 -24.5q46 0 98 26z" />
    <glyph glyph-name="OE" unicode="&#x152;" horiz-adv-x="1984" 
d="M1898 0h-679v240q-80 -127 -212 -201t-292 -74q-177 0 -322 83t-226 224.5t-81 309.5t81 309t226 224t322 83q160 0 292 -73.5t212 -200.5v239h653v-108h-533v-414h410v-106h-410v-426h559v-109zM1219 582q0 139 -65 256t-181 185.5t-258 68.5t-258 -68.5t-181 -185.5
t-65 -256t65 -256t181 -185.5t258 -68.5t258 68.5t181 185.5t65 256z" />
    <glyph glyph-name="oe" unicode="&#x153;" horiz-adv-x="1488" 
d="M774 557q44 88 134 138t190 50q128 0 216.5 -94.5t88.5 -247.5v-53h-574q7 -131 88 -202.5t191 -71.5q42 0 82 7t72 19t53.5 22t42.5 22t24 14v-103q-133 -80 -286 -80q-100 0 -189 49.5t-133 137.5q-47 -83 -134 -135t-187 -52q-159 0 -270 110.5t-111 272.5t111 273.5
t270 111.5q101 0 187.5 -52t133.5 -136zM1296 436q0 87 -58 149t-151 62q-59 0 -106 -20.5t-75 -54.5t-44.5 -67t-25.5 -69h460zM721 360q0 120 -77.5 201.5t-190.5 81.5t-191 -81.5t-78 -201.5q0 -119 78 -199.5t191 -80.5t190.5 80.5t77.5 199.5z" />
    <glyph glyph-name="Scaron" unicode="&#x160;" horiz-adv-x="849" 
d="M655 1649l-204 -377h-72l-205 377h98l142 -271l143 271h98zM764 272q0 -139 -102 -222t-263 -83q-158 0 -313 84v133q178 -108 313 -108q104 0 173 52t69 140q0 107 -168 217l-178 117q-39 25 -68.5 50t-61 61t-48.5 82t-17 98q0 144 93 223.5t237 79.5q133 0 266 -68
v-122q-143 84 -266 84q-95 0 -153 -52.5t-58 -134.5q0 -64 42.5 -111t119.5 -98l170 -112q33 -22 56 -39t55.5 -48t52.5 -61t34.5 -73t14.5 -89z" />
    <glyph glyph-name="scaron" unicode="&#x161;" horiz-adv-x="620" 
d="M553 1182l-205 -377h-72l-204 377h98l143 -271l142 271h98zM549 186q0 -100 -74 -154.5t-186 -54.5q-18 0 -35.5 1.5t-33 4t-29 5t-27 7.5t-23 8t-21 8t-16.5 7.5t-15 7t-11 5.5v110q2 -1 22.5 -11t38.5 -17.5t44 -17t53.5 -14.5t52.5 -5q62 0 105.5 26.5t43.5 77.5
q0 20 -10.5 37.5t-31.5 33t-38 25t-46.5 23.5t-39.5 20q-97 53 -136 89q-64 60 -64 133q0 94 69.5 149t180.5 55q112 0 200 -53v-104q-41 26 -95.5 43.5t-98.5 17.5q-65 0 -105.5 -28t-40.5 -70q0 -11 3 -21.5t9.5 -20t12.5 -17t18.5 -16t19.5 -13.5t22.5 -13t22 -11
t23.5 -11t21 -10q97 -47 138 -82q77 -65 77 -150z" />
    <glyph glyph-name="Ydieresis" unicode="&#x178;" horiz-adv-x="917" 
d="M709 1434l-93 -93l-92 93l92 92zM395 1434l-92 -93l-92 93l92 92zM897 1163l-377 -674v-489h-121v489l-379 674h138l301 -569l301 569h137z" />
    <glyph glyph-name="Zcaron" unicode="&#x17d;" horiz-adv-x="1005" 
d="M750 1649l-205 -377h-74l-205 377h99l143 -271l143 271h99zM965 0h-924v47l723 1014h-694v102h880v-51l-723 -1010h738v-102z" />
    <glyph glyph-name="zcaron" unicode="&#x17e;" horiz-adv-x="686" 
d="M584 1182l-205 -377h-72l-205 377h99l143 -271l141 271h99zM635 0h-584v39l414 594h-404v90h564v-39l-414 -594h424v-90z" />
    <glyph glyph-name="florin" unicode="&#x192;" horiz-adv-x="827" 
d="M848 1120l-64 -63q-43 43 -104 43q-58 0 -103 -40t-57 -110l-39 -227h195v-84h-211l-117 -670q-33 -186 -143.5 -288.5t-263.5 -102.5q-175 0 -320 129l64 64q109 -99 254 -99q109 0 191.5 77.5t109.5 227.5l118 662h-153v84h168l41 223q22 120 93 186t163 66
q106 0 178 -78z" />
    <glyph glyph-name="circumflex" unicode="&#x2c6;" horiz-adv-x="681" 
d="M582 905h-99l-141 273l-143 -273h-99l205 379h72z" />
    <glyph glyph-name="caron" unicode="&#x2c7;" horiz-adv-x="681" 
d="M582 1284l-205 -377h-72l-205 377h99l143 -270l141 270h99z" />
    <glyph glyph-name="breve" unicode="&#x2d8;" horiz-adv-x="681" 
d="M610 1212q-1 -89 -41 -156.5t-100 -99.5t-127 -32q-109 0 -189.5 80.5t-80.5 207.5h88q0 -89 54.5 -141.5t127.5 -52.5q89 0 128 53t50 141h90z" />
    <glyph glyph-name="dotaccent" unicode="&#x2d9;" horiz-adv-x="681" 
d="M444 1069l-102 -102l-104 102l102 102z" />
    <glyph glyph-name="ring" unicode="&#x2da;" horiz-adv-x="681" 
d="M526 1092q0 -77 -54 -132t-130 -55q-78 0 -132 54t-54 131q0 78 54 133t132 55q76 0 130 -54.5t54 -131.5zM463 1092q0 51 -35 86.5t-86 35.5t-86 -35.5t-35 -86.5t35 -87t86 -36t86 36t35 87z" />
    <glyph glyph-name="ogonek" unicode="&#x2db;" horiz-adv-x="681" 
d="M555 -291q-1 0 -14.5 -7.5t-23.5 -12.5t-30.5 -13t-39.5 -13t-44.5 -9t-50.5 -4q-103 0 -165 58.5t-62 150.5q0 68 59 157h105q-53 -79 -53 -139q0 -50 35.5 -84.5t101.5 -34.5q14 0 29.5 2t28.5 5t27.5 8.5t24.5 9.5t23 10.5t19 10t17 9.5t13 7v-111z" />
    <glyph glyph-name="tilde" unicode="&#x2dc;" horiz-adv-x="681" 
d="M631 1141q-2 -75 -45.5 -131t-116.5 -56q-48 0 -100 23t-92 46.5t-60 23.5q-66 0 -74 -93l-92 2q5 78 49.5 133.5t118.5 55.5q43 0 91 -22.5t89.5 -45t69.5 -22.5t48.5 21.5t21.5 64.5h92z" />
    <glyph glyph-name="hungarumlaut" unicode="&#x2dd;" horiz-adv-x="681" 
d="M602 1284l-194 -377h-101l185 377h110zM379 1284l-195 -377h-100l184 377h111z" />
    <glyph glyph-name="endash" unicode="&#x2013;" horiz-adv-x="778" 
d="M778 385h-778v84h778v-84z" />
    <glyph glyph-name="emdash" unicode="&#x2014;" horiz-adv-x="1556" 
d="M1556 385h-1556v84h1556v-84z" />
    <glyph glyph-name="quoteleft" unicode="&#x2018;" horiz-adv-x="505" 
d="M373 1239v-33q-48 -18 -83.5 -61.5t-35.5 -112.5q0 -23 6.5 -46t13.5 -38t24 -36t23 -28t26.5 -27t21.5 -21l-103 -103l-24 23q-18 18 -27.5 29t-30 40t-31 64.5t-10.5 75.5q0 102 65.5 179.5t164.5 94.5z" />
    <glyph glyph-name="quoteright" unicode="&#x2019;" horiz-adv-x="505" 
d="M362 1008q0 -102 -65 -180t-164 -95v33q48 18 83.5 61.5t35.5 112.5q0 20 -4 38.5t-12.5 36t-16 30.5t-21.5 29t-20.5 23t-22 22t-18.5 18l103 102l24 -22q98 -98 98 -209z" />
    <glyph glyph-name="quotesinglbase" unicode="&#x201a;" horiz-adv-x="512" 
d="M362 -47q0 -102 -65 -180t-164 -95v33q48 18 83.5 61.5t35.5 112.5q0 20 -4 38.5t-12.5 36t-16 30.5t-21.5 29t-20.5 23t-22 22t-18.5 18l103 102l24 -22q98 -98 98 -209z" />
    <glyph glyph-name="quotedblleft" unicode="&#x201c;" horiz-adv-x="831" 
d="M698 1239v-33q-48 -18 -83 -61.5t-35 -112.5q0 -20 4 -38.5t12.5 -36t15.5 -30t21 -28.5t21 -23.5t22 -22t18 -17.5l-102 -103l-25 23q-98 98 -98 209q0 102 65 179.5t164 94.5zM373 1239v-33q-48 -18 -83.5 -61.5t-35.5 -112.5q0 -23 6.5 -46t13.5 -38t24 -36t23 -28
t26.5 -27t21.5 -21l-103 -103l-24 23q-18 18 -27.5 29t-30 40t-31 64.5t-10.5 75.5q0 102 65.5 179.5t164.5 94.5z" />
    <glyph glyph-name="quotedblright" unicode="&#x201d;" horiz-adv-x="831" 
d="M688 1008q0 -102 -65 -180t-164 -95v33q48 18 83.5 61.5t35.5 112.5q0 20 -4 38.5t-12.5 36t-16 30.5t-21.5 29t-20.5 23t-22 22t-18.5 18l102 102l25 -22q98 -98 98 -209zM362 1008q0 -102 -65 -180t-164 -95v33q48 18 83.5 61.5t35.5 112.5q0 20 -4 38.5t-12.5 36
t-16 30.5t-21.5 29t-20.5 23t-22 22t-18.5 18l103 102l24 -22q98 -98 98 -209z" />
    <glyph glyph-name="quotedblbase" unicode="&#x201e;" horiz-adv-x="831" 
d="M688 -47q0 -102 -65 -180t-164 -95v33q48 18 83.5 61.5t35.5 112.5q0 20 -4 38.5t-12.5 36t-16 30.5t-21.5 29t-20.5 23t-22 22t-18.5 18l102 102l25 -22q98 -98 98 -209zM362 -47q0 -102 -65 -180t-164 -95v33q48 18 83.5 61.5t35.5 112.5q0 20 -4 38.5t-12.5 36
t-16 30.5t-21.5 29t-20.5 23t-22 22t-18.5 18l103 102l24 -22q98 -98 98 -209z" />
    <glyph glyph-name="dagger" unicode="&#x2020;" horiz-adv-x="784" 
d="M682 635h-227l-33 -1065h-60l-32 1065h-228v125h224l-19 414h170l-18 -414h223v-125z" />
    <glyph glyph-name="daggerdbl" unicode="&#x2021;" horiz-adv-x="784" 
d="M682 -16h-225l18 -414h-166l19 414h-226v125h232l10 262l-10 264h-232v125h226l-19 414h166l-18 -414h225v-125h-231l-11 -262l11 -264h231v-125z" />
    <glyph glyph-name="bullet" unicode="&#x2022;" horiz-adv-x="657" 
d="M555 586l-227 -226l-226 226l226 225z" />
    <glyph glyph-name="ellipsis" unicode="&#x2026;" horiz-adv-x="1536" 
d="M1403 90l-123 -123l-123 123l123 123zM891 90l-123 -123l-123 123l123 123zM379 90l-123 -123l-123 123l123 123z" />
    <glyph glyph-name="perthousand" unicode="&#x2030;" horiz-adv-x="1544" 
d="M1483 190q0 -90 -65.5 -152.5t-162.5 -62.5t-162 62.5t-65 152.5q0 89 65 151t162 62t162.5 -62t65.5 -151zM516 983q0 -90 -65 -152.5t-162 -62.5t-162.5 62.5t-65.5 152.5t65.5 152.5t162.5 62.5t162 -62.5t65 -152.5zM786 1198l-522 -1233h-59l522 1233h59zM930 190
q0 -90 -65.5 -152.5t-162.5 -62.5t-162 62.5t-65 152.5q0 89 65 151t162 62t162.5 -62t65.5 -151zM1386 190q0 54 -37 90.5t-94 36.5q-56 0 -93.5 -36.5t-37.5 -90.5q0 -55 37.5 -92t93.5 -37q57 0 94 36.5t37 92.5zM420 983q0 55 -37 92t-94 37q-55 0 -93 -37.5t-38 -91.5
t37.5 -90.5t93.5 -36.5q57 0 94 36.5t37 90.5zM834 190q0 54 -38 90.5t-94 36.5q-57 0 -94 -36.5t-37 -90.5q0 -56 37 -92.5t94 -36.5q56 0 94 37t38 92z" />
    <glyph glyph-name="guilsinglleft" unicode="&#x2039;" horiz-adv-x="526" 
d="M444 166h-116l-267 356l269 363h114l-258 -361z" />
    <glyph glyph-name="guilsinglright" unicode="&#x203a;" horiz-adv-x="526" 
d="M465 524l-268 -358h-115l258 358l-258 361h115z" />
    <glyph glyph-name="fraction" unicode="&#x2044;" horiz-adv-x="155" 
d="M528 1202l-852 -1202h-49l852 1202h49z" />
    <glyph glyph-name="fraction" unicode="&#x2215;" horiz-adv-x="155" 
d="M528 1202l-852 -1202h-49l852 1202h49z" />
    <glyph glyph-name="zerosuperior" unicode="&#x2070;" horiz-adv-x="667" 
d="M569 1161q0 -85 -27.5 -161t-82.5 -126.5t-125 -50.5q-72 0 -127 50.5t-82 126.5t-27 161q0 84 27 160t82 127t127 51q70 0 125 -51t82.5 -127t27.5 -160zM477 1161q0 104 -40.5 182t-102.5 78t-103 -78t-41 -182t40.5 -181t103.5 -77q62 0 102.5 77t40.5 181z" />
    <glyph glyph-name="foursuperior" unicode="&#x2074;" horiz-adv-x="602" 
d="M559 1018h-137v-174h-88v174h-275l-16 39l307 424h72v-385h137v-78zM334 1096v243l-178 -243h178z" />
    <glyph glyph-name="fivesuperior" unicode="&#x2075;" horiz-adv-x="571" 
d="M473 1042q0 -92 -67.5 -154.5t-159.5 -62.5q-98 0 -185 68l-18 16l51 62q70 -70 144 -70q59 0 102 43t43 105q0 58 -43.5 97.5t-108.5 39.5q-46 0 -88 -29l-32 8l22 316h324v-80h-256l-11 -146q24 7 56 7q92 0 159.5 -62t67.5 -158z" />
    <glyph glyph-name="sixsuperior" unicode="&#x2076;" horiz-adv-x="641" 
d="M543 1430q-235 -42 -318 -201q38 14 90 14q87 0 154.5 -57.5t67.5 -151.5q0 -87 -63.5 -148t-151.5 -61q-106 0 -165 73.5t-59 174.5q0 169 129 288.5t316 133.5v-65zM453 1034q0 57 -42 100.5t-108 43.5q-54 0 -108 -31q-11 -44 -11 -72q0 -74 37 -125t107 -51
q52 0 88.5 41t36.5 94z" />
    <glyph glyph-name="sevensuperior" unicode="&#x2077;" horiz-adv-x="557" 
d="M498 1450l-275 -606h-96l264 557h-348v80h436z" />
    <glyph glyph-name="eightsuperior" unicode="&#x2078;" horiz-adv-x="589" 
d="M492 1004q0 -74 -57 -126.5t-140 -52.5t-140 51t-57 125q0 105 127 177q-116 64 -116 161q0 69 53.5 114.5t132.5 45.5q78 0 132 -45.5t54 -112.5q0 -96 -116 -157q127 -74 127 -180zM397 1337q0 33 -27.5 59.5t-74.5 26.5q-46 0 -74 -26t-28 -58q0 -20 9 -37.5
t29.5 -33.5t31 -23t36.5 -22q21 12 34.5 21t30 24t25 32t8.5 37zM406 1004q0 32 -15 53q-33 49 -98 82q-51 -27 -80 -57t-29 -76q0 -42 31 -72.5t80 -30.5t80 30t31 71z" />
    <glyph glyph-name="ninesuperior" unicode="&#x2079;" horiz-adv-x="641" 
d="M543 1249q0 -168 -128.5 -287.5t-316.5 -134.5v68q231 38 322 199h-8q-10 0 -36.5 -6.5t-45.5 -6.5q-88 0 -154.5 57.5t-66.5 151.5q0 86 62 147.5t148 61.5q108 0 166 -73.5t58 -176.5zM459 1247q0 75 -37 125.5t-107 50.5q-52 0 -87 -40t-35 -93q0 -57 40.5 -100
t106.5 -43q55 0 109 31q10 20 10 69z" />
    <glyph glyph-name="zeroinferior" unicode="&#x2080;" horiz-adv-x="667" 
d="M569 0q0 -85 -27.5 -161t-82.5 -126.5t-125 -50.5q-72 0 -127 50.5t-82 126.5t-27 161q0 84 27 160t82 127t127 51q70 0 125 -51t82.5 -127t27.5 -160zM477 0q0 104 -40.5 182t-102.5 78t-103 -78t-41 -182t40.5 -181t103.5 -77q62 0 102.5 77t40.5 181z" />
    <glyph glyph-name="oneinferior" unicode="&#x2081;" horiz-adv-x="380" 
d="M236 -317h-91v620l91 47v-667z" />
    <glyph glyph-name="twoinferior" unicode="&#x2082;" horiz-adv-x="604" 
d="M506 -317h-414v34l213 232q107 115 107 190q0 54 -32.5 87.5t-86.5 33.5q-51 0 -88 -33t-41 -88h-82q4 87 65.5 144t145.5 57q92 0 151.5 -55t59.5 -146q0 -101 -123 -229l-143 -152h268v-75z" />
    <glyph glyph-name="threeinferior" unicode="&#x2083;" horiz-adv-x="567" 
d="M469 -119q0 -96 -66.5 -156.5t-160.5 -60.5q-105 0 -183 74l52 59q61 -57 125 -57q56 0 98.5 37.5t42.5 101.5q0 56 -39 87.5t-90 31.5q-24 0 -68 -14l-33 45q35 18 60 34t57 42t56.5 60.5t39.5 76.5h-280v77h377v-43q-21 -137 -135 -219q57 -15 102 -58.5t45 -117.5z
" />
    <glyph glyph-name="fourinferior" unicode="&#x2084;" horiz-adv-x="602" 
d="M559 -143h-137v-174h-88v174h-275l-16 39l307 423h72v-385h137v-77zM334 -66v244l-178 -244h178z" />
    <glyph glyph-name="fiveinferior" unicode="&#x2085;" horiz-adv-x="571" 
d="M473 -119q0 -92 -67.5 -154.5t-159.5 -62.5q-98 0 -185 68l-18 16l51 62q70 -70 144 -70q59 0 102 42.5t43 104.5q0 59 -44 98.5t-108 39.5q-46 0 -88 -29l-32 8l22 315h324v-79h-256l-11 -146q21 6 56 6q92 0 159.5 -61.5t67.5 -157.5z" />
    <glyph glyph-name="sixinferior" unicode="&#x2086;" horiz-adv-x="641" 
d="M543 268q-236 -42 -318 -200q38 14 90 14q87 0 154.5 -57.5t67.5 -151.5q0 -87 -63.5 -148t-151.5 -61q-106 0 -165 73.5t-59 174.5q0 169 129 288.5t316 133.5v-66zM453 -127q0 57 -42 100t-108 43q-55 0 -108 -30q-11 -44 -11 -72q0 -74 37 -125t107 -51q52 0 88.5 41
t36.5 94z" />
    <glyph glyph-name="seveninferior" unicode="&#x2087;" horiz-adv-x="557" 
d="M498 289l-275 -606h-96l264 557h-348v79h436z" />
    <glyph glyph-name="eightinferior" unicode="&#x2088;" horiz-adv-x="589" 
d="M492 -158q0 -74 -57 -126t-140 -52t-140 51t-57 125q0 104 127 176q-116 64 -116 162q0 69 53.5 114.5t132.5 45.5q78 0 132 -45.5t54 -112.5q0 -96 -116 -157q127 -74 127 -181zM397 176q0 33 -27.5 59.5t-74.5 26.5q-46 0 -74 -26t-28 -58q0 -20 9 -37.5t29 -34t32 -24
t36 -21.5q28 16 46 29t35 37t17 49zM406 -158q0 33 -15 54q-32 47 -98 81q-51 -27 -80 -57t-29 -76q0 -41 31 -71.5t80 -30.5t80 29.5t31 70.5z" />
    <glyph glyph-name="nineinferior" unicode="&#x2089;" horiz-adv-x="641" 
d="M543 88q0 -168 -128.5 -287.5t-316.5 -134.5v68q232 38 322 198h-8q-10 0 -36.5 -6t-45.5 -6q-88 0 -154.5 57.5t-66.5 151.5q0 86 62 147.5t148 61.5q108 0 166 -73.5t58 -176.5zM459 86q0 75 -37 125.5t-107 50.5q-52 0 -87 -40t-35 -93q0 -57 40.5 -100t106.5 -43
q56 0 109 30q10 20 10 70z" />
    <glyph glyph-name="Euro" unicode="&#x20ac;" horiz-adv-x="1236" 
d="M154 686h-93v57h105q53 202 218 328.5t366 126.5q206 0 405 -104l-33 -109q-197 107 -374 107q-150 0 -277 -97t-176 -252h754l-17 -57h-751q-11 -60 -11 -104t6 -84h697l-17 -58h-667q43 -162 170.5 -264t288.5 -102q116 0 224 37t179 77v-120q-185 -103 -401 -103
q-140 0 -263.5 59t-210 167.5t-116.5 248.5h-99v58h89q-5 68 -5 82q0 54 9 106z" />
    <glyph glyph-name="trademark" unicode="&#x2122;" horiz-adv-x="1697" 
d="M1636 408h-104v497l-256 -497h-64l-256 495v-495h-96v755h72l317 -608l314 608h73v-755zM752 1079h-297v-671h-95v671h-299v84h691v-84z" />
    <glyph glyph-name="minus" unicode="&#x2212;" horiz-adv-x="1054" 
d="M952 473h-850v98h850v-98z" />
    <glyph glyph-name="Lslashsmall" unicode="&#xf6f9;" horiz-adv-x="708" 
d="M678 0h-545v262l-96 -92v86l96 92v490h117v-377l221 211v-86l-221 -211v-271h428v-104z" />
    <glyph glyph-name="OEsmall" unicode="&#xf6fa;" horiz-adv-x="1507" 
d="M1421 0h-520v135q-61 -75 -151 -117.5t-195 -42.5q-200 0 -334.5 129t-134.5 314q0 186 134 315t335 129q105 0 195 -42.5t151 -117.5v136h502v-105h-383v-258h295v-104h-295v-267h401v-104zM901 418q0 143 -99 242.5t-247 99.5q-149 0 -248.5 -99.5t-99.5 -242.5
q0 -141 99.5 -240.5t248.5 -99.5q148 0 247 99.5t99 240.5z" />
    <glyph glyph-name="Scaronsmall" unicode="&#xf6fd;" horiz-adv-x="690" 
d="M586 1319l-205 -377h-72l-205 377h99l143 -270l141 270h99zM604 205q0 -104 -77.5 -167t-198.5 -63q-116 0 -242 66v129q145 -86 242 -86q70 0 113.5 32t43.5 85q0 38 -30.5 70.5t-81.5 66.5l-129 82q-148 92 -148 217q0 106 71.5 165.5t180.5 59.5q100 0 209 -51v-125
q-126 70 -209 70q-63 0 -99 -31t-36 -82q0 -39 28 -68t81 -63l122 -78q31 -19 54 -37t50 -46.5t41.5 -65.5t14.5 -80z" />
    <glyph glyph-name="Zcaronsmall" unicode="&#xf6ff;" horiz-adv-x="770" 
d="M625 1319l-205 -377h-72l-205 377h99l143 -270l141 270h99zM729 0h-688v53l506 684h-486v101h658v-56l-506 -682h516v-100z" />
    <glyph glyph-name="Asmall" unicode="&#xf761;" horiz-adv-x="770" 
d="M750 0h-125l-103 291h-274l-103 -291h-125l308 838h114zM487 389l-75 217l-27 92l-27 -92l-75 -217h204z" />
    <glyph glyph-name="Bsmall" unicode="&#xf762;" horiz-adv-x="790" 
d="M705 238q0 -110 -77 -174t-196 -64h-280v838h245q127 0 198 -68t71 -162q0 -50 -22.5 -96.5t-63.5 -75.5q62 -33 93.5 -84.5t31.5 -113.5zM545 604q0 64 -41.5 98.5t-120.5 34.5h-115v-254h152q19 0 55 -4q70 46 70 125zM584 244q0 60 -50 100.5t-141 40.5h-125v-281h152
q72 0 118 38.5t46 101.5z" />
    <glyph glyph-name="Csmall" unicode="&#xf763;" horiz-adv-x="937" 
d="M852 53q-56 -31 -102 -47q-95 -31 -203 -31q-121 0 -226 55.5t-170 158.5t-65 229t66 229t171.5 159t223.5 56q156 0 301 -74v-120q-61 32 -97 48t-91.5 30t-112.5 14q-136 0 -238 -98t-102 -244q0 -144 100 -242t240 -98q64 0 130 18t92.5 30.5t82.5 41.5v-115z" />
    <glyph glyph-name="Dsmall" unicode="&#xf764;" horiz-adv-x="993" 
d="M907 416q0 -99 -40.5 -180t-108 -131.5t-152.5 -77.5t-178 -27h-276v838h268q93 0 180 -28.5t155.5 -80.5t110 -133.5t41.5 -179.5zM786 416q0 143 -104 230t-256 87h-158v-624h164q153 0 253.5 82t100.5 225z" />
    <glyph glyph-name="Esmall" unicode="&#xf765;" horiz-adv-x="757" 
d="M672 0h-520v838h501v-105h-385v-258h295v-104h-295v-267h404v-104z" />
    <glyph glyph-name="Fsmall" unicode="&#xf766;" horiz-adv-x="694" 
d="M623 733h-355v-258h289v-104h-289v-371h-116v838h471v-105z" />
    <glyph glyph-name="Gsmall" unicode="&#xf767;" horiz-adv-x="983" 
d="M735 113v262h117v-322q-56 -31 -102 -47q-95 -31 -203 -31q-121 0 -226 55.5t-170 158.5t-65 229t66 229t171.5 159t223.5 56q156 0 301 -74v-120q-61 32 -97 48t-91.5 30t-112.5 14q-136 0 -238 -98t-102 -244q0 -144 100 -242t240 -98q85 0 188 35z" />
    <glyph glyph-name="Hsmall" unicode="&#xf768;" horiz-adv-x="968" 
d="M817 0h-117v371h-432v-371h-116v838h116v-363h432v363h117v-838z" />
    <glyph glyph-name="Ismall" unicode="&#xf769;" horiz-adv-x="440" 
d="M279 0h-117v838h117v-838z" />
    <glyph glyph-name="Jsmall" unicode="&#xf76a;" horiz-adv-x="419" 
d="M268 -285l-116 -114v1237h116v-1123z" />
    <glyph glyph-name="Ksmall" unicode="&#xf76b;" horiz-adv-x="825" 
d="M805 0h-146l-301 412l-90 -88v-324h-116v838h116v-379l385 379h148l-357 -344z" />
    <glyph glyph-name="Lsmall" unicode="&#xf76c;" horiz-adv-x="716" 
d="M696 0h-544v838h116v-734h428v-104z" />
    <glyph glyph-name="Msmall" unicode="&#xf76d;" horiz-adv-x="1161" 
d="M1010 0h-113v545l-281 -545h-71l-281 545v-545h-112v838h81l349 -666l346 666h82v-838z" />
    <glyph glyph-name="Nsmall" unicode="&#xf76e;" horiz-adv-x="1019" 
d="M868 0h-116v182l-484 463v-645h-116v838h75l525 -506v506h116v-838z" />
    <glyph glyph-name="Osmall" unicode="&#xf76f;" horiz-adv-x="1107" 
d="M1022 418q0 -184 -134.5 -313.5t-332.5 -129.5q-199 0 -334 129t-135 314q0 122 61 223.5t169 161t239 59.5q198 0 332.5 -129t134.5 -315zM901 418q0 143 -99 242.5t-247 99.5q-149 0 -248.5 -99.5t-99.5 -242.5q0 -141 99.5 -240.5t248.5 -99.5q148 0 247 99.5
t99 240.5z" />
    <glyph glyph-name="Psmall" unicode="&#xf770;" horiz-adv-x="718" 
d="M668 596q0 -62 -26 -111t-69 -77.5t-93 -43t-103 -14.5h-109v-350h-116v838h223q136 0 214.5 -64.5t78.5 -177.5zM547 596q0 137 -178 137h-101v-284h94q78 0 131.5 35.5t53.5 111.5z" />
    <glyph glyph-name="Qsmall" unicode="&#xf771;" horiz-adv-x="1112" 
d="M1026 8l-31 -102h-262q-95 0 -187.5 21.5t-175.5 65t-146.5 103.5t-100.5 143.5t-37 178.5q0 186 135.5 315t333.5 129q199 0 333 -128.5t134 -315.5q0 -138 -78 -248t-205 -162h287zM901 410q0 146 -99 247t-247 101q-149 0 -248.5 -101t-99.5 -247t99.5 -246.5
t248.5 -100.5q148 0 247 100.5t99 246.5z" />
    <glyph glyph-name="Rsmall" unicode="&#xf772;" horiz-adv-x="811" 
d="M831 66q-7 -13 -18 -27q-41 -53 -108 -53q-29 0 -51 6.5t-39.5 20.5t-27.5 25.5t-26 33.5l-190 268h-103v-340h-116v838h210q138 0 217.5 -67t79.5 -181q0 -84 -45 -142t-118 -86l170 -235q31 -45 57 -45q22 0 55 33zM539 590q0 73 -45.5 108t-141.5 35h-84v-297h78
q82 0 137.5 37t55.5 117z" />
    <glyph glyph-name="Ssmall" unicode="&#xf773;" horiz-adv-x="690" 
d="M604 205q0 -104 -77.5 -167t-198.5 -63q-116 0 -242 66v129q145 -86 242 -86q70 0 113.5 32t43.5 85q0 38 -30.5 70.5t-81.5 66.5l-129 82q-148 92 -148 217q0 106 71.5 165.5t180.5 59.5q100 0 209 -51v-125q-126 70 -209 70q-63 0 -99 -31t-36 -82q0 -39 28 -68t81 -63
l122 -78q31 -19 54 -37t50 -46.5t41.5 -65.5t14.5 -80z" />
    <glyph glyph-name="Tsmall" unicode="&#xf774;" horiz-adv-x="747" 
d="M727 733h-295v-733h-117v733h-295v105h707v-105z" />
    <glyph glyph-name="Usmall" unicode="&#xf775;" horiz-adv-x="954" 
d="M803 0h-117v92q-102 -117 -256 -117q-129 0 -209 85.5t-80 218.5v559h119v-559q0 -91 49.5 -146t132.5 -55q58 0 106 26t77 59.5t61 86.5v588h117v-838z" />
    <glyph glyph-name="Vsmall" unicode="&#xf776;" horiz-adv-x="751" 
d="M731 838l-307 -838h-94l-310 838h125l215 -607l17 -47l14 47l215 607h125z" />
    <glyph glyph-name="Wsmall" unicode="&#xf777;" horiz-adv-x="1087" 
d="M596 416l72 -185l26 -79l27 79l227 607h119l-317 -838h-103l-102 281l-105 -281h-100l-320 838h121l226 -607l26 -79l29 79l70 185l-162 422h112l103 -283l100 283h115z" />
    <glyph glyph-name="Xsmall" unicode="&#xf778;" horiz-adv-x="815" 
d="M784 0h-143l-233 330l-234 -330h-143l309 422l-305 416h143l230 -324l229 324h143l-305 -416z" />
    <glyph glyph-name="Ysmall" unicode="&#xf779;" horiz-adv-x="724" 
d="M709 838l-287 -496v-342h-117v342l-289 496h140l206 -379l207 379h140z" />
    <glyph glyph-name="Zsmall" unicode="&#xf77a;" horiz-adv-x="770" 
d="M729 0h-688v53l506 684h-486v101h658v-56l-506 -682h516v-100z" />
    <glyph glyph-name="Agravesmall" unicode="&#xf7e0;" horiz-adv-x="770" 
d="M418 940h-103l-194 379h110zM750 0h-125l-103 291h-274l-103 -291h-125l308 838h114zM487 389l-75 217l-27 92l-27 -92l-75 -217h204z" />
    <glyph glyph-name="Aacutesmall" unicode="&#xf7e1;" horiz-adv-x="770" 
d="M647 1319l-194 -379h-103l187 379h110zM750 0h-125l-103 291h-274l-103 -291h-125l308 838h114zM487 389l-75 217l-27 92l-27 -92l-75 -217h204z" />
    <glyph glyph-name="Acircumflexsmall" unicode="&#xf7e2;" horiz-adv-x="770" 
d="M625 940h-99l-141 272l-143 -272h-99l205 379h72zM750 0h-125l-103 291h-274l-103 -291h-125l308 838h114zM487 389l-75 217l-27 92l-27 -92l-75 -217h204z" />
    <glyph glyph-name="Atildesmall" unicode="&#xf7e3;" horiz-adv-x="770" 
d="M674 1176q-2 -75 -45.5 -131t-116.5 -56q-48 0 -100 23t-92 46t-60 23q-66 0 -74 -92l-92 2q5 78 49.5 133.5t118.5 55.5q43 0 91 -22.5t89.5 -45t69.5 -22.5t48.5 21.5t21.5 64.5h92zM750 0h-125l-103 291h-274l-103 -291h-125l308 838h114zM487 389l-75 217l-27 92
l-27 -92l-75 -217h204z" />
    <glyph glyph-name="Adieresissmall" unicode="&#xf7e4;" horiz-adv-x="770" 
d="M635 1104l-92 -92l-94 92l92 92zM322 1104l-93 -92l-94 92l92 92zM750 0h-125l-103 291h-274l-103 -291h-125l308 838h114zM487 389l-75 217l-27 92l-27 -92l-75 -217h204z" />
    <glyph glyph-name="Aringsmall" unicode="&#xf7e5;" horiz-adv-x="770" 
d="M569 1126q0 -77 -54 -131.5t-130 -54.5q-78 0 -132 53.5t-54 130.5q0 78 54 133.5t132 55.5q76 0 130 -55t54 -132zM506 1126q0 51 -35 87t-86 36q-50 0 -85.5 -36t-35.5 -87t35.5 -86.5t85.5 -35.5q51 0 86 35.5t35 86.5zM750 0h-125l-103 291h-274l-103 -291h-125
l308 838h114zM487 389l-75 217l-27 92l-27 -92l-75 -217h204z" />
    <glyph glyph-name="AEsmall" unicode="&#xf7e6;" horiz-adv-x="1132" 
d="M1047 0h-521v356h-196l-207 -356h-123l492 838h534v-105h-383v-272h295v-105h-295v-252h404v-104zM526 461v239l-137 -239h137z" />
    <glyph glyph-name="Ccedillasmall" unicode="&#xf7e7;" horiz-adv-x="937" 
d="M559 -25l-160 -313h-102l156 322q-156 32 -261.5 151t-105.5 283q0 126 66 229t171.5 159t223.5 56q156 0 301 -74v-120q-61 32 -97 48t-91.5 30t-112.5 14q-136 0 -238 -98t-102 -244q0 -144 100 -242t240 -98q64 0 130 18t92.5 30.5t82.5 41.5v-115q-56 -31 -102 -47
q-83 -28 -191 -31z" />
    <glyph glyph-name="Egravesmall" unicode="&#xf7e8;" horiz-adv-x="757" 
d="M479 940h-102l-195 379h111zM672 0h-520v838h501v-105h-385v-258h295v-104h-295v-267h404v-104z" />
    <glyph glyph-name="Eacutesmall" unicode="&#xf7e9;" horiz-adv-x="757" 
d="M627 1319l-195 -379h-102l186 379h111zM672 0h-520v838h501v-105h-385v-258h295v-104h-295v-267h404v-104z" />
    <glyph glyph-name="Ecircumflexsmall" unicode="&#xf7ea;" horiz-adv-x="757" 
d="M643 940h-98l-144 272l-143 -272h-98l205 379h73zM672 0h-520v838h501v-105h-385v-258h295v-104h-295v-267h404v-104z" />
    <glyph glyph-name="Edieresissmall" unicode="&#xf7eb;" horiz-adv-x="757" 
d="M651 1104l-92 -92l-92 92l92 92zM338 1104l-92 -92l-92 92l92 92zM672 0h-520v838h501v-105h-385v-258h295v-104h-295v-267h404v-104z" />
    <glyph glyph-name="Igravesmall" unicode="&#xf7ec;" horiz-adv-x="440" 
d="M268 940h-102l-193 379h111zM279 0h-117v838h117v-838z" />
    <glyph glyph-name="Iacutesmall" unicode="&#xf7ed;" horiz-adv-x="440" 
d="M467 1319l-193 -379h-102l184 379h111zM279 0h-117v838h117v-838z" />
    <glyph glyph-name="Icircumflexsmall" unicode="&#xf7ee;" horiz-adv-x="440" 
d="M461 940h-99l-141 272l-143 -272h-98l204 379h72zM279 0h-117v838h117v-838z" />
    <glyph glyph-name="Idieresissmall" unicode="&#xf7ef;" horiz-adv-x="440" 
d="M469 1104l-92 -92l-92 92l92 92zM156 1104l-93 -92l-92 92l92 92zM279 0h-117v838h117v-838z" />
    <glyph glyph-name="Ethsmall" unicode="&#xf7f0;" horiz-adv-x="980" 
d="M889 416q0 -99 -40.5 -180t-108 -131.5t-152.5 -77.5t-178 -27h-277v383h-96v66h96v389h268q126 0 235.5 -48t181 -146t71.5 -228zM768 416q0 143 -104 230t-256 87h-158v-284h221v-66h-221v-274h164q153 0 253.5 82t100.5 225z" />
    <glyph glyph-name="Ntildesmall" unicode="&#xf7f1;" horiz-adv-x="1019" 
d="M799 1176q-2 -75 -45.5 -131t-116.5 -56q-48 0 -100 23t-92 46t-60 23q-66 0 -74 -92l-92 2q5 78 49.5 133.5t118.5 55.5q43 0 91 -22.5t89.5 -45t69.5 -22.5t48.5 21.5t21.5 64.5h92zM868 0h-116v182l-484 463v-645h-116v838h75l525 -506v506h116v-838z" />
    <glyph glyph-name="Ogravesmall" unicode="&#xf7f2;" horiz-adv-x="1107" 
d="M606 940h-102l-195 379h111zM1022 418q0 -184 -134.5 -313.5t-332.5 -129.5q-199 0 -334 129t-135 314q0 122 61 223.5t169 161t239 59.5q198 0 332.5 -129t134.5 -315zM901 418q0 143 -99 242.5t-247 99.5q-149 0 -248.5 -99.5t-99.5 -242.5q0 -141 99.5 -240.5
t248.5 -99.5q148 0 247 99.5t99 240.5z" />
    <glyph glyph-name="Oacutesmall" unicode="&#xf7f3;" horiz-adv-x="1107" 
d="M801 1319l-195 -379h-102l186 379h111zM1022 418q0 -184 -134.5 -313.5t-332.5 -129.5q-199 0 -334 129t-135 314q0 122 61 223.5t169 161t239 59.5q198 0 332.5 -129t134.5 -315zM901 418q0 143 -99 242.5t-247 99.5q-149 0 -248.5 -99.5t-99.5 -242.5
q0 -141 99.5 -240.5t248.5 -99.5q148 0 247 99.5t99 240.5z" />
    <glyph glyph-name="Ocircumflexsmall" unicode="&#xf7f4;" horiz-adv-x="1107" 
d="M795 940h-99l-143 272l-141 -272h-99l203 379h74zM1022 418q0 -184 -134.5 -313.5t-332.5 -129.5q-199 0 -334 129t-135 314q0 122 61 223.5t169 161t239 59.5q198 0 332.5 -129t134.5 -315zM901 418q0 143 -99 242.5t-247 99.5q-149 0 -248.5 -99.5t-99.5 -242.5
q0 -141 99.5 -240.5t248.5 -99.5q148 0 247 99.5t99 240.5z" />
    <glyph glyph-name="Otildesmall" unicode="&#xf7f5;" horiz-adv-x="1107" 
d="M844 1176q-2 -75 -45.5 -131t-116.5 -56q-48 0 -100.5 23t-93 46t-60.5 23q-28 0 -48.5 -22t-23.5 -70l-92 2q5 78 49.5 133.5t118.5 55.5q43 0 90.5 -22.5t89 -45t68.5 -22.5q29 0 49 21.5t21 64.5h94zM1022 418q0 -184 -134.5 -313.5t-332.5 -129.5q-199 0 -334 129
t-135 314q0 122 61 223.5t169 161t239 59.5q198 0 332.5 -129t134.5 -315zM901 418q0 143 -99 242.5t-247 99.5q-149 0 -248.5 -99.5t-99.5 -242.5q0 -141 99.5 -240.5t248.5 -99.5q148 0 247 99.5t99 240.5z" />
    <glyph glyph-name="Odieresissmall" unicode="&#xf7f6;" horiz-adv-x="1107" 
d="M803 1104l-92 -92l-93 92l93 92zM489 1104l-92 -92l-92 92l92 92zM1022 418q0 -184 -134.5 -313.5t-332.5 -129.5q-199 0 -334 129t-135 314q0 122 61 223.5t169 161t239 59.5q198 0 332.5 -129t134.5 -315zM901 418q0 143 -99 242.5t-247 99.5q-149 0 -248.5 -99.5
t-99.5 -242.5q0 -141 99.5 -240.5t248.5 -99.5q148 0 247 99.5t99 240.5z" />
    <glyph glyph-name="Oslashsmall" unicode="&#xf7f8;" horiz-adv-x="1120" 
d="M1022 418q0 -184 -134.5 -313.5t-332.5 -129.5q-155 0 -274 80l-131 -147l-54 51l127 141q-137 131 -137 318q0 122 61 223.5t169 161t239 59.5q153 0 272 -80l131 148l56 -47l-129 -146q137 -131 137 -319zM901 418q0 137 -92 235l-455 -514q86 -61 201 -61
q148 0 247 99.5t99 240.5zM754 698q-87 62 -199 62q-149 0 -248.5 -99.5t-99.5 -242.5q0 -137 92 -232z" />
    <glyph glyph-name="Ugravesmall" unicode="&#xf7f9;" horiz-adv-x="954" 
d="M528 940h-102l-195 379h111zM803 0h-117v92q-102 -117 -256 -117q-129 0 -209 85.5t-80 218.5v559h119v-559q0 -91 49.5 -146t132.5 -55q58 0 106 26t77 59.5t61 86.5v588h117v-838z" />
    <glyph glyph-name="Uacutesmall" unicode="&#xf7fa;" horiz-adv-x="954" 
d="M713 1319l-195 -379h-100l184 379h111zM803 0h-117v92q-102 -117 -256 -117q-129 0 -209 85.5t-80 218.5v559h119v-559q0 -91 49.5 -146t132.5 -55q58 0 106 26t77 59.5t61 86.5v588h117v-838z" />
    <glyph glyph-name="Ucircumflexsmall" unicode="&#xf7fb;" horiz-adv-x="954" 
d="M713 940h-99l-141 272l-143 -272h-99l205 379h72zM803 0h-117v92q-102 -117 -256 -117q-129 0 -209 85.5t-80 218.5v559h119v-559q0 -91 49.5 -146t132.5 -55q58 0 106 26t77 59.5t61 86.5v588h117v-838z" />
    <glyph glyph-name="Udieresissmall" unicode="&#xf7fc;" horiz-adv-x="954" 
d="M721 1104l-92 -92l-92 92l92 92zM408 1104l-91 -92l-94 92l92 92zM803 0h-117v92q-102 -117 -256 -117q-129 0 -209 85.5t-80 218.5v559h119v-559q0 -91 49.5 -146t132.5 -55q58 0 106 26t77 59.5t61 86.5v588h117v-838z" />
    <glyph glyph-name="Yacutesmall" unicode="&#xf7fd;" horiz-adv-x="724" 
d="M612 1319l-194 -379h-103l187 379h110zM709 838l-287 -496v-342h-117v342l-289 496h140l206 -379l207 379h140z" />
    <glyph glyph-name="Thornsmall" unicode="&#xf7fe;" horiz-adv-x="718" 
d="M668 432q0 -81 -45.5 -139t-109.5 -82.5t-136 -24.5h-109v-186h-116v838h116v-164h107q136 0 214.5 -64.5t78.5 -177.5zM547 434q0 137 -178 137h-101v-286h94q78 0 131.5 36t53.5 113z" />
    <glyph glyph-name="Ydieresissmall" unicode="&#xf7ff;" horiz-adv-x="724" 
d="M612 1104l-92 -92l-94 92l92 92zM299 1104l-92 -92l-94 92l92 92zM709 838l-287 -496v-342h-117v342l-289 496h140l206 -379l207 379h140z" />
    <glyph glyph-name="s_t" unicode="&#xfb06;" horiz-adv-x="1161" 
d="M1141 27q-90 -50 -172 -50q-42 0 -77.5 12.5t-66.5 40t-49 79.5t-18 124v406h-154l31 84h123v108q0 69 -48.5 117.5t-117.5 48.5q-67 0 -115.5 -49t-48.5 -117q0 -35 11 -63.5t33 -48.5t37 -30t40 -23l-27 -78q-42 26 -96 44.5t-98 18.5q-67 0 -107.5 -28.5t-40.5 -71.5
q0 -11 3 -21.5t9.5 -20t12.5 -17t18.5 -16t19.5 -13.5t22.5 -13t22 -11t23.5 -11t21 -10q96 -46 135 -79q82 -66 82 -153q0 -100 -74 -154.5t-186 -54.5q-18 0 -35.5 1.5t-33 4t-29 5t-27 7.5t-23 8t-21 8t-16.5 7.5t-15 7t-11 5.5v110q3 -1 22.5 -11t38 -18t44 -17.5
t53.5 -15t53 -5.5q64 0 107.5 27.5t43.5 78.5q0 20 -10.5 38t-32.5 33.5t-38.5 25.5t-47 25t-39.5 20q-4 2 -13 7q-40 21 -62.5 35.5t-56.5 42t-51 61t-17 73.5q0 95 70.5 149.5t158.5 54.5q16 0 28.5 -1.5t24 -3.5t15.5 -3q-27 47 -27 109q0 105 77 179.5t185 74.5
q109 0 186.5 -77.5t77.5 -186.5v-113h267l-31 -84h-236v-410q0 -82 31 -115.5t94 -33.5q22 0 47.5 6.5t40.5 13t36.5 16.5t23.5 11v-100z" />
    <glyph glyph-name="apple" horiz-adv-x="757" 
d="M625 584l-103 -103l-102 103l102 102zM481 727l-102 -102l-103 102l103 102zM481 440l-102 -102l-103 102l103 103zM338 584l-102 -103l-103 103l103 102z" />
    <glyph glyph-name="dollar.allsmall" horiz-adv-x="661" 
d="M348 -23v-137h-45v135q-112 3 -235 66v125q133 -82 235 -84v293l-80 49q-66 41 -108.5 91t-42.5 124q0 98 66 158.5t165 66.5v129h45v-127q86 -4 191 -51v-121q-108 60 -191 68v-279l80 -49q31 -19 53 -36t50.5 -45.5t43.5 -65.5t15 -80q0 -95 -67.5 -157t-174.5 -73z
M348 346v-262q56 9 90.5 40t34.5 79q0 68 -121 141zM303 512v248q-53 -6 -85 -37t-32 -78q0 -39 29.5 -69t87.5 -64z" />
    <glyph glyph-name="cent.allsmall" horiz-adv-x="679" 
d="M588 203q-17 -11 -31 -17q-65 -38 -156 -41v-145h-45v147q-114 11 -189 86.5t-75 186.5q0 112 74.5 188.5t189.5 87.5v142h45v-142q81 -2 183 -51v-106q-108 55 -183 57v-350q79 2 187 59v-102zM356 250v344q-69 -10 -110 -58t-41 -116t42.5 -114.5t108.5 -55.5z" />
    <glyph glyph-name="Euro.allsmall" horiz-adv-x="974" 
d="M893 780l-33 -106q-161 82 -278 82q-99 0 -183.5 -57t-122.5 -152h543l-22 -70h-539q-6 -27 -6 -59q0 -15 4 -43h508l-21 -70h-473q35 -100 120.5 -160.5t191.5 -60.5q77 0 148.5 23.5t156.5 66.5v-123q-83 -41 -150 -58.5t-155 -17.5q-155 0 -281 91.5t-164 238.5h-76
v70h62v43q0 39 2 59h-64v70h80q44 141 168.5 228t272.5 87q167 0 311 -82z" />
    <glyph glyph-name="sterling.allsmall" horiz-adv-x="755" 
d="M684 0h-623v104h103v228h-103v98h103v111q0 68 18 123.5t47 91.5t67 60.5t76 35t77 10.5q121 0 213 -57v-113q-122 70 -203 70q-27 0 -53.5 -9.5t-55.5 -31.5t-47 -68.5t-18 -111.5v-111h290v-98h-290v-228h399v-104z" />
    <glyph glyph-name="yen.allsmall" horiz-adv-x="704" 
d="M684 838l-260 -404h231v-92h-245v-78h245v-92h-245v-172h-117v172h-246v92h246v78h-246v92h234l-261 404h144l188 -314l187 314h145z" />
    <glyph glyph-name="florin.allsmall" horiz-adv-x="737" 
d="M717 793l-68 -66q-37 37 -76 37q-34 0 -62.5 -24t-35.5 -68l-26 -144h139v-88h-156l-82 -456q-24 -136 -107.5 -211.5t-199.5 -75.5q-137 0 -254 104l68 66q86 -74 184 -74q73 0 128 50.5t73 150.5l82 446h-107v88h123l27 146q17 88 72.5 138t127.5 50q87 0 150 -69z" />
    <glyph glyph-name="currency.allsmall" horiz-adv-x="974" 
d="M129 477h-66v70h80q44 140 167.5 227.5t271.5 87.5q172 0 311 -82l-31 -100q-56 28 -83.5 40.5t-84 27t-112.5 14.5q-102 0 -189 -59.5t-127 -155.5h555l-22 -70h-553q-4 -36 -4 -59q0 -29 2 -43h522l-23 -70h-483q34 -101 123.5 -165t198.5 -64q64 0 130 18t92.5 30.5
t82.5 41.5v-113q-54 -30 -103 -47q-95 -31 -202 -31q-156 0 -280.5 91.5t-162.5 238.5h-76v70h64q-2 14 -2 43q0 19 4 59z" />
    <glyph glyph-name="percent.allsmall" horiz-adv-x="1181" 
d="M1079 190q0 -90 -65 -152.5t-162 -62.5q-99 0 -164 62.5t-65 152.5q0 89 65 151t164 62q97 0 162 -62t65 -151zM930 862l-635 -897h-49l635 897h49zM557 647q0 -89 -65 -151t-162 -62t-162.5 62t-65.5 151q0 90 65.5 152.5t162.5 62.5t162 -62.5t65 -152.5zM981 190
q0 54 -37 90.5t-92 36.5q-57 0 -94 -36.5t-37 -90.5q0 -56 37 -92.5t94 -36.5q56 0 92.5 36.5t36.5 92.5zM461 647q0 56 -37 92.5t-94 36.5q-56 0 -93.5 -37t-37.5 -92q0 -54 37.5 -90.5t93.5 -36.5q57 0 94 36.5t37 90.5z" />
    <glyph glyph-name="perthousand.allsmall" horiz-adv-x="1736" 
d="M1634 190q0 -90 -65 -152.5t-162 -62.5q-99 0 -164 62.5t-65 152.5q0 89 66 151t163 62t162 -62t65 -151zM1079 190q0 -90 -65 -152.5t-162 -62.5q-99 0 -164 62.5t-65 152.5q0 89 65 151t164 62q97 0 162 -62t65 -151zM930 862l-635 -897h-49l635 897h49zM557 647
q0 -89 -65 -151t-162 -62t-162.5 62t-65.5 151q0 90 65.5 152.5t162.5 62.5t162 -62.5t65 -152.5zM1536 190q0 54 -37 90.5t-92 36.5q-57 0 -94 -36.5t-37 -90.5q0 -56 37 -92.5t94 -36.5q55 0 92 36.5t37 92.5zM981 190q0 54 -37 90.5t-92 36.5q-57 0 -94 -36.5t-37 -90.5
q0 -56 37 -92.5t94 -36.5q56 0 92.5 36.5t36.5 92.5zM461 647q0 56 -37 92.5t-94 36.5q-56 0 -93.5 -37t-37.5 -92q0 -54 37.5 -90.5t93.5 -36.5q57 0 94 36.5t37 90.5z" />
    <glyph glyph-name="plus.allsmall" horiz-adv-x="985" 
d="M883 377h-340v-328h-101v328h-340v98h340v324h101v-324h340v-98z" />
    <glyph glyph-name="minus.allsmall" horiz-adv-x="851" 
d="M750 377h-648v98h648v-98z" />
    <glyph glyph-name="multiply.allsmall" horiz-adv-x="1071" 
d="M887 147l-72 -71l-278 280l-281 -280l-72 71l281 281l-281 281l72 71l281 -280l278 280l72 -71l-279 -281z" />
    <glyph glyph-name="equal.allsmall" horiz-adv-x="851" 
d="M750 500h-648v98h648v-98zM750 246h-648v98h648v-98z" />
    <glyph glyph-name="less.allsmall" horiz-adv-x="655" 
d="M573 127l-491 262v72l491 264v-100l-372 -199l372 -197v-102z" />
    <glyph glyph-name="greater.allsmall" horiz-adv-x="655" 
d="M573 389l-491 -262v102l375 197l-375 199v100l491 -264v-72z" />
    <glyph glyph-name="slash.allsmall" horiz-adv-x="563" 
d="M543 862l-432 -887h-91l435 887h88z" />
    <glyph glyph-name="ampersand.allsmall" horiz-adv-x="919" 
d="M920 57q-9 -12 -25 -28q-51 -54 -109 -54q-54 0 -91.5 23.5t-73.5 69.5q-107 -93 -254 -93q-137 0 -221.5 76t-84.5 197q0 57 20.5 106t55.5 84.5t69 58.5t73 42l-187 260v39h608v-105h-413l346 -481q34 67 69 205h105q-23 -95 -47 -164t-64 -131q3 -4 13 -18t15.5 -21
t16.5 -19t19.5 -18t20 -11t22.5 -5q9 0 18 5t14 10t14 14.5t11 11.5zM559 152l-221 307q-154 -76 -154 -201q0 -77 55 -128.5t140 -51.5q103 0 180 74z" />
    <glyph glyph-name="paragraph.allsmall" horiz-adv-x="919" 
d="M817 0h-102v1071h-119v-219h-193l-59 57l-121 -121l121 -120l53 53h199v-721h-107v414h-90q-157 0 -268 109t-111 265t119.5 265.5t300.5 109.5h377v-1163z" />
    <glyph glyph-name="numbersign.allsmall" horiz-adv-x="901" 
d="M850 934l-23 -96h-184l-41 -187h186l-22 -96h-184l-52 -229h-100l51 229h-143l-49 -229h-103l52 229h-187l21 96h186l41 187h-186l20 96h186l50 229h100l-49 -229h143l49 229h101l-49 -229h186zM543 838h-144l-41 -187h144z" />
    <glyph glyph-name="mu.allsmall" horiz-adv-x="927" 
d="M795 0h-117v92q-102 -117 -256 -117q-63 0 -107.5 24.5t-62.5 55.5v-465h-119v1248h119v-559q0 -91 49.5 -146t132.5 -55q58 0 106 26t77 59.5t61 86.5v588h117v-838z" />
    <glyph glyph-name="c_t" horiz-adv-x="1325" 
d="M1305 27q-90 -50 -172 -50q-42 0 -77.5 12.5t-66.5 40t-49 79.5t-18 124v406h-154l31 84h123v108q0 69 -48.5 117.5t-117.5 48.5q-67 0 -115.5 -49t-48.5 -117q0 -35 11 -63.5t33 -48.5t37 -30t40 -23l-31 -82q-103 55 -219 55q-122 0 -199.5 -80.5t-77.5 -200.5
q0 -122 79.5 -199t197.5 -77q21 0 42 2t40.5 6t36.5 8t33.5 10t29 11t26 11.5t20 9.5t16 8.5t10.5 5.5v-103q-1 -1 -9.5 -6t-13.5 -8t-16.5 -9t-20.5 -10t-23.5 -10t-27.5 -9.5t-30.5 -8t-34.5 -7.5t-38 -4.5t-42 -1.5q-163 0 -276 108t-113 273t112 275t277 110q37 0 71 -6
q-26 45 -26 109q0 105 77 179.5t185 74.5q109 0 186.5 -77.5t77.5 -186.5v-113h266l-30 -84h-236v-410q0 -82 31 -115.5t94 -33.5q22 0 47.5 6.5t40.5 13t36.5 16.5t23.5 11v-100z" />
    <glyph glyph-name="c_t.alt" horiz-adv-x="1222" 
d="M1206 723l-28 -84h-146v-639h-110v639h-154l31 84h123v108q0 69 -48.5 117.5t-117.5 48.5q-67 0 -115.5 -49t-48.5 -117q0 -35 11 -63.5t33 -48.5t37 -30t40 -23l-31 -82q-103 55 -219 55q-122 0 -199.5 -80.5t-77.5 -200.5q0 -122 79.5 -199t197.5 -77q21 0 42 2t40.5 6
t36.5 8t33.5 10t29 11t26 11.5t20 9.5t16 8.5t10.5 5.5v-103q-1 -1 -9.5 -6t-13.5 -8t-16.5 -9t-20.5 -10t-23.5 -10t-27.5 -9.5t-30.5 -8t-34.5 -7.5t-38 -4.5t-42 -1.5q-163 0 -276 108t-113 273t112 275t277 110q37 0 71 -6q-26 45 -26 109q0 105 77 179.5t185 74.5
q109 0 186.5 -77.5t77.5 -186.5v-113h174z" />
    <glyph glyph-name="f_b" horiz-adv-x="1392" 
d="M1321 360q0 -162 -107.5 -272.5t-261.5 -110.5q-23 0 -45 3t-39 7t-35 10.5t-29.5 12t-25.5 14t-20 12.5t-16 11t-11 8l-16 -55h-84v1014q-84 84 -197 84q-71 0 -120.5 -50.5t-49.5 -138.5v-186h230l-33 -84h-197v-639h-110v639h-127l30 84h97v184q0 133 80.5 212
t193.5 79q166 0 313 -147v-371l9 6q8 5 13.5 8.5t19 10.5t25 11.5t29.5 10.5t36 9.5t41 6t47 2.5q145 0 252.5 -111.5t107.5 -273.5zM1206 360q0 121 -77 202t-195 81q-100 0 -193 -72v-415q95 -76 193 -76q117 0 194.5 80.5t77.5 199.5z" />
    <glyph glyph-name="f_b.alt" horiz-adv-x="1411" 
d="M1339 362q0 -161 -102 -273t-252 -112q-159 0 -256.5 104t-97.5 255v797q-84 84 -197 84q-71 0 -120.5 -50.5t-49.5 -138.5v-305h230l-33 -84h-197v-639h-110v639h-127l30 84h97v303q0 133 80.5 212t193.5 79q165 0 313 -148v-501q99 77 228 77q155 0 262.5 -111
t107.5 -272zM1225 362q0 117 -73 199t-181 82q-109 0 -230 -84v-219q0 -113 68 -186.5t174 -73.5q105 0 173.5 82t68.5 200z" />
    <glyph glyph-name="ff.alt" horiz-adv-x="1005" 
d="M1130 1219l-69 -70q-73 68 -143 68q-67 0 -111.5 -51t-44.5 -138v-305h229l-33 -84h-196v-639h-111v639h-387v-639h-110v639h-127l30 84h97v303q0 130 79.5 210.5t196.5 80.5q128 0 272 -115q9 13 22.5 27.5t40.5 37t66.5 36.5t83.5 14q111 0 215 -98zM662 1112
q-105 105 -226 105q-74 0 -123 -51t-49 -140v-303h387v307q0 27 11 82z" />
    <glyph glyph-name="f_f_b" horiz-adv-x="1890" 
d="M1819 360q0 -162 -107.5 -272.5t-261.5 -110.5q-23 0 -45 3t-39 7t-35 10.5t-29.5 12t-25.5 14t-20 12.5t-16 11t-11 8l-17 -55h-84v1014q-84 84 -196 84q-71 0 -120.5 -50.5t-49.5 -138.5v-186h229l-33 -84h-196v-639h-111v639h-387v-639h-110v639h-127l30 84h97v184
q0 130 79.5 210.5t196.5 80.5q131 0 272 -113q38 53 97.5 83t126.5 30q166 0 313 -147v-371l8 6q8 5 14 8.5t19 10.5t24.5 11.5t29.5 10.5t36 9.5t41 6t47 2.5q145 0 253 -112t108 -273zM659 993q-105 105 -223 105q-74 0 -123 -51t-49 -140v-184h387v188q0 42 8 82z
M1704 360q0 121 -77 202t-195 81q-100 0 -193 -72v-415q95 -76 193 -76q117 0 194.5 80.5t77.5 199.5z" />
    <glyph glyph-name="f_f_b.alt" horiz-adv-x="1908" 
d="M1837 362q0 -161 -102 -273t-252 -112q-159 0 -257 104t-98 255v797q-84 84 -196 84q-71 0 -120.5 -50.5t-49.5 -138.5v-305h229l-33 -84h-196v-639h-111v639h-387v-639h-110v639h-127l30 84h97v303q0 130 79.5 210.5t196.5 80.5q131 0 272 -113q38 53 97.5 83t126.5 30
q165 0 313 -148v-501q99 77 227 77q155 0 263 -111t108 -272zM1722 362q0 117 -73 199t-181 82t-229 -84v-219q0 -113 68 -186.5t174 -73.5q104 0 172.5 81.5t68.5 200.5zM659 1112q-105 105 -223 105q-74 0 -123 -51t-49 -140v-303h387v307q0 42 8 82z" />
    <glyph glyph-name="f_f_h" horiz-adv-x="1839" 
d="M1726 0h-110v518q0 52 -32.5 88.5t-88.5 36.5q-79 0 -137.5 -38t-118.5 -109v-496h-111v1014q-84 84 -196 84q-71 0 -120.5 -50.5t-49.5 -138.5v-186h229l-33 -84h-196v-639h-111v639h-387v-639h-110v639h-127l30 84h97v184q0 130 79.5 210.5t196.5 80.5q131 0 272 -113
q38 53 97.5 83t126.5 30q166 0 313 -147v-439q18 18 28.5 28t40.5 33t56 36t65.5 24.5t79.5 11.5q90 0 153.5 -57.5t63.5 -165.5v-522zM659 993q-105 105 -223 105q-74 0 -123 -51t-49 -140v-184h387v188q0 42 8 82z" />
    <glyph glyph-name="f_f_h.alt" horiz-adv-x="1837" 
d="M1724 0h-110v627h-375v-627h-111v1133q-84 84 -196 84q-71 0 -120.5 -50.5t-49.5 -138.5v-305h229l-33 -84h-196v-639h-111v639h-387v-639h-110v639h-127l30 84h97v303q0 130 79.5 210.5t196.5 80.5q131 0 272 -113q38 53 97.5 83t126.5 30q165 0 313 -148v-446h485v-723
zM659 1112q-105 105 -223 105q-74 0 -123 -51t-49 -140v-303h387v307q0 42 8 82z" />
    <glyph glyph-name="ffi.alt" horiz-adv-x="1392" 
d="M1260 0h-111v639h-387v-639h-111v639h-387v-639h-110v639h-127l30 84h97v303q0 130 79.5 210.5t196.5 80.5q128 0 272 -115q9 13 22.5 27.5t40.5 37t66.5 36.5t83.5 14q111 0 215 -98l-69 -70q-73 68 -143 68q-67 0 -111.5 -51t-44.5 -138v-305h498v-723zM662 1112
q-105 105 -226 105q-74 0 -123 -51t-49 -140v-303h387v307q0 27 11 82z" />
    <glyph glyph-name="ffl.alt" horiz-adv-x="1349" 
d="M1239 0h-111v1126q-50 50 -94 70q-45 21 -92 21q-71 0 -120.5 -50.5t-49.5 -138.5v-305h229l-32 -84h-197v-639h-110v639h-398v-639h-110v639h-127l30 84h97v305q0 131 80.5 210t193.5 79q145 0 281 -121q81 121 231 121q30 0 58 -4.5t52.5 -13.5t45.5 -19t40 -23.5
t33 -24.5t27.5 -25t20.5 -21.5t15 -17.5l7 -9v-1159zM670 1104l-10 10q-11 9 -18 15.5t-22 18t-28 20t-32 18.5t-37.5 16t-41 10.5t-45.5 4.5q-74 0 -123 -50t-49 -139v-305h398v305q0 45 8 76z" />
    <glyph glyph-name="f_f_t" horiz-adv-x="1531" 
d="M1511 27q-90 -50 -172 -50q-42 0 -77.5 12.5t-66.5 40t-49 79.5t-18 124v406h-366v-639h-111v639h-387v-639h-110v639h-127l30 84h97v184q0 130 79.5 210.5t196.5 80.5q131 0 272 -113q38 53 97.5 83t126.5 30q166 0 313 -147v-328h266l-30 -84h-236v-410
q0 -82 31 -115.5t94 -33.5q22 0 47 6.5t40.5 13t36.5 16.5t23 11v-100zM1128 723v291q-84 84 -196 84q-71 0 -120.5 -50.5t-49.5 -138.5v-186h366zM662 993q-114 105 -226 105q-74 0 -123 -51t-49 -140v-184h387v184q0 40 11 86z" />
    <glyph glyph-name="f_f_t.alt" horiz-adv-x="1429" 
d="M1413 723l-29 -84h-145v-639h-111v639h-366v-639h-111v639h-387v-639h-110v639h-127l30 84h97v303q0 130 79.5 210.5t196.5 80.5q28 0 56.5 -5t53.5 -14.5t46 -19t42 -23t32.5 -21t26 -19t15.5 -11.5q38 53 97.5 83t126.5 30q165 0 313 -148v-446h174zM1128 723v410
q-84 84 -196 84q-71 0 -120.5 -50.5t-49.5 -138.5v-305h366zM662 1112q-114 105 -226 105q-74 0 -123 -51t-49 -140v-303h387v303q0 40 11 86z" />
    <glyph glyph-name="f_f_y" horiz-adv-x="1669" 
d="M1659 723l-262 -723l-164 -465h-111l164 465l-229 639h-295v-639h-111v639h-387v-639h-110v639h-127l30 84h97v184q0 130 79.5 210.5t196.5 80.5q128 0 272 -115q9 13 22.5 27.5t40.5 37t66.5 36.5t83.5 14q111 0 215 -98l-69 -70q-73 68 -143 68q-67 0 -111.5 -51
t-44.5 -138v-186h383l196 -578l199 578h119zM662 993q-105 105 -226 105q-74 0 -123 -51t-49 -140v-184h387v188q0 27 11 82z" />
    <glyph glyph-name="f_f_y.alt" horiz-adv-x="1669" 
d="M1659 723l-262 -723l-201 -567h-111l201 567l-229 639h-295v-639h-111v639h-387v-639h-110v639h-127l30 84h97v303q0 130 79.5 210.5t196.5 80.5q128 0 272 -115q9 13 22.5 27.5t40.5 37t66.5 36.5t83.5 14q111 0 215 -98l-69 -70q-73 68 -143 68q-67 0 -111.5 -51
t-44.5 -138v-305h383l196 -578l199 578h119zM662 1112q-105 105 -226 105q-74 0 -123 -51t-49 -140v-303h387v307q0 27 11 82z" />
    <glyph glyph-name="f_h" horiz-adv-x="1341" 
d="M1229 0h-111v518q0 52 -32.5 88.5t-88.5 36.5q-79 0 -137.5 -38t-118.5 -109v-496h-110v1014q-84 84 -197 84q-71 0 -120.5 -50.5t-49.5 -138.5v-186h230l-33 -84h-197v-639h-110v639h-127l30 84h97v184q0 133 80.5 212t193.5 79q166 0 313 -147v-439q18 18 29 28
t40.5 33t56 36t66 24.5t79.5 11.5q90 0 153.5 -57.5t63.5 -165.5v-522z" />
    <glyph glyph-name="f_h.alt" horiz-adv-x="1339" 
d="M1227 0h-111v627h-375v-627h-110v1133q-84 84 -197 84q-71 0 -120.5 -50.5t-49.5 -138.5v-305h230l-33 -84h-197v-639h-110v639h-127l30 84h97v303q0 133 80.5 212t193.5 79q165 0 313 -148v-446h486v-723z" />
    <glyph glyph-name="fi.alt" horiz-adv-x="894" 
d="M762 0h-111v639h-387v-639h-110v639h-127l30 84h97v303q0 131 80 211t184 80q111 0 215 -98l-70 -70q-73 68 -143 68q-65 0 -110.5 -50.5t-45.5 -138.5v-305h498v-723z" />
    <glyph glyph-name="fl.alt" horiz-adv-x="841" 
d="M731 0h-110v1124l-6 6l-9.5 9.5t-12 11.5t-15.5 13l-17.5 12.5t-20.5 12.5t-23 11t-25.5 9t-27.5 5.5t-30 2.5q-71 0 -120.5 -50.5t-49.5 -138.5v-305h230l-33 -84h-197v-639h-110v639h-127l30 84h97v303q0 134 80 212.5t198 78.5q30 0 58 -4.5t52.5 -13.5t45.5 -19
t40 -23.5t33 -24.5t27.5 -25t20.5 -21.5t15 -17.5l7 -9v-1159z" />
    <glyph glyph-name="f_t" horiz-adv-x="1034" 
d="M1014 27q-90 -50 -172 -50q-42 0 -77.5 12.5t-66.5 40t-49 79.5t-18 124v406h-367v-639h-110v639h-127l30 84h97v184q0 133 80.5 212t193.5 79q166 0 313 -147v-328h267l-31 -84h-236v-410q0 -82 31 -115.5t94 -33.5q22 0 47.5 6.5t40.5 13t36.5 16.5t23.5 11v-100z
M631 723v291q-84 84 -197 84q-71 0 -120.5 -50.5t-49.5 -138.5v-186h367z" />
    <glyph glyph-name="f_t.alt" horiz-adv-x="931" 
d="M915 723l-28 -84h-146v-639h-110v639h-367v-639h-110v639h-127l30 84h97v303q0 133 80.5 212t193.5 79q165 0 313 -148v-446h174zM631 723v410q-84 84 -197 84q-71 0 -120.5 -50.5t-49.5 -138.5v-305h367z" />
    <glyph glyph-name="f_y" horiz-adv-x="1171" 
d="M1161 723l-262 -723l-164 -465h-110l163 465l-229 639h-295v-639h-110v639h-127l30 84h97v184q0 131 80 211t184 80q111 0 215 -98l-70 -70q-73 68 -143 68q-65 0 -110.5 -50.5t-45.5 -138.5v-186h383l197 -578l198 578h119z" />
    <glyph glyph-name="f_y.alt" horiz-adv-x="1171" 
d="M1161 723l-262 -723l-201 -567h-110l200 567l-229 639h-295v-639h-110v639h-127l30 84h97v303q0 131 80 211t184 80q111 0 215 -98l-70 -70q-73 68 -143 68q-65 0 -110.5 -50.5t-45.5 -138.5v-305h383l197 -578l198 578h119z" />
    <glyph glyph-name="g_i" horiz-adv-x="1175" 
d="M1032 0h-110v637h-287q78 -84 78 -199q0 -128 -94.5 -218.5t-229.5 -90.5q-57 0 -110 18l-76 -100q26 -3 39 -8l262 -84q217 -68 217 -246q0 -110 -93.5 -181t-224.5 -71q-153 0 -250.5 81t-97.5 190q0 45 16.5 85.5t43.5 69t45 43t35 25.5l-134 43l142 190
q-64 43 -100.5 109.5t-36.5 142.5q0 128 95 218.5t228 90.5t225 -86l64 64h354v-723zM608 436q0 90 -64 151.5t-155 61.5q-90 0 -153.5 -61.5t-63.5 -151.5q0 -89 63.5 -150t153.5 -61q91 0 155 61t64 150zM616 -291q0 108 -139 154l-188 59q-46 -27 -72 -57
q-57 -65 -57 -135q0 -74 68.5 -126.5t174.5 -52.5q102 0 157.5 47.5t55.5 110.5zM1069 956l-92 -92l-94 92l92 93z" />
    <glyph glyph-name="g_i.alt" horiz-adv-x="1234" 
d="M1102 723v-723h-111v637h-299q47 -47 75 -111.5t28 -134.5q0 -133 -89.5 -232t-222.5 -118v-608h-108v608q-134 19 -224 118t-90 232q0 146 107.5 250t259.5 104q134 0 240 -86l63 64h371zM680 391q0 107 -74.5 179.5t-177.5 72.5t-177.5 -72.5t-74.5 -179.5
q0 -106 75 -180t177 -74t177 74t75 180zM1159 958l-198 -94l90 203z" />
    <glyph glyph-name="g_y" horiz-adv-x="1443" 
d="M616 -291q0 108 -139 154l-188 59q-46 -27 -72 -57q-57 -65 -57 -135q0 -74 68.5 -126.5t174.5 -52.5q102 0 157.5 47.5t55.5 110.5zM608 436q0 90 -64 151.5t-155 61.5q-90 0 -153.5 -61.5t-63.5 -151.5q0 -89 63.5 -150t153.5 -61q91 0 155 61t64 150zM920 723
l196 -578l199 578h119l-263 -723l-163 -465h-111l164 465l-230 637h-196q78 -84 78 -199q0 -128 -94.5 -218.5t-229.5 -90.5q-57 0 -110 18l-76 -100q26 -3 39 -8l262 -84q217 -68 217 -246q0 -110 -93.5 -181t-224.5 -71q-153 0 -250.5 81t-97.5 190q0 45 16.5 85.5
t43.5 69t45 43t35 25.5l-134 43l142 190q-64 43 -100.5 109.5t-36.5 142.5q0 128 95 218.5t228 90.5t225 -86l64 64h242z" />
    <glyph glyph-name="g_y.alt" horiz-adv-x="1511" 
d="M680 391q0 107 -74.5 179.5t-177.5 72.5t-177.5 -72.5t-74.5 -179.5q0 -106 75 -180t177 -74t177 74t75 180zM987 723l197 -578l198 578h119l-262 -723l-201 -567h-110l200 567l-229 637h-207q47 -47 75 -111.5t28 -134.5q0 -133 -89.5 -232t-222.5 -118v-608h-108v608
q-134 19 -224 118t-90 232q0 146 107.5 250t259.5 104q134 0 240 -86l63 64h256z" />
    <glyph glyph-name="o_f" horiz-adv-x="1429" 
d="M1343 582q0 -126 -48 -239.5t-130.5 -196.5t-200 -132t-249.5 -49q-176 0 -321 83t-226.5 224.5t-81.5 309.5q0 126 48 239.5t131 196.5t200.5 131.5t249.5 48.5t249.5 -48.5t200 -131.5t130.5 -196.5t48 -239.5zM1223 582q0 214 -146 364t-362 150t-362 -150t-146 -364
t146 -364t362 -150t362 150t146 364zM928 805h-291v-203h223v-90h-223v-272h-107v657h398v-92z" />
    <glyph glyph-name="o_f.alt" horiz-adv-x="1286" 
d="M1135 0h-983v1163h983v-1163zM1014 104v953h-742v-953h742zM860 805h-289v-203h220v-90h-220v-272h-106v657h395v-92z" />
    <glyph glyph-name="o_f.small" horiz-adv-x="1419" 
d="M1378 733h-352v-258h287v-104h-287v-371h-119v135q-61 -75 -151 -117.5t-195 -42.5q-200 0 -334.5 129t-134.5 314q0 186 134 315t335 129q105 0 195 -42.5t151 -117.5v136h471v-105zM907 418q0 143 -99 242.5t-247 99.5q-149 0 -248.5 -99.5t-99.5 -242.5
q0 -141 99.5 -240.5t248.5 -99.5q148 0 247 99.5t99 240.5z" />
    <glyph glyph-name="o_f.altsmall" horiz-adv-x="1206" 
d="M1165 733h-352v-258h287v-104h-287v-371h-680v838h1032v-105zM694 102v633h-444v-633h444zM561 418l-88 -84l-90 84l90 86z" />
    <glyph glyph-name="s_t.alt" horiz-adv-x="1083" 
d="M1067 723l-29 -84h-145v-639h-111v639h-153l30 84h123v108q0 69 -48.5 117.5t-117.5 48.5q-67 0 -115 -49t-48 -117q0 -16 2.5 -31t6.5 -26.5t11 -23t12.5 -19.5t15.5 -17t15.5 -13.5t16.5 -11.5t14.5 -9l14 -8t11.5 -6l-26 -74q-110 57 -180 57q-92 0 -170 -47l385 -489
q-136 -136 -314 -136q-23 0 -47 2.5t-42 6t-37 9t-29.5 9t-23 8t-13.5 4.5v111q2 -1 18 -8.5t32 -13.5t39 -13t49.5 -11.5t51.5 -4.5q19 0 37.5 2t34 6t28.5 8t25.5 9.5t19.5 8.5t15.5 8t9.5 5l-381 487l11 10q10 10 19 18t27 21.5t35.5 24t43.5 22.5t52 20t59.5 13.5
t68.5 5.5h16q-20 40 -20 101q0 105 77 179.5t185 74.5q109 0 186.5 -77.5t77.5 -186.5v-113h174z" />
    <glyph glyph-name="zero.ltab" horiz-adv-x="987" 
d="M885 580q0 -159 -44 -297t-135 -229t-212 -91q-91 0 -167 52.5t-124 140t-74.5 197.5t-26.5 227t26.5 227t74.5 197.5t124 140.5t167 53t166.5 -53t124 -140.5t74.5 -197.5t26 -227zM760 580q0 130 -28.5 244t-90.5 191t-147 77t-147.5 -77t-91 -191t-28.5 -244
t28.5 -243.5t91 -190t147.5 -76.5t147 76.5t90.5 190t28.5 243.5z" />
    <glyph glyph-name="one.ltab" horiz-adv-x="987" 
d="M555 0h-123v1141l123 65v-1206z" />
    <glyph glyph-name="two.ltab" horiz-adv-x="987" 
d="M838 0h-713v37l385 430q93 105 146 195.5t53 181.5q0 109 -66.5 178.5t-173.5 69.5q-99 0 -173 -64.5t-81 -163.5h-106q8 141 113 239.5t249 98.5q159 0 259.5 -97.5t100.5 -258.5q0 -186 -215 -422l-286 -315h508v-109z" />
    <glyph glyph-name="three.ltab" horiz-adv-x="987" 
d="M811 354q0 -172 -115.5 -279.5t-279.5 -107.5q-179 0 -303 119l65 80q39 -39 98.5 -68.5t129.5 -29.5q111 0 195.5 76.5t84.5 205.5q0 81 -40 139t-97 83.5t-121 25.5q-50 0 -115 -25l-39 54q48 27 80.5 47t84.5 61t88.5 82.5t73.5 104t58 133.5h-516v108h643v-59
q-11 -74 -39 -141.5t-58 -111.5t-69 -83t-61.5 -56t-44.5 -32q29 -4 64 -16t77.5 -38t76 -60.5t56.5 -90t23 -121.5z" />
    <glyph glyph-name="four.ltab" horiz-adv-x="987" 
d="M950 330h-250v-330h-118v330h-508l-19 51l549 782h96v-729h250v-104zM582 434v549l-385 -549h385z" />
    <glyph glyph-name="five.ltab" horiz-adv-x="987" 
d="M829 358q0 -110 -55 -201t-145.5 -141.5t-194.5 -50.5q-169 0 -303 109q-28 21 -37 30l66 84q39 -42 82 -67q82 -53 178 -53q119 0 203 86t84 213q0 122 -85 202t-212 80q-56 0 -109 -22q-36 -12 -59 -31l-31 8l39 559h549v-108h-457l-23 -324q69 19 117 19
q103 0 192.5 -48.5t145 -139.5t55.5 -204z" />
    <glyph glyph-name="six.ltab" horiz-adv-x="987" 
d="M885 1098q-212 -35 -371 -140.5t-238 -293.5q1 0 15 7.5t22.5 11.5t29 11t39 11t46 7t57.5 3q97 0 184 -43.5t144 -131.5t57 -202q0 -154 -108.5 -263.5t-259.5 -109.5q-94 0 -171.5 38t-126.5 101.5t-75.5 143.5t-26.5 168q0 154 63.5 293t171 239t250 164.5t298.5 77.5
v-92zM756 338q0 115 -79.5 196.5t-209.5 81.5q-117 0 -217 -55q-23 -57 -23 -141q0 -95 28.5 -172.5t94.5 -128.5t160 -51q106 0 176 82.5t70 187.5z" />
    <glyph glyph-name="seven.ltab" horiz-adv-x="987" 
d="M887 1126l-494 -1126h-135l481 1055h-639v108h764z" />
    <glyph glyph-name="eight.ltab" horiz-adv-x="987" 
d="M831 281q0 -131 -97.5 -223.5t-239.5 -92.5q-144 0 -241 90.5t-97 220.5q0 203 256 338q-240 116 -240 306q0 117 93 197.5t229 80.5t227.5 -79.5t91.5 -196.5q0 -184 -235 -299q253 -136 253 -342zM700 911q0 74 -56.5 129.5t-149.5 55.5q-94 0 -151.5 -54t-57.5 -124
q0 -56 37 -107q41 -54 127 -106l53 -33l39 24q159 101 159 215zM717 283q0 63 -31 110q-51 82 -149 142l-48 28l-38 -22q-181 -107 -181 -254q0 -88 63 -152.5t161 -64.5q98 -1 160.5 62.5t62.5 150.5z" />
    <glyph glyph-name="nine.ltab" horiz-adv-x="987" 
d="M102 66q212 35 371 140.5t238 293.5q-1 0 -15 -7.5t-22.5 -11.5t-29 -11t-39 -11t-46 -7t-57.5 -3q-72 0 -140.5 26t-123 72.5t-88 119t-33.5 158.5q0 154 108.5 263.5t259.5 109.5q94 0 171.5 -37.5t126.5 -101t75.5 -143.5t26.5 -168q0 -154 -63.5 -293t-171 -239.5
t-250 -165t-298.5 -77.5v93zM231 825q0 -115 79.5 -196.5t209.5 -81.5q117 0 217 55q23 58 23 141q0 70 -17 132t-50.5 112.5t-89 79.5t-126.5 29q-106 0 -176 -83t-70 -188z" />
    <glyph glyph-name="zero.oprp" horiz-adv-x="1200" 
d="M1098 471q0 -139 -67 -254t-181.5 -180.5t-249.5 -65.5t-249.5 65.5t-181.5 180.5t-67 254t67 254t181.5 180.5t249.5 65.5t249.5 -65.5t181.5 -180.5t67 -254zM973 471q0 165 -110 279t-263 114t-263 -114t-110 -279t110 -279t263 -114t263 114t110 279z" />
    <glyph glyph-name="one.oprp" horiz-adv-x="464" 
d="M293 0h-121v936h121v-936z" />
    <glyph glyph-name="two.oprp" horiz-adv-x="864" 
d="M762 662q0 -48 -15 -94t-34.5 -78.5t-51.5 -67.5t-52.5 -53t-51.5 -43l-268 -222h459v-104h-666v39l379 340q92 82 135 144t43 126q0 94 -65 153.5t-162 59.5q-93 0 -155 -68.5t-62 -164.5h-101l-2 28q0 130 100.5 222t239.5 92t234.5 -89t95.5 -220z" />
    <glyph glyph-name="three.oprp" horiz-adv-x="841" 
d="M739 127q0 -172 -115.5 -279.5t-279.5 -107.5q-179 0 -303 119l65 80q39 -39 98.5 -69t129.5 -30q111 0 195.5 77t84.5 206q0 81 -40 139t-97 83.5t-121 25.5q-49 0 -114 -25l-39 53q48 27 80.5 47t84.5 61t88.5 82.5t73.5 104t58 133.5h-516v109h643v-59
q-11 -74 -39 -141.5t-58.5 -111.5t-69.5 -83t-61 -56t-45 -32q29 -4 64 -16t77.5 -38t76 -60.5t56.5 -90t23 -121.5z" />
    <glyph glyph-name="four.oprp" horiz-adv-x="956" 
d="M936 102h-250v-329h-119v329h-508l-18 52l549 782h96v-729h250v-105zM567 207v549l-385 -549h385z" />
    <glyph glyph-name="five.oprp" horiz-adv-x="878" 
d="M776 131q0 -110 -55 -201t-145.5 -141.5t-194.5 -50.5q-170 0 -303 108q-24 18 -37 31l65 84q39 -42 82 -67q84 -54 179 -54q118 0 202 86t84 213q0 122 -85 202.5t-212 80.5q-52 0 -108 -23q-40 -14 -60 -30l-30 8l39 559h548v-109h-456l-23 -323q65 18 117 18
q103 0 192.5 -48.5t145 -139t55.5 -203.5z" />
    <glyph glyph-name="six.oprp" horiz-adv-x="1019" 
d="M918 1188v-92q-442 -77 -613 -369q2 1 15 6.5t21.5 9t27 9t35.5 8.5t43 5.5t53 2.5q74 0 145 -27t128.5 -76.5t92.5 -126t35 -167.5q0 -168 -113.5 -287t-271.5 -119q-96 0 -175.5 38t-131 101t-79.5 144t-28 168q0 135 48 256.5t129.5 211t186.5 157t220.5 104
t231.5 43.5zM786 373q0 130 -90 213.5t-217 83.5q-119 0 -213 -52l-4 -10q-4 -9 -10 -26t-11.5 -38.5t-9.5 -51t-4 -58.5q0 -162 78.5 -264t208.5 -102q116 0 194 86t78 219z" />
    <glyph glyph-name="seven.oprp" horiz-adv-x="868" 
d="M807 899l-494 -1126h-135l481 1054h-639v109h764z" />
    <glyph glyph-name="eight.oprp" horiz-adv-x="880" 
d="M778 281q0 -131 -98 -223.5t-240 -92.5q-144 0 -241 90.5t-97 220.5q0 203 256 338q-239 115 -239 306q0 117 92.5 197.5t228.5 80.5t228 -79.5t92 -196.5q0 -184 -236 -299q254 -137 254 -342zM647 911q0 74 -56.5 129.5t-150.5 55.5t-151.5 -54t-57.5 -124
q0 -56 37 -107q41 -54 127 -106l54 -33l38 24q160 101 160 215zM664 283q0 63 -31 110q-51 80 -150 142l-47 28l-39 -22q-180 -106 -180 -254q0 -88 62.5 -152.5t160.5 -64.5q98 -1 161 62.5t63 150.5z" />
    <glyph glyph-name="nine.oprp" horiz-adv-x="1019" 
d="M102 -252v92q442 77 613 369q-2 -1 -15 -6.5t-21.5 -9t-27 -9t-35.5 -8.5t-43 -5.5t-53 -2.5q-74 0 -145 27t-128.5 76.5t-92.5 126t-35 167.5q0 168 113.5 287t271.5 119q96 0 175.5 -38t131 -101t79.5 -144t28 -168q0 -135 -48 -256.5t-129.5 -211t-186.5 -157
t-220.5 -104t-231.5 -43.5zM233 563q0 -130 90.5 -213.5t217.5 -83.5q121 0 213 51l4 9q4 10 10 27t11.5 39t9.5 51.5t4 58.5q0 162 -78.5 264t-208.5 102q-116 0 -194.5 -86t-78.5 -219z" />
    <glyph glyph-name="percent.oprp" horiz-adv-x="1390" 
d="M1329 264q0 -126 -84.5 -212.5t-210.5 -86.5t-210.5 86.5t-84.5 212.5q0 124 84.5 210.5t210.5 86.5t210.5 -86.5t84.5 -210.5zM1163 1198l-872 -1233h-64l873 1233h63zM651 899q0 -124 -84.5 -210.5t-210.5 -86.5t-210.5 86.5t-84.5 210.5q0 126 84.5 212.5t210.5 86.5
t210.5 -86.5t84.5 -212.5zM1237 264q0 89 -58 150t-145 61t-145 -61t-58 -150q0 -90 58 -151.5t145 -61.5t145 61.5t58 151.5zM559 899q0 90 -58 151.5t-145 61.5t-144.5 -61.5t-57.5 -151.5q0 -89 57.5 -150t144.5 -61t145 61t58 150z" />
    <glyph glyph-name="perthousand.oprp" horiz-adv-x="2121" 
d="M2060 264q0 -126 -84.5 -212.5t-210.5 -86.5t-210.5 86.5t-84.5 212.5q0 124 84.5 210.5t210.5 86.5t210.5 -86.5t84.5 -210.5zM1329 264q0 -126 -84.5 -212.5t-210.5 -86.5t-210.5 86.5t-84.5 212.5q0 124 84.5 210.5t210.5 86.5t210.5 -86.5t84.5 -210.5zM1163 1198
l-872 -1233h-64l873 1233h63zM651 899q0 -124 -84.5 -210.5t-210.5 -86.5t-210.5 86.5t-84.5 210.5q0 126 84.5 212.5t210.5 86.5t210.5 -86.5t84.5 -212.5zM1968 264q0 89 -58 150t-145 61t-144.5 -61t-57.5 -150q0 -90 57.5 -151.5t144.5 -61.5t145 61.5t58 151.5z
M1237 264q0 89 -58 150t-145 61t-145 -61t-58 -150q0 -90 58 -151.5t145 -61.5t145 61.5t58 151.5zM559 899q0 90 -58 151.5t-145 61.5t-144.5 -61.5t-57.5 -151.5q0 -89 57.5 -150t144.5 -61t145 61t58 150z" />
    <glyph glyph-name="zero.otab" horiz-adv-x="1019" 
d="M918 471q0 -213 -117 -356.5t-291 -143.5t-291 143.5t-117 356.5t117 356.5t291 143.5t291 -143.5t117 -356.5zM793 471q0 166 -81 279.5t-202 113.5t-202 -113.5t-81 -279.5t81 -279.5t202 -113.5t202 113.5t81 279.5z" />
    <glyph glyph-name="one.otab" horiz-adv-x="1019" 
d="M569 0h-120v936h120v-936z" />
    <glyph glyph-name="two.otab" horiz-adv-x="1019" 
d="M840 662q0 -48 -15 -94t-34.5 -78.5t-51.5 -67.5t-52.5 -53t-51.5 -43l-268 -222h458v-104h-665v39l379 340q92 82 135 144t43 126q0 94 -65.5 153.5t-162.5 59.5q-93 0 -155 -68.5t-62 -164.5h-100l-2 28q0 130 100.5 222t239.5 92t234.5 -89t95.5 -220z" />
    <glyph glyph-name="three.otab" horiz-adv-x="1019" 
d="M827 127q0 -172 -115.5 -279.5t-279.5 -107.5q-179 0 -303 119l66 80q39 -39 98 -69t129 -30q111 0 195.5 77t84.5 206q0 81 -40 139t-97 83.5t-121 25.5q-49 0 -114 -25l-39 53q48 27 80.5 47t84.5 61t88.5 82.5t73.5 104t58 133.5h-516v109h643v-59q-11 -74 -39 -141.5
t-58.5 -111.5t-69.5 -83t-61 -56t-45 -32q29 -4 64 -16t77.5 -38t76 -60.5t56.5 -90t23 -121.5z" />
    <glyph glyph-name="four.otab" horiz-adv-x="1019" 
d="M967 102h-250v-329h-119v329h-508l-18 52l549 782h96v-729h250v-105zM598 207v549l-385 -549h385z" />
    <glyph glyph-name="five.otab" horiz-adv-x="1019" 
d="M846 131q0 -110 -55 -201t-145.5 -141.5t-194.5 -50.5q-171 0 -304 108q-20 15 -36 31l65 84q39 -42 82 -67q84 -54 178 -54q119 0 203 86t84 213q0 122 -85 202.5t-212 80.5q-53 0 -109 -23q-38 -13 -59 -30l-31 8l39 559h549v-109h-457l-22 -323q65 18 117 18
q103 0 192.5 -48.5t145 -139t55.5 -203.5z" />
    <glyph glyph-name="six.otab" horiz-adv-x="1019" 
d="M918 1188v-92q-442 -77 -613 -369q2 1 15 6.5t21.5 9t27 9t35.5 8.5t43 5.5t53 2.5q74 0 145 -27t128.5 -76.5t92.5 -126t35 -167.5q0 -168 -113.5 -287t-271.5 -119q-96 0 -175.5 38t-131 101t-79.5 144t-28 168q0 135 48 256.5t129.5 211t186.5 157t220.5 104
t231.5 43.5zM786 373q0 130 -90 213.5t-217 83.5q-119 0 -213 -52l-4 -10q-4 -9 -10 -26t-11.5 -38.5t-9.5 -51t-4 -58.5q0 -162 78.5 -264t208.5 -102q116 0 194 86t78 219z" />
    <glyph glyph-name="seven.otab" horiz-adv-x="1019" 
d="M883 899l-494 -1126h-135l481 1054h-639v109h764z" />
    <glyph glyph-name="eight.otab" horiz-adv-x="1019" 
d="M848 281q0 -131 -98 -223.5t-240 -92.5q-144 0 -241 90.5t-97 220.5q0 203 256 338q-240 116 -240 306q0 117 93 197.5t229 80.5t227.5 -79.5t91.5 -196.5q0 -184 -235 -299q254 -137 254 -342zM717 911q0 74 -56.5 129.5t-150.5 55.5t-151.5 -54t-57.5 -124
q0 -56 37 -107q41 -54 127 -106l53 -33l39 24q160 101 160 215zM733 283q0 63 -31 110q-51 82 -149 142l-47 28l-39 -22q-180 -106 -180 -254q0 -88 62.5 -152.5t160.5 -64.5q98 -1 160.5 62.5t62.5 150.5z" />
    <glyph glyph-name="nine.otab" horiz-adv-x="1019" 
d="M102 -252v92q442 77 613 369q-2 -1 -15 -6.5t-21.5 -9t-27 -9t-35.5 -8.5t-43 -5.5t-53 -2.5q-74 0 -145 27t-128.5 76.5t-92.5 126t-35 167.5q0 168 113.5 287t271.5 119q96 0 175.5 -38t131 -101t79.5 -144t28 -168q0 -135 -48 -256.5t-129.5 -211t-186.5 -157
t-220.5 -104t-231.5 -43.5zM233 563q0 -130 90.5 -213.5t217.5 -83.5q121 0 213 51l4 9q4 10 10 27t11.5 39t9.5 51.5t4 58.5q0 162 -78.5 264t-208.5 102q-116 0 -194.5 -86t-78.5 -219z" />
    <glyph glyph-name="zero.small" horiz-adv-x="823" 
d="M721 418q0 -111 -35.5 -211.5t-108 -167t-165.5 -66.5q-94 0 -166.5 67t-108 167t-35.5 211t35.5 210.5t108 166.5t166.5 67q93 0 165.5 -67t108 -167t35.5 -210zM600 418q0 137 -53 239.5t-135 102.5t-135.5 -102.5t-53.5 -239.5t53.5 -238.5t135.5 -101.5t135 101.5
t53 238.5z" />
    <glyph glyph-name="one.small" horiz-adv-x="446" 
d="M283 0h-119v817l119 62v-879z" />
    <glyph glyph-name="two.small" horiz-adv-x="741" 
d="M639 0h-545v47l281 303q139 146 139 252q0 70 -43 114t-113 44q-67 0 -115.5 -43.5t-54.5 -116.5h-106q6 115 86 190.5t190 75.5q121 0 199 -72.5t78 -191.5q0 -132 -160 -303l-188 -199h352v-100z" />
    <glyph glyph-name="three.small" horiz-adv-x="692" 
d="M590 260q0 -126 -87.5 -205.5t-211.5 -79.5q-82 0 -137 26.5t-103 70.5l68 80q76 -76 164 -76q74 0 130 49.5t56 132.5q0 75 -51 116.5t-119 41.5q-30 0 -88 -21l-45 60q48 26 79.5 46t74.5 54.5t74.5 79.5t51.5 100h-368v103h495v-58q-28 -176 -176 -286
q33 -10 63 -26.5t61 -43.5t50 -69.5t19 -94.5z" />
    <glyph glyph-name="four.small" horiz-adv-x="739" 
d="M709 229h-181v-229h-116v229h-361l-20 52l403 557h94v-506h181v-103zM412 332v319l-234 -319h234z" />
    <glyph glyph-name="five.small" horiz-adv-x="698" 
d="M596 262q0 -121 -89 -204t-210 -83q-126 0 -244 91q-6 4 -22 20l67 82q85 -92 187 -92q79 0 135.5 55t56.5 137q0 78 -56.5 130.5t-141.5 52.5q-28 0 -62 -11t-55 -28l-43 10l31 416h423v-105h-335l-15 -190q36 8 74 8q121 0 210 -82t89 -207z" />
    <glyph glyph-name="six.small" horiz-adv-x="790" 
d="M688 770q-307 -52 -420 -264q53 20 119 20q115 0 203 -76t88 -200q0 -114 -82.5 -194.5t-198.5 -80.5q-72 0 -129.5 27.5t-93 74.5t-54 104.5t-18.5 121.5q0 147 79 270t212.5 197.5t294.5 87.5v-88zM567 250q0 75 -53.5 131.5t-140.5 56.5q-79 0 -144 -39
q-14 -42 -14 -94q0 -99 48 -165t140 -66q70 0 117 53.5t47 122.5z" />
    <glyph glyph-name="seven.small" horiz-adv-x="679" 
d="M629 799l-363 -799h-127l348 733h-456v105h573z" />
    <glyph glyph-name="eight.small" horiz-adv-x="722" 
d="M621 209q0 -97 -76 -165.5t-185 -68.5q-108 0 -183 67.5t-75 164.5q0 137 168 233q-155 84 -155 213q0 89 71 149t174 60q105 0 175.5 -59t70.5 -148q0 -129 -153 -209q168 -98 168 -237zM496 649q0 44 -37.5 78.5t-98.5 34.5t-98 -33.5t-37 -75.5q0 -27 12 -50t39.5 -45
t42 -31t48.5 -29q29 17 45 28t39 31t34 43t11 49zM506 211q0 39 -19 70q-38 56 -129 108q-67 -36 -105 -76t-38 -100q0 -55 40.5 -95t104.5 -40q65 -1 105.5 38.5t40.5 94.5z" />
    <glyph glyph-name="nine.small" horiz-adv-x="790" 
d="M688 535q0 -222 -169 -378t-417 -177v88q305 48 422 262l-10 -2q-46 -17 -106 -17q-116 0 -204.5 76.5t-88.5 200.5q0 114 82 194t196 80q95 0 164 -48t100 -120.5t31 -158.5zM578 530q0 100 -49 167t-140 67q-70 0 -117 -53.5t-47 -122.5q0 -75 54 -132t141 -57
q78 0 143 39q15 45 15 92z" />
    <glyph glyph-name="onequarter.small" horiz-adv-x="1310" 
d="M1221 182h-140v-182h-94v182h-274l-15 33l312 426h69v-379h142v-80zM1063 1202l-850 -1202h-49l852 1202h47zM342 528h-96v611l96 45v-656zM987 262v223l-166 -223h166z" />
    <glyph glyph-name="onehalf.small" horiz-adv-x="1316" 
d="M1186 0h-420v33l215 233q106 113 106 189q0 54 -31.5 85t-84.5 31q-49 0 -85 -31.5t-40 -86.5h-88q6 90 66.5 146t146.5 56q92 0 152.5 -55t60.5 -143q0 -101 -123 -230l-143 -147h268v-80zM1065 1202l-852 -1202h-49l852 1202h49zM342 528h-96v611l96 45v-656z" />
    <glyph glyph-name="threequarters.small" horiz-adv-x="1351" 
d="M1262 182h-140v-182h-92v182h-274l-13 33l312 426h67v-379h140v-80zM1167 1202l-850 -1202h-47l852 1202h45zM547 725q0 -95 -68 -156t-162 -61q-104 0 -184 76l53 63q59 -59 125 -59q55 0 97.5 36.5t42.5 98.5q0 56 -38 86.5t-89 30.5q-26 0 -68 -17l-35 49
q37 20 59.5 35t55 40.5t56.5 59t40 74.5h-278v80h378v-45q-18 -123 -129 -215q144 -53 144 -176zM1030 262v223l-164 -223h164z" />
    <glyph glyph-name="zero.oprpsmall" horiz-adv-x="919" 
d="M834 340q0 -153 -109.5 -256.5t-265.5 -103.5q-155 0 -264 103.5t-109 256.5q0 151 109 255.5t264 104.5q156 0 265.5 -104t109.5 -256zM709 340q0 107 -73.5 180.5t-176.5 73.5t-175.5 -73.5t-72.5 -180.5q0 -108 72.5 -182t175.5 -74q104 0 177 74t73 182z" />
    <glyph glyph-name="one.oprpsmall" horiz-adv-x="419" 
d="M268 0h-116v674h116v-674z" />
    <glyph glyph-name="two.oprpsmall" horiz-adv-x="708" 
d="M606 469q0 -36 -12 -69t-26 -55.5t-45.5 -52t-49.5 -44t-59 -45.5l-129 -101h311v-102h-510v51l252 211q41 34 66 58t51 67t26 84q0 57 -39.5 91t-103.5 34q-62 0 -105 -46t-43 -116h-108q0 105 78 185.5t194 80.5q106 0 179 -67t73 -164z" />
    <glyph glyph-name="three.oprpsmall" horiz-adv-x="702" 
d="M600 96q0 -125 -87.5 -203.5t-211.5 -78.5q-140 0 -240 96l68 78q76 -76 164 -76q74 0 130 49.5t56 132.5q0 75 -51 116.5t-119 41.5q-30 0 -88 -21l-45 60q48 26 79.5 46t75 54.5t75 79.5t51.5 100h-369v103h496v-58q-28 -176 -176 -286q32 -8 62.5 -25t61.5 -44
t49.5 -70t18.5 -95z" />
    <glyph glyph-name="four.oprpsmall" horiz-adv-x="739" 
d="M705 66h-181v-230h-116v230h-361l-20 53l403 555h94v-506h181v-102zM408 168v319l-234 -319h234z" />
    <glyph glyph-name="five.oprpsmall" horiz-adv-x="708" 
d="M606 100q0 -122 -89 -205t-210 -83q-127 0 -244 90q-6 4 -22 20l68 82q85 -92 186 -92q79 0 135.5 55t56.5 137q0 79 -56.5 131t-141.5 52q-28 0 -62 -11t-55 -28l-43 12l31 414h426v-105h-338l-15 -190q36 8 74 8q121 0 210 -81.5t89 -205.5z" />
    <glyph glyph-name="six.oprpsmall" horiz-adv-x="821" 
d="M719 856v-84q-286 -46 -418 -221h4q50 12 98 12q76 0 144.5 -33.5t115 -101.5t46.5 -156q0 -124 -86 -210.5t-207 -86.5q-96 0 -169.5 48t-109 121.5t-35.5 158.5q0 98 36 185t96.5 151t140 112t167.5 74t177 31zM594 274q0 85 -60 141t-145 56q-72 0 -139 -35
q-23 -54 -23 -121q0 -106 50.5 -169.5t136.5 -63.5q77 0 128.5 53t51.5 139z" />
    <glyph glyph-name="seven.oprpsmall" horiz-adv-x="679" 
d="M629 635l-363 -799h-127l348 733h-456v105h573z" />
    <glyph glyph-name="eight.oprpsmall" horiz-adv-x="722" 
d="M621 209q0 -97 -76 -165.5t-185 -68.5q-108 0 -183 67.5t-75 164.5q0 137 168 233q-155 84 -155 213q0 89 71 149t174 60q105 0 175.5 -59t70.5 -148q0 -129 -153 -209q168 -98 168 -237zM496 649q0 44 -37.5 78.5t-98.5 34.5t-98 -33.5t-37 -75.5q0 -27 12 -50t39.5 -45
t42 -31t48.5 -29q29 17 45 28t39 31t34 43t11 49zM506 211q0 39 -19 70q-38 56 -129 108q-67 -36 -105 -76t-38 -100q0 -55 40.5 -95t104.5 -40q65 -1 105.5 38.5t40.5 94.5z" />
    <glyph glyph-name="nine.oprpsmall" horiz-adv-x="821" 
d="M719 371q0 -98 -36 -185t-96.5 -151t-140 -112t-167.5 -74t-177 -31v84q292 50 418 221h-4q-46 -12 -98 -12q-119 0 -211 80t-92 212q0 123 86.5 209t206.5 86q96 0 168.5 -47.5t107.5 -121t35 -158.5zM596 358q0 106 -50.5 170t-135.5 64q-78 0 -130.5 -53t-52.5 -138
q0 -86 60.5 -141t144.5 -55q76 0 139 33q25 58 25 120z" />
    <glyph glyph-name="zero.nfra" horiz-adv-x="667" 
d="M569 844q0 -85 -27.5 -161t-82.5 -126.5t-125 -50.5q-72 0 -127 50.5t-82 126.5t-27 161q0 84 27 160t82 127t127 51q70 0 125 -51t82.5 -127t27.5 -160zM477 844q0 104 -40.5 182t-102.5 78t-103 -78t-41 -182t40.5 -181t103.5 -77q62 0 102.5 77t40.5 181z" />
    <glyph glyph-name="one.nfra" horiz-adv-x="380" 
d="M236 526h-91v621l91 47v-668z" />
    <glyph glyph-name="two.nfra" horiz-adv-x="604" 
d="M506 526h-414v35l213 232q107 115 107 190q0 54 -32.5 87.5t-86.5 33.5q-51 0 -88 -33t-41 -88h-82q4 87 65.5 144t145.5 57q92 0 151.5 -55t59.5 -146q0 -101 -123 -229l-143 -152h268v-76z" />
    <glyph glyph-name="three.nfra" horiz-adv-x="567" 
d="M469 725q0 -96 -66.5 -156.5t-160.5 -60.5q-105 0 -183 74l52 59q61 -57 125 -57q56 0 98.5 37.5t42.5 101.5q0 56 -39 87.5t-90 31.5q-21 0 -68 -15l-33 45q35 18 60 34t57 42t56.5 60.5t39.5 76.5h-280v78h377v-43q-21 -137 -135 -219q57 -15 102 -58.5t45 -117.5z" />
    <glyph glyph-name="four.nfra" horiz-adv-x="602" 
d="M559 700h-137v-174h-88v174h-275l-16 39l307 424h72v-385h137v-78zM334 778v244l-178 -244h178z" />
    <glyph glyph-name="five.nfra" horiz-adv-x="571" 
d="M473 725q0 -92 -67.5 -154.5t-159.5 -62.5q-99 0 -185 67l-18 17l51 61q69 -69 144 -69q59 0 102 42.5t43 104.5q0 58 -43.5 97.5t-108.5 39.5q-48 0 -88 -28l-32 8l22 315h324v-80h-256l-11 -145q21 6 56 6q92 0 159.5 -61.5t67.5 -157.5z" />
    <glyph glyph-name="six.nfra" horiz-adv-x="641" 
d="M543 1112q-235 -42 -318 -201q41 15 90 15q87 0 154.5 -57.5t67.5 -151.5q0 -87 -63.5 -148t-151.5 -61q-106 0 -165 73.5t-59 174.5q0 169 129 288.5t316 133.5v-66zM453 717q0 57 -42 100t-108 43q-54 0 -108 -31q-11 -44 -11 -71q0 -74 37 -125t107 -51q52 0 88.5 41
t36.5 94z" />
    <glyph glyph-name="seven.nfra" horiz-adv-x="557" 
d="M498 1133l-275 -607h-96l264 557h-348v80h436z" />
    <glyph glyph-name="eight.nfra" horiz-adv-x="589" 
d="M492 686q0 -74 -57 -126t-140 -52t-140 51t-57 125q0 104 127 176q-116 64 -116 162q0 69 53.5 114.5t132.5 45.5q78 0 132 -45.5t54 -112.5q0 -97 -116 -158q127 -74 127 -180zM397 1020q0 33 -27.5 59.5t-74.5 26.5q-46 0 -74 -26t-28 -58q0 -20 9 -37.5t29 -34t32 -24
t36 -21.5q28 16 46 29t35 37t17 49zM406 686q0 32 -15 53q-33 49 -98 82q-51 -27 -80 -57t-29 -76q0 -41 31 -71.5t80 -30.5t80 29.5t31 70.5z" />
    <glyph glyph-name="nine.nfra" horiz-adv-x="641" 
d="M543 932q0 -168 -128.5 -287.5t-316.5 -134.5v68q232 38 322 198h-8q-10 0 -36.5 -6t-45.5 -6q-88 0 -154.5 57.5t-66.5 151.5q0 86 62 147.5t148 61.5q108 0 166 -73.5t58 -176.5zM459 930q0 75 -37 125.5t-107 50.5q-52 0 -87 -40t-35 -93q0 -57 40.5 -100.5
t106.5 -43.5q55 0 109 31q10 20 10 70z" />
    <glyph glyph-name="zero.dfra" horiz-adv-x="667" 
d="M569 317q0 -85 -27.5 -161t-82.5 -126t-125 -50q-72 0 -127 50t-82 126t-27 161q0 84 27 160t82 127t127 51q70 0 125 -51t82.5 -127t27.5 -160zM477 317q0 104 -40.5 182.5t-102.5 78.5t-103 -78.5t-41 -182.5t40.5 -181t103.5 -77q62 0 102.5 77t40.5 181z" />
    <glyph glyph-name="one.dfra" horiz-adv-x="380" 
d="M236 0h-91v621l91 47v-668z" />
    <glyph glyph-name="two.dfra" horiz-adv-x="604" 
d="M506 0h-414v35l213 231q107 115 107 191q0 54 -32.5 87.5t-86.5 33.5q-51 0 -88 -33t-41 -88h-82q4 87 65.5 143.5t145.5 56.5q92 0 151.5 -54.5t59.5 -145.5q0 -102 -123 -230l-143 -151h268v-76z" />
    <glyph glyph-name="three.dfra" horiz-adv-x="567" 
d="M469 199q0 -96 -66.5 -156.5t-160.5 -60.5q-106 0 -183 73l52 60q62 -58 125 -58q56 0 98.5 38t42.5 102q0 56 -39 87t-90 31q-24 0 -68 -14l-33 45q35 18 60 34t57 42t56.5 60.5t39.5 76.5h-280v78h377v-43q-21 -137 -135 -219q57 -15 102 -58.5t45 -117.5z" />
    <glyph glyph-name="four.dfra" horiz-adv-x="602" 
d="M559 174h-137v-174h-88v174h-275l-16 39l307 424h72v-385h137v-78zM334 252v244l-178 -244h178z" />
    <glyph glyph-name="five.dfra" horiz-adv-x="571" 
d="M473 199q0 -92 -67.5 -154.5t-159.5 -62.5q-99 0 -185 67l-18 17l51 61q70 -70 144 -70q59 0 102 43t43 105q0 58 -43.5 97.5t-108.5 39.5q-46 0 -88 -29l-32 9l22 315h324v-80h-256l-11 -145q21 6 56 6q92 0 159.5 -61.5t67.5 -157.5z" />
    <glyph glyph-name="six.dfra" horiz-adv-x="641" 
d="M543 586q-235 -42 -318 -201q38 14 90 14q87 0 154.5 -57.5t67.5 -151.5q0 -87 -63.5 -147.5t-151.5 -60.5q-106 0 -165 73t-59 174q0 169 129 288.5t316 133.5v-65zM453 190q0 57 -42 100.5t-108 43.5q-54 0 -108 -31q-11 -44 -11 -72q0 -74 37 -125t107 -51
q52 0 88.5 41t36.5 94z" />
    <glyph glyph-name="seven.dfra" horiz-adv-x="557" 
d="M498 606l-275 -606h-96l264 557h-348v80h436z" />
    <glyph glyph-name="eight.dfra" horiz-adv-x="589" 
d="M492 160q0 -74 -57 -126t-140 -52t-140 51t-57 125q0 104 127 176q-116 64 -116 162q0 68 53.5 113.5t132.5 45.5q78 0 132 -45t54 -112q0 -97 -116 -158q127 -74 127 -180zM397 494q0 33 -27.5 59.5t-74.5 26.5q-46 0 -74 -26t-28 -58q0 -20 9 -37.5t29 -34t32 -24
t36 -21.5q28 16 46 29t35 37t17 49zM406 160q0 32 -15 53q-33 49 -98 82q-51 -27 -80 -57t-29 -76q0 -42 31 -72.5t80 -30.5t80 30t31 71z" />
    <glyph glyph-name="nine.dfra" horiz-adv-x="641" 
d="M543 406q0 -168 -128.5 -287.5t-316.5 -134.5v67q231 38 322 199h-8q-10 0 -36.5 -6t-45.5 -6q-88 0 -154.5 57t-66.5 151q0 86 62 147.5t148 61.5q108 0 166 -73t58 -176zM459 403q0 76 -37 126.5t-107 50.5q-52 0 -87 -40.5t-35 -93.5q0 -57 40.5 -100t106.5 -43
q55 0 109 31q10 20 10 69z" />
    <glyph glyph-name="A.alt" horiz-adv-x="989" 
d="M969 0h-949l414 1163h121zM805 98l-258 760l-53 164l-52 -164l-258 -760h621z" />
    <glyph glyph-name="J.alt" horiz-adv-x="423" 
d="M272 1163v-1689h-120v1689h120z" />
    <glyph glyph-name="K.alt" horiz-adv-x="1116" 
d="M1116 70q-9 -15 -23.5 -31.5t-49 -37.5t-70.5 -21q-54 0 -94.5 24t-90.5 74l-503 500l585 585h150l-574 -573l445 -449q25 -23 38 -34t33 -21t39 -10q33 0 72 39zM272 0h-120v1163h120v-1163z" />
    <glyph glyph-name="M.alt" horiz-adv-x="1806" 
d="M1655 0h-121v836q0 125 -61 189.5t-170 64.5q-148 0 -328 -168q6 -43 6 -84v-838h-121v836q0 125 -61 189.5t-170 64.5q-146 0 -314 -156q-10 -9 -24.5 -23.5t-18.5 -17.5v-893h-120v1163h120v-151q186 186 381 186q216 0 297 -182q182 182 377 182q151 0 239.5 -92.5
t88.5 -267.5v-838z" />
    <glyph glyph-name="N.alt" horiz-adv-x="1200" 
d="M1049 811v-811h-121v809q0 138 -65.5 209.5t-184.5 71.5q-170 0 -348 -156q-25 -20 -58 -53v-881h-120v1163h120v-159q24 24 53 47.5t86.5 61.5t132.5 61.5t152 23.5q169 0 261 -99.5t92 -287.5z" />
    <glyph glyph-name="O.alt" horiz-adv-x="1204" 
d="M1053 0h-901v1163h901v-1163zM932 104v953h-660v-953h660zM694 582l-92 -95l-94 95l94 94z" />
    <glyph glyph-name="P.alt" horiz-adv-x="942" 
d="M811 1163v-663h-539v-500h-120v1163h659zM698 598v465h-426v-465h426z" />
    <glyph glyph-name="R.alt" horiz-adv-x="1001" 
d="M1022 80q-66 -103 -156 -103q-58 0 -99.5 28.5t-82.5 88.5l-264 385h-148v-479h-120v1163h659v-684h-252l225 -325q53 -78 111 -78q17 0 32.5 7.5t24 15.5t23.5 24zM698 573v490h-426v-490h426z" />
    <glyph glyph-name="S.alt" horiz-adv-x="927" 
d="M866 152q-1 0 -16 -13.5t-29 -24.5t-41 -29.5t-53.5 -33.5t-65 -32t-77.5 -28t-88 -18.5t-99 -7.5q-79 0 -154 14.5t-105 26t-50 21.5v131q143 -80 307 -80q174 0 307 90l-641 836q1 0 13.5 13t23 22t31 26t42 30.5t50.5 30t62 28t70.5 22.5t82.5 16.5t92 5.5
q173 0 306 -59v-131q-1 0 -12 6t-17.5 8.5t-21.5 9.5t-26 11t-29 10.5t-33.5 10.5t-36.5 9t-40.5 7.5t-43 4.5t-46.5 2q-35 0 -68.5 -4t-62 -12t-51.5 -16t-45 -19t-34.5 -18t-28 -16.5t-17.5 -10.5z" />
    <glyph glyph-name="T.alt" horiz-adv-x="1042" 
d="M1012 553h-430v-553h-121v553h-430v109h430v501h121v-501h430v-109z" />
    <glyph glyph-name="U.alt" horiz-adv-x="1159" 
d="M1008 0h-121v164l-735 -199v1198h120v-1059l615 166v893h121v-1163z" />
    <glyph glyph-name="Y.alt" horiz-adv-x="944" 
d="M934 1163l-553 -1163h-129l160 334l-392 829h136l321 -692l322 692h135z" />
    <glyph glyph-name="Oslash.alt" horiz-adv-x="1204" 
d="M1053 0h-647l-78 -193l-70 27l68 166h-174v1163h645l77 193l70 -29l-67 -164h176v-1163zM932 104v953h-98l-388 -953h486zM754 1057h-482v-953h95z" />
    <glyph glyph-name="AE.alt" horiz-adv-x="1480" 
d="M1395 0h-1395l659 1163h709v-108h-532v-434h409v-107h-409v-405h559v-109zM715 106v965l-531 -965h531z" />
    <glyph glyph-name="OE.alt" horiz-adv-x="1695" 
d="M1610 0h-1458v1163h1431v-108h-530v-414h409v-106h-409v-426h557v-109zM932 104v953h-660v-953h660zM694 582l-92 -95l-94 95l94 94z" />
    <glyph glyph-name="a.alt" horiz-adv-x="880" 
d="M768 0h-109v63q-103 -86 -227 -86q-149 0 -254.5 112.5t-105.5 272.5t105.5 271.5t262.5 111.5q131 0 224 -77l14 55h90v-723zM659 172v389q-35 35 -88 58.5t-112 23.5q-117 0 -195 -81.5t-78 -199.5t77 -200t196 -82q61 0 115 28t85 64z" />
    <glyph glyph-name="b.alt" horiz-adv-x="892" 
d="M821 362q0 -159 -107.5 -272t-256.5 -113q-160 0 -262.5 104.5t-102.5 254.5v958h111v-655q47 49 115 77.5t139 28.5q148 0 256 -112.5t108 -270.5zM707 362q0 116 -80.5 198.5t-188.5 82.5q-72 0 -136.5 -39t-98.5 -102v-162q0 -112 72.5 -186t179.5 -74
q105 0 178.5 82.5t73.5 199.5z" />
    <glyph glyph-name="d.alt" horiz-adv-x="892" 
d="M801 336q0 -150 -102.5 -254.5t-262.5 -104.5q-148 0 -256 112.5t-108 270.5q0 159 107.5 272t256.5 113q71 0 139 -28.5t115 -77.5v655h111v-958zM690 340v162q-34 63 -98.5 102t-136.5 39q-108 0 -188.5 -82.5t-80.5 -198.5q0 -117 73.5 -199.5t178.5 -82.5
q107 0 179.5 74t72.5 186z" />
    <glyph glyph-name="e.alt" horiz-adv-x="827" 
d="M756 418l-559 -148q28 -91 97 -142.5t167 -51.5q26 0 52 3t47.5 8t44 12.5t37.5 13.5t33 14.5t26.5 13t20.5 12t13 7.5v-103q-27 -16 -44 -25t-55 -24.5t-85 -23t-102 -7.5q-99 0 -184 44.5t-139 133.5t-54 205q0 115 55 205t138 135t175 45q139 0 226 -94t90 -233z
M645 477q-18 77 -72 122.5t-137 45.5q-110 0 -180.5 -78.5t-73.5 -210.5z" />
    <glyph glyph-name="f.alt" horiz-adv-x="507" 
d="M633 1219l-70 -70q-73 68 -143 68q-65 0 -110.5 -50.5t-45.5 -138.5v-305h230l-33 -84h-197v-639h-110v639h-127l30 84h97v303q0 131 80 211t184 80q111 0 215 -98z" />
    <glyph glyph-name="g.alt" horiz-adv-x="858" 
d="M883 637h-191q47 -47 75 -111.5t28 -134.5q0 -133 -89.5 -232t-222.5 -118v-608h-108v608q-134 19 -224 118t-90 232q0 146 107.5 250t259.5 104q134 0 240 -86l63 64h152v-86zM680 391q0 107 -74.5 179.5t-177.5 72.5t-177.5 -72.5t-74.5 -179.5q0 -106 75 -180t177 -74
t177 74t75 180z" />
    <glyph glyph-name="h.alt" horiz-adv-x="821" 
d="M709 0h-111v627h-375v-627h-110v1294h110v-571h486v-723z" />
    <glyph glyph-name="i.alt" horiz-adv-x="376" 
d="M244 0h-111v723h111v-723zM301 958l-199 -94l91 203z" />
    <glyph glyph-name="j.alt" horiz-adv-x="374" 
d="M244 -567h-111v1290h111v-1290zM301 958l-199 -94l91 203z" />
    <glyph glyph-name="k.alt" horiz-adv-x="724" 
d="M725 74q-61 -92 -137 -92q-86 0 -162 92l-203 243v-317h-110v1294h110v-915l336 344h133l-362 -363l202 -237q40 -51 82 -51q31 0 66 39z" />
    <glyph glyph-name="l.alt" horiz-adv-x="333" 
d="M223 0h-110v1294h110v-1294z" />
    <glyph glyph-name="n.alt" horiz-adv-x="833" 
d="M721 0h-111v627h-387v-627h-110v723h608v-723z" />
    <glyph glyph-name="o.alt" horiz-adv-x="862" 
d="M750 0h-637v723h637v-723zM639 96v531h-416v-531h416z" />
    <glyph glyph-name="p.alt" horiz-adv-x="892" 
d="M821 358q0 -158 -108 -270.5t-256 -112.5q-70 0 -138.5 28.5t-115.5 78.5v-649h-111v952q0 149 102.5 253.5t262.5 104.5q149 0 256.5 -113t107.5 -272zM707 358q0 117 -73.5 200t-178.5 83q-107 0 -179.5 -74t-72.5 -186v-162q34 -63 98.5 -102t136.5 -39
q108 0 188.5 82t80.5 198z" />
    <glyph glyph-name="q.alt" horiz-adv-x="892" 
d="M72 358q0 159 107.5 272t256.5 113q160 0 262.5 -104.5t102.5 -253.5v-952h-111v649q-47 -50 -115.5 -78.5t-138.5 -28.5q-148 0 -256 112.5t-108 270.5zM186 358q0 -116 80.5 -198t188.5 -82q72 0 136.5 39t98.5 102v162q0 112 -72.5 186t-179.5 74q-105 0 -178.5 -83
t-73.5 -200z" />
    <glyph glyph-name="s.alt" horiz-adv-x="636" 
d="M582 113q-136 -136 -314 -136q-23 0 -47 2.5t-42 6t-37 9t-29.5 9t-23 8t-13.5 4.5v111q2 -1 18 -8.5t32 -13.5t39 -13t49.5 -11.5t51.5 -4.5q19 0 37.5 2t34 6t28.5 8t25.5 9.5t19.5 8.5t15.5 8t9.5 5l-381 487l11 10q10 10 19 18t27 21.5t35.5 24t43.5 22.5t52 20
t59.5 13.5t68.5 5.5q100 0 192 -40v-105q-98 49 -194 49q-87 0 -172 -47z" />
    <glyph glyph-name="t.alt" horiz-adv-x="405" 
d="M430 993l-29 -84h-143v-909h-111v909h-182l29 84h153v301h111v-301h172z" />
    <glyph glyph-name="u.alt" horiz-adv-x="823" 
d="M711 0h-598v723h110v-627h377v627h111v-723z" />
    <glyph glyph-name="y.alt" horiz-adv-x="653" 
d="M643 723l-262 -723l-201 -567h-110l200 567l-260 723h119l197 -578l198 578h119z" />
    <glyph glyph-name="oslash.alt" horiz-adv-x="862" 
d="M313 96l168 531h-258v-531h90zM551 627l-170 -531h258v531h-88zM582 723h168v-723h-400l-61 -193l-60 25l54 168h-170v723h399l61 192l62 -24z" />
    <glyph glyph-name="ae.alt" horiz-adv-x="1236" 
d="M1165 418l-559 -148q26 -87 94.5 -140.5t169.5 -53.5q23 0 45.5 2.5t43.5 7t39.5 9t36.5 12t31 12.5t28 13t22 11.5t17.5 10t11.5 6.5v-103q-3 -2 -21.5 -12t-32 -17t-40.5 -17.5t-53 -17t-63.5 -11.5t-76.5 -5q-162 0 -276 133q-3 3 -4 5q-15 -15 -36 -32t-60 -43
t-89 -43t-100 -17q-96 0 -164 63.5t-68 167.5q0 115 82 183t224 83l135 15v137h-396l21 94h471v-92q59 59 113 85q63 29 135 29q142 0 228 -92t91 -235zM502 160v248l-119 -15q-102 -12 -156.5 -57t-54.5 -119q0 -63 43 -105t109 -42q32 0 61.5 9t54.5 27.5t35 27.5t27 26z
M1055 477q-18 77 -72 122.5t-137 45.5q-110 0 -180.5 -78.5t-73.5 -210.5z" />
    <glyph glyph-name="oe.alt" horiz-adv-x="1386" 
d="M1315 418l-559 -148q27 -90 96 -142t168 -52q23 0 45.5 2.5t43 7t39 9.5t36.5 12t31.5 12.5t28 13t22 11.5t17.5 9.5t11 6.5v-103q-3 -2 -21.5 -12t-32 -17t-40 -17.5t-52.5 -17t-63.5 -11.5t-76.5 -5q-81 0 -153 32.5t-118 96.5v-106h-624v723h624v-109q92 131 271 131
q127 0 215.5 -91.5t91.5 -235.5zM639 96v531h-416v-531h416zM1204 477q-18 77 -72 122.5t-137 45.5q-110 0 -180.5 -78.5t-73.5 -210.5z" />
    <glyph glyph-name="Aacute.alt" horiz-adv-x="989" 
d="M762 1649l-193 -379h-102l184 379h111zM969 0h-949l414 1163h121zM805 98l-258 760l-53 164l-52 -164l-258 -760h621z" />
    <glyph glyph-name="Acircumflex.alt" horiz-adv-x="989" 
d="M737 1270h-98l-141 272l-144 -272h-98l205 379h74zM969 0h-949l414 1163h121zM805 98l-258 760l-53 164l-52 -164l-258 -760h621z" />
    <glyph glyph-name="Adieresis.alt" horiz-adv-x="989" 
d="M745 1434l-92 -93l-92 93l92 92zM434 1434l-92 -93l-92 93l92 92zM969 0h-949l414 1163h121zM805 98l-258 760l-53 164l-52 -164l-258 -760h621z" />
    <glyph glyph-name="Agrave.alt" horiz-adv-x="989" 
d="M528 1270h-102l-193 379h111zM969 0h-949l414 1163h121zM805 98l-258 760l-53 164l-52 -164l-258 -760h621z" />
    <glyph glyph-name="Aring.alt" horiz-adv-x="989" 
d="M682 1456q0 -77 -54 -131.5t-130 -54.5q-78 0 -132.5 53.5t-54.5 130.5q0 78 54.5 133t132.5 55q76 0 130 -54.5t54 -131.5zM969 0h-949l414 1163h121zM618 1456q0 51 -34.5 87t-85.5 36q-50 0 -85.5 -36t-35.5 -87t35.5 -87t85.5 -36q51 0 85.5 36t34.5 87zM805 98
l-258 760l-53 164l-52 -164l-258 -760h621z" />
    <glyph glyph-name="Atilde.alt" horiz-adv-x="989" 
d="M786 1505q-2 -75 -45 -130.5t-116 -55.5q-47 0 -99 23t-92.5 46t-60.5 23q-28 0 -48.5 -22t-23.5 -70l-94 2q5 77 49.5 132.5t118.5 55.5q43 0 91.5 -22.5t90 -45t68.5 -22.5t47.5 21.5t21.5 64.5h92zM969 0h-949l414 1163h121zM805 98l-258 760l-53 164l-52 -164
l-258 -760h621z" />
    <glyph glyph-name="Ntilde.alt" horiz-adv-x="1200" 
d="M889 1505q-2 -75 -45.5 -130.5t-116.5 -55.5q-47 0 -99 23t-92.5 46t-60.5 23q-28 0 -48.5 -22t-23.5 -70l-94 2q5 77 49.5 132.5t118.5 55.5q43 0 91.5 -22.5t90 -45t68.5 -22.5q29 0 49 21.5t21 64.5h92zM1049 811v-811h-121v809q0 138 -65.5 209.5t-184.5 71.5
q-170 0 -348 -156q-25 -20 -58 -53v-881h-120v1163h120v-159q24 24 53 47.5t86.5 61.5t132.5 61.5t152 23.5q169 0 261 -99.5t92 -287.5z" />
    <glyph glyph-name="Oacute.alt" horiz-adv-x="1204" 
d="M848 1649l-193 -379h-102l184 379h111zM1053 0h-901v1163h901v-1163zM932 104v953h-660v-953h660zM694 582l-92 -95l-94 95l94 94z" />
    <glyph glyph-name="Ocircumflex.alt" horiz-adv-x="1204" 
d="M842 1270h-99l-141 272l-143 -272h-99l205 379h74zM1053 0h-901v1163h901v-1163zM932 104v953h-660v-953h660zM694 582l-92 -95l-94 95l94 94z" />
    <glyph glyph-name="Odieresis.alt" horiz-adv-x="1204" 
d="M850 1434l-92 -93l-92 93l92 92zM539 1434l-93 -93l-92 93l92 92zM1053 0h-901v1163h901v-1163zM932 104v953h-660v-953h660zM694 582l-92 -95l-94 95l94 94z" />
    <glyph glyph-name="Ograve.alt" horiz-adv-x="1204" 
d="M651 1270h-102l-195 379h111zM1053 0h-901v1163h901v-1163zM932 104v953h-660v-953h660zM694 582l-92 -95l-94 95l94 94z" />
    <glyph glyph-name="Otilde.alt" horiz-adv-x="1204" 
d="M891 1505q-2 -75 -45.5 -130.5t-116.5 -55.5q-47 0 -99 23t-92.5 46t-60.5 23q-66 0 -71 -92l-95 2q5 77 49.5 132.5t118.5 55.5q43 0 91 -22.5t89.5 -45t69.5 -22.5t48.5 21.5t21.5 64.5h92zM1053 0h-901v1163h901v-1163zM932 104v953h-660v-953h660zM694 582l-92 -95
l-94 95l94 94z" />
    <glyph glyph-name="Scaron.alt" horiz-adv-x="927" 
d="M702 1649l-204 -377h-72l-205 377h98l142 -271l143 271h98zM866 152q-1 0 -16 -13.5t-29 -24.5t-41 -29.5t-53.5 -33.5t-65 -32t-77.5 -28t-88 -18.5t-99 -7.5q-79 0 -154 14.5t-105 26t-50 21.5v131q143 -80 307 -80q174 0 307 90l-641 836q1 0 13.5 13t23 22t31 26
t42 30.5t50.5 30t62 28t70.5 22.5t82.5 16.5t92 5.5q173 0 306 -59v-131q-1 0 -12 6t-17.5 8.5t-21.5 9.5t-26 11t-29 10.5t-33.5 10.5t-36.5 9t-40.5 7.5t-43 4.5t-46.5 2q-35 0 -68.5 -4t-62 -12t-51.5 -16t-45 -19t-34.5 -18t-28 -16.5t-17.5 -10.5z" />
    <glyph glyph-name="Thorn.alt" horiz-adv-x="942" 
d="M698 367v464h-426v-464h426zM152 1163h120v-231h539v-664h-539v-268h-120v1163z" />
    <glyph glyph-name="Uacute.alt" horiz-adv-x="1159" 
d="M823 1649l-192 -379h-103l185 379h110zM1008 0h-121v164l-735 -199v1198h120v-1059l615 166v893h121v-1163z" />
    <glyph glyph-name="Ucircumflex.alt" horiz-adv-x="1159" 
d="M819 1270h-98l-141 272l-144 -272h-98l205 379h73zM1008 0h-121v164l-735 -199v1198h120v-1059l615 166v893h121v-1163z" />
    <glyph glyph-name="Udieresis.alt" horiz-adv-x="1159" 
d="M827 1434l-92 -93l-92 93l92 92zM516 1434l-92 -93l-92 93l92 92zM1008 0h-121v164l-735 -199v1198h120v-1059l615 166v893h121v-1163z" />
    <glyph glyph-name="Ugrave.alt" horiz-adv-x="1159" 
d="M631 1270h-103l-192 379h110zM1008 0h-121v164l-735 -199v1198h120v-1059l615 166v893h121v-1163z" />
    <glyph glyph-name="Yacute.alt" horiz-adv-x="944" 
d="M727 1649l-192 -379h-103l184 379h111zM934 1163l-553 -1163h-129l160 334l-392 829h136l321 -692l322 692h135z" />
    <glyph glyph-name="Ydieresis.alt" horiz-adv-x="944" 
d="M727 1434l-92 -93l-92 93l92 92zM414 1434l-92 -93l-93 93l93 92zM934 1163l-553 -1163h-129l160 334l-392 829h136l321 -692l322 692h135z" />
    <glyph glyph-name="aacute.alt" horiz-adv-x="880" 
d="M666 1182l-193 -379h-102l184 379h111zM768 0h-109v63q-103 -86 -227 -86q-149 0 -254.5 112.5t-105.5 272.5t105.5 271.5t262.5 111.5q131 0 224 -77l14 55h90v-723zM659 172v389q-35 35 -88 58.5t-112 23.5q-117 0 -195 -81.5t-78 -199.5t77 -200t196 -82q61 0 115 28
t85 64z" />
    <glyph glyph-name="acircumflex.alt" horiz-adv-x="880" 
d="M692 803h-98l-143 272l-142 -272h-98l205 379h71zM768 0h-109v63q-103 -86 -227 -86q-149 0 -254.5 112.5t-105.5 272.5t105.5 271.5t262.5 111.5q131 0 224 -77l14 55h90v-723zM659 172v389q-35 35 -88 58.5t-112 23.5q-117 0 -195 -81.5t-78 -199.5t77 -200t196 -82
q61 0 115 28t85 64z" />
    <glyph glyph-name="adieresis.alt" horiz-adv-x="880" 
d="M690 967l-92 -93l-92 93l92 92zM377 967l-92 -93l-92 93l92 92zM768 0h-109v63q-103 -86 -227 -86q-149 0 -254.5 112.5t-105.5 272.5t105.5 271.5t262.5 111.5q131 0 224 -77l14 55h90v-723zM659 172v389q-35 35 -88 58.5t-112 23.5q-117 0 -195 -81.5t-78 -199.5
t77 -200t196 -82q61 0 115 28t85 64z" />
    <glyph glyph-name="agrave.alt" horiz-adv-x="880" 
d="M528 803h-102l-195 379h111zM768 0h-109v63q-103 -86 -227 -86q-149 0 -254.5 112.5t-105.5 272.5t105.5 271.5t262.5 111.5q131 0 224 -77l14 55h90v-723zM659 172v389q-35 35 -88 58.5t-112 23.5q-117 0 -195 -81.5t-78 -199.5t77 -200t196 -82q61 0 115 28t85 64z" />
    <glyph glyph-name="aring.alt" horiz-adv-x="880" 
d="M629 989q0 -77 -54.5 -131.5t-130.5 -54.5q-78 0 -132 53.5t-54 130.5q0 78 54 133.5t132 55.5q76 0 130.5 -55t54.5 -132zM565 989q0 51 -35 87t-86 36t-85.5 -36t-34.5 -87t34.5 -87t85.5 -36t86 36t35 87zM768 0h-109v63q-103 -86 -227 -86q-149 0 -254.5 112.5
t-105.5 272.5t105.5 271.5t262.5 111.5q131 0 224 -77l14 55h90v-723zM659 172v389q-35 35 -88 58.5t-112 23.5q-117 0 -195 -81.5t-78 -199.5t77 -200t196 -82q61 0 115 28t85 64z" />
    <glyph glyph-name="atilde.alt" horiz-adv-x="880" 
d="M735 1038q-2 -75 -45.5 -130.5t-116.5 -55.5q-48 0 -100 23t-93 46t-61 23q-63 0 -71 -92l-92 2q5 77 49.5 132.5t118.5 55.5q43 0 90.5 -22.5t89 -45t69.5 -22.5q27 0 47 21.5t23 64.5h92zM768 0h-109v63q-103 -86 -227 -86q-149 0 -254.5 112.5t-105.5 272.5
t105.5 271.5t262.5 111.5q131 0 224 -77l14 55h90v-723zM659 172v389q-35 35 -88 58.5t-112 23.5q-117 0 -195 -81.5t-78 -199.5t77 -200t196 -82q61 0 115 28t85 64z" />
    <glyph glyph-name="eacute.alt" horiz-adv-x="827" 
d="M690 1182l-194 -379h-103l187 379h110zM756 418l-559 -148q28 -91 97 -142.5t167 -51.5q26 0 52 3t47.5 8t44 12.5t37.5 13.5t33 14.5t26.5 13t20.5 12t13 7.5v-103q-27 -16 -44 -25t-55 -24.5t-85 -23t-102 -7.5q-99 0 -184 44.5t-139 133.5t-54 205q0 115 55 205
t138 135t175 45q139 0 226 -94t90 -233zM645 477q-18 77 -72 122.5t-137 45.5q-110 0 -180.5 -78.5t-73.5 -210.5z" />
    <glyph glyph-name="ecircumflex.alt" horiz-adv-x="827" 
d="M686 803h-98l-144 272l-143 -272h-98l205 379h73zM756 418l-559 -148q28 -91 97 -142.5t167 -51.5q26 0 52 3t47.5 8t44 12.5t37.5 13.5t33 14.5t26.5 13t20.5 12t13 7.5v-103q-27 -16 -44 -25t-55 -24.5t-85 -23t-102 -7.5q-99 0 -184 44.5t-139 133.5t-54 205
q0 115 55 205t138 135t175 45q139 0 226 -94t90 -233zM645 477q-18 77 -72 122.5t-137 45.5q-110 0 -180.5 -78.5t-73.5 -210.5z" />
    <glyph glyph-name="edieresis.alt" horiz-adv-x="827" 
d="M694 967l-92 -93l-94 93l92 92zM381 967l-92 -93l-94 93l92 92zM756 418l-559 -148q28 -91 97 -142.5t167 -51.5q26 0 52 3t47.5 8t44 12.5t37.5 13.5t33 14.5t26.5 13t20.5 12t13 7.5v-103q-27 -16 -44 -25t-55 -24.5t-85 -23t-102 -7.5q-99 0 -184 44.5t-139 133.5
t-54 205q0 115 55 205t138 135t175 45q139 0 226 -94t90 -233zM645 477q-18 77 -72 122.5t-137 45.5q-110 0 -180.5 -78.5t-73.5 -210.5z" />
    <glyph glyph-name="egrave.alt" horiz-adv-x="827" 
d="M496 803h-103l-194 379h110zM756 418l-559 -148q28 -91 97 -142.5t167 -51.5q26 0 52 3t47.5 8t44 12.5t37.5 13.5t33 14.5t26.5 13t20.5 12t13 7.5v-103q-27 -16 -44 -25t-55 -24.5t-85 -23t-102 -7.5q-99 0 -184 44.5t-139 133.5t-54 205q0 115 55 205t138 135t175 45
q139 0 226 -94t90 -233zM645 477q-18 77 -72 122.5t-137 45.5q-110 0 -180.5 -78.5t-73.5 -210.5z" />
    <glyph glyph-name="germandbls.alt" horiz-adv-x="886" 
d="M815 319q0 -152 -98 -247t-238 -95q-77 0 -151 19l8 108q66 -24 153 -24q33 0 68 14t68 41t54 74.5t21 107.5q0 79 -33 149.5t-87.5 120.5t-112.5 84t-121 56v59q1 0 18 4t28.5 7.5t33 10.5t37 16t36 22t34.5 31t27 40t19.5 51t6.5 62q0 88 -49 139.5t-125 51.5
q-86 0 -148.5 -70.5t-62.5 -196.5v-954h-109v963q0 152 86.5 253t233.5 101q138 0 211 -81.5t73 -205.5q0 -56 -17 -103t-41.5 -76t-54.5 -50.5t-52 -31t-39 -13.5q21 -8 53.5 -25t81.5 -55.5t89.5 -85.5t69.5 -119t29 -152z" />
    <glyph glyph-name="lslash.alt" horiz-adv-x="333" 
d="M334 768l-111 -147v-621h-110v475l-113 -147v100l113 147v719h110v-573l111 147v-100z" />
    <glyph glyph-name="ntilde.alt" horiz-adv-x="833" 
d="M713 1038q-2 -75 -45.5 -130.5t-116.5 -55.5q-48 0 -100.5 23t-93 46t-60.5 23q-28 0 -48.5 -22t-23.5 -70l-92 2q5 77 49.5 132.5t118.5 55.5q43 0 90.5 -22.5t89 -45t68.5 -22.5q29 0 48.5 21.5t20.5 64.5h95zM721 0h-111v627h-387v-627h-110v723h608v-723z" />
    <glyph glyph-name="oacute.alt" horiz-adv-x="862" 
d="M676 1182l-195 -379h-100l184 379h111zM750 0h-637v723h637v-723zM639 96v531h-416v-531h416z" />
    <glyph glyph-name="ocircumflex.alt" horiz-adv-x="862" 
d="M672 803h-99l-141 272l-143 -272h-99l205 379h72zM750 0h-637v723h637v-723zM639 96v531h-416v-531h416z" />
    <glyph glyph-name="odieresis.alt" horiz-adv-x="862" 
d="M680 967l-92 -93l-92 93l92 92zM367 967l-93 -93l-92 93l92 92zM750 0h-637v723h637v-723zM639 96v531h-416v-531h416z" />
    <glyph glyph-name="ograve.alt" horiz-adv-x="862" 
d="M481 803h-100l-195 379h111zM750 0h-637v723h637v-723zM639 96v531h-416v-531h416z" />
    <glyph glyph-name="otilde.alt" horiz-adv-x="862" 
d="M721 1038q-2 -75 -45.5 -130.5t-116.5 -55.5q-48 0 -100 23t-92 46t-60 23q-66 0 -74 -92l-92 2q5 77 49.5 132.5t118.5 55.5q43 0 91 -22.5t89.5 -45t69.5 -22.5t48.5 21.5t21.5 64.5h92zM750 0h-637v723h637v-723zM639 96v531h-416v-531h416z" />
    <glyph glyph-name="scaron.alt" horiz-adv-x="636" 
d="M559 1182l-205 -377h-71l-205 377h98l141 -271l144 271h98zM582 113q-136 -136 -314 -136q-23 0 -47 2.5t-42 6t-37 9t-29.5 9t-23 8t-13.5 4.5v111q2 -1 18 -8.5t32 -13.5t39 -13t49.5 -11.5t51.5 -4.5q19 0 37.5 2t34 6t28.5 8t25.5 9.5t19.5 8.5t15.5 8t9.5 5
l-381 487l11 10q10 10 19 18t27 21.5t35.5 24t43.5 22.5t52 20t59.5 13.5t68.5 5.5q100 0 192 -40v-105q-98 49 -194 49q-87 0 -172 -47z" />
    <glyph glyph-name="thorn.alt" horiz-adv-x="872" 
d="M801 360q0 -161 -108 -272t-263 -111q-116 0 -227 78v-622h-111v1861h111v-659q89 110 243 110q150 0 252.5 -112t102.5 -273zM686 360q0 119 -69 201t-173 82q-105 0 -173 -73.5t-68 -186.5v-219q121 -84 229 -84t181 81.5t73 198.5z" />
    <glyph glyph-name="uacute.alt" horiz-adv-x="823" 
d="M653 1182l-194 -379h-103l187 379h110zM711 0h-598v723h110v-627h377v627h111v-723z" />
    <glyph glyph-name="ucircumflex.alt" horiz-adv-x="823" 
d="M653 803h-98l-143 272l-142 -272h-98l203 379h74zM711 0h-598v723h110v-627h377v627h111v-723z" />
    <glyph glyph-name="udieresis.alt" horiz-adv-x="823" 
d="M659 967l-92 -93l-92 93l92 92zM348 967l-92 -93l-92 93l92 92zM711 0h-598v723h110v-627h377v627h111v-723z" />
    <glyph glyph-name="ugrave.alt" horiz-adv-x="823" 
d="M467 803h-100l-195 379h111zM711 0h-598v723h110v-627h377v627h111v-723z" />
    <glyph glyph-name="yacute.alt" horiz-adv-x="653" 
d="M578 1182l-195 -379h-102l186 379h111zM643 723l-262 -723l-201 -567h-110l200 567l-260 723h119l197 -578l198 578h119z" />
    <glyph glyph-name="ydieresis.alt" horiz-adv-x="653" 
d="M573 967l-92 -93l-92 93l92 92zM260 967l-92 -93l-92 93l92 92zM643 723l-262 -723l-201 -567h-110l200 567l-260 723h119l197 -578l198 578h119z" />
    <glyph glyph-name="florin.alt" horiz-adv-x="845" 
d="M866 1239l-63 -63q-43 43 -105 43q-57 0 -100.5 -40t-56.5 -110l-60 -346h197v-84h-213l-148 -838q-33 -186 -143.5 -288.5t-263.5 -102.5q-175 0 -320 129l64 64q109 -99 254 -99q109 0 191.5 78t109.5 228l149 829h-153v84h170l59 342q22 120 92.5 186t161.5 66
q106 0 178 -78z" />
    <glyph glyph-name="asterisk.alt" horiz-adv-x="849" 
d="M768 709l-70 -121l-260 213l56 -332h-138l56 332l-260 -213l-70 121l315 116l-315 119l70 121l260 -215l-56 332h138l-56 -332l260 215l70 -121l-315 -119z" />
    <glyph glyph-name="ampersand.alt" horiz-adv-x="1398" 
d="M1368 1057h-426v-1057h-121v1057h-588v-226h265v-90h-265v-233h373v-100h-493v755h1255v-106z" />
    <glyph glyph-name="registered.alt" horiz-adv-x="985" 
d="M924 768q0 -178 -127 -305t-305 -127t-304.5 126.5t-126.5 305.5q0 178 126 304t305 126t305.5 -126t126.5 -304zM870 768q0 158 -111.5 270.5t-266.5 112.5t-266 -112.5t-111 -270.5q0 -159 110.5 -272t266.5 -113t267 113t111 272zM737 565q-1 -1 -7.5 -8.5t-13 -14.5
t-16.5 -15t-23 -12.5t-26 -4.5q-36 0 -59 14t-47 49l-92 142h-52v-197h-86v512h326v-315h-86l72 -105q10 -16 18.5 -20t22.5 -4q5 0 10 2.5t7 4t7 7t6 6.5zM561 782v179h-160v-179h160z" />
    <glyph glyph-name="trademark.alt" horiz-adv-x="1900" 
d="M1839 948v-540h-98v538q0 75 -35.5 112.5t-101.5 37.5q-81 0 -201 -103q4 -36 4 -45v-540h-98v538q0 75 -36.5 112.5t-103.5 37.5q-94 0 -219 -125v-563h-96v755h96v-88q36 30 62.5 49.5t76.5 40.5t97 21q129 0 194 -117q25 23 41 35.5t50 35.5t71 34.5t76 11.5
q102 0 161.5 -62t59.5 -176zM731 760h-297v-352h-96v352h-297v84h297v319h96v-319h297v-84z" />
    <glyph glyph-name="A.altsmall" horiz-adv-x="768" 
d="M748 0h-728l310 838h108zM588 98l-180 508l-23 70l-25 -70l-180 -508h408z" />
    <glyph glyph-name="J.altsmall" horiz-adv-x="419" 
d="M268 838v-1237h-116v1237h116z" />
    <glyph glyph-name="K.altsmall" horiz-adv-x="882" 
d="M883 63q-39 -48 -72 -64q-25 -13 -53 -13q-42 0 -75 18.5t-69 52.5l-346 332v-389h-116v838h116v-396l410 396h151l-430 -414l312 -301q44 -41 67 -41q18 0 51 33z" />
    <glyph glyph-name="M.altsmall" horiz-adv-x="1417" 
d="M1266 0h-117v596q0 81 -40.5 121.5t-113.5 40.5q-94 0 -219 -109q4 -32 4 -51v-598h-116v596q0 81 -40.5 121.5t-113.5 40.5q-104 0 -242 -129v-629h-116v838h116v-86q125 110 260 110q154 0 217 -117q129 117 269 117q115 0 183.5 -69t68.5 -195v-598z" />
    <glyph glyph-name="N.altsmall" horiz-adv-x="978" 
d="M827 580v-580h-116v578q0 90 -43.5 135t-120.5 45q-138 0 -279 -137v-621h-116v838h116v-90q52 43 127.5 78.5t163.5 35.5q128 0 198 -73.5t70 -208.5z" />
    <glyph glyph-name="O.altsmall" horiz-adv-x="1015" 
d="M864 0h-712v838h712v-838zM748 102v633h-480v-633h480zM596 418l-88 -84l-88 84l88 86z" />
    <glyph glyph-name="P.altsmall" horiz-adv-x="788" 
d="M657 838v-492h-389v-346h-116v838h505zM545 444v293h-277v-293h277z" />
    <glyph glyph-name="R.altsmall" horiz-adv-x="845" 
d="M838 72q-20 -28 -21 -29q-46 -59 -110 -59q-84 0 -148 88l-188 260h-103v-332h-116v838h505v-506h-143l145 -203q34 -47 68 -47q9 0 18 4.5t13 8t14.5 14.5t11.5 12zM545 428v309h-277v-309h277z" />
    <glyph glyph-name="S.altsmall" horiz-adv-x="743" 
d="M682 119q-19 -19 -43 -37q-138 -107 -315 -107q-118 0 -238 48v127q112 -66 236 -66q115 0 198 49l-459 580q62 59 109 86q109 63 250 63q125 0 233 -47v-123q-69 33 -120 48.5t-113 15.5q-110 0 -199 -56z" />
    <glyph glyph-name="T.altsmall" horiz-adv-x="798" 
d="M766 385h-309v-385h-117v385h-309v104h309v349h117v-349h309v-104z" />
    <glyph glyph-name="U.altsmall" horiz-adv-x="950" 
d="M799 0h-117v109l-530 -138v867h116v-732l414 107v625h117v-838z" />
    <glyph glyph-name="Y.altsmall" horiz-adv-x="737" 
d="M731 838l-414 -838h-124l118 240l-293 598h134l221 -471l233 471h125z" />
    <glyph glyph-name="Oslash.altsmall" horiz-adv-x="983" 
d="M831 0h-469l-75 -193l-58 23l66 170h-143v838h469l75 192l58 -22l-66 -170h143v-838zM715 102v633h-68l-246 -633h314zM580 735h-312v-633h66z" />
    <glyph glyph-name="AE.altsmall" horiz-adv-x="1132" 
d="M1047 0h-1047l492 838h534v-105h-383v-272h295v-105h-295v-252h404v-104zM526 700l-344 -596h344v596z" />
    <glyph glyph-name="OE.altsmall" horiz-adv-x="1318" 
d="M1233 0h-1081v838h1062v-105h-383v-258h295v-104h-295v-267h402v-104zM713 102v633h-445v-633h445zM580 418l-88 -84l-91 84l91 86z" />
    <glyph glyph-name="Aacute.altsmall" horiz-adv-x="768" 
d="M647 1319l-194 -379h-103l187 379h110zM748 0h-728l310 838h108zM588 98l-180 508l-23 70l-25 -70l-180 -508h408z" />
    <glyph glyph-name="Acircumflex.altsmall" horiz-adv-x="768" 
d="M625 940h-99l-141 272l-143 -272h-99l205 379h72zM748 0h-728l310 838h108zM588 98l-180 508l-23 70l-25 -70l-180 -508h408z" />
    <glyph glyph-name="Adieresis.altsmall" horiz-adv-x="768" 
d="M633 1104l-92 -92l-92 92l92 92zM319 1104l-92 -92l-92 92l92 92zM748 0h-728l310 838h108zM588 98l-180 508l-23 70l-25 -70l-180 -508h408z" />
    <glyph glyph-name="Agrave.altsmall" horiz-adv-x="768" 
d="M418 940h-103l-194 379h110zM748 0h-728l310 838h108zM588 98l-180 508l-23 70l-25 -70l-180 -508h408z" />
    <glyph glyph-name="Aring.altsmall" horiz-adv-x="768" 
d="M569 1126q0 -77 -54 -131.5t-130 -54.5q-78 0 -132 53.5t-54 130.5q0 78 54 133.5t132 55.5q76 0 130 -55t54 -132zM748 0h-728l310 838h108zM506 1126q0 51 -35 87t-86 36q-50 0 -85.5 -36t-35.5 -87t35.5 -86.5t85.5 -35.5q51 0 86 35.5t35 86.5zM588 98l-180 508
l-23 70l-25 -70l-180 -508h408z" />
    <glyph glyph-name="Atilde.altsmall" horiz-adv-x="768" 
d="M674 1176q-2 -75 -45.5 -131t-116.5 -56q-48 0 -100 23t-92 46t-60 23q-66 0 -74 -92l-92 2q5 78 49.5 133.5t118.5 55.5q43 0 91 -22.5t89.5 -45t69.5 -22.5t48.5 21.5t21.5 64.5h92zM748 0h-728l310 838h108zM588 98l-180 508l-23 70l-25 -70l-180 -508h408z" />
    <glyph glyph-name="Ntilde.altsmall" horiz-adv-x="978" 
d="M780 1176q-2 -75 -45.5 -131t-116.5 -56q-48 0 -99.5 23t-91.5 46t-60 23q-66 0 -74 -92l-92 2q5 78 49.5 133.5t118.5 55.5q43 0 90.5 -22.5t89 -45t69.5 -22.5t48.5 21.5t21.5 64.5h92zM827 580v-580h-116v578q0 90 -43.5 135t-120.5 45q-138 0 -279 -137v-621h-116
v838h116v-90q52 43 127.5 78.5t163.5 35.5q128 0 198 -73.5t70 -208.5z" />
    <glyph glyph-name="Oacute.altsmall" horiz-adv-x="1015" 
d="M754 1319l-195 -379h-102l186 379h111zM864 0h-712v838h712v-838zM748 102v633h-480v-633h480zM596 418l-88 -84l-88 84l88 86z" />
    <glyph glyph-name="Ocircumflex.altsmall" horiz-adv-x="1015" 
d="M748 940h-99l-143 272l-141 -272h-99l203 379h74zM864 0h-712v838h712v-838zM748 102v633h-480v-633h480zM596 418l-88 -84l-88 84l88 86z" />
    <glyph glyph-name="Odieresis.altsmall" horiz-adv-x="1015" 
d="M758 1104l-92 -92l-95 92l93 92zM444 1104l-92 -92l-94 92l92 92zM864 0h-712v838h712v-838zM748 102v633h-480v-633h480zM596 418l-88 -84l-88 84l88 86z" />
    <glyph glyph-name="Ograve.altsmall" horiz-adv-x="1015" 
d="M559 940h-102l-195 379h111zM864 0h-712v838h712v-838zM748 102v633h-480v-633h480zM596 418l-88 -84l-88 84l88 86z" />
    <glyph glyph-name="Otilde.altsmall" horiz-adv-x="1015" 
d="M797 1176q-2 -75 -45.5 -131t-116.5 -56q-48 0 -100.5 23t-93 46t-60.5 23q-28 0 -48.5 -22t-23.5 -70l-92 2q5 78 49.5 133.5t118.5 55.5q43 0 90.5 -22.5t89 -45t68.5 -22.5q29 0 48.5 21.5t20.5 64.5h95zM864 0h-712v838h712v-838zM748 102v633h-480v-633h480z
M596 418l-88 -84l-88 84l88 86z" />
    <glyph glyph-name="Scaron.altsmall" horiz-adv-x="743" 
d="M612 1319l-204 -377h-72l-205 377h98l144 -270l141 270h98zM682 119q-19 -19 -43 -37q-138 -107 -315 -107q-118 0 -238 48v127q112 -66 236 -66q115 0 198 49l-459 580q62 59 109 86q109 63 250 63q125 0 233 -47v-123q-69 33 -120 48.5t-113 15.5q-110 0 -199 -56z" />
    <glyph glyph-name="Thorn.altsmall" horiz-adv-x="788" 
d="M657 678v-492h-385v-186h-120v838h120v-160h385zM547 285v293h-275v-293h275z" />
    <glyph glyph-name="Uacute.altsmall" horiz-adv-x="950" 
d="M715 1319l-195 -379h-100l184 379h111zM799 0h-117v109l-530 -138v867h116v-732l414 107v625h117v-838z" />
    <glyph glyph-name="Ucircumflex.altsmall" horiz-adv-x="950" 
d="M715 940h-99l-141 272l-143 -272h-99l205 379h72zM799 0h-117v109l-530 -138v867h116v-732l414 107v625h117v-838z" />
    <glyph glyph-name="Udieresis.altsmall" horiz-adv-x="950" 
d="M725 1104l-92 -92l-94 92l92 92zM412 1104l-93 -92l-94 92l92 92zM799 0h-117v109l-530 -138v867h116v-732l414 107v625h117v-838z" />
    <glyph glyph-name="Ugrave.altsmall" horiz-adv-x="950" 
d="M530 940h-102l-195 379h111zM799 0h-117v109l-530 -138v867h116v-732l414 107v625h117v-838z" />
    <glyph glyph-name="Yacute.altsmall" horiz-adv-x="737" 
d="M625 1319l-195 -379h-102l186 379h111zM731 838l-414 -838h-124l118 240l-293 598h134l221 -471l233 471h125z" />
    <glyph glyph-name="Ydieresis.altsmall" horiz-adv-x="737" 
d="M621 1104l-93 -92l-94 92l92 92zM307 1104l-92 -92l-94 92l92 92zM731 838l-414 -838h-124l118 240l-293 598h134l221 -471l233 471h125z" />
    <glyph glyph-name="ampersand.altallsmall" horiz-adv-x="1077" 
d="M1047 735h-306v-735h-118v735h-394v-125h177v-88h-177v-131h254v-98h-370v545h934v-103z" />
    <glyph glyph-name="florin.altallsmall" horiz-adv-x="735" 
d="M733 879l-67 -66q-40 37 -76 37q-35 0 -63.5 -24.5t-37.5 -67.5l-40 -230h139v-88h-156l-102 -577q-24 -136 -107.5 -211.5t-199.5 -75.5q-136 0 -254 105l67 65q88 -76 184 -76q72 0 127.5 51t73.5 152l103 567h-107v88h123l43 232q17 88 72.5 138t126.5 50
q82 0 151 -69z" />
    <glyph glyph-name="mu.altallsmall" horiz-adv-x="913" 
d="M780 0h-116v109l-414 -107v-412h-117v1248h117v-732l414 107v625h116v-838z" />
    <glyph glyph-name="orn.001" 
d="M481 725l-102 102l102 103l103 -103zM625 582l102 102l102 -102l-102 -103zM379 582l102 102l103 -102l-103 -103zM131 582l102 102l103 -102l-103 -103zM379 336l102 102l103 -102l-103 -103z" />
    <glyph glyph-name="orn.002" 
d="M582 684v145h145v-145h-145zM379 684h-146v145h146v-145zM408 510v145h145v-145h-145zM582 336v145h145v-145h-145zM379 336h-146v145h146v-145z" />
    <glyph glyph-name="orn.003" horiz-adv-x="757" 
d="M481 727l-102 -102l-103 102l103 102zM625 584l-103 -103l-102 103l102 102zM338 584l-102 -103l-103 103l103 102zM481 440l-102 -102l-103 102l103 103z" />
    <glyph glyph-name="orn.004" 
d="M707 705l-103 -103l-102 103l102 102zM461 705l-103 -103l-102 103l102 102zM707 459l-103 -103l-102 103l102 102zM358 356l-102 103l102 102l103 -102z" />
    <glyph glyph-name="orn.005" 
d="M555 684h-145v145h145v-145zM729 510h-145v145h145v-145zM236 510v145h145v-145h-145zM555 336h-145v145h145v-145z" />
    <glyph glyph-name="orn.006" 
d="M379 827l102 103l103 -103l-103 -102zM606 709v98h99v-98h-99zM352 709h-98v98h98v-98zM625 582l102 102l102 -102l-102 -103zM233 684l103 -102l-103 -103l-102 103zM709 356h-99v99h99v-99zM256 356v99h98v-99h-98zM481 438l103 -102l-103 -103l-102 103z" />
    <glyph glyph-name="orn.007" 
d="M479 762l-69 69l69 70l70 -70zM582 684v145h145v-145h-145zM233 684v145h146v-145h-146zM801 584l-70 -70l-69 70l69 69zM301 582l-70 -70l-69 70l69 69zM582 481h145v-145h-145v145zM233 481h146v-145h-146v145zM481 264l-69 70l69 69l70 -69z" />
    <glyph glyph-name="orn.008" 
d="M608 782l-127 -127l-127 127l127 127zM809 582l-127 -127l-127 127l127 127zM549 582l-68 -68l-67 68l67 67zM408 582l-127 -127l-127 127l127 127zM608 381l-127 -127l-127 127l127 127z" />
    <glyph glyph-name="orn.009" 
d="M713 813v-178h-178v178h178zM428 635h-178v178h178v-178zM530 532h-98v99h98v-99zM713 350h-178v178h178v-178zM428 528v-178h-178v178h178z" />
    <glyph glyph-name="orn.010" 
d="M559 854l-78 -78l-78 78l78 78zM831 582l-77 -78l-78 78l78 77zM672 582l-191 -191l-190 191l190 190zM287 582l-78 -78l-78 78l78 77zM559 309l-78 -78l-78 78l78 78z" />
    <glyph glyph-name="orn.011" 
d="M729 719h-111v110h111v-110zM344 719h-111v110h111v-110zM614 715v-266h-266v266h266zM729 334h-111v110h111v-110zM344 334h-111v110h111v-110z" />
    <glyph glyph-name="orn.012" 
d="M518 969v-72h-72v72h72zM717 817v-125h-125v125h125zM371 692h-125v125h125v-125zM870 618v-71h-71v71h71zM588 688v-213h-213v213h213zM164 545h-72v71h72v-71zM717 346h-125v125h125v-125zM371 471v-125h-125v125h125zM518 193h-72v71h72v-71z" />
    <glyph glyph-name="orn.013" 
d="M283 831l-52 -51l-51 51l51 52zM782 829l-51 -51l-51 51l51 52zM569 827l-88 -88l-88 88l88 88zM815 582l-88 -88l-88 88l88 88zM631 582l-150 -150l-149 150l149 149zM324 582l-88 -88l-89 88l89 88zM569 336l-88 -88l-88 88l88 88zM782 332l-51 -51l-51 51l51 51z
M283 332l-52 -51l-51 51l51 51z" />
    <glyph glyph-name="orn.014" 
d="M803 715h-189v188zM348 715h-188l188 188v-188zM575 676v-189h-188v189h188zM803 449l-189 -189v189h189zM348 260l-188 189h188v-189z" />
    <glyph glyph-name="orn.015" 
d="M614 903l-133 -133l-133 133h266zM803 449l-133 133l133 133v-266zM614 582l-133 -133l-133 133l133 133zM293 582l-133 -133v266zM614 260h-266l133 133z" />
    <glyph glyph-name="orn.016" 
d="M584 827h-205l102 103zM829 582l-102 -103v205zM686 582l-205 -205l-205 205l205 204zM236 479l-103 103l103 102v-205zM584 336l-103 -103l-102 103h205z" />
    <glyph glyph-name="orn.017" 
d="M729 829v-145l-145 145h145zM379 829l-146 -145v145h146zM627 727v-291h-291v291h291zM729 334h-145l145 145v-145zM379 334h-146v145z" />
    <glyph glyph-name="orn.018" 
d="M584 623l-205 204l102 103l103 -103v-204zM829 582l-102 -103h-205l205 205zM440 684l-204 -205l-103 103l103 102h204zM584 336l-103 -103l-102 103v205z" />
    <glyph glyph-name="orn.019" 
d="M524 684h-291v145h146zM729 829v-145l-145 -145v290h145zM379 625v-291h-146v145zM729 334h-145l-146 145h291v-145z" />
    <glyph glyph-name="orn.020" 
d="M729 719l-194 -84l83 194h111v-110zM428 635l-195 84v110h111zM584 582l-103 -103l-102 103l102 102zM729 334h-111l-83 194l194 -84v-110zM428 528l-84 -194h-111v110z" />
    <glyph glyph-name="orn.021" 
d="M559 854l-78 -199l-78 199l78 78zM831 582l-77 -78l-199 78l199 77zM553 653v-143h-143v143h143zM408 582l-199 -78l-78 78l78 77zM559 309l-78 -78l-78 78l78 199z" />
    <glyph glyph-name="orn.022" 
d="M729 336h-108l-140 239l-137 -241h-108v110l239 138l-242 137v110h109l139 -241l137 241h109v-108l-240 -139l242 -138v-108z" />
    <glyph glyph-name="orn.023" 
d="M559 854l-78 -268l-78 268l78 78zM831 582l-77 -78l-269 78l269 77zM477 582l-268 -78l-78 78l78 77zM559 311l-78 -78l-78 78l78 267z" />
    <glyph glyph-name="orn.024" 
d="M729 829l-70 -180l-174 -67l174 -70l70 -178l-178 69l-70 175l-69 -175l-179 -69l70 178l174 70l-174 67l-70 180l181 -69l67 -174l68 174z" />
    <glyph glyph-name="orn.025" 
d="M559 756l-78 -170l-78 170l78 176zM831 582l-176 -78l-170 78l170 77zM477 582l-170 -78l-176 78l176 77zM559 408l-78 -177l-78 177l78 170z" />
    <glyph glyph-name="orn.026" 
d="M543 799l-62 -125l-61 125l61 133zM729 829l-51 -139l-170 -82l82 170zM455 608l-170 82l-52 139l140 -51zM831 582l-133 -62l-125 62l125 61zM389 582l-125 -62l-133 62l133 61zM729 334l-139 51l-82 170l170 -82zM455 555l-82 -170l-140 -51l52 139zM543 365l-62 -134
l-61 134l61 124z" />
    <glyph glyph-name="orn.027" 
d="M842 582l-51 -52l-54 52l54 51zM686 582l-51 -217l-51 217l51 217zM541 582l-60 -420l-59 420l59 419zM379 582l-51 -217l-52 217l52 217zM225 582l-53 -52l-51 52l51 51z" />
    <glyph glyph-name="orn.028" 
d="M532 891l-51 -53l-51 53l51 51zM698 735l-217 -51l-217 51l217 51zM901 582l-420 -60l-420 60l420 59zM698 428l-217 -51l-217 51l217 51zM532 272l-51 -51l-51 51l51 54z" />
    <glyph glyph-name="orn.029" 
d="M526 897l-45 -45l-45 45l45 45zM551 778l-70 -69l-69 69l69 70zM842 582l-45 -45l-45 45l45 45zM748 582l-70 -70l-70 70l70 69zM604 582l-123 -123l-123 123l123 123zM354 582l-69 -70l-70 70l70 69zM211 582l-45 -45l-45 45l45 45zM551 385l-70 -70l-69 70l69 70z
M526 266l-45 -45l-45 45l45 45z" />
    <glyph glyph-name="orn.030" 
d="M735 772h-63v64h63v-64zM291 772h-64v64h64v-64zM670 672h-99v98h99v-98zM391 672h-98v98h98v-98zM567 496h-172v172h172v-172zM670 393h-99v99h99v-99zM391 393h-98v99h98v-99zM735 328h-63v63h63v-63zM291 328h-64v63h64v-63z" />
    </font>
</defs>
</svg>
