<?xml version="1.0" standalone="no"?>
<!DOCTYPE svg PUBLIC "-//W3C//DTD SVG 1.1//EN" "http://www.w3.org/Graphics/SVG/1.1/DTD/svg11.dtd" >
<svg xmlns="http://www.w3.org/2000/svg" xmlns:xlink="http://www.w3.org/1999/xlink" version="1.1">
<metadata>
Created by FontForge 20201107 at Mon Jun  3 19:36:51 2024
 By 
Copyright (C) 2006 Emigre Inc., Designed Jonathan Barnbrook
</metadata>
<defs>
<font id="PrioriSansOT-UltraLight" horiz-adv-x="962" >
  <font-face 
    font-family="Priori Sans OT Ultra Light"
    font-weight="250"
    font-stretch="normal"
    units-per-em="2048"
    panose-1="2 0 6 6 2 0 0 2 0 3"
    ascent="1495"
    descent="-553"
    x-height="723"
    cap-height="1163"
    bbox="-424 -586 1942 1649"
    underline-thickness="83"
    underline-position="-357"
    unicode-range="U+0020-FB06"
  />
<missing-glyph horiz-adv-x="1024" 
 />
    <glyph glyph-name="ff" unicode="ff" horiz-adv-x="811" 
d="M158 0v707h-127l6 16h121v215q0 123 67 191.5t168 68.5q121 0 207 -86q58 86 164 86q102 0 180 -78l-12 -10q-72 72 -166 72q-81 0 -132.5 -56.5t-51.5 -164.5v-238h202l-4 -16h-198v-707h-19v707h-387v-707h-18zM176 723h387v238q0 77 29 137q-84 84 -197 84
q-95 0 -157 -65t-62 -179v-215z" />
    <glyph glyph-name="fi" unicode="fi" horiz-adv-x="720" 
d="M176 723h393v-723h-18v707h-375v-707h-18v707h-127l6 16h121v238q0 113 56 175t144 62q103 0 181 -78l-13 -10q-72 72 -166 72q-81 0 -132.5 -56.5t-51.5 -164.5v-238z" />
    <glyph glyph-name="fl" unicode="fl" horiz-adv-x="755" 
d="M358 1198q109 0 197 -88v-1026q0 -43 20.5 -66.5t53.5 -23.5q40 0 67 16v-16q-28 -17 -67 -17q-41 0 -66.5 27.5t-25.5 79.5v1022q-11 11 -27 24t-60.5 32.5t-89.5 19.5q-81 0 -132.5 -56.5t-51.5 -164.5v-238h203l-4 -16h-199v-707h-18v707h-127l6 16h121v238
q0 113 56 175t144 62z" />
    <glyph glyph-name="ffi" unicode="ffi" horiz-adv-x="1126" 
d="M582 707v-707h-19v707h-387v-707h-18v707h-127l6 16h121v215q0 123 67 191.5t168 68.5q121 0 207 -86q58 86 164 86q102 0 180 -78l-12 -10q-72 72 -166 72q-81 0 -132.5 -56.5t-51.5 -164.5v-238h393v-723h-19v707h-374zM176 723h387v238q0 77 29 137q-84 84 -197 84
q-95 0 -157 -65t-62 -179v-215z" />
    <glyph glyph-name="ffl" unicode="ffl" horiz-adv-x="1161" 
d="M764 1198q109 0 197 -88v-1026q0 -43 20 -66.5t53 -23.5q41 0 68 16v-16q-28 -17 -68 -17q-41 0 -66.5 27.5t-25.5 79.5v1022q-11 11 -26.5 23.5t-60 32.5t-89.5 20q-81 0 -132.5 -56.5t-51.5 -164.5v-238h202l-4 -16h-198v-707h-19v707h-387v-707h-18v707h-127l6 16h121
v215q0 123 67 191.5t168 68.5q121 0 207 -86q58 86 164 86zM176 723h387v238q0 77 29 137q-84 84 -197 84q-95 0 -157 -65t-62 -179v-215z" />
    <glyph glyph-name=".notdef" horiz-adv-x="1024" 
 />
    <glyph glyph-name=".null" horiz-adv-x="0" 
 />
    <glyph glyph-name="nonmarkingreturn" horiz-adv-x="682" 
 />
    <glyph glyph-name="space" unicode=" " horiz-adv-x="368" 
 />
    <glyph glyph-name="exclam" unicode="!" horiz-adv-x="438" 
d="M233 1163l-8 -944h-12l-8 944h28zM219 63l39 -38l-39 -39l-39 39z" />
    <glyph glyph-name="quotedbl" unicode="&#x22;" horiz-adv-x="483" 
d="M150 1163l-11 -407h-10l-10 407h31zM365 1163l-11 -407h-10l-10 407h31z" />
    <glyph glyph-name="numbersign" unicode="#" horiz-adv-x="1044" 
d="M897 387l-4 -16h-246l-80 -371h-16l80 371h-309l-80 -371h-17l80 371h-246l4 16h246l84 391h-246l5 17h245l80 368h17l-80 -368h309l80 368h16l-80 -368h246l-4 -17h-246l-84 -391h246zM326 387h309l84 391h-309z" />
    <glyph glyph-name="dollar" unicode="$" horiz-adv-x="897" 
d="M436 -221v198h-12q-125 0 -281 74v21q160 -76 281 -76h12v594l-80 53q-40 27 -68 50.5t-59 58t-47 77t-16 91.5q0 116 74.5 187t195.5 79v194h17v-194h6q117 0 235 -56v-20q-120 57 -235 57h-6v-563l96 -61q40 -27 68.5 -50t63.5 -60t54 -83.5t19 -97.5q0 -119 -85 -193
t-216 -82v-198h-17zM539 524l-86 56v-584q123 6 200.5 77t77.5 179q0 46 -17 88t-50.5 77.5t-59 57t-65.5 49.5zM186 920q0 -45 15 -84t44 -71t56.5 -54.5t67.5 -48.5l67 -48v553q-114 -8 -182 -73.5t-68 -173.5z" />
    <glyph glyph-name="percent" unicode="%" horiz-adv-x="974" 
d="M754 1198l-523 -1233h-16l522 1233h17zM504 983q0 -90 -62.5 -152.5t-154.5 -62.5t-153.5 62.5t-61.5 152.5t61.5 152.5t153.5 62.5t154.5 -62.5t62.5 -152.5zM487 983q0 84 -57.5 142.5t-142.5 58.5q-84 0 -141.5 -58.5t-57.5 -142.5t57.5 -142.5t141.5 -58.5
q85 0 142.5 58.5t57.5 142.5zM471 193q0 90 62.5 152.5t154.5 62.5t153.5 -62.5t61.5 -152.5t-62 -153t-153 -63q-92 0 -154.5 63t-62.5 153zM487 193q0 -84 57.5 -142.5t143.5 -58.5q84 0 141.5 58.5t57.5 142.5t-57.5 142t-141.5 58q-86 0 -143.5 -58t-57.5 -142z" />
    <glyph glyph-name="ampersand" unicode="&#x26;" horiz-adv-x="1148" 
d="M852 1163v-18h-668l639 -1002q180 180 215 486h15q-17 -152 -75 -282.5t-147 -219.5l19 -27q37 -59 73 -84.5t83 -25.5q74 0 133 76l10 -9q-63 -84 -143 -84q-61 0 -103 32t-88 106q-145 -136 -326 -136q-175 0 -279 103.5t-104 267.5q0 65 20 123t50.5 99.5t73.5 78.5
t81 60t81 43l-260 409v4h700zM489 -8q177 0 318 135l-387 608q-42 -20 -79 -43t-77.5 -59t-69.5 -76t-48 -95t-19 -116q0 -155 98.5 -254.5t263.5 -99.5z" />
    <glyph glyph-name="quotesingle" unicode="'" horiz-adv-x="268" 
d="M150 1163l-11 -407h-10l-10 407h31z" />
    <glyph glyph-name="parenleft" unicode="(" horiz-adv-x="638" 
d="M164 489q0 -229 119.5 -438.5t308.5 -355.5l-10 -12q-194 149 -316.5 360.5t-122.5 445.5q0 233 122.5 444.5t316.5 360.5l10 -12q-189 -146 -308.5 -356t-119.5 -437z" />
    <glyph glyph-name="parenright" unicode=")" horiz-adv-x="638" 
d="M475 489q0 227 -119.5 437t-308.5 356l10 12q194 -149 316.5 -360.5t122.5 -444.5q0 -234 -122.5 -445.5t-316.5 -360.5l-10 12q189 146 308.5 355.5t119.5 438.5z" />
    <glyph glyph-name="asterisk" unicode="*" horiz-adv-x="888" 
d="M457 1182l-2 -348l331 114l9 -24l-336 -107l211 -285l-21 -14l-205 289l-204 -289l-21 14l211 285l-336 107l8 24l332 -114l-2 348h25z" />
    <glyph glyph-name="plus" unicode="+" horiz-adv-x="1277" 
d="M1159 512h-512v-512h-16v512h-512v16h512v512h16v-512h512v-16z" />
    <glyph glyph-name="comma" unicode="," horiz-adv-x="389" 
d="M137 -322v7q10 6 23 16.5t34 32t34.5 54.5t13.5 71q0 92 -86 161l28 29q84 -73 84 -168q0 -40 -13 -75t-31 -57t-38.5 -39t-32.5 -24t-16 -8z" />
    <glyph glyph-name="hyphen" unicode="-" horiz-adv-x="595" 
d="M477 418h-358v16h358v-16z" />
    <glyph glyph-name="hyphen" unicode="&#xad;" horiz-adv-x="595" 
d="M477 418h-358v16h358v-16z" />
    <glyph glyph-name="period" unicode="." horiz-adv-x="389" 
d="M195 63l38 -38l-38 -39l-39 39z" />
    <glyph glyph-name="slash" unicode="/" horiz-adv-x="641" 
d="M618 1219l-579 -1244h-16l579 1244h16z" />
    <glyph glyph-name="zero" unicode="0" horiz-adv-x="958" 
d="M840 582q0 -155 -42.5 -292t-127 -226t-191.5 -89t-191 89t-126.5 226t-42.5 292q0 154 42.5 291t126.5 226t191 89q81 0 150 -52t114.5 -137.5t71 -194t25.5 -222.5zM819 582q0 149 -40 282t-119.5 220t-180.5 87t-180.5 -87t-119.5 -220t-40 -282q0 -150 40 -283.5
t119.5 -220t180.5 -86.5t180.5 86.5t119.5 220t40 283.5z" />
    <glyph glyph-name="one" unicode="1" horiz-adv-x="421" 
d="M221 0h-20v1155l20 14v-1169z" />
    <glyph glyph-name="two" unicode="2" horiz-adv-x="833" 
d="M88 6l358 408q3 4 35.5 40t42 47.5t39 48t41.5 56.5t33 57t30 65.5t17 65.5t8 72q0 137 -84.5 218t-214.5 81q-125 0 -214 -89.5t-89 -211.5h-18q0 128 93.5 224t227.5 96q141 0 230.5 -86.5t89.5 -231.5q0 -38 -8 -76.5t-17.5 -68.5t-30.5 -67t-34.5 -59t-42 -58
t-40.5 -49.5t-43 -48t-36 -40.5l-338 -381h596v-18h-631v6z" />
    <glyph glyph-name="three" unicode="3" horiz-adv-x="788" 
d="M219 604l-8 10q159 92 267 226t145 305h-543v18h565v-10q-14 -69 -40.5 -134t-54.5 -111.5t-66 -91.5t-64 -71t-61.5 -53t-46 -33.5t-28.5 -17.5q-2 -2 -3 -2q1 0 10.5 2.5t18 4.5t24 3.5t31.5 1.5q125 0 215 -85t90 -228q0 -163 -101 -263t-245 -100q-153 0 -277 103
l12 12q16 -13 42.5 -30.5t93 -41.5t131.5 -24q134 0 228.5 94.5t94.5 249.5q0 135 -85.5 215t-207.5 80q-43 0 -85.5 -11t-51.5 -18z" />
    <glyph glyph-name="four" unicode="4" horiz-adv-x="864" 
d="M592 375h-543l-2 8l549 780h16v-770h230v-18h-230v-375h-20v375zM76 393h516v733z" />
    <glyph glyph-name="five" unicode="5" horiz-adv-x="821" 
d="M59 121q141 -127 299 -127q132 0 228 97.5t96 254.5q0 156 -96.5 251t-231.5 95q-92 0 -182 -45l-4 2l35 514h469v-18h-453l-33 -473q86 37 172 37q144 0 244 -99.5t100 -263.5t-101.5 -267.5t-242.5 -103.5q-164 0 -311 134z" />
    <glyph glyph-name="six" unicode="6" horiz-adv-x="917" 
d="M770 338q0 151 -93.5 254.5t-250.5 103.5q-62 0 -124.5 -17.5t-92 -32.5t-43.5 -25q0 -1 -3.5 -13t-7 -28.5t-7.5 -37.5t-6.5 -48.5t-2.5 -53.5q0 -89 20 -167.5t59.5 -142t106 -100t152.5 -36.5q84 0 152.5 50.5t104.5 128.5t36 165zM174 645q122 68 254 68
q165 0 264 -106.5t99 -268.5q0 -143 -88.5 -253t-225.5 -110q-115 0 -197.5 62t-121.5 165t-39 236q0 180 91 342.5t248 269.5t341 128v-17q-213 -27 -385 -167t-240 -349z" />
    <glyph glyph-name="seven" unicode="7" horiz-adv-x="790" 
d="M743 1157l-505 -1157h-25l504 1145h-670v18h692z" />
    <glyph glyph-name="eight" unicode="8" horiz-adv-x="835" 
d="M418 625q39 17 73.5 37t70.5 48.5t61.5 60t42 71.5t16.5 82q0 106 -76.5 176.5t-187.5 70.5t-187.5 -70.5t-76.5 -176.5q0 -42 16.5 -82t42 -71.5t61.5 -60t70.5 -48.5t73.5 -37zM418 -6q117 0 197.5 83.5t80.5 201.5q0 58 -24 109t-68 91t-87 68t-99 57q-44 -23 -79 -44
t-74.5 -52t-65.5 -63.5t-43 -75.5t-17 -90q0 -118 80.5 -201.5t198.5 -83.5zM418 -25q-126 0 -212.5 88.5t-86.5 212.5q0 33 7.5 64t23 58t31.5 49.5t40.5 44t42 36.5t44.5 31.5t39 24t34 18.5l22 12q-113 55 -172 112q-96 91 -96 202q0 112 80.5 186t202.5 74t202 -74
t80 -186q0 -185 -261 -311q-5 -2 -7 -3q1 0 22.5 -11.5t34 -19t39 -23.5t44 -31.5t42 -36.5t41 -44t32 -50t23 -58t7.5 -64q0 -124 -86.5 -212.5t-212.5 -88.5z" />
    <glyph glyph-name="nine" unicode="9" horiz-adv-x="917" 
d="M147 825q0 -151 94 -254.5t251 -103.5q62 0 124.5 17.5t92 32.5t43.5 26q0 1 3.5 13t7 28t7 37.5t6 48.5t2.5 53q0 89 -20 167.5t-59.5 142t-106 100t-152.5 36.5q-84 0 -152.5 -50.5t-104.5 -128.5t-36 -165zM743 518q-121 -67 -254 -67q-165 0 -263.5 106t-98.5 268
q0 92 38 174.5t111 135.5t164 53q172 0 265.5 -129.5t93.5 -333.5q0 -179 -91 -342t-248 -269.5t-341 -127.5v16q213 26 384.5 166.5t239.5 349.5z" />
    <glyph glyph-name="colon" unicode=":" horiz-adv-x="389" 
d="M195 63l38 -38l-38 -39l-39 39zM195 754l38 -39l-38 -39l-39 39z" />
    <glyph glyph-name="semicolon" unicode=";" horiz-adv-x="389" 
d="M195 754l38 -39l-38 -39l-39 39zM137 -322v7q10 6 23 16.5t34 32t34.5 54.5t13.5 71q0 92 -86 161l28 29q84 -73 84 -168q0 -40 -13 -75t-31 -57t-38.5 -39t-32.5 -24t-16 -8z" />
    <glyph glyph-name="less" unicode="&#x3c;" horiz-adv-x="729" 
d="M635 117l-541 397v12l541 396v-19l-522 -383l522 -385v-18z" />
    <glyph glyph-name="equal" unicode="=" horiz-adv-x="989" 
d="M870 387h-751v16h751v-16zM870 641h-751v16h751v-16z" />
    <glyph glyph-name="greater" unicode="&#x3e;" horiz-adv-x="729" 
d="M635 514l-541 -397v18l522 385l-522 383v19l541 -396v-12z" />
    <glyph glyph-name="question" unicode="?" horiz-adv-x="733" 
d="M662 858q0 -68 -29 -130t-71 -105.5t-98 -81.5t-101.5 -59.5t-90.5 -37.5l-2 -225h-14l-2 236q44 15 90 36t101.5 58t97 79.5t70 103t28.5 126.5q0 135 -94.5 221t-231.5 86q-96 0 -196 -43v19q96 41 196 41q145 0 246 -90.5t101 -233.5zM262 63l39 -38l-39 -39l-39 39z
" />
    <glyph glyph-name="at" unicode="@" horiz-adv-x="1630" 
d="M954 115q0 64 35 176q-13 -39 -48 -87.5t-84 -94.5t-115.5 -77.5t-131.5 -31.5q-76 0 -124 57t-48 154q0 72 26 155.5t74 161.5t109.5 142t138 102.5t152.5 38.5q118 0 161 -112q1 -2 1 -3l30 105h17l-131 -455q-45 -157 -45 -231q0 -49 26 -77t70 -28q71 0 145.5 46
t136 124t101 192t39.5 238q0 254 -166 414t-426 160q-166 0 -312.5 -68.5t-249 -183t-161.5 -268t-59 -320.5q0 -151 52.5 -287t144.5 -236t226.5 -159t290.5 -59q245 0 445.5 138.5t286.5 367.5h8q-87 -233 -288 -375t-452 -142q-161 0 -299 59t-233 160.5t-149 239.5
t-54 293q0 136 38 264.5t110.5 234.5t169.5 186t222.5 124.5t262.5 44.5q268 0 436 -162.5t168 -425.5q0 -125 -39.5 -240t-101.5 -195t-140.5 -127.5t-154.5 -47.5q-111 0 -111 115zM993 332l92 315q15 51 -27.5 101.5t-119.5 50.5q-88 0 -177.5 -59t-154 -146.5t-105 -189
t-40.5 -185.5q0 -100 43.5 -151.5t113.5 -51.5q61 0 124.5 31.5t113 79t86.5 102.5t51 103z" />
    <glyph glyph-name="A" unicode="A" horiz-adv-x="892" 
d="M45 0h-22l413 1163h21l413 -1163h-22l-162 461h-479zM680 477l-225 635l-9 29l-8 -29l-225 -635h467z" />
    <glyph glyph-name="B" unicode="B" horiz-adv-x="919" 
d="M598 592l8 6l14 10.5t17 14.5t20 19t20.5 23.5t20 28.5t17.5 33t15 38.5t9.5 43.5t3.5 49q0 135 -87 211t-232 76h-227v-535h252q86 0 149 -18zM197 594v-576h262q147 0 243.5 80t96.5 217q0 128 -96.5 203.5t-268.5 75.5h-237zM616 586q74 -28 118 -68q85 -79 85 -205
q0 -145 -100 -229t-242 -84h-301v1163h248q153 0 246.5 -80.5t93.5 -224.5q0 -169 -148 -272z" />
    <glyph glyph-name="C" unicode="C" horiz-adv-x="1177" 
d="M707 -25q-170 0 -310 82t-218.5 221t-78.5 304t78.5 304t218 220.5t310.5 81.5q38 0 76 -3.5t69.5 -9.5t62 -13.5t53 -15t43.5 -15.5t33.5 -14t22.5 -11l10 -4v-21q-1 0 -16.5 7.5t-31 14.5t-41.5 17t-55.5 18t-64.5 15.5t-76.5 11.5t-84.5 4q-165 0 -299.5 -79
t-209.5 -213t-75 -295q0 -120 44.5 -228.5t121 -187.5t186 -125.5t232.5 -46.5q42 0 83.5 4t76 11.5t64 15.5t56 18t42.5 17l32 14l16 8v-21q-1 0 -11 -5t-22.5 -11t-33 -14t-43 -15.5t-52.5 -15t-61.5 -13t-69.5 -9t-77 -3.5z" />
    <glyph glyph-name="D" unicode="D" horiz-adv-x="1193" 
d="M197 1145v-1127h249q122 0 233 36.5t199 104.5t140.5 176.5t52.5 242.5q0 105 -34.5 196.5t-94.5 158.5t-140.5 115.5t-173.5 72.5t-192 24h-239zM176 0v1163h266q101 0 196.5 -25t178 -75t144.5 -119.5t97.5 -164.5t35.5 -204q0 -110 -35 -204t-96 -161.5t-142.5 -115.5
t-175 -71t-192.5 -23h-277z" />
    <glyph glyph-name="E" unicode="E" horiz-adv-x="878" 
d="M778 0h-602v1163h576v-18h-555v-549h432v-16h-432v-562h581v-18z" />
    <glyph glyph-name="F" unicode="F" horiz-adv-x="792" 
d="M711 1145h-514v-549h421v-16h-421v-580h-21v1163h535v-18z" />
    <glyph glyph-name="G" unicode="G" horiz-adv-x="1228" 
d="M705 -6q189 0 352 80v424h20v-435l-13 -7q-14 -6 -30 -13t-41.5 -17t-56 -18.5t-66 -16t-78.5 -12t-87 -4.5q-170 0 -309.5 82t-217.5 220.5t-78 304.5q0 165 78.5 304t218 220.5t310.5 81.5q38 0 76 -3.5t69.5 -9.5t62 -13.5t53 -15t43.5 -15.5t33.5 -14t22.5 -11l10 -4
v-21q-1 0 -16.5 7.5t-31 14.5t-41.5 17t-55.5 18t-64.5 15.5t-76.5 11.5t-84.5 4q-165 0 -299.5 -79t-209.5 -213t-75 -295q0 -120 44 -228.5t120.5 -187.5t185.5 -125.5t232 -46.5z" />
    <glyph glyph-name="H" unicode="H" horiz-adv-x="1132" 
d="M956 0h-20v580h-739v-580h-21v1163h21v-567h739v567h20v-1163z" />
    <glyph glyph-name="I" unicode="I" horiz-adv-x="397" 
d="M209 0h-21v1163h21v-1163z" />
    <glyph glyph-name="J" unicode="J" horiz-adv-x="372" 
d="M197 1163v-1669l-21 -20v1689h21z" />
    <glyph glyph-name="K" unicode="K" horiz-adv-x="942" 
d="M920 0h-27l-477 676l-219 -221v-455h-21v1163h21v-684l682 684h26l-473 -473z" />
    <glyph glyph-name="L" unicode="L" horiz-adv-x="829" 
d="M807 0h-631v1163h21v-1145h610v-18z" />
    <glyph glyph-name="M" unicode="M" horiz-adv-x="1388" 
d="M190 1163l504 -1132l504 1132h14v-1163h-20v1044l4 70l-29 -70l-465 -1044h-16l-465 1044l-28 70l4 -70v-1044h-21v1163h14z" />
    <glyph glyph-name="N" unicode="N" horiz-adv-x="1196" 
d="M1020 0h-21v326l-802 802v-1128h-21v1163h12l811 -809v809h21v-1163z" />
    <glyph glyph-name="O" unicode="O" horiz-adv-x="1413" 
d="M1313 582q0 -165 -78 -304t-218 -221t-310 -82t-310 82t-218.5 221t-78.5 304t78.5 304t218 220.5t310.5 81.5q170 0 310 -81.5t218 -220.5t78 -304zM1290 582q0 161 -75 295t-209 213t-299 79t-299.5 -79t-209.5 -213t-75 -295q0 -120 44.5 -228.5t121 -187.5
t186 -125.5t232.5 -46.5q165 0 299 79t209 213.5t75 295.5z" />
    <glyph glyph-name="P" unicode="P" horiz-adv-x="831" 
d="M197 1145v-625h194q67 0 130 20t115.5 57.5t84 99.5t31.5 139q0 142 -95.5 225.5t-269.5 83.5h-190zM176 1163h211q182 0 283.5 -87.5t101.5 -239.5q0 -83 -34 -148.5t-89.5 -104.5t-121.5 -59t-136 -20h-194v-504h-21v1163z" />
    <glyph glyph-name="Q" unicode="Q" horiz-adv-x="1380" 
d="M524 8q19 -9 59.5 -22.5t133 -30t188.5 -16.5h363l-6 -19h-336q-193 0 -352 55t-261 147.5t-157.5 211t-55.5 248.5q0 165 77.5 303t213 218.5t297.5 80.5q164 0 300.5 -80.5t214 -218.5t77.5 -303q0 -164 -78.5 -302.5t-214.5 -219t-297 -80.5q-82 0 -166 28zM1257 582
q0 120 -44.5 227.5t-120 185.5t-181 124t-223.5 46q-117 0 -222 -46t-180 -124t-119 -185.5t-44 -227.5q0 -158 80.5 -294t211 -214t275.5 -78q156 0 286.5 78.5t205.5 213t75 294.5z" />
    <glyph glyph-name="R" unicode="R" horiz-adv-x="903" 
d="M197 506h161q183 0 283 92.5t100 228.5q0 145 -97.5 231.5t-272.5 86.5h-174v-639zM371 1163q185 0 289 -90.5t104 -245.5q0 -129 -86 -221t-244 -112l293 -422q23 -35 46.5 -51.5t55.5 -16.5q28 0 46 11t38 34l13 -12q-39 -53 -97 -53q-41 0 -67 19t-53 58l-299 431
q-30 -3 -52 -3h-161v-489h-21v1163h195z" />
    <glyph glyph-name="S" unicode="S" horiz-adv-x="811" 
d="M381 -4q136 0 221.5 70.5t85.5 185.5q0 46 -17 88t-50.5 77.5t-59 57t-65.5 49.5l-183 119q-40 27 -68 50.5t-59 58t-47 77t-16 91.5q0 123 82 194.5t211 71.5q117 0 235 -56v-20q-120 57 -235 57q-122 0 -197.5 -66.5t-75.5 -180.5q0 -45 15 -84t44 -71t56.5 -54.5
t67.5 -48.5l180 -119q40 -27 68.5 -50t63.5 -60t54 -83.5t19 -97.5q0 -125 -93.5 -200t-236.5 -75q-125 0 -281 74v21q160 -76 281 -76z" />
    <glyph glyph-name="T" unicode="T" horiz-adv-x="884" 
d="M862 1145h-409v-1145h-21v1145h-409v18h839v-18z" />
    <glyph glyph-name="U" unicode="U" horiz-adv-x="1116" 
d="M920 182q-18 -25 -29 -39t-48 -49.5t-73.5 -56.5t-97 -39t-127.5 -18q-171 0 -276 115.5t-105 299.5v768h20v-768q0 -177 100.5 -288t262.5 -111q61 0 116.5 16t93 38.5t71.5 53t51.5 52t33.5 43.5q5 7 7 10v954h20v-1163h-20v182z" />
    <glyph glyph-name="V" unicode="V" horiz-adv-x="888" 
d="M866 1165l-411 -1163h-19l-413 1163h22l393 -1110l8 -22l7 22l393 1110h20z" />
    <glyph glyph-name="W" unicode="W" horiz-adv-x="1296" 
d="M848 1165h20l-211 -592l185 -518l8 -26l8 26l393 1110h23l-414 -1163h-18l-193 545l-194 -545h-19l-413 1163h22l393 -1110l8 -26l9 26l184 518l-211 592h23l198 -565z" />
    <glyph glyph-name="X" unicode="X" horiz-adv-x="892" 
d="M446 567l-387 -567h-24l401 584l-401 579h24l387 -565l388 565h24l-399 -579l399 -584h-24z" />
    <glyph glyph-name="Y" unicode="Y" horiz-adv-x="823" 
d="M422 489v-489h-21v489l-378 674h22l367 -655l366 655h23z" />
    <glyph glyph-name="Z" unicode="Z" horiz-adv-x="911" 
d="M47 0v8l772 1137h-743v18h774v-10l-772 -1135h786v-18h-817z" />
    <glyph glyph-name="bracketleft" unicode="[" horiz-adv-x="417" 
d="M324 -287h-158v1583h158v-16h-140v-1552h140v-15z" />
    <glyph glyph-name="backslash" unicode="\" horiz-adv-x="450" 
d="M522 -25h-16l-578 1244h17z" />
    <glyph glyph-name="bracketright" unicode="]" horiz-adv-x="417" 
d="M252 -287h-158v15h139v1552h-139v16h158v-1583z" />
    <glyph glyph-name="asciicircum" unicode="^" horiz-adv-x="970" 
d="M877 664h-19l-373 700l-372 -700h-19l381 718h21z" />
    <glyph glyph-name="underscore" unicode="_" horiz-adv-x="923" 
d="M924 -16h-924v16h924v-16z" />
    <glyph glyph-name="grave" unicode="`" horiz-adv-x="681" 
d="M442 905h-16l-188 379h18z" />
    <glyph glyph-name="a" unicode="a" horiz-adv-x="671" 
d="M526 0l-2 84l-3 -4q-3 -3 -7 -7.5t-11 -11t-15 -13t-19.5 -14t-23.5 -14t-28 -12.5t-32.5 -10.5t-36.5 -7t-41 -2.5q-100 0 -167.5 62t-67.5 165q0 112 83.5 178t223.5 80l143 14v220h-397l4 16h412v-723h-15zM90 215q0 -96 62 -153.5t155 -57.5q135 0 215 100v367
l-141 -14q-135 -14 -213 -76.5t-78 -165.5z" />
    <glyph glyph-name="b" unicode="b" horiz-adv-x="821" 
d="M377 0q142 0 242 104.5t100 255.5q0 152 -100 257.5t-242 105.5q-26 0 -51 -3t-46 -9t-38 -12.5t-33.5 -15t-25.5 -13.5t-20.5 -12.5t-12.5 -8.5v-573q106 -76 227 -76zM377 739q150 0 256 -110t106 -269t-106 -267.5t-256 -108.5q-117 0 -227 71v-55h-19v1163h19v-493
q104 69 227 69z" />
    <glyph glyph-name="c" unicode="c" horiz-adv-x="765" 
d="M680 682v-20q-118 59 -231 59q-150 0 -248.5 -104.5t-98.5 -254.5q0 -153 98.5 -256.5t245.5 -103.5q23 0 45 2t41 5.5t36.5 7.5t32.5 9t27 10t22 9.5t16.5 8t11.5 6.5l6 3v-20l-6 -3l-14 -8t-20 -9.5t-27 -10.5t-33.5 -10.5t-39.5 -9t-46 -6t-52 -2.5q-155 0 -259.5 109
t-104.5 269q0 157 104.5 267t262.5 110q117 0 231 -57z" />
    <glyph glyph-name="d" unicode="d" horiz-adv-x="817" 
d="M434 -2l234 164v493q-113 68 -226 68q-141 0 -240.5 -99t-99.5 -239q0 -59 14.5 -110t36 -87t54 -67t60 -50t64.5 -35.5t57 -23t46 -14.5zM668 0v141l-232 -164q-354 99 -354 408q0 147 105 250.5t255 103.5q121 0 226 -63v487h18v-1163h-18z" />
    <glyph glyph-name="e" unicode="e" horiz-adv-x="806" 
d="M442 2q138 0 258 72v-21q-115 -69 -258 -69q-154 0 -257 108t-103 268t101.5 269.5t242.5 109.5q124 0 209.5 -93t85.5 -245v-18h-619v-23q0 -152 97.5 -255t242.5 -103zM426 721q-126 0 -217 -92t-105 -230h601v2q0 144 -82 232t-197 88z" />
    <glyph glyph-name="f" unicode="f" horiz-adv-x="405" 
d="M358 1198q103 0 181 -78l-13 -10q-72 72 -166 72q-81 0 -132.5 -56.5t-51.5 -164.5v-238h203l-4 -16h-199v-707h-18v707h-127l6 16h121v238q0 113 56 175t144 62z" />
    <glyph glyph-name="g" unicode="g" horiz-adv-x="747" 
d="M63 -276q0 147 181 266l-144 43l105 135q-61 40 -96 108t-35 150q0 129 85 221t208 92q124 0 208 -94l62 78h133v-16h-125l-57 -74q71 -87 71 -207q0 -129 -85 -218t-207 -89q-81 0 -148 39l-92 -117l309 -90q232 -67 232 -248q0 -104 -86.5 -175t-208.5 -71
q-133 0 -221.5 76.5t-88.5 190.5zM92 426q0 -123 79.5 -208t193.5 -85t195 85t81 208q0 125 -80.5 211t-195.5 86q-112 0 -192.5 -86t-80.5 -211zM80 -276q0 -106 83.5 -178t209.5 -72q114 0 196 67t82 162q0 166 -221 231l-168 50q-18 -10 -34.5 -21.5t-45.5 -37.5
t-49.5 -53t-36.5 -66.5t-16 -81.5z" />
    <glyph glyph-name="h" unicode="h" horiz-adv-x="788" 
d="M639 0v467q0 125 -62 190.5t-165 65.5q-47 0 -89 -15t-67 -31.5t-51.5 -47.5t-33 -41t-21.5 -35v-553h-19v1163h19v-581q37 56 71 85q82 72 191 72q112 0 178.5 -69t66.5 -203v-467h-18z" />
    <glyph glyph-name="i" unicode="i" horiz-adv-x="321" 
d="M170 0h-18v723h18v-723zM127 956l35 35l33 -35l-35 -34z" />
    <glyph glyph-name="j" unicode="j" horiz-adv-x="321" 
d="M170 -498l-18 -18v1239h18v-1221zM127 956l35 35l33 -35l-35 -34z" />
    <glyph glyph-name="k" unicode="k" horiz-adv-x="606" 
d="M150 0h-19v1163h19v-848l448 408h25l-314 -283l320 -440h-25l-307 428l-147 -133v-295z" />
    <glyph glyph-name="l" unicode="l" horiz-adv-x="350" 
d="M291 10v-16q-28 -17 -68 -17q-41 0 -66.5 27.5t-25.5 79.5v1079h19v-1079q0 -43 20 -66.5t53 -23.5q41 0 68 16z" />
    <glyph glyph-name="m" unicode="m" horiz-adv-x="1245" 
d="M408 739q81 0 138.5 -40t80.5 -119q99 159 245 159q111 0 176.5 -69t65.5 -203v-467h-18v467q0 125 -60.5 190.5t-163.5 65.5q-47 0 -90.5 -19.5t-73.5 -49.5t-47 -53t-28 -42q8 -50 8 -82v-477h-18v477q0 120 -58.5 183t-156.5 63q-25 0 -48 -4t-41.5 -9.5t-36.5 -15.5
t-31 -18.5t-26.5 -22.5t-21.5 -22.5t-18.5 -23t-14.5 -20.5t-11.5 -19.5t-8.5 -14.5v-553h-19v723h19v-141l6 10q6 9 11.5 17t15.5 21.5t21.5 24.5t27 24.5t34 23t40 18.5t48 13.5t54.5 4.5z" />
    <glyph glyph-name="n" unicode="n" horiz-adv-x="788" 
d="M639 0v467q0 125 -62 190.5t-165 65.5q-47 0 -89 -15t-67 -31.5t-51.5 -47.5t-33 -41t-21.5 -35v-553h-19v723h19v-141q37 56 71 85q82 72 191 72q112 0 178.5 -69t66.5 -203v-467h-18z" />
    <glyph glyph-name="o" unicode="o" horiz-adv-x="888" 
d="M807 360q0 -159 -106.5 -267.5t-256.5 -108.5t-256 108.5t-106 267.5t106 269t256 110t256.5 -110t106.5 -269zM786 360q0 152 -100 257.5t-242 105.5t-242 -105.5t-100 -257.5q0 -151 100 -255.5t242 -104.5t242 104.5t100 255.5z" />
    <glyph glyph-name="p" unicode="p" horiz-adv-x="817" 
d="M383 723l-233 -164v-491q113 -68 225 -68q141 0 240.5 98.5t99.5 237.5q0 59 -14.5 110t-36 87t-54 67t-60 50t-64.5 35.5t-57 23t-46 14.5zM150 723v-143l231 163q27 -8 46 -14t59 -23t69.5 -36t65.5 -52t59 -71t39 -93t16 -118q0 -147 -105 -249.5t-255 -102.5
q-120 0 -225 63v-512h-19v1188h19z" />
    <glyph glyph-name="q" unicode="q" horiz-adv-x="821" 
d="M444 723q-142 0 -242 -105t-100 -256q0 -152 100 -257t242 -105q26 0 51 3t46 9.5t38 12t34 14.5t25.5 14t20.5 12.5t13 8.5v573q-106 76 -228 76zM444 -16q-150 0 -256 109.5t-106 268.5t106 268t256 109q118 0 228 -71v55h18v-1188h-18v518q-104 -69 -228 -69z" />
    <glyph glyph-name="r" unicode="r" horiz-adv-x="419" 
d="M420 711q-32 8 -66 8q-102 0 -204 -129v-590h-19v723h19v-109q11 14 24.5 28.5t41.5 39.5t64.5 41t73.5 16q42 0 66 -8v-20z" />
    <glyph glyph-name="s" unicode="s" horiz-adv-x="559" 
d="M258 0q95 0 145 46t50 118q0 27 -11 52t-23.5 41.5t-38 36t-38.5 27t-42.5 23.5t-33.5 18q-1 0 -20 10.5t-27 15t-28 18t-30.5 23t-26 26t-23.5 32t-14.5 36t-6.5 42.5q0 76 52.5 125t152.5 49q71 0 156 -34v-19q-74 37 -156 37q-91 0 -137.5 -44t-46.5 -114
q0 -27 10.5 -51t21.5 -40t36 -35t36.5 -26t41 -22.5t32.5 -17.5t20.5 -11t27.5 -15t29.5 -18.5t32 -23t28 -27t24.5 -32.5t15.5 -37t6.5 -43q0 -79 -55.5 -130.5t-159.5 -51.5q-39 0 -80.5 10.5t-61 19t-26.5 13.5v18q90 -45 168 -45z" />
    <glyph glyph-name="t" unicode="t" horiz-adv-x="452" 
d="M143 180v527h-135l4 16h131v285h19v-285h264l-4 -16h-260v-527q0 -93 40.5 -134.5t100.5 -41.5q75 0 127 39v-18q-65 -37 -127 -37q-70 0 -115 43.5t-45 148.5z" />
    <glyph glyph-name="u" unicode="u" horiz-adv-x="774" 
d="M131 252v471h19v-471q0 -123 60 -187.5t161 -64.5q44 0 82.5 13t63.5 30t48 42t34 41t22 35q3 5 4 7v555h18v-723h-18v141l-5 -9q-6 -8 -10 -14.5t-13 -18.5t-18 -21.5t-22.5 -21.5t-27 -22t-31.5 -19.5t-37 -16t-42.5 -10.5t-47.5 -4q-109 0 -174.5 69t-65.5 199z" />
    <glyph glyph-name="v" unicode="v" horiz-adv-x="577" 
d="M289 25l258 698h20l-268 -723h-20l-269 723h19z" />
    <glyph glyph-name="w" unicode="w" horiz-adv-x="1024" 
d="M272 25l236 698h8l236 -698l241 698h21l-252 -723h-21l-229 676l-229 -676h-19l-254 723h21z" />
    <glyph glyph-name="x" unicode="x" horiz-adv-x="622" 
d="M33 0h-23l291 367l-285 356h23l272 -344l271 344h24l-284 -356l290 -367h-24l-277 352z" />
    <glyph glyph-name="y" unicode="y" horiz-adv-x="577" 
d="M289 25l260 698h18l-268 -723l-174 -463h-19l173 463l-269 723h19z" />
    <glyph glyph-name="z" unicode="z" horiz-adv-x="636" 
d="M70 707v16h497v-6l-479 -701h490v-16h-519v6l480 701h-469z" />
    <glyph glyph-name="braceleft" unicode="{" horiz-adv-x="507" 
d="M459 1458l2 -12q-115 -20 -187.5 -96t-72.5 -197q0 -69 21.5 -202t21.5 -201q0 -52 -16.5 -95t-38 -67t-48 -41t-40.5 -22.5t-21 -6.5v-2q7 -1 21.5 -7t40.5 -24t47.5 -42t38 -67t16.5 -95q0 -69 -21.5 -202t-21.5 -202q0 -121 72.5 -197t187.5 -96l-2 -12
q-123 20 -201 97t-78 208q0 69 22.5 202t22.5 202q0 177 -166 229v12q166 56 166 228q0 68 -22.5 201t-22.5 202q0 131 78 208t201 97z" />
    <glyph glyph-name="bar" unicode="|" horiz-adv-x="516" 
d="M266 -389h-16v1843h16v-1843z" />
    <glyph glyph-name="braceright" unicode="}" horiz-adv-x="507" 
d="M49 1458q123 -20 201 -97t78 -208q0 -69 -22.5 -202t-22.5 -201q0 -172 166 -228v-12q-166 -52 -166 -229q0 -69 22.5 -202t22.5 -202q0 -131 -78 -208t-201 -97l-2 12q115 20 187.5 96t72.5 197q0 69 -21.5 202t-21.5 202q0 52 16.5 95t38 67t47.5 42t40.5 24t21.5 7v2
q-7 1 -21 6.5t-40.5 22.5t-48 41t-38 67t-16.5 95q0 68 21.5 201t21.5 202q0 121 -72.5 197t-187.5 96z" />
    <glyph glyph-name="asciitilde" unicode="~" horiz-adv-x="1142" 
d="M82 395q8 104 68.5 178t162.5 74q47 0 121.5 -37t140.5 -81.5t139.5 -81.5t119.5 -37q93 0 149 70t64 167h14q-8 -104 -69 -178t-163 -74q-39 0 -94 24.5t-111 59.5l-112 70t-110 59.5t-91 24.5q-94 0 -149.5 -70t-65.5 -168h-14z" />
    <glyph glyph-name="nbspace" unicode="&#xa0;" horiz-adv-x="368" 
 />
    <glyph glyph-name="exclamdown" unicode="&#xa1;" horiz-adv-x="438" 
d="M225 473l8 -944h-28l8 944h12zM258 668l-39 -39l-39 39l39 39z" />
    <glyph glyph-name="cent" unicode="&#xa2;" horiz-adv-x="806" 
d="M700 885q-118 59 -231 59v-719q25 0 49.5 2.5t44.5 6.5t39.5 9.5t33.5 11t27.5 11.5t21 10t13.5 8l7 3v-21l-7 -4q-6 -3 -13 -7t-20 -9.5t-26.5 -10.5t-33 -10.5t-39.5 -9t-45.5 -6t-51.5 -2.5v-207h-12v207q-152 3 -253.5 111.5t-101.5 267.5q0 154 101 263.5t254 113.5
v200h12v-200q115 0 231 -58v-20zM123 586q0 -150 95 -254t239 -107v719q-146 -4 -240 -107.5t-94 -250.5z" />
    <glyph glyph-name="sterling" unicode="&#xa3;" horiz-adv-x="874" 
d="M287 848v-316h356v-16h-356v-500h506v-16h-721v16h194v500h-194v16h194v316q0 72 18 131t47 97t67.5 64t76.5 37t76 11q115 0 211 -55v-21q-100 57 -211 57q-45 0 -89.5 -17.5t-84.5 -53.5t-65 -101t-25 -149z" />
    <glyph glyph-name="currency" unicode="&#xa4;" horiz-adv-x="1228" 
d="M950 479l-4 -16h-758q40 -205 198 -337t376 -132q42 0 83.5 4t76.5 11.5t64.5 15.5t56 18.5t42 16.5t31.5 14l17 8v-21q-1 0 -11.5 -5t-22.5 -11t-33 -14t-43 -15.5t-52.5 -15t-61.5 -13t-69.5 -9t-77.5 -3.5q-227 0 -391.5 137.5t-204.5 350.5h-94v16h92q-8 44 -8 103
q0 72 10 123h-94v16h98q47 204 209 335.5t383 131.5q44 0 87 -5.5t78.5 -14.5t67.5 -19.5t56.5 -21.5t42 -20t29 -15.5t12.5 -6.5l-7 -20q-29 19 -68 38.5t-125 42.5t-173 23q-211 0 -366.5 -126t-200.5 -322h831l-6 -16h-830q-12 -61 -12 -123q0 -59 8 -103h764z" />
    <glyph glyph-name="yen" unicode="&#xa5;" horiz-adv-x="808" 
d="M766 549h-350v-270h350v-15h-350v-264h-21v264h-352v15h352v270h-352v14h350l-370 600h26l357 -581l354 581h26l-370 -600h350v-14z" />
    <glyph glyph-name="brokenbar" unicode="&#xa6;" horiz-adv-x="516" 
d="M266 676h-16v778h16v-778zM266 -389h-16v801h16v-801z" />
    <glyph glyph-name="section" unicode="&#xa7;" horiz-adv-x="718" 
d="M559 1145q-103 35 -186 35q-99 0 -172.5 -62.5t-73.5 -150.5q0 -36 12.5 -70.5t27 -57t46 -53t47.5 -43.5t55 -43l199 -155q123 -91 123 -219q0 -27 -6.5 -52.5t-18 -46.5t-25.5 -39t-31.5 -33t-32.5 -26.5t-32.5 -20.5t-28 -14.5t-21.5 -10.5l-11 -5q87 -68 111 -98
q71 -78 71 -179q0 -95 -70.5 -163t-199.5 -68q-89 0 -213 45v20q124 -45 213 -45q120 0 185 63t65 148q0 45 -14.5 84t-46.5 74.5t-55 56t-68 54.5l-164 125q-2 2 -24.5 18.5t-31.5 24.5t-29.5 26.5t-30.5 34.5t-22.5 39t-18 49t-5.5 55q0 166 209 250l-47 37
q-138 114 -138 238q0 99 80 165t187 66q89 0 186 -33v-20zM416 90q200 85 200 236q0 42 -12.5 77t-38.5 65t-49.5 50.5t-61.5 49.5q-11 8 -16 12q-23 18 -68 52t-63 48q-1 0 -10 -4t-18 -7.5t-24 -11.5t-28 -16t-29 -20t-29 -24.5t-26 -29.5t-21.5 -35.5t-14 -41t-5.5 -46.5
q0 -28 4.5 -52t16.5 -45t21.5 -36t30.5 -34.5t32 -29t38 -30t38 -29.5q58 -40 133 -98z" />
    <glyph glyph-name="dieresis" unicode="&#xa8;" horiz-adv-x="681" 
d="M248 1034l28 -28l-28 -29l-29 29zM406 1006l28 28l29 -28l-29 -29z" />
    <glyph glyph-name="copyright" unicode="&#xa9;" horiz-adv-x="1374" 
d="M1303 582q0 -125 -49 -239.5t-131.5 -197t-197 -131.5t-239.5 -49q-167 0 -308.5 83t-223.5 225t-82 309t82 308.5t223.5 223.5t308.5 82t309 -82t225 -223.5t83 -308.5zM1294 582q0 123 -48.5 235.5t-130.5 194t-194.5 130t-234.5 48.5t-234 -48.5t-193.5 -130
t-130 -194t-48.5 -235.5t48.5 -236t129.5 -195t193.5 -131t234.5 -49t234.5 49t194.5 131t130.5 195t48.5 236zM319 584q0 165 114 282t274 117q118 -2 241 -59v-21q-111 60 -241 60q-152 0 -258.5 -110.5t-106.5 -268.5q0 -157 106 -267.5t259 -111.5q130 0 243 63v-20
q-99 -62 -243 -62q-161 2 -274.5 118t-113.5 280z" />
    <glyph glyph-name="ordfeminine" unicode="&#xaa;" horiz-adv-x="458" 
d="M393 668v53q-62 -62 -145 -62q-70 0 -118 44t-48 118q0 77 59.5 124t159.5 56l92 9v149h-276l4 19h291v-510h-19zM248 678q89 0 145 65v250l-90 -8q-92 -8 -147.5 -51t-55.5 -113q0 -65 43 -104t105 -39z" />
    <glyph glyph-name="guillemotleft" unicode="&#xab;" horiz-adv-x="684" 
d="M569 166l-268 358l268 361h21l-266 -361l266 -358h-21zM340 166l-268 358l268 361h20l-266 -361l266 -358h-20z" />
    <glyph glyph-name="registered" unicode="&#xae;" horiz-adv-x="1005" 
d="M934 768q0 -178 -127 -305t-305 -127t-304 126.5t-126 305.5q0 178 126 304t304 126q179 0 305.5 -126t126.5 -304zM926 768q0 173 -125.5 298.5t-298.5 125.5t-297.5 -125.5t-124.5 -298.5q0 -175 124.5 -300.5t297.5 -125.5t298.5 125.5t125.5 300.5zM358 518v512h86
q83 0 128.5 -39t45.5 -106q0 -59 -37.5 -100t-101.5 -50l129 -176q1 -2 5 -6l5.5 -5.5t4.5 -5t4.5 -5t4.5 -4t5.5 -3.5t5.5 -2t6 -1.5t6 -0.5q18 0 37 23l8 -10q-19 -29 -47 -29q-30 0 -61 43l-131 180h-86v-215h-17zM375 748h65q76 0 118 39t42 98q0 60 -41 95.5t-115 35.5
h-69v-268z" />
    <glyph glyph-name="macron" unicode="&#xaf;" horiz-adv-x="681" 
d="M600 989h-520v21h520v-21z" />
    <glyph glyph-name="macron" unicode="&#x2c9;" horiz-adv-x="681" 
d="M600 989h-520v21h520v-21z" />
    <glyph glyph-name="degree" unicode="&#xb0;" horiz-adv-x="753" 
d="M635 1135q0 -111 -75 -182.5t-183 -71.5t-183 71t-75 183q0 108 75.5 181t182.5 73t182.5 -72.5t75.5 -181.5zM621 1135q0 104 -71.5 172.5t-172.5 68.5t-172.5 -69t-71.5 -172q0 -107 71 -174.5t173 -67.5t173 68.5t71 173.5z" />
    <glyph glyph-name="twosuperior" unicode="&#xb2;" horiz-adv-x="575" 
d="M465 844h-363v4l213 233q26 28 35.5 39t32.5 41.5t33.5 51t20 50.5t9.5 58q0 72 -47.5 116t-122.5 44q-70 0 -120 -48.5t-52 -113.5h-12q0 70 53.5 122t130.5 52q83 0 135 -47t52 -125q0 -36 -11.5 -70.5t-35.5 -69t-42.5 -56.5t-49.5 -56l-197 -211h338v-14z" />
    <glyph glyph-name="threesuperior" unicode="&#xb3;" horiz-adv-x="536" 
d="M66 889l8 8q10 -8 26.5 -18t52.5 -21.5t72 -11.5q77 0 131 50.5t54 133.5q0 72 -48.5 115t-117.5 43q-52 0 -80 -14l-4 8q192 105 233 284h-309v15h328v-8q0 -35 -9 -67.5t-22.5 -57t-33 -47t-37.5 -38t-39 -29t-34.5 -21t-26.5 -13.5l-13 -6q32 8 53 8q71 0 123.5 -47
t52.5 -125q0 -90 -59 -144.5t-142 -54.5q-16 0 -32.5 2.5t-29.5 6t-26 9t-23 10t-19 10t-14.5 9.5t-10.5 8z" />
    <glyph glyph-name="acute" unicode="&#xb4;" horiz-adv-x="681" 
d="M254 905h-16l186 379h18z" />
    <glyph glyph-name="mu" unicode="&#xb5;" horiz-adv-x="774" 
d="M131 723h19v-471q0 -123 60 -187.5t161 -64.5q44 0 82.5 13t63.5 30t48 42t34 41t22 35q3 5 4 7v555h18v-723h-18v141l-5 -9q-6 -8 -10 -14.5t-13 -18.5t-18 -21.5t-22.5 -21.5t-27 -22t-31.5 -19.5t-37 -16t-42.5 -10.5t-47.5 -4q-47 0 -86.5 14t-62 32.5t-40 43
t-23.5 37.5t-9 24v-545h-19v1133z" />
    <glyph glyph-name="mu" unicode="&#x3bc;" horiz-adv-x="774" 
d="M131 723h19v-471q0 -123 60 -187.5t161 -64.5q44 0 82.5 13t63.5 30t48 42t34 41t22 35q3 5 4 7v555h18v-723h-18v141l-5 -9q-6 -8 -10 -14.5t-13 -18.5t-18 -21.5t-22.5 -21.5t-27 -22t-31.5 -19.5t-37 -16t-42.5 -10.5t-47.5 -4q-47 0 -86.5 14t-62 32.5t-40 43
t-23.5 37.5t-9 24v-545h-19v1133z" />
    <glyph glyph-name="paragraph" unicode="&#xb6;" horiz-adv-x="671" 
d="M416 0h-19v614h-96q-117 0 -197.5 80.5t-80.5 196.5q0 112 88 192t219 80h223v-1573h-18v1555h-119v-207h-103l-45 43l-94 -92l94 -96l45 43h103v-836z" />
    <glyph glyph-name="periodcentered" unicode="&#xb7;" horiz-adv-x="389" 
d="M195 625l38 -39l-38 -39l-39 39z" />
    <glyph glyph-name="periodcentered" unicode="&#x2219;" horiz-adv-x="389" 
d="M195 625l38 -39l-38 -39l-39 39z" />
    <glyph glyph-name="cedilla" unicode="&#xb8;" horiz-adv-x="681" 
d="M254 -338h-16l186 379h18z" />
    <glyph glyph-name="onesuperior" unicode="&#xb9;" horiz-adv-x="346" 
d="M180 844h-14v631l14 10v-641z" />
    <glyph glyph-name="ordmasculine" unicode="&#xba;" horiz-adv-x="720" 
d="M614 924q0 -112 -75 -188.5t-181 -76.5q-104 0 -178 77t-74 188q0 110 74.5 187t177.5 77q106 0 181 -77t75 -187zM596 924q0 104 -69.5 175.5t-168.5 71.5q-96 0 -164.5 -72t-68.5 -175q0 -105 68.5 -176.5t164.5 -71.5q99 0 168.5 71.5t69.5 176.5z" />
    <glyph glyph-name="guillemotright" unicode="&#xbb;" horiz-adv-x="684" 
d="M383 524l-268 -358h-21l266 358l-266 361h21zM612 524l-268 -358h-20l266 358l-266 361h20z" />
    <glyph glyph-name="onequarter" unicode="&#xbc;" horiz-adv-x="1253" 
d="M1030 217h119v-16h-119v-201h-16v201h-322l-6 14l332 426h12v-424zM707 217h307v395zM1063 1202l-852 -1202h-21l852 1202h21zM293 528v635l16 8v-643h-16z" />
    <glyph glyph-name="onehalf" unicode="&#xbd;" horiz-adv-x="1347" 
d="M293 528v635l16 8v-643h-16zM819 475h-14q0 71 58.5 125.5t137.5 54.5q85 0 139 -49t54 -131q0 -16 -3 -31.5t-6 -28.5t-11.5 -29.5t-13.5 -26.5t-16.5 -26.5t-17 -23.5t-20 -23.5t-18.5 -21t-19.5 -21t-17.5 -18.5l-203 -211h348v-14h-379v4l215 223q2 2 17.5 18
t20 20.5t19 20.5t20 23.5t17.5 23.5t17.5 26.5t13.5 26t11.5 29t6.5 29t3 31.5q0 75 -49.5 119.5t-127.5 44.5q-73 0 -127.5 -49.5t-54.5 -114.5zM1063 1202l-852 -1202h-21l852 1202h21z" />
    <glyph glyph-name="threequarters" unicode="&#xbe;" horiz-adv-x="1349" 
d="M319 508q-42 0 -82.5 14.5t-57.5 25.5t-23 17l8 8q10 -8 26.5 -18t53.5 -21.5t75 -11.5q81 0 136 50.5t55 134.5q0 73 -48.5 116t-115.5 43q-40 0 -88 -12l-4 6q80 50 118 87q91 86 122 200h-318v14h336v-6q-7 -29 -18 -55.5t-22.5 -48t-25.5 -42t-27 -35.5t-28 -29.5
t-26 -24t-24 -18.5t-20 -13.5t-15 -9.5l-9 -5q21 7 49 7q73 0 126.5 -47t53.5 -125q0 -91 -60.5 -146t-146.5 -55zM1159 1202l-852 -1202h-20l852 1202h20zM1126 217h119v-16h-119v-201h-16v201h-322l-6 14l332 426h12v-424zM803 217h307v395z" />
    <glyph glyph-name="questiondown" unicode="&#xbf;" horiz-adv-x="733" 
d="M72 -166q0 68 28.5 130t70.5 105.5t98 81.5t101.5 59.5t90.5 37.5l2 225h14l2 -235q-44 -15 -90 -36.5t-101.5 -58t-97 -79.5t-70 -103.5t-28.5 -126.5q0 -135 94.5 -221t231.5 -86q96 0 196 43v-19q-93 -40 -196 -40q-145 0 -245.5 90t-100.5 233zM471 629l-39 39l39 39
l39 -39z" />
    <glyph glyph-name="Agrave" unicode="&#xc0;" horiz-adv-x="892" 
d="M870 0h-22l-162 461h-479l-162 -461h-22l413 1163h21zM438 1112l-225 -635h467l-225 635l-9 29zM453 1270h-17l-188 379h18z" />
    <glyph glyph-name="Aacute" unicode="&#xc1;" horiz-adv-x="892" 
d="M45 0h-22l413 1163h21l413 -1163h-22l-162 461h-479zM680 477l-225 635l-9 29l-8 -29l-225 -635h467zM457 1270h-17l187 379h18z" />
    <glyph glyph-name="Acircumflex" unicode="&#xc2;" horiz-adv-x="892" 
d="M453 1647l204 -377h-16l-195 358l-194 -358h-16l204 377h13zM45 0h-22l413 1163h21l413 -1163h-22l-162 461h-479zM680 477l-225 635l-9 29l-8 -29l-225 -635h467z" />
    <glyph glyph-name="Atilde" unicode="&#xc3;" horiz-adv-x="892" 
d="M209 1321h-16q3 79 33 121.5t85 42.5q9 0 18.5 -1.5t16.5 -2.5t16 -5.5t14 -6.5t14.5 -8.5t13 -8.5t13 -10.5t11.5 -10t13 -11.5t12 -11q56 -51 81 -63q24 -11 48 -11q96 0 102 148h16q-3 -79 -33 -121.5t-85 -42.5q-9 0 -18.5 1.5t-16.5 2.5t-16 5.5t-14 6.5t-15 9
t-13 8.5t-13.5 10.5t-12 10.5t-13 12t-12.5 11.5q-4 3 -14.5 12.5t-14.5 13.5t-13.5 12t-15 11t-15 8.5t-17 7.5t-17.5 4t-20 2q-96 0 -102 -147zM45 0h-22l413 1163h21l413 -1163h-22l-162 461h-479zM680 477l-225 635l-9 29l-8 -29l-225 -635h467z" />
    <glyph glyph-name="Adieresis" unicode="&#xc4;" horiz-adv-x="892" 
d="M45 0h-22l413 1163h21l413 -1163h-22l-162 461h-479zM680 477l-225 635l-9 29l-8 -29l-225 -635h467zM352 1399l29 -29l-29 -29l-28 29zM510 1370l29 29l28 -29l-28 -29z" />
    <glyph glyph-name="Aring" unicode="&#xc5;" horiz-adv-x="892" 
d="M45 0h-22l413 1163h21l413 -1163h-22l-162 461h-479zM680 477l-225 635l-9 29l-8 -29l-225 -635h467zM602 1423q0 -65 -44 -109t-109 -44t-108.5 43.5t-43.5 109.5q0 65 44 109.5t108 44.5t108.5 -44.5t44.5 -109.5zM584 1423q0 59 -38.5 99.5t-96.5 40.5t-96 -40.5
t-38 -99.5q0 -60 38 -99.5t96 -39.5t96.5 40t38.5 99z" />
    <glyph glyph-name="AE" unicode="&#xc6;" horiz-adv-x="1368" 
d="M1268 0h-602v559h-328l-313 -559h-25l657 1163h584v-18h-555v-567h432v-19h-432v-541h582v-18zM666 578v563l-318 -563h318z" />
    <glyph glyph-name="Ccedilla" unicode="&#xc7;" horiz-adv-x="1177" 
d="M707 -25h-7l-157 -313h-17l154 313q-164 7 -297.5 90t-208 219.5t-74.5 297.5q0 165 78.5 304t218 220.5t310.5 81.5q38 0 76 -3.5t69.5 -9.5t62 -13.5t53 -15t43.5 -15.5t33.5 -14t22.5 -11l10 -4v-21q-1 0 -16.5 7.5t-31 14.5t-41.5 17t-55.5 18t-64.5 15.5t-76.5 11.5
t-84.5 4q-165 0 -299.5 -79t-209.5 -213t-75 -295q0 -120 44.5 -228.5t121 -187.5t186 -125.5t232.5 -46.5q42 0 83.5 4t76 11.5t64 15.5t56 18t42.5 17l32 14l16 8v-21q-1 0 -11 -5t-22.5 -11t-33 -14t-43 -15.5t-52.5 -15t-61.5 -13t-69.5 -9t-77 -3.5z" />
    <glyph glyph-name="Egrave" unicode="&#xc8;" horiz-adv-x="878" 
d="M778 0h-602v1163h576v-18h-555v-549h432v-16h-432v-562h581v-18zM496 1270h-17l-188 379h18z" />
    <glyph glyph-name="Eacute" unicode="&#xc9;" horiz-adv-x="878" 
d="M778 0h-602v1163h576v-18h-555v-549h432v-16h-432v-562h581v-18zM446 1270h-16l186 379h19z" />
    <glyph glyph-name="Ecircumflex" unicode="&#xca;" horiz-adv-x="878" 
d="M778 0h-602v1163h576v-18h-555v-549h432v-16h-432v-562h581v-18zM471 1647l205 -377h-17l-194 358l-195 -358h-16l205 377h12z" />
    <glyph glyph-name="Edieresis" unicode="&#xcb;" horiz-adv-x="878" 
d="M778 0h-602v1163h576v-18h-555v-549h432v-16h-432v-562h581v-18zM383 1399l29 -29l-29 -29l-29 29zM541 1370l28 29l29 -29l-29 -29z" />
    <glyph glyph-name="Igrave" unicode="&#xcc;" horiz-adv-x="397" 
d="M209 0h-21v1163h21v-1163zM205 1270h-17l-188 379h18z" />
    <glyph glyph-name="Iacute" unicode="&#xcd;" horiz-adv-x="397" 
d="M209 0h-21v1163h21v-1163zM209 1270h-16l186 379h18z" />
    <glyph glyph-name="Icircumflex" unicode="&#xce;" horiz-adv-x="397" 
d="M223 1647l205 -377h-16l-195 358l-194 -358h-17l205 377h12zM209 0h-21v1163h21v-1163z" />
    <glyph glyph-name="Idieresis" unicode="&#xcf;" horiz-adv-x="397" 
d="M209 0h-21v1163h21v-1163zM104 1399l29 -29l-29 -29l-28 29zM262 1370l29 29l28 -29l-28 -29z" />
    <glyph glyph-name="Eth" unicode="&#xd0;" horiz-adv-x="1193" 
d="M176 0v573h-133v13h133v577h266q101 0 196.5 -25t178 -75t144.5 -119.5t97.5 -164.5t35.5 -204q0 -110 -35 -204t-96 -161.5t-142.5 -115.5t-175 -71t-192.5 -23h-277zM197 1145v-559h360v-13h-360v-555h249q122 0 233 36.5t199 104.5t140.5 176.5t52.5 242.5
q0 105 -34.5 196.5t-94.5 158.5t-140.5 115.5t-173.5 72.5t-192 24h-239z" />
    <glyph glyph-name="Ntilde" unicode="&#xd1;" horiz-adv-x="1196" 
d="M1020 0h-21v326l-802 802v-1128h-21v1163h12l811 -809v809h21v-1163zM362 1321h-16q3 79 33.5 121.5t85.5 42.5q10 0 19.5 -1t19 -4.5t16.5 -5.5t16.5 -8.5t14 -9.5t15 -11.5t13.5 -11t14 -12.5t13 -12q56 -51 81 -63q24 -11 48 -11q97 0 103 148h16q-3 -79 -33.5 -121.5
t-85.5 -42.5q-10 0 -19.5 1t-19.5 4.5t-16.5 5.5t-16.5 9t-14 9.5t-15 11.5t-13.5 11t-14.5 13t-14 13q-4 3 -14.5 12.5t-14.5 13.5t-13.5 12t-15 11t-15 8.5t-17 7.5t-17.5 4t-20 2q-97 0 -103 -147z" />
    <glyph glyph-name="Ograve" unicode="&#xd2;" horiz-adv-x="1413" 
d="M100 582q0 165 78.5 304t218 220.5t310.5 81.5q170 0 310 -81.5t218 -220.5t78 -304t-78 -304t-218 -221t-310 -82t-310 82t-218.5 221t-78.5 304zM123 582q0 -120 44.5 -228.5t121 -187.5t186 -125.5t232.5 -46.5q165 0 299 79t209 213.5t75 295.5t-75 295t-209 213
t-299 79t-299.5 -79t-209.5 -213t-75 -295zM713 1270h-17l-188 379h18z" />
    <glyph glyph-name="Oacute" unicode="&#xd3;" horiz-adv-x="1413" 
d="M1313 582q0 -165 -78 -304t-218 -221t-310 -82t-310 82t-218.5 221t-78.5 304t78.5 304t218 220.5t310.5 81.5q170 0 310 -81.5t218 -220.5t78 -304zM1290 582q0 161 -75 295t-209 213t-299 79t-299.5 -79t-209.5 -213t-75 -295q0 -120 44.5 -228.5t121 -187.5
t186 -125.5t232.5 -46.5q165 0 299 79t209 213.5t75 295.5zM717 1270h-17l187 379h18z" />
    <glyph glyph-name="Ocircumflex" unicode="&#xd4;" horiz-adv-x="1413" 
d="M713 1647l205 -377h-17l-194 358l-195 -358h-16l204 377h13zM1313 582q0 -165 -78 -304t-218 -221t-310 -82t-310 82t-218.5 221t-78.5 304t78.5 304t218 220.5t310.5 81.5q170 0 310 -81.5t218 -220.5t78 -304zM1290 582q0 161 -75 295t-209 213t-299 79t-299.5 -79
t-209.5 -213t-75 -295q0 -120 44.5 -228.5t121 -187.5t186 -125.5t232.5 -46.5q165 0 299 79t209 213.5t75 295.5z" />
    <glyph glyph-name="Otilde" unicode="&#xd5;" horiz-adv-x="1413" 
d="M469 1321h-16q3 79 33 121.5t85 42.5q9 0 18.5 -1.5t16.5 -2.5t16 -5.5t14 -6.5t14.5 -8.5t13 -8.5t13 -10.5t11.5 -10t13 -11.5t12 -11q56 -51 81 -63q24 -11 48 -11q96 0 102 148h17q-3 -79 -33.5 -121.5t-85.5 -42.5q-9 0 -18.5 1.5t-16.5 2.5t-16 5.5t-14 6.5t-15 9
t-13 8.5t-13.5 10.5t-12 10.5t-13 12t-12.5 11.5q-4 3 -14.5 12.5t-14.5 13.5t-13.5 12t-15 11t-15 8.5t-17 7.5t-17.5 4t-20 2q-96 0 -102 -147zM1313 582q0 -165 -78 -304t-218 -221t-310 -82t-310 82t-218.5 221t-78.5 304t78.5 304t218 220.5t310.5 81.5
q170 0 310 -81.5t218 -220.5t78 -304zM1290 582q0 161 -75 295t-209 213t-299 79t-299.5 -79t-209.5 -213t-75 -295q0 -120 44.5 -228.5t121 -187.5t186 -125.5t232.5 -46.5q165 0 299 79t209 213.5t75 295.5z" />
    <glyph glyph-name="Odieresis" unicode="&#xd6;" horiz-adv-x="1413" 
d="M1313 582q0 -165 -78 -304t-218 -221t-310 -82t-310 82t-218.5 221t-78.5 304t78.5 304t218 220.5t310.5 81.5q170 0 310 -81.5t218 -220.5t78 -304zM1290 582q0 161 -75 295t-209 213t-299 79t-299.5 -79t-209.5 -213t-75 -295q0 -120 44.5 -228.5t121 -187.5
t186 -125.5t232.5 -46.5q165 0 299 79t209 213.5t75 295.5zM612 1399l29 -29l-29 -29l-28 29zM770 1370l29 29l28 -29l-28 -29z" />
    <glyph glyph-name="multiply" unicode="&#xd7;" horiz-adv-x="1329" 
d="M1153 1001l-477 -477l477 -477l-10 -12l-477 477l-478 -477l-12 12l477 477l-477 477l12 11l478 -477l477 477z" />
    <glyph glyph-name="Oslash" unicode="&#xd8;" horiz-adv-x="1413" 
d="M1313 582q0 -165 -78 -304t-218 -221t-310 -82q-240 0 -408 152l-201 -219l-12 10l201 221q-89 84 -138 199t-49 244q0 165 78.5 304t218 220.5t310.5 81.5q237 0 405 -152l203 219l12 -10l-203 -221q89 -85 139 -199.5t50 -242.5zM1290 582q0 124 -47 234.5t-133 193.5
l-797 -867q159 -149 394 -149q165 0 299 79t209 213.5t75 295.5zM123 582q0 -124 46.5 -234.5t131.5 -193.5l797 866q-162 149 -391 149q-165 0 -299.5 -79t-209.5 -213t-75 -295z" />
    <glyph glyph-name="Ugrave" unicode="&#xd9;" horiz-adv-x="1116" 
d="M920 182q-18 -25 -29 -39t-48 -49.5t-73.5 -56.5t-97 -39t-127.5 -18q-171 0 -276 115.5t-105 299.5v768h20v-768q0 -177 100.5 -288t262.5 -111q61 0 116.5 16t93 38.5t71.5 53t51.5 52t33.5 43.5q5 7 7 10v954h20v-1163h-20v182zM557 1270h-16l-189 379h19z" />
    <glyph glyph-name="Uacute" unicode="&#xda;" horiz-adv-x="1116" 
d="M920 182q-18 -25 -29 -39t-48 -49.5t-73.5 -56.5t-97 -39t-127.5 -18q-171 0 -276 115.5t-105 299.5v768h20v-768q0 -177 100.5 -288t262.5 -111q61 0 116.5 16t93 38.5t71.5 53t51.5 52t33.5 43.5q5 7 7 10v954h20v-1163h-20v182zM557 1270h-16l186 379h18z" />
    <glyph glyph-name="Ucircumflex" unicode="&#xdb;" horiz-adv-x="1116" 
d="M920 182q-18 -25 -29 -39t-48 -49.5t-73.5 -56.5t-97 -39t-127.5 -18q-171 0 -276 115.5t-105 299.5v768h20v-768q0 -177 100.5 -288t262.5 -111q61 0 116.5 16t93 38.5t71.5 53t51.5 52t33.5 43.5q5 7 7 10v954h20v-1163h-20v182zM557 1647l205 -377h-17l-194 358
l-195 -358h-16l205 377h12z" />
    <glyph glyph-name="Udieresis" unicode="&#xdc;" horiz-adv-x="1116" 
d="M920 182q-18 -25 -29 -39t-48 -49.5t-73.5 -56.5t-97 -39t-127.5 -18q-171 0 -276 115.5t-105 299.5v768h20v-768q0 -177 100.5 -288t262.5 -111q61 0 116.5 16t93 38.5t71.5 53t51.5 52t33.5 43.5q5 7 7 10v954h20v-1163h-20v182zM461 1399l28 -29l-28 -29l-29 29z
M618 1370l29 29l29 -29l-29 -29z" />
    <glyph glyph-name="Yacute" unicode="&#xdd;" horiz-adv-x="823" 
d="M422 489v-489h-21v489l-378 674h22l367 -655l366 655h23zM426 1270h-16l186 379h18z" />
    <glyph glyph-name="Thorn" unicode="&#xde;" horiz-adv-x="831" 
d="M176 1163h21v-235h190q182 0 283.5 -88t101.5 -240q0 -83 -34 -148.5t-89.5 -104.5t-121.5 -59t-136 -20h-194v-268h-21v1163zM197 909v-624h194q67 0 130 20t115.5 57.5t84 99t31.5 138.5q0 142 -95.5 225.5t-269.5 83.5h-190z" />
    <glyph glyph-name="germandbls" unicode="&#xdf;" horiz-adv-x="841" 
d="M137 913v-913h-18v913q0 119 75 197t185 78q111 0 186.5 -76t75.5 -194q0 -63 -22.5 -114.5t-56.5 -81.5t-61 -46t-50 -23q12 -4 26 -8.5t46.5 -19.5t61 -32.5t62 -47t57.5 -63t40 -81t16 -100.5q0 -133 -93 -225t-227 -92q-139 0 -237 59v20l7 -3q6 -4 13.5 -8.5
t21 -10.5t27.5 -11t33.5 -11t39.5 -10t45 -6.5t50 -2.5q125 0 213 87.5t88 213.5q0 72 -32 133.5t-73 97.5t-93.5 64.5t-80.5 38t-48 14.5v8q19 4 42 13.5t54 30.5t55 48.5t41 72t17 96.5q0 111 -70.5 182t-173.5 71q-102 0 -172 -73.5t-70 -184.5z" />
    <glyph glyph-name="agrave" unicode="&#xe0;" horiz-adv-x="671" 
d="M526 0l-2 84l-3 -4q-3 -3 -7 -7.5t-11 -11t-15 -13t-19.5 -14t-23.5 -14t-28 -12.5t-32.5 -10.5t-36.5 -7t-41 -2.5q-100 0 -167.5 62t-67.5 165q0 112 83.5 178t223.5 80l143 14v220h-397l4 16h412v-723h-15zM90 215q0 -96 62 -153.5t155 -57.5q135 0 215 100v367
l-141 -14q-135 -14 -213 -76.5t-78 -165.5zM373 803h-17l-188 379h18z" />
    <glyph glyph-name="aacute" unicode="&#xe1;" horiz-adv-x="671" 
d="M526 0l-2 84l-3 -4q-3 -3 -7 -7.5t-11 -11t-15 -13t-19.5 -14t-23.5 -14t-28 -12.5t-32.5 -10.5t-36.5 -7t-41 -2.5q-100 0 -167.5 62t-67.5 165q0 112 83.5 178t223.5 80l143 14v220h-397l4 16h412v-723h-15zM90 215q0 -96 62 -153.5t155 -57.5q135 0 215 100v367
l-141 -14q-135 -14 -213 -76.5t-78 -165.5zM313 803h-16l186 379h19z" />
    <glyph glyph-name="acircumflex" unicode="&#xe2;" horiz-adv-x="671" 
d="M526 0l-2 84l-3 -4q-3 -3 -7 -7.5t-11 -11t-15 -13t-19.5 -14t-23.5 -14t-28 -12.5t-32.5 -10.5t-36.5 -7t-41 -2.5q-100 0 -167.5 62t-67.5 165q0 112 83.5 178t223.5 80l143 14v220h-397l4 16h412v-723h-15zM90 215q0 -96 62 -153.5t155 -57.5q135 0 215 100v367
l-141 -14q-135 -14 -213 -76.5t-78 -165.5zM344 1180l205 -377h-17l-194 358l-195 -358h-16l205 377h12z" />
    <glyph glyph-name="atilde" unicode="&#xe3;" horiz-adv-x="671" 
d="M526 0l-2 84l-3 -4q-3 -3 -7 -7.5t-11 -11t-15 -13t-19.5 -14t-23.5 -14t-28 -12.5t-32.5 -10.5t-36.5 -7t-41 -2.5q-100 0 -167.5 62t-67.5 165q0 112 83.5 178t223.5 80l143 14v220h-397l4 16h412v-723h-15zM90 215q0 -96 62 -153.5t155 -57.5q135 0 215 100v367
l-141 -14q-135 -14 -213 -76.5t-78 -165.5zM94 854h-16q3 79 33.5 121.5t85.5 42.5q10 0 19.5 -1t19 -4.5t16.5 -5.5t16.5 -8.5t14 -9.5t15 -11.5t13.5 -11t14 -12.5t13 -12q56 -51 81 -63q24 -11 48 -11q96 0 102 148h17q-3 -79 -33.5 -121.5t-85.5 -42.5q-10 0 -19.5 1
t-19.5 4.5t-16.5 5.5t-16.5 9t-14 9.5t-15 11.5t-13.5 11t-14.5 13t-14 13q-4 3 -14.5 12.5t-14.5 13.5t-13.5 12t-15 11t-15 8.5t-17 7.5t-17.5 4t-20 2q-97 0 -103 -147z" />
    <glyph glyph-name="adieresis" unicode="&#xe4;" horiz-adv-x="671" 
d="M526 0l-2 84l-3 -4q-3 -3 -7 -7.5t-11 -11t-15 -13t-19.5 -14t-23.5 -14t-28 -12.5t-32.5 -10.5t-36.5 -7t-41 -2.5q-100 0 -167.5 62t-67.5 165q0 112 83.5 178t223.5 80l143 14v220h-397l4 16h412v-723h-15zM90 215q0 -96 62 -153.5t155 -57.5q135 0 215 100v367
l-141 -14q-135 -14 -213 -76.5t-78 -165.5zM244 932l28 -29l-28 -29l-29 29zM401 903l29 29l29 -29l-29 -29z" />
    <glyph glyph-name="aring" unicode="&#xe5;" horiz-adv-x="671" 
d="M526 0l-2 84l-3 -4q-3 -3 -7 -7.5t-11 -11t-15 -13t-19.5 -14t-23.5 -14t-28 -12.5t-32.5 -10.5t-36.5 -7t-41 -2.5q-100 0 -167.5 62t-67.5 165q0 112 83.5 178t223.5 80l143 14v220h-397l4 16h412v-723h-15zM90 215q0 -96 62 -153.5t155 -57.5q135 0 215 100v367
l-141 -14q-135 -14 -213 -76.5t-78 -165.5zM483 956q0 -64 -44.5 -108.5t-108.5 -44.5q-65 0 -108.5 43.5t-43.5 109.5q0 65 44 109.5t108 44.5t108.5 -44.5t44.5 -109.5zM465 956q0 59 -38.5 99.5t-96.5 40.5t-95.5 -40.5t-37.5 -99.5q0 -60 37.5 -99.5t95.5 -39.5t96.5 40
t38.5 99z" />
    <glyph glyph-name="ae" unicode="&#xe6;" horiz-adv-x="1243" 
d="M879 -16q-92 0 -170.5 42.5t-126.5 116.5q-9 -14 -20.5 -28.5t-37 -39t-54.5 -42.5t-72.5 -31.5t-90.5 -13.5q-100 0 -167.5 62t-67.5 165q0 112 83.5 178t223.5 80l143 14v220h-397l4 16h412l-2 -252q31 119 119.5 193.5t203.5 74.5q124 0 209.5 -93t85.5 -245v-18h-618
v-23q0 -152 97.5 -255t242.5 -103q138 0 258 72v-21q-115 -69 -258 -69zM522 360v111l-141 -14q-135 -14 -213 -76.5t-78 -165.5q0 -96 62 -153.5t155 -57.5q55 0 103.5 18t81.5 46.5t51 49t30 40.5q-51 90 -51 202zM862 721q-126 0 -216.5 -91.5t-104.5 -230.5h600v2
q0 144 -82 232t-197 88z" />
    <glyph glyph-name="ccedilla" unicode="&#xe7;" horiz-adv-x="765" 
d="M680 682v-20q-118 59 -231 59q-150 0 -248.5 -104.5t-98.5 -254.5q0 -153 98.5 -256.5t245.5 -103.5q23 0 45 2t41 5.5t36.5 7.5t32.5 9t27 10t22 9.5t16.5 8t11.5 6.5l6 3v-20l-6 -3l-14 -8t-20 -9.5t-27 -10.5t-33.5 -10.5t-39.5 -9t-46 -6t-52 -2.5h-2l-159 -322h-17
l158 322q-148 8 -246 115.5t-98 262.5q0 157 104.5 267t262.5 110q117 0 231 -57z" />
    <glyph glyph-name="egrave" unicode="&#xe8;" horiz-adv-x="806" 
d="M442 2q138 0 258 72v-21q-115 -69 -258 -69q-154 0 -257 108t-103 268t101.5 269.5t242.5 109.5q124 0 209.5 -93t85.5 -245v-18h-619v-23q0 -152 97.5 -255t242.5 -103zM426 721q-126 0 -217 -92t-105 -230h601v2q0 144 -82 232t-197 88zM438 803h-16l-189 379h19z" />
    <glyph glyph-name="eacute" unicode="&#xe9;" horiz-adv-x="806" 
d="M442 2q138 0 258 72v-21q-115 -69 -258 -69q-154 0 -257 108t-103 268t101.5 269.5t242.5 109.5q124 0 209.5 -93t85.5 -245v-18h-619v-23q0 -152 97.5 -255t242.5 -103zM426 721q-126 0 -217 -92t-105 -230h601v2q0 144 -82 232t-197 88zM442 803h-16l186 379h19z" />
    <glyph glyph-name="ecircumflex" unicode="&#xea;" horiz-adv-x="806" 
d="M442 2q138 0 258 72v-21q-115 -69 -258 -69q-154 0 -257 108t-103 268t101.5 269.5t242.5 109.5q124 0 209.5 -93t85.5 -245v-18h-619v-23q0 -152 97.5 -255t242.5 -103zM426 721q-126 0 -217 -92t-105 -230h601v2q0 144 -82 232t-197 88zM438 1180l205 -377h-16
l-195 358l-194 -358h-17l205 377h12z" />
    <glyph glyph-name="edieresis" unicode="&#xeb;" horiz-adv-x="806" 
d="M442 2q138 0 258 72v-21q-115 -69 -258 -69q-154 0 -257 108t-103 268t101.5 269.5t242.5 109.5q124 0 209.5 -93t85.5 -245v-18h-619v-23q0 -152 97.5 -255t242.5 -103zM426 721q-126 0 -217 -92t-105 -230h601v2q0 144 -82 232t-197 88zM338 932l29 -29l-29 -29l-29 29
zM496 903l28 29l29 -29l-29 -29z" />
    <glyph glyph-name="igrave" unicode="&#xec;" horiz-adv-x="321" 
d="M168 803h-16l-189 379h19zM170 0h-18v723h18v-723z" />
    <glyph glyph-name="iacute" unicode="&#xed;" horiz-adv-x="321" 
d="M170 803h-16l186 379h18zM170 0h-18v723h18v-723z" />
    <glyph glyph-name="icircumflex" unicode="&#xee;" horiz-adv-x="321" 
d="M168 1180l203 -377h-17l-192 358l-195 -358h-16l205 377h12zM170 0h-18v723h18v-723z" />
    <glyph glyph-name="idieresis" unicode="&#xef;" horiz-adv-x="321" 
d="M170 0h-18v723h18v-723zM68 932l28 -29l-28 -29l-29 29zM225 903l29 29l29 -29l-29 -29z" />
    <glyph glyph-name="eth" unicode="&#xf0;" horiz-adv-x="888" 
d="M338 1006l-8 12l172 127q-56 61 -144 131l13 12q65 -50 145 -133l172 129l8 -12l-170 -127q130 -143 205.5 -327t75.5 -398q0 -105 -29.5 -189.5t-80.5 -137.5t-116.5 -81t-138.5 -28q-149 0 -254.5 108.5t-105.5 267.5t106 269t256 110q125 0 219.5 -76.5t124.5 -191.5
q-9 187 -82 358t-194 306zM102 360q0 -151 99.5 -254.5t240.5 -105.5q140 0 241 107t101 276q0 137 -102 238.5t-238 101.5q-142 0 -242 -105.5t-100 -257.5z" />
    <glyph glyph-name="ntilde" unicode="&#xf1;" horiz-adv-x="788" 
d="M162 854h-17q3 79 33.5 121.5t85.5 42.5q9 0 18.5 -1.5t16.5 -2.5t16 -5.5t14 -6.5t14.5 -8.5t13 -8.5t13 -10.5t11.5 -10t13 -11.5t12 -11q56 -51 81 -63q24 -11 48 -11q96 0 102 148h16q-3 -79 -33 -121.5t-85 -42.5q-9 0 -18.5 1.5t-16.5 2.5t-16 5.5t-14 6.5t-15 9
t-13 8.5t-13.5 10.5t-12 10.5t-13 12t-12.5 11.5q-4 3 -14.5 12.5t-14.5 13.5t-13.5 12t-15 11t-15 8.5t-17 7.5t-17.5 4t-20 2q-96 0 -102 -147zM639 0v467q0 125 -62 190.5t-165 65.5q-47 0 -89 -15t-67 -31.5t-51.5 -47.5t-33 -41t-21.5 -35v-553h-19v723h19v-141
q37 56 71 85q82 72 191 72q112 0 178.5 -69t66.5 -203v-467h-18z" />
    <glyph glyph-name="ograve" unicode="&#xf2;" horiz-adv-x="888" 
d="M451 803h-17l-188 379h18zM807 360q0 -159 -106.5 -267.5t-256.5 -108.5t-256 108.5t-106 267.5t106 269t256 110t256.5 -110t106.5 -269zM786 360q0 152 -100 257.5t-242 105.5t-242 -105.5t-100 -257.5q0 -151 100 -255.5t242 -104.5t242 104.5t100 255.5z" />
    <glyph glyph-name="oacute" unicode="&#xf3;" horiz-adv-x="888" 
d="M455 803h-17l187 379h18zM807 360q0 -159 -106.5 -267.5t-256.5 -108.5t-256 108.5t-106 267.5t106 269t256 110t256.5 -110t106.5 -269zM786 360q0 152 -100 257.5t-242 105.5t-242 -105.5t-100 -257.5q0 -151 100 -255.5t242 -104.5t242 104.5t100 255.5z" />
    <glyph glyph-name="ocircumflex" unicode="&#xf4;" horiz-adv-x="888" 
d="M451 1180l204 -377h-16l-195 358l-194 -358h-17l205 377h13zM807 360q0 -159 -106.5 -267.5t-256.5 -108.5t-256 108.5t-106 267.5t106 269t256 110t256.5 -110t106.5 -269zM786 360q0 152 -100 257.5t-242 105.5t-242 -105.5t-100 -257.5q0 -151 100 -255.5t242 -104.5
t242 104.5t100 255.5z" />
    <glyph glyph-name="otilde" unicode="&#xf5;" horiz-adv-x="888" 
d="M807 360q0 -159 -106.5 -267.5t-256.5 -108.5t-256 108.5t-106 267.5t106 269t256 110t256.5 -110t106.5 -269zM786 360q0 152 -100 257.5t-242 105.5t-242 -105.5t-100 -257.5q0 -151 100 -255.5t242 -104.5t242 104.5t100 255.5zM227 854h-16q3 79 33.5 121.5
t85.5 42.5q10 0 19.5 -1t19 -4.5t16.5 -5.5t16.5 -8.5t14 -9.5t15 -11.5t13.5 -11t14 -12.5t13 -12q56 -51 81 -63q24 -11 48 -11q96 0 102 148h17q-3 -79 -33.5 -121.5t-85.5 -42.5q-10 0 -19.5 1t-19.5 4.5t-16.5 5.5t-16.5 9t-14 9.5t-15 11.5t-13.5 11t-14.5 13t-14 13
q-4 3 -14.5 12.5t-14.5 13.5t-13.5 12t-15 11t-15 8.5t-17 7.5t-17.5 4t-20 2q-97 0 -103 -147z" />
    <glyph glyph-name="odieresis" unicode="&#xf6;" horiz-adv-x="888" 
d="M807 360q0 -159 -106.5 -267.5t-256.5 -108.5t-256 108.5t-106 267.5t106 269t256 110t256.5 -110t106.5 -269zM786 360q0 152 -100 257.5t-242 105.5t-242 -105.5t-100 -257.5q0 -151 100 -255.5t242 -104.5t242 104.5t100 255.5zM350 932l29 -29l-29 -29l-28 29z
M508 903l29 29l28 -29l-28 -29z" />
    <glyph glyph-name="divide" unicode="&#xf7;" horiz-adv-x="987" 
d="M494 285l34 -35l-34 -35l-35 35zM868 514h-749v16h749v-16zM494 829l34 -34l-34 -35l-35 35z" />
    <glyph glyph-name="oslash" unicode="&#xf8;" horiz-adv-x="888" 
d="M807 360q0 -159 -106.5 -267.5t-256.5 -108.5q-137 0 -243 98l-160 -174l-12 10l159 174q-106 109 -106 268t106 269t256 110q143 0 244 -98l160 174l12 -10l-160 -176q107 -110 107 -269zM102 360q0 -149 99 -256l475 523q-99 96 -232 96q-142 0 -242 -105.5
t-100 -257.5zM786 360q0 146 -98 256l-477 -522q97 -94 233 -94q142 0 242 104.5t100 255.5z" />
    <glyph glyph-name="ugrave" unicode="&#xf9;" horiz-adv-x="774" 
d="M399 803h-16l-188 379h18zM131 252v471h19v-471q0 -123 60 -187.5t161 -64.5q44 0 82.5 13t63.5 30t48 42t34 41t22 35q3 5 4 7v555h18v-723h-18v141l-5 -9q-6 -8 -10 -14.5t-13 -18.5t-18 -21.5t-22.5 -21.5t-27 -22t-31.5 -19.5t-37 -16t-42.5 -10.5t-47.5 -4
q-109 0 -174.5 69t-65.5 199z" />
    <glyph glyph-name="uacute" unicode="&#xfa;" horiz-adv-x="774" 
d="M391 803h-16l186 379h19zM131 252v471h19v-471q0 -123 60 -187.5t161 -64.5q44 0 82.5 13t63.5 30t48 42t34 41t22 35q3 5 4 7v555h18v-723h-18v141l-5 -9q-6 -8 -10 -14.5t-13 -18.5t-18 -21.5t-22.5 -21.5t-27 -22t-31.5 -19.5t-37 -16t-42.5 -10.5t-47.5 -4
q-109 0 -174.5 69t-65.5 199z" />
    <glyph glyph-name="ucircumflex" unicode="&#xfb;" horiz-adv-x="774" 
d="M176 803l205 377h12l205 -377h-16l-195 358l-194 -358h-17zM131 252v471h19v-471q0 -123 60 -187.5t161 -64.5q44 0 82.5 13t63.5 30t48 42t34 41t22 35q3 5 4 7v555h18v-723h-18v141l-5 -9q-6 -8 -10 -14.5t-13 -18.5t-18 -21.5t-22.5 -21.5t-27 -22t-31.5 -19.5
t-37 -16t-42.5 -10.5t-47.5 -4q-109 0 -174.5 69t-65.5 199z" />
    <glyph glyph-name="udieresis" unicode="&#xfc;" horiz-adv-x="774" 
d="M295 932l29 -29l-29 -29l-29 29zM453 903l28 29l29 -29l-29 -29zM131 252v471h19v-471q0 -123 60 -187.5t161 -64.5q44 0 82.5 13t63.5 30t48 42t34 41t22 35q3 5 4 7v555h18v-723h-18v141l-5 -9q-6 -8 -10 -14.5t-13 -18.5t-18 -21.5t-22.5 -21.5t-27 -22t-31.5 -19.5
t-37 -16t-42.5 -10.5t-47.5 -4q-109 0 -174.5 69t-65.5 199z" />
    <glyph glyph-name="yacute" unicode="&#xfd;" horiz-adv-x="577" 
d="M303 803h-16l186 379h19zM289 25l260 698h18l-268 -723l-174 -463h-19l173 463l-269 723h19z" />
    <glyph glyph-name="thorn" unicode="&#xfe;" horiz-adv-x="817" 
d="M383 723l-233 -164v-491q113 -68 225 -68q141 0 240.5 98.5t99.5 237.5q0 59 -14.5 110t-36 87t-54 67t-60 50t-64.5 35.5t-57 23t-46 14.5zM150 1163v-583l231 163q27 -8 46 -14t59 -23t69.5 -36t65.5 -52t59 -71t39 -93t16 -118q0 -147 -105 -249.5t-255 -102.5
q-120 0 -225 63v-512h-19v1628h19z" />
    <glyph glyph-name="ydieresis" unicode="&#xff;" horiz-adv-x="577" 
d="M289 25l260 698h18l-268 -723l-174 -463h-19l173 463l-269 723h19zM195 932l28 -29l-28 -29l-29 29zM352 903l29 29l29 -29l-29 -29z" />
    <glyph glyph-name="dotlessi" unicode="&#x131;" horiz-adv-x="321" 
d="M170 0h-18v723h18v-723z" />
    <glyph glyph-name="Lslash" unicode="&#x141;" horiz-adv-x="806" 
d="M524 780v-18l-350 -336v-408h610v-18h-630v408l-134 -127v18l134 127v737h20v-719z" />
    <glyph glyph-name="lslash" unicode="&#x142;" horiz-adv-x="350" 
d="M291 729l-141 -186v-459q0 -43 20 -66.5t53 -23.5q41 0 68 16v-16q-28 -17 -68 -17q-41 0 -66.5 27.5t-25.5 79.5v434l-113 -147v16l113 148v628h19v-604l141 186v-16z" />
    <glyph glyph-name="OE" unicode="&#x152;" horiz-adv-x="1990" 
d="M1292 711l-4 452h576v-18h-555v-549h432v-16h-432v-562h581v-18h-602l4 453q-18 -92 -65 -175.5t-118.5 -152t-176 -109.5t-225.5 -41q-170 0 -310 82t-218.5 221t-78.5 304t78.5 304t218 220.5t310.5 81.5q121 0 225.5 -40.5t176 -109t118.5 -152t65 -175.5zM1290 582
q0 161 -75 295t-209 213t-299 79t-299.5 -79t-209.5 -213t-75 -295q0 -120 44.5 -228.5t121 -187.5t186 -125.5t232.5 -46.5q165 0 299 79t209 213.5t75 295.5z" />
    <glyph glyph-name="oe" unicode="&#x153;" horiz-adv-x="1511" 
d="M786 360q0 152 -100 257.5t-242 105.5t-242 -105.5t-100 -257.5q0 -151 100 -255.5t242 -104.5t242 104.5t100 255.5zM1130 721q-126 0 -216.5 -91.5t-104.5 -230.5h600v2q0 144 -82 232t-197 88zM1147 -16q-134 0 -228 82.5t-122 218.5q-29 -134 -126 -217.5t-227 -83.5
q-150 0 -256 108.5t-106 267.5t106 269t256 110q131 0 227 -84t126 -219q28 136 119.5 219.5t213.5 83.5q124 0 209.5 -93t85.5 -245v-18h-618v-23q0 -152 97.5 -255t242.5 -103q138 0 258 72v-21q-115 -69 -258 -69z" />
    <glyph glyph-name="Scaron" unicode="&#x160;" horiz-adv-x="811" 
d="M606 1649l-205 -377h-12l-205 377h17l194 -359l195 359h16zM381 -4q136 0 221.5 70.5t85.5 185.5q0 46 -17 88t-50.5 77.5t-59 57t-65.5 49.5l-183 119q-40 27 -68 50.5t-59 58t-47 77t-16 91.5q0 123 82 194.5t211 71.5q117 0 235 -56v-20q-120 57 -235 57
q-122 0 -197.5 -66.5t-75.5 -180.5q0 -45 15 -84t44 -71t56.5 -54.5t67.5 -48.5l180 -119q40 -27 68.5 -50t63.5 -60t54 -83.5t19 -97.5q0 -125 -93.5 -200t-236.5 -75q-125 0 -281 74v21q160 -76 281 -76z" />
    <glyph glyph-name="scaron" unicode="&#x161;" horiz-adv-x="559" 
d="M492 1182l-205 -377h-13l-204 377h16l195 -359l194 359h17zM258 0q95 0 145 46t50 118q0 27 -11 52t-23.5 41.5t-38 36t-38.5 27t-42.5 23.5t-33.5 18q-1 0 -20 10.5t-27 15t-28 18t-30.5 23t-26 26t-23.5 32t-14.5 36t-6.5 42.5q0 76 52.5 125t152.5 49q71 0 156 -34
v-19q-74 37 -156 37q-91 0 -137.5 -44t-46.5 -114q0 -27 10.5 -51t21.5 -40t36 -35t36.5 -26t41 -22.5t32.5 -17.5t20.5 -11t27.5 -15t29.5 -18.5t32 -23t28 -27t24.5 -32.5t15.5 -37t6.5 -43q0 -79 -55.5 -130.5t-159.5 -51.5q-39 0 -80.5 10.5t-61 19t-26.5 13.5v18
q90 -45 168 -45z" />
    <glyph glyph-name="Ydieresis" unicode="&#x178;" horiz-adv-x="823" 
d="M422 489v-489h-21v489l-378 674h22l367 -655l366 655h23zM317 1399l29 -29l-29 -29l-28 29zM475 1370l29 29l28 -29l-28 -29z" />
    <glyph glyph-name="Zcaron" unicode="&#x17d;" horiz-adv-x="911" 
d="M670 1649l-205 -377h-12l-205 377h16l195 -359l194 359h17zM47 0v8l772 1137h-743v18h774v-10l-772 -1135h786v-18h-817z" />
    <glyph glyph-name="zcaron" unicode="&#x17e;" horiz-adv-x="636" 
d="M70 707v16h497v-6l-479 -701h490v-16h-519v6l480 701h-469zM530 1182l-204 -377h-13l-204 377h16l194 -359l195 359h16z" />
    <glyph glyph-name="florin" unicode="&#x192;" horiz-adv-x="761" 
d="M207 709v14h166l45 252q18 102 77.5 157.5t137.5 55.5q86 0 149 -66l-10 -10q-56 59 -139 59q-70 0 -125 -53t-72 -145l-45 -250h197v-14h-199l-131 -758q-30 -178 -130 -275.5t-237 -97.5q-153 0 -286 123l10 12q130 -119 276 -119q130 0 225 94.5t124 264.5l131 756
h-164z" />
    <glyph glyph-name="circumflex" unicode="&#x2c6;" horiz-adv-x="681" 
d="M346 1282l205 -377h-16l-195 359l-195 -359h-16l205 377h12z" />
    <glyph glyph-name="caron" unicode="&#x2c7;" horiz-adv-x="681" 
d="M551 1284l-205 -377h-12l-205 377h16l195 -358l195 358h16z" />
    <glyph glyph-name="breve" unicode="&#x2d8;" horiz-adv-x="681" 
d="M561 1180h19q-1 -118 -72.5 -187t-165.5 -69q-96 0 -168 71.5t-72 184.5h19q0 -105 66 -171.5t155 -66.5q87 0 152.5 64t66.5 174z" />
    <glyph glyph-name="dotaccent" unicode="&#x2d9;" horiz-adv-x="681" 
d="M311 1006l29 28l29 -28l-29 -29z" />
    <glyph glyph-name="ring" unicode="&#x2da;" horiz-adv-x="681" 
d="M494 1059q0 -65 -45 -109.5t-109 -44.5q-65 0 -108.5 44t-43.5 110q0 65 44 109t108 44q65 0 109.5 -44.5t44.5 -108.5zM475 1059q0 59 -38.5 99t-96.5 40t-95.5 -40t-37.5 -99q0 -60 37.5 -99.5t95.5 -39.5t96.5 40t38.5 99z" />
    <glyph glyph-name="ogonek" unicode="&#x2db;" horiz-adv-x="681" 
d="M238 16h20q-12 -12 -27.5 -31.5t-38 -65.5t-22.5 -87q0 -76 47.5 -121t130.5 -45t180 62v-19q-94 -59 -180 -59q-92 0 -144 49t-52 133q0 43 21 88.5t36 63.5t29 32z" />
    <glyph glyph-name="tilde" unicode="&#x2dc;" horiz-adv-x="681" 
d="M86 956q3 79 33.5 121.5t85.5 42.5q10 0 19.5 -1t19 -4.5t16.5 -5.5t16.5 -8.5t14 -9.5t15 -11.5t13.5 -11t14 -12.5t13 -12q30 -27 42.5 -37.5t37.5 -23t49 -12.5q97 0 103 147h16q-3 -79 -33.5 -121.5t-85.5 -42.5q-10 0 -19.5 1t-19.5 4.5t-16.5 5.5t-16.5 9t-14 9.5
t-15 11.5t-13.5 11t-14.5 13t-14 13q-1 1 -18 16.5t-20.5 18.5t-18 13.5t-22.5 13.5t-21.5 6.5t-26.5 3.5q-97 0 -103 -148h-16z" />
    <glyph glyph-name="hungarumlaut" unicode="&#x2dd;" horiz-adv-x="681" 
d="M141 905h-16l186 379h19zM367 905h-17l187 379h18z" />
    <glyph glyph-name="endash" unicode="&#x2013;" horiz-adv-x="778" 
d="M778 420h-778v14h778v-14z" />
    <glyph glyph-name="emdash" unicode="&#x2014;" horiz-adv-x="1556" 
d="M1556 420h-1556v14h1556v-14z" />
    <glyph glyph-name="quoteleft" unicode="&#x2018;" horiz-adv-x="389" 
d="M252 1245v-6q-10 -6 -23 -16.5t-34 -32t-34.5 -54.5t-13.5 -71q0 -93 86 -162l-28 -29q-84 73 -84 168q0 40 13 75t31 57t38.5 39t32.5 24t16 8z" />
    <glyph glyph-name="quoteright" unicode="&#x2019;" horiz-adv-x="389" 
d="M137 874v7q10 6 23 16.5t34 32t34.5 54.5t13.5 71q0 93 -86 162l28 28q84 -73 84 -168q0 -40 -13 -75t-31 -57t-38.5 -39t-32.5 -24t-16 -8z" />
    <glyph glyph-name="quotesinglbase" unicode="&#x201a;" horiz-adv-x="389" 
d="M137 -322v7q10 6 23 16.5t34 32t34.5 54.5t13.5 71q0 92 -86 161l28 29q84 -73 84 -168q0 -40 -13 -75t-31 -57t-38.5 -39t-32.5 -24t-16 -8z" />
    <glyph glyph-name="quotedblleft" unicode="&#x201c;" horiz-adv-x="614" 
d="M477 1245v-6q-10 -6 -23 -16.5t-33.5 -32t-34 -54.5t-13.5 -71q0 -93 86 -162l-29 -29q-84 73 -84 168q0 40 13 75t31 57t38.5 39t32.5 24t16 8zM252 1245v-6q-10 -6 -23 -16.5t-34 -32t-34.5 -54.5t-13.5 -71q0 -93 86 -162l-28 -29q-84 73 -84 168q0 40 13 75t31 57
t38.5 39t32.5 24t16 8z" />
    <glyph glyph-name="quotedblright" unicode="&#x201d;" horiz-adv-x="614" 
d="M137 874v7q10 6 23 16.5t34 32t34.5 54.5t13.5 71q0 93 -86 162l28 28q84 -73 84 -168q0 -40 -13 -75t-31 -57t-38.5 -39t-32.5 -24t-16 -8zM362 874v7q10 6 23 16.5t34 32t34.5 54.5t13.5 71q0 93 -86 162l29 28q84 -73 84 -168q0 -40 -13.5 -75t-31 -57t-38.5 -39
t-33 -24t-16 -8z" />
    <glyph glyph-name="quotedblbase" unicode="&#x201e;" horiz-adv-x="614" 
d="M137 -322v7q10 6 23 16.5t34 32t34.5 54.5t13.5 71q0 92 -86 161l28 29q84 -73 84 -168q0 -40 -13 -75t-31 -57t-38.5 -39t-32.5 -24t-16 -8zM362 -322v7q10 6 23 16.5t34 32t34.5 54.5t13.5 71q0 92 -86 161l29 29q84 -73 84 -168q0 -40 -13.5 -75t-31 -57t-38.5 -39
t-33 -24t-16 -8z" />
    <glyph glyph-name="dagger" unicode="&#x2020;" horiz-adv-x="747" 
d="M629 739h-244l-4 -1169h-14l-5 1169h-243v21h243l-4 414h31l-4 -414h244v-21z" />
    <glyph glyph-name="daggerdbl" unicode="&#x2021;" horiz-adv-x="747" 
d="M629 6v-20h-244l4 -414h-31l4 414h-243v20h243l5 367l-5 366h-243v21h243l-4 414h31l-4 -414h244v-21h-244l-4 -366l4 -367h244z" />
    <glyph glyph-name="bullet" unicode="&#x2022;" horiz-adv-x="380" 
d="M262 586l-72 -72l-71 72l71 71z" />
    <glyph glyph-name="ellipsis" unicode="&#x2026;" horiz-adv-x="1077" 
d="M539 63l39 -38l-39 -39l-39 39zM883 63l39 -38l-39 -39l-39 39zM195 63l38 -38l-38 -39l-39 39z" />
    <glyph glyph-name="perthousand" unicode="&#x2030;" horiz-adv-x="1505" 
d="M1018 193q0 -84 57.5 -142.5t141.5 -58.5q85 0 142.5 58.5t57.5 142.5t-57 142t-143 58q-84 0 -141.5 -58t-57.5 -142zM1001 193q0 90 62 152.5t154 62.5q93 0 155 -62.5t62 -152.5t-62 -153t-155 -63q-92 0 -154 63t-62 153zM754 1198l-523 -1233h-16l522 1233h17z
M504 983q0 -90 -62.5 -152.5t-154.5 -62.5t-153.5 62.5t-61.5 152.5t61.5 152.5t153.5 62.5t154.5 -62.5t62.5 -152.5zM487 983q0 84 -57.5 142.5t-142.5 58.5q-84 0 -141.5 -58.5t-57.5 -142.5t57.5 -142.5t141.5 -58.5q85 0 142.5 58.5t57.5 142.5zM471 193
q0 90 62.5 152.5t154.5 62.5t153.5 -62.5t61.5 -152.5t-62 -153t-153 -63q-92 0 -154.5 63t-62.5 153zM487 193q0 -84 57.5 -142.5t143.5 -58.5q84 0 141.5 58.5t57.5 142.5t-57.5 142t-141.5 58q-86 0 -143.5 -58t-57.5 -142z" />
    <glyph glyph-name="guilsinglleft" unicode="&#x2039;" horiz-adv-x="454" 
d="M340 166l-268 358l268 361h20l-266 -361l266 -358h-20z" />
    <glyph glyph-name="guilsinglright" unicode="&#x203a;" horiz-adv-x="454" 
d="M383 524l-268 -358h-21l266 358l-266 361h21z" />
    <glyph glyph-name="fraction" unicode="&#x2044;" horiz-adv-x="155" 
d="M514 1202l-852 -1202h-20l852 1202h20z" />
    <glyph glyph-name="fraction" unicode="&#x2215;" horiz-adv-x="155" 
d="M514 1202l-852 -1202h-20l852 1202h20z" />
    <glyph glyph-name="zerosuperior" unicode="&#x2070;" horiz-adv-x="641" 
d="M530 1161q0 -85 -24 -160t-72.5 -124.5t-111.5 -49.5t-112 49.5t-74 124.5t-25 160q0 133 58.5 233.5t152.5 100.5q63 0 111.5 -49t72.5 -124t24 -161zM516 1161q0 82 -22.5 155t-68 120t-103.5 47q-88 0 -141.5 -96.5t-53.5 -225.5q0 -82 22.5 -154t68 -119.5
t104.5 -47.5q58 0 103.5 47.5t68 119.5t22.5 154z" />
    <glyph glyph-name="foursuperior" unicode="&#x2074;" horiz-adv-x="552" 
d="M47 1055l318 426h12v-418h129v-14h-129v-205h-17v205h-311zM360 1452l-290 -389h290v389z" />
    <glyph glyph-name="fivesuperior" unicode="&#x2075;" horiz-adv-x="536" 
d="M47 905l8 6l7 -5q7 -6 12.5 -9.5t16 -10.5t20.5 -11.5t24 -10.5t27.5 -9.5t30.5 -6t34 -2.5q74 0 128.5 52t54.5 136t-54.5 135.5t-130.5 51.5q-32 0 -62.5 -8t-41.5 -15l-4 2l20 281h271v-15h-258l-19 -252q57 19 96 19q85 0 142 -54t57 -145q0 -89 -59 -146t-140 -57
q-45 0 -89 18t-62 31.5t-29 24.5z" />
    <glyph glyph-name="sixsuperior" unicode="&#x2076;" horiz-adv-x="614" 
d="M504 1489v-12q-124 -15 -222 -92.5t-135 -186.5q52 39 142 39q96 0 152.5 -59t56.5 -148q0 -78 -50.5 -138.5t-130.5 -60.5q-99 0 -152.5 71.5t-53.5 182.5q0 149 115 267t278 137zM141 1180q-14 -43 -14 -95q0 -104 50 -171.5t140 -67.5q73 0 119.5 55.5t46.5 128.5
q0 82 -53 137.5t-141 55.5q-83 0 -148 -43z" />
    <glyph glyph-name="sevensuperior" unicode="&#x2077;" horiz-adv-x="516" 
d="M160 844h-17l287 622h-383v15h399l5 -4z" />
    <glyph glyph-name="eightsuperior" unicode="&#x2078;" horiz-adv-x="567" 
d="M283 1481q-63 0 -106.5 -38t-43.5 -93q0 -17 4.5 -33t13 -29t18.5 -25t22.5 -22t23.5 -18t23.5 -15t20.5 -11t16 -7l8 -4q149 64 149 164q0 55 -43 93t-106 38zM283 831q-74 0 -123 48.5t-49 115.5q0 32 14.5 62t33.5 49.5t44.5 37t40 24.5t26.5 12l-6 2q-6 3 -12.5 6
t-17 9t-20.5 12t-21.5 15t-21.5 18.5t-19.5 21.5t-16 25t-10.5 29t-4 32q0 61 46.5 102t115.5 41q70 0 116.5 -40.5t46.5 -102.5q0 -16 -4 -32t-10.5 -29t-16 -25t-19.5 -21.5t-21.5 -18.5t-21.5 -15t-20.5 -12t-17 -9t-12.5 -6l-6 -2q12 -5 26.5 -12t40 -24.5t45 -37
t34 -49.5t14.5 -62q0 -67 -49.5 -115.5t-124.5 -48.5zM283 1171q-12 -5 -24.5 -11t-38.5 -22.5t-44.5 -35t-33.5 -47.5t-15 -60q0 -61 45.5 -105t110.5 -44q67 0 112 44t45 105q0 38 -20.5 72t-50.5 55.5t-50.5 32.5t-35.5 16z" />
    <glyph glyph-name="ninesuperior" unicode="&#x2079;" horiz-adv-x="614" 
d="M111 836v12q123 13 221 91t135 187q-52 -39 -143 -39q-95 0 -152 58.5t-57 148.5q0 78 51 138.5t131 60.5q98 0 152.5 -72t54.5 -182q0 -149 -115 -266.5t-278 -136.5zM473 1145q14 43 14 94q0 104 -50 172t-140 68q-73 0 -119.5 -56.5t-46.5 -128.5q0 -82 53 -138
t140 -56q74 0 149 45z" />
    <glyph glyph-name="zeroinferior" unicode="&#x2080;" horiz-adv-x="641" 
d="M530 0q0 -85 -24 -160t-72.5 -124.5t-111.5 -49.5t-112 49.5t-74 124.5t-25 160q0 133 58.5 233.5t152.5 100.5q63 0 111.5 -49t72.5 -124t24 -161zM516 0q0 82 -22.5 155t-68 120t-103.5 47q-88 0 -141.5 -96.5t-53.5 -225.5q0 -82 22.5 -154.5t68 -120t104.5 -47.5
q58 0 103.5 47.5t68 120t22.5 154.5z" />
    <glyph glyph-name="oneinferior" unicode="&#x2081;" horiz-adv-x="346" 
d="M180 -317h-14v630l14 11v-641z" />
    <glyph glyph-name="twoinferior" unicode="&#x2082;" horiz-adv-x="575" 
d="M465 -317h-363v4l213 233q26 28 35.5 39t32.5 41.5t33.5 51t20 50.5t9.5 58q0 72 -47.5 115.5t-122.5 43.5q-70 0 -120 -48t-52 -113h-12q0 70 53.5 122t130.5 52q83 0 135 -47t52 -125q0 -36 -11.5 -70.5t-35.5 -69t-42.5 -56.5t-49.5 -56l-197 -211h338v-14z" />
    <glyph glyph-name="threeinferior" unicode="&#x2083;" horiz-adv-x="536" 
d="M66 -272l8 8q10 -8 26.5 -18t52.5 -21.5t72 -11.5q77 0 131 50.5t54 133.5q0 72 -48.5 115t-117.5 43q-50 0 -80 -15l-4 8q192 105 233 285h-309v14h328v-8q0 -35 -9 -67.5t-22.5 -57t-33 -47t-37.5 -37.5t-38.5 -29t-34.5 -21t-27 -13l-13 -6q32 8 53 8q71 0 123.5 -47
t52.5 -125q0 -90 -59 -144.5t-142 -54.5q-16 0 -32.5 2.5t-29.5 6t-26 9t-23 10t-19 10t-14.5 9.5t-10.5 7z" />
    <glyph glyph-name="fourinferior" unicode="&#x2084;" horiz-adv-x="552" 
d="M47 -106l318 425h12v-417h129v-15h-129v-204h-17v204h-311zM360 291l-290 -389h290v389z" />
    <glyph glyph-name="fiveinferior" unicode="&#x2085;" horiz-adv-x="536" 
d="M47 -256l8 6l7 -6q7 -5 12.5 -8.5t16 -10.5t20.5 -11.5t24 -10.5t27.5 -9.5t30.5 -6t34 -2.5q74 0 128.5 52t54.5 136t-54.5 135t-130.5 51q-32 0 -62.5 -8t-41.5 -14l-4 2l20 280h271v-14h-258l-19 -252q57 19 96 19q85 0 142 -54t57 -145q0 -89 -59 -146t-140 -57
q-45 0 -89 18t-62 31.5t-29 24.5z" />
    <glyph glyph-name="sixinferior" unicode="&#x2086;" horiz-adv-x="614" 
d="M504 328v-13q-124 -15 -222 -92t-135 -186q52 39 142 39q96 0 152.5 -59t56.5 -148q0 -78 -50.5 -138.5t-130.5 -60.5q-99 0 -152.5 71.5t-53.5 182.5q0 149 115 267t278 137zM141 18q-14 -43 -14 -94q0 -104 50 -171.5t140 -67.5q73 0 119.5 55.5t46.5 128.5
q0 82 -53 137t-141 55q-83 0 -148 -43z" />
    <glyph glyph-name="seveninferior" unicode="&#x2087;" horiz-adv-x="516" 
d="M160 -317h-17l287 622h-383v14h399l5 -4z" />
    <glyph glyph-name="eightinferior" unicode="&#x2088;" horiz-adv-x="567" 
d="M283 319q-63 0 -106.5 -38t-43.5 -93q0 -17 4.5 -33t13 -29t18.5 -25t22.5 -22t24 -18t23.5 -14.5t20 -10.5l16 -8l8 -3q149 64 149 163q0 55 -43 93t-106 38zM283 -330q-74 0 -123 48.5t-49 115.5q0 32 14.5 62t33.5 49.5t44.5 36.5t40 24t26.5 12l-6 2q-6 3 -12.5 6
t-17 9t-20.5 12t-21.5 15t-21.5 18.5t-19.5 21.5t-16 25t-10.5 29t-4 32q0 61 46.5 102.5t115.5 41.5q70 0 116.5 -41t46.5 -103q0 -16 -4 -32t-10.5 -29t-16 -25t-19.5 -21.5t-21.5 -18.5t-21.5 -15t-20.5 -12t-17 -9t-12.5 -6l-6 -2q12 -5 26.5 -12t40 -24t45 -36.5
t34 -49.5t14.5 -62q0 -67 -49.5 -115.5t-124.5 -48.5zM283 10q-12 -5 -24.5 -11t-38.5 -22.5t-44.5 -35t-33.5 -47.5t-15 -60q0 -61 45.5 -105t110.5 -44q67 0 112 44t45 105q0 38 -20.5 72t-50.5 55.5t-50.5 32.5t-35.5 16z" />
    <glyph glyph-name="nineinferior" unicode="&#x2089;" horiz-adv-x="614" 
d="M111 -326v13q123 13 221 91t135 187q-52 -39 -143 -39q-95 0 -152 58.5t-57 148.5q0 78 51 138.5t131 60.5q98 0 152.5 -72t54.5 -182q0 -149 -115 -267t-278 -137zM473 -16q14 43 14 94q0 104 -50 171.5t-140 67.5q-73 0 -119.5 -56t-46.5 -128q0 -82 53 -138t140 -56
q74 0 149 45z" />
    <glyph glyph-name="Euro" unicode="&#x20ac;" horiz-adv-x="1228" 
d="M950 479l-4 -16h-758q40 -205 198 -337t376 -132q42 0 83.5 4t76.5 11.5t64.5 15.5t56 18.5t42 16.5t31.5 14l17 8v-21q-1 0 -11.5 -5t-22.5 -11t-33 -14t-43 -15.5t-52.5 -15t-61.5 -13t-69.5 -9t-77.5 -3.5q-227 0 -391.5 137.5t-204.5 350.5h-94v16h92q-8 44 -8 103
q0 72 10 123h-94v16h98q47 204 209 335.5t383 131.5q44 0 87 -5.5t78.5 -14.5t67.5 -19.5t56.5 -21.5t42 -20t29 -15.5t12.5 -6.5l-7 -20q-29 19 -68 38.5t-125 42.5t-173 23q-211 0 -366.5 -126t-200.5 -322h831l-6 -16h-830q-12 -61 -12 -123q0 -59 8 -103h764z" />
    <glyph glyph-name="trademark" unicode="&#x2122;" horiz-adv-x="1525" 
d="M682 1163v-14h-297v-741h-16v741h-297v14h610zM1116 408l-309 708v-708h-16v755h12l319 -731l320 731h12v-755h-16v708l-310 -708h-12z" />
    <glyph glyph-name="minus" unicode="&#x2212;" horiz-adv-x="987" 
d="M868 514h-749v16h749v-16z" />
    <glyph glyph-name="Lslashsmall" unicode="&#xf6f9;" horiz-adv-x="280" 
d="M160 0v293l-101 -90v16l101 90v529h20v-510l262 237v-16l-262 -238v-293h459v-18h-479z" />
    <glyph glyph-name="OEsmall" unicode="&#xf6fa;" horiz-adv-x="1513" 
d="M549 -16q-193 0 -321 126.5t-128 309.5q0 182 128 308t321 126q159 0 272 -88t154 -227l-2 299h438v-17h-418v-391h324v-14h-324v-400h439v-16h-459l2 299q-41 -139 -154 -227t-272 -88zM975 420q0 174 -122 296t-304 122q-184 0 -306 -122t-122 -296q0 -175 122 -297.5
t306 -122.5q182 0 304 122.5t122 297.5z" />
    <glyph glyph-name="Scaronsmall" unicode="&#xf6fd;" horiz-adv-x="665" 
d="M551 1311l-205 -377h-12l-205 377h16l195 -359l195 359h16zM565 180q0 -91 -70 -143.5t-180 -52.5q-90 0 -215 53v16q117 -53 215 -53q101 0 166.5 48.5t65.5 131.5q0 33 -13 63t-38.5 55.5t-45 41t-49.5 35.5l-137 88q-147 89 -147 201q0 89 63 139.5t162 50.5
q86 0 178 -39v-16q-92 39 -178 39q-93 0 -149 -46t-56 -128q0 -61 36 -103t99 -82l138 -88q155 -96 155 -211z" />
    <glyph glyph-name="Zcaronsmall" unicode="&#xf6ff;" horiz-adv-x="714" 
d="M47 0v8l582 811h-559v19h587v-11l-579 -809h590v-18h-621zM602 1319l-205 -377h-12l-205 377h17l194 -358l195 358h16z" />
    <glyph glyph-name="Asmall" unicode="&#xf761;" horiz-adv-x="704" 
d="M537 328h-369l-123 -328h-22l319 838h20l320 -838h-23zM174 344h356l-170 447l-8 26l-8 -26z" />
    <glyph glyph-name="Bsmall" unicode="&#xf762;" horiz-adv-x="763" 
d="M197 424v-408h192q109 0 181.5 56.5t72.5 152.5q0 91 -72 145t-202 54h-172zM508 422q156 -52 156 -197q0 -104 -77 -164.5t-186 -60.5h-225v838h186q116 0 188.5 -58.5t72.5 -161.5q0 -23 -4.5 -44.5t-11 -38t-17 -32.5t-19 -26t-20.5 -21t-18.5 -16t-15.5 -12zM362 821
h-165v-383h180q64 0 112 -12q1 1 10 7t18 13.5t21.5 19.5t23 27t20 33.5t15 42t5.5 49.5q0 96 -67 149.5t-173 53.5z" />
    <glyph glyph-name="Csmall" unicode="&#xf763;" horiz-adv-x="931" 
d="M549 -16q-193 0 -321 126.5t-128 309.5q0 182 128 308t321 126q45 0 90 -6t78 -15t57.5 -17.5t40.5 -15.5l16 -7v-17l-16 7q-16 7 -41 16t-57.5 18t-77.5 15t-90 6q-184 0 -306 -122t-122 -296q0 -175 122 -297.5t306 -122.5q45 0 90 6t78 15t57.5 17.5t40.5 15.5l16 7
v-16l-16 -7q-16 -7 -40.5 -15.5t-57.5 -17.5t-78 -15t-90 -6z" />
    <glyph glyph-name="Dsmall" unicode="&#xf764;" horiz-adv-x="974" 
d="M197 821v-805h186q91 0 174 26t149.5 75t106 126.5t39.5 172.5q0 124 -69 218t-176 140.5t-232 46.5h-178zM176 0v838h203q130 0 241.5 -49t182.5 -147.5t71 -227.5q0 -98 -41 -178t-109.5 -130.5t-155.5 -78t-181 -27.5h-211z" />
    <glyph glyph-name="Esmall" unicode="&#xf765;" horiz-adv-x="735" 
d="M614 838v-17h-417v-391h323v-14h-323v-400h438v-16h-459v838h438z" />
    <glyph glyph-name="Fsmall" unicode="&#xf766;" horiz-adv-x="665" 
d="M584 838v-17h-387v-391h315v-14h-315v-416h-21v838h408z" />
    <glyph glyph-name="Gsmall" unicode="&#xf767;" horiz-adv-x="983" 
d="M831 358v-313l-16 -7q-16 -7 -40.5 -15.5t-57.5 -17.5t-78 -15t-90 -6q-193 0 -321 126.5t-128 309.5q0 182 128 308t321 126q45 0 90 -6t78 -15t57.5 -17.5t40.5 -15.5l16 -7v-17l-16 7q-16 7 -41 16t-57.5 18t-77.5 15t-90 6q-184 0 -306 -122t-122 -296
q0 -175 122 -297.5t306 -122.5q128 0 264 53v305h18z" />
    <glyph glyph-name="Hsmall" unicode="&#xf768;" horiz-adv-x="946" 
d="M197 0h-21v838h21v-406h553v406h20v-838h-20v416h-553v-416z" />
    <glyph glyph-name="Ismall" unicode="&#xf769;" horiz-adv-x="397" 
d="M209 0h-21v838h21v-838z" />
    <glyph glyph-name="Jsmall" unicode="&#xf76a;" horiz-adv-x="372" 
d="M197 -381l-21 -18v1237h21v-1219z" />
    <glyph glyph-name="Ksmall" unicode="&#xf76b;" horiz-adv-x="763" 
d="M741 0h-26l-355 487l-163 -155v-332h-21v838h21v-484l505 484h27l-354 -336z" />
    <glyph glyph-name="Lsmall" unicode="&#xf76c;" horiz-adv-x="677" 
d="M176 0v838h21v-822h458v-16h-479z" />
    <glyph glyph-name="Msmall" unicode="&#xf76d;" horiz-adv-x="1138" 
d="M915 723l-340 -723h-12l-340 723l-28 65l2 -69v-719h-21v838h14l379 -807l379 807h15v-838h-21v719l2 69z" />
    <glyph glyph-name="Nsmall" unicode="&#xf76e;" horiz-adv-x="987" 
d="M197 0h-21v838h12l603 -580v580h20v-838h-20v233l-594 570v-803z" />
    <glyph glyph-name="Osmall" unicode="&#xf76f;" horiz-adv-x="1097" 
d="M549 854q193 0 320.5 -126.5t127.5 -309.5q0 -182 -127.5 -308t-320.5 -126t-321 126.5t-128 309.5q0 182 128 308t321 126zM549 0q184 0 306 122t122 296q0 175 -122 297.5t-306 122.5t-306 -122t-122 -296q0 -175 122 -297.5t306 -122.5z" />
    <glyph glyph-name="Psmall" unicode="&#xf770;" horiz-adv-x="688" 
d="M338 821h-141v-442h143q67 0 125.5 22t99.5 74.5t41 126.5q0 101 -70.5 160t-197.5 59zM176 838h162q137 0 214 -64t77 -172q0 -60 -25.5 -107.5t-68 -75.5t-92.5 -42.5t-103 -14.5h-143v-362h-21v838z" />
    <glyph glyph-name="Qsmall" unicode="&#xf771;" horiz-adv-x="1097" 
d="M979 -78h-252q-148 0 -268.5 41t-198 110.5t-119 158.5t-41.5 188q0 182 128 308t321 126t320.5 -126.5t127.5 -309.5q0 -182 -127.5 -308t-320.5 -126q-24 0 -47.5 2.5t-43.5 6.5t-37 9t-31.5 10.5t-24 9t-17 7.5t-8.5 4q1 0 13 -7t23 -12.5t32.5 -15t42.5 -17t52.5 -16
t63.5 -14t74 -9t86 -3.5h258zM549 -2q183 0 305.5 123t122.5 297q0 175 -122 297.5t-306 122.5t-306 -122t-122 -296q0 -115 54.5 -211.5t153.5 -153.5t220 -57z" />
    <glyph glyph-name="Rsmall" unicode="&#xf772;" horiz-adv-x="755" 
d="M575 45l-225 307h-153v-352h-21v838h150q140 0 218.5 -65.5t78.5 -176.5q0 -106 -73 -168t-177 -74l221 -299q19 -26 36 -38.5t40 -12.5q38 0 65 35l10 -10q-29 -43 -75 -43q-31 0 -52 15t-43 44zM197 369h131q69 0 128.5 22.5t101.5 75.5t42 129q0 104 -72 164.5
t-202 60.5h-129v-452z" />
    <glyph glyph-name="Ssmall" unicode="&#xf773;" horiz-adv-x="665" 
d="M565 180q0 -91 -70 -143.5t-180 -52.5q-90 0 -215 53v16q117 -53 215 -53q101 0 166.5 48.5t65.5 131.5q0 33 -13 63t-38.5 55.5t-45 41t-49.5 35.5l-137 88q-147 89 -147 201q0 89 63 139.5t162 50.5q86 0 178 -39v-16q-92 39 -178 39q-93 0 -149 -46t-56 -128
q0 -61 36 -103t99 -82l138 -88q155 -96 155 -211z" />
    <glyph glyph-name="Tsmall" unicode="&#xf774;" horiz-adv-x="684" 
d="M352 0h-20v819h-309v19h639v-19h-310v-819z" />
    <glyph glyph-name="Usmall" unicode="&#xf775;" horiz-adv-x="929" 
d="M733 0v123q-110 -139 -278 -139q-130 0 -210.5 83.5t-80.5 215.5v555h20v-555q0 -126 75 -204.5t198 -78.5q162 0 276 145v693h21v-838h-21z" />
    <glyph glyph-name="Vsmall" unicode="&#xf776;" horiz-adv-x="688" 
d="M45 838l291 -789l8 -26l8 26l291 789h23l-314 -838h-18l-311 838h22z" />
    <glyph glyph-name="Wsmall" unicode="&#xf777;" horiz-adv-x="995" 
d="M334 49l8 -26l10 26l135 369l-155 420h20l146 -396l145 396h21l-158 -420l137 -369l10 -26l9 26l288 789h23l-309 -838h-19l-147 393l-148 -393h-18l-309 838h22z" />
    <glyph glyph-name="Xsmall" unicode="&#xf778;" horiz-adv-x="696" 
d="M35 838h24l289 -404l289 404h25l-304 -418l304 -420h-25l-289 406l-289 -406h-24l303 420z" />
    <glyph glyph-name="Ysmall" unicode="&#xf779;" horiz-adv-x="634" 
d="M328 0h-21v354l-284 484h22l272 -465l273 465h22l-284 -484v-354z" />
    <glyph glyph-name="Zsmall" unicode="&#xf77a;" horiz-adv-x="714" 
d="M47 0v8l582 811h-559v19h587v-11l-579 -809h590v-18h-621z" />
    <glyph glyph-name="Agravesmall" unicode="&#xf7e0;" horiz-adv-x="704" 
d="M360 940h-16l-188 379h18zM537 328h-369l-123 -328h-22l319 838h20l320 -838h-23zM174 344h356l-170 447l-8 26l-8 -26z" />
    <glyph glyph-name="Aacutesmall" unicode="&#xf7e1;" horiz-adv-x="704" 
d="M360 940h-16l186 379h19zM537 328h-369l-123 -328h-22l319 838h20l320 -838h-23zM174 344h356l-170 447l-8 26l-8 -26z" />
    <glyph glyph-name="Acircumflexsmall" unicode="&#xf7e2;" horiz-adv-x="704" 
d="M358 1317l205 -377h-16l-195 358l-194 -358h-17l205 377h12zM537 328h-369l-123 -328h-22l319 838h20l320 -838h-23zM174 344h356l-170 447l-8 26l-8 -26z" />
    <glyph glyph-name="Atildesmall" unicode="&#xf7e3;" horiz-adv-x="704" 
d="M115 991h-17q3 79 33.5 121.5t85.5 42.5q10 0 19.5 -1t19 -4.5t16.5 -5.5t16.5 -8.5t14 -9.5t15 -11.5t13.5 -11t14 -12.5t13 -12q30 -27 42.5 -37.5t37.5 -23t49 -12.5q97 0 103 147h16q-3 -79 -33.5 -121.5t-85.5 -42.5q-10 0 -19.5 1t-19.5 4.5t-16.5 5.5t-16.5 9
t-14 9.5t-15 11.5t-13.5 11t-14.5 13t-14 13q-1 1 -18 16.5t-20.5 18.5t-18 13.5t-22.5 13.5t-21.5 6.5t-26.5 3.5q-96 0 -102 -148zM537 328h-369l-123 -328h-22l319 838h20l320 -838h-23zM174 344h356l-170 447l-8 26l-8 -26z" />
    <glyph glyph-name="Adieresissmall" unicode="&#xf7e4;" horiz-adv-x="704" 
d="M258 1063l29 -29l-29 -28l-29 28zM416 1034l28 29l29 -29l-29 -28zM537 328h-369l-123 -328h-22l319 838h20l320 -838h-23zM174 344h356l-170 447l-8 26l-8 -26z" />
    <glyph glyph-name="Aringsmall" unicode="&#xf7e5;" horiz-adv-x="704" 
d="M537 328h-369l-123 -328h-22l319 838h20l320 -838h-23zM174 344h356l-170 447l-8 26l-8 -26zM350 954q58 0 96.5 40.5t38.5 99.5t-38.5 99t-96.5 40t-96.5 -40t-38.5 -99t38.5 -99.5t96.5 -40.5zM350 940q-64 0 -108.5 44.5t-44.5 109.5q0 64 44.5 108.5t108.5 44.5
q65 0 109.5 -44.5t44.5 -108.5t-45 -109t-109 -45z" />
    <glyph glyph-name="AEsmall" unicode="&#xf7e6;" horiz-adv-x="1064" 
d="M506 401h-246l-237 -401h-23l500 838h444v-17h-418v-405h324v-15h-324v-385h439v-16h-459v401zM506 813l-238 -397h238v397z" />
    <glyph glyph-name="Ccedillasmall" unicode="&#xf7e7;" horiz-adv-x="931" 
d="M549 -16l-162 -322h-16l157 322q-123 5 -221 64t-152.5 157t-54.5 215q0 182 128 308t321 126q45 0 90 -6t78 -15t57.5 -17.5t40.5 -15.5l16 -7v-17l-16 7q-16 7 -41 16t-57.5 18t-77.5 15t-90 6q-184 0 -306 -122t-122 -296q0 -175 122 -297.5t306 -122.5q45 0 90 6
t78 15t57.5 17.5t40.5 15.5l16 7v-16l-16 -7q-16 -7 -40.5 -15.5t-57.5 -17.5t-78 -15t-90 -6z" />
    <glyph glyph-name="Egravesmall" unicode="&#xf7e8;" horiz-adv-x="735" 
d="M444 940h-16l-188 379h18zM614 838v-17h-417v-391h323v-14h-323v-400h438v-16h-459v838h438z" />
    <glyph glyph-name="Eacutesmall" unicode="&#xf7e9;" horiz-adv-x="735" 
d="M360 940h-16l186 379h19zM614 838v-17h-417v-391h323v-14h-323v-400h438v-16h-459v838h438z" />
    <glyph glyph-name="Ecircumflexsmall" unicode="&#xf7ea;" horiz-adv-x="735" 
d="M403 1317l205 -377h-16l-195 358l-194 -358h-17l205 377h12zM614 838v-17h-417v-391h323v-14h-323v-400h438v-16h-459v838h438z" />
    <glyph glyph-name="Edieresissmall" unicode="&#xf7eb;" horiz-adv-x="735" 
d="M614 838v-17h-417v-391h323v-14h-323v-400h438v-16h-459v838h438zM305 1063l29 -29l-29 -28l-29 28zM463 1034l29 29l28 -29l-28 -28z" />
    <glyph glyph-name="Igravesmall" unicode="&#xf7ec;" horiz-adv-x="397" 
d="M205 940h-17l-188 379h18zM209 0h-21v838h21v-838z" />
    <glyph glyph-name="Iacutesmall" unicode="&#xf7ed;" horiz-adv-x="397" 
d="M209 940h-16l186 379h18zM209 0h-21v838h21v-838z" />
    <glyph glyph-name="Icircumflexsmall" unicode="&#xf7ee;" horiz-adv-x="397" 
d="M205 1317l205 -377h-17l-194 358l-195 -358h-16l205 377h12zM209 0h-21v838h21v-838z" />
    <glyph glyph-name="Idieresissmall" unicode="&#xf7ef;" horiz-adv-x="397" 
d="M104 1063l29 -29l-29 -28l-28 28zM262 1034l29 29l28 -29l-28 -28zM209 0h-21v838h21v-838z" />
    <glyph glyph-name="Ethsmall" unicode="&#xf7f0;" horiz-adv-x="958" 
d="M160 0v412h-101v12h101v414h202q130 0 241.5 -49t183 -147.5t71.5 -227.5q0 -98 -41 -178t-109.5 -130.5t-155.5 -78t-181 -27.5h-211zM180 821v-397h273v-12h-273v-396h187q91 0 174 26t149.5 75t106 126.5t39.5 172.5q0 75 -26 141t-72 113.5t-106.5 82t-130 51.5
t-143.5 17h-178z" />
    <glyph glyph-name="Ntildesmall" unicode="&#xf7f1;" horiz-adv-x="987" 
d="M256 991h-16q3 79 33 121.5t85 42.5q9 0 18.5 -1.5t16.5 -2.5t16 -5.5t14 -6.5t14.5 -8.5t13 -8.5t13 -10.5t11.5 -10t13 -11.5t12 -11q30 -27 42.5 -37.5t37.5 -23t49 -12.5q96 0 102 147h17q-3 -79 -33.5 -121.5t-85.5 -42.5q-9 0 -18.5 1.5t-16.5 2.5t-16 5.5t-14 6.5
t-15 9t-13 8.5t-13.5 10.5t-12 10.5t-13 12t-12.5 11.5t-18 16.5t-20.5 18.5t-18 13.5t-22.5 13.5t-21.5 6.5t-26.5 3.5q-96 0 -102 -148zM197 0h-21v838h12l603 -580v580h20v-838h-20v233l-594 570v-803z" />
    <glyph glyph-name="Ogravesmall" unicode="&#xf7f2;" horiz-adv-x="1097" 
d="M555 940h-16l-189 379h19zM549 854q193 0 320.5 -126.5t127.5 -309.5q0 -182 -127.5 -308t-320.5 -126t-321 126.5t-128 309.5q0 182 128 308t321 126zM549 0q184 0 306 122t122 296q0 175 -122 297.5t-306 122.5t-306 -122t-122 -296q0 -175 122 -297.5t306 -122.5z" />
    <glyph glyph-name="Oacutesmall" unicode="&#xf7f3;" horiz-adv-x="1097" 
d="M559 940h-16l186 379h19zM549 854q193 0 320.5 -126.5t127.5 -309.5q0 -182 -127.5 -308t-320.5 -126t-321 126.5t-128 309.5q0 182 128 308t321 126zM549 0q184 0 306 122t122 296q0 175 -122 297.5t-306 122.5t-306 -122t-122 -296q0 -175 122 -297.5t306 -122.5z" />
    <glyph glyph-name="Ocircumflexsmall" unicode="&#xf7f4;" horiz-adv-x="1097" 
d="M555 1317l205 -377h-17l-194 358l-195 -358h-16l205 377h12zM549 854q193 0 320.5 -126.5t127.5 -309.5q0 -182 -127.5 -308t-320.5 -126t-321 126.5t-128 309.5q0 182 128 308t321 126zM549 0q184 0 306 122t122 296q0 175 -122 297.5t-306 122.5t-306 -122t-122 -296
q0 -175 122 -297.5t306 -122.5z" />
    <glyph glyph-name="Otildesmall" unicode="&#xf7f5;" horiz-adv-x="1097" 
d="M332 991h-17q3 79 33.5 121.5t85.5 42.5q10 0 19.5 -1t19 -4.5t16.5 -5.5t16.5 -8.5t14 -9.5t15 -11.5t13.5 -11t14 -12.5t13 -12q29 -26 42.5 -37t38.5 -23.5t49 -12.5q96 0 102 147h16q-3 -79 -33 -121.5t-85 -42.5q-9 0 -18.5 1.5t-16.5 2.5t-16 5.5t-14 6.5t-15 9
t-13 8.5t-13.5 10.5t-12 10.5t-13 12t-12.5 11.5t-18 16.5t-20.5 18.5t-18 13.5t-22.5 13.5t-21.5 6.5t-26.5 3.5q-96 0 -102 -148zM549 854q193 0 320.5 -126.5t127.5 -309.5q0 -182 -127.5 -308t-320.5 -126t-321 126.5t-128 309.5q0 182 128 308t321 126zM549 0
q184 0 306 122t122 296q0 175 -122 297.5t-306 122.5t-306 -122t-122 -296q0 -175 122 -297.5t306 -122.5z" />
    <glyph glyph-name="Odieresissmall" unicode="&#xf7f6;" horiz-adv-x="1097" 
d="M455 1063l28 -29l-28 -28l-29 28zM612 1034l29 29l29 -29l-29 -28zM549 854q193 0 320.5 -126.5t127.5 -309.5q0 -182 -127.5 -308t-320.5 -126t-321 126.5t-128 309.5q0 182 128 308t321 126zM549 0q184 0 306 122t122 296q0 175 -122 297.5t-306 122.5t-306 -122
t-122 -296q0 -175 122 -297.5t306 -122.5z" />
    <glyph glyph-name="Oslashsmall" unicode="&#xf7f8;" horiz-adv-x="1097" 
d="M47 -82l184 188q-62 59 -96.5 141t-34.5 173q0 182 128 308t321 126q179 0 305 -113l184 189l13 -10l-185 -189q131 -128 131 -313q0 -182 -127.5 -308t-320.5 -126q-180 0 -305 112l-185 -188zM549 0q184 0 306 122t122 296q0 177 -125 299l-596 -608q119 -109 293 -109
zM121 420q0 -181 123 -301l596 608q-121 111 -291 111q-184 0 -306 -122t-122 -296z" />
    <glyph glyph-name="Ugravesmall" unicode="&#xf7f9;" horiz-adv-x="929" 
d="M471 940h-16l-189 379h19zM733 0v123q-110 -139 -278 -139q-130 0 -210.5 83.5t-80.5 215.5v555h20v-555q0 -126 75 -204.5t198 -78.5q162 0 276 145v693h21v-838h-21z" />
    <glyph glyph-name="Uacutesmall" unicode="&#xf7fa;" horiz-adv-x="929" 
d="M463 940h-17l187 379h18zM733 0v123q-110 -139 -278 -139q-130 0 -210.5 83.5t-80.5 215.5v555h20v-555q0 -126 75 -204.5t198 -78.5q162 0 276 145v693h21v-838h-21z" />
    <glyph glyph-name="Ucircumflexsmall" unicode="&#xf7fb;" horiz-adv-x="929" 
d="M248 940l205 377h12l205 -377h-17l-194 358l-195 -358h-16zM733 0v123q-110 -139 -278 -139q-130 0 -210.5 83.5t-80.5 215.5v555h20v-555q0 -126 75 -204.5t198 -78.5q162 0 276 145v693h21v-838h-21z" />
    <glyph glyph-name="Udieresissmall" unicode="&#xf7fc;" horiz-adv-x="929" 
d="M733 0v123q-110 -139 -278 -139q-130 0 -210.5 83.5t-80.5 215.5v555h20v-555q0 -126 75 -204.5t198 -78.5q162 0 276 145v693h21v-838h-21zM367 1063l28 -29l-28 -28l-29 28zM524 1034l29 29l29 -29l-29 -28z" />
    <glyph glyph-name="Yacutesmall" unicode="&#xf7fd;" horiz-adv-x="634" 
d="M334 940h-17l187 379h18zM328 0h-21v354l-284 484h22l272 -465l273 465h22l-284 -484v-354z" />
    <glyph glyph-name="Thornsmall" unicode="&#xf7fe;" horiz-adv-x="688" 
d="M176 838h21v-170h141q137 0 214 -64t77 -172q0 -80 -45 -136t-108 -79.5t-136 -23.5h-143v-193h-21v838zM338 651h-141v-442h143q67 0 125.5 22t99.5 74.5t41 126.5q0 101 -70.5 160t-197.5 59z" />
    <glyph glyph-name="Ydieresissmall" unicode="&#xf7ff;" horiz-adv-x="634" 
d="M223 1063l29 -29l-29 -28l-28 28zM381 1034l29 29l28 -29l-28 -28zM328 0h-21v354l-284 484h22l272 -465l273 465h22l-284 -484v-354z" />
    <glyph glyph-name="s_t" unicode="&#xfb06;" horiz-adv-x="1011" 
d="M451 705v-19q-74 37 -156 37q-91 0 -137.5 -44t-46.5 -114q0 -27 10.5 -51t21.5 -40t36 -35t36.5 -26t41 -22.5t32.5 -17.5t20.5 -11t27.5 -15t29.5 -18.5t32 -23t28 -27t24.5 -32.5t15.5 -37t6.5 -43q0 -79 -55.5 -130.5t-159.5 -51.5q-39 0 -80.5 10.5t-61 19
t-26.5 13.5v18q90 -45 168 -45q95 0 145 46t50 118q0 27 -11 52t-23.5 41.5t-38 36t-38.5 27t-42.5 23.5t-33.5 18q-1 0 -20 10.5t-27 15t-28 18t-30.5 23t-26 26t-23.5 32t-14.5 36t-6.5 42.5q0 76 52.5 125t152.5 49q36 0 90 -12q-88 61 -88 166q0 86 63 147.5t148 61.5
q88 0 150.5 -61t62.5 -148v-170h264l-4 -16h-260v-527q0 -93 40.5 -134.5t100.5 -41.5q75 0 127 39v-18q-65 -37 -127 -37q-70 0 -115 43.5t-45 148.5v527h-135l4 16h131v170q0 79 -58 134.5t-138 55.5q-77 0 -135 -56.5t-58 -133.5q0 -41 13 -73.5t37.5 -55t42.5 -34
t45 -25.5z" />
    <glyph glyph-name="apple" horiz-adv-x="425" 
d="M166 555l-29 29l29 28l29 -28zM260 555l-29 29l29 28l29 -28zM213 602l-29 29l29 28l29 -28zM213 508l-29 29l29 28l29 -28z" />
    <glyph glyph-name="dollar.allsmall" horiz-adv-x="628" 
d="M547 180q0 -87 -63.5 -138t-164.5 -56v-148h-16v146h-6q-90 0 -215 53v16q117 -53 215 -53h6v426l-57 37q-148 89 -148 201q0 84 56.5 133.5t148.5 54.5v141h16v-139h5q86 0 178 -39v-16q-92 39 -178 39h-5v-402l72 -45q156 -97 156 -211zM383 375l-64 41v-416
q91 5 150 53.5t59 126.5q0 33 -13 63t-38 55.5t-44.5 41t-49.5 35.5zM119 664q0 -61 36 -103t99 -82l49 -33v392q-85 -6 -134.5 -51.5t-49.5 -122.5z" />
    <glyph glyph-name="cent.allsmall" horiz-adv-x="673" 
d="M389 838v-142h2q88 0 174 -43v-12q-92 41 -174 41h-2v-520q96 0 178 41v-15q-79 -41 -178 -41v-147h-12v147q-116 3 -193.5 81.5t-77.5 193.5q0 111 76 189.5t195 84.5v142h12zM123 422q0 -107 73.5 -182t180.5 -78v520q-111 -6 -182.5 -80.5t-71.5 -179.5z" />
    <glyph glyph-name="Euro.allsmall" 
d="M72 506v16h78q34 146 153 239t283 93q26 0 52 -2.5t48 -6.5t43 -9t39 -11.5t32.5 -12t27 -11.5t20 -10t14.5 -7l6 -4l-4 -16q-20 12 -49 25.5t-96.5 31t-132.5 17.5q-155 0 -268 -89t-148 -227h633l-4 -16h-633q-8 -39 -8 -86q0 -38 6 -72h596l-4 -16h-590
q30 -145 145 -238.5t275 -93.5q45 0 90 6t78 15t57.5 17.5t40.5 15.5l16 7v-16l-16 -7q-16 -7 -40.5 -15.5t-57.5 -17.5t-78 -15t-90 -6q-168 0 -289.5 98t-151.5 250h-73v16h69q-4 23 -4 72q0 47 8 86h-73z" />
    <glyph glyph-name="sterling.allsmall" horiz-adv-x="704" 
d="M600 813v-25q-77 46 -158 46q-35 0 -68.5 -13t-63.5 -39.5t-48 -75t-18 -112.5v-213h270v-16h-270v-349h379v-16h-551v16h151v349h-151v16h151v213q0 69 20.5 121.5t53.5 81.5t70 43t75 14q90 0 158 -41z" />
    <glyph glyph-name="yen.allsmall" horiz-adv-x="634" 
d="M307 393h-266v13h266l-284 432h22l272 -416l273 416h22l-284 -432h266v-13h-266v-190h266v-13h-266v-190h-21v190h-266v13h266v190z" />
    <glyph glyph-name="florin.allsmall" horiz-adv-x="647" 
d="M-240 -201l11 13q101 -91 206 -91q99 0 169.5 70t93.5 199l98 524h-121v14h123l31 164q13 77 59 119.5t107 42.5q68 0 112 -53l-10 -10q-41 47 -102 47q-54 0 -95 -39t-53 -109l-31 -162h140v-14h-142l-98 -524q-23 -136 -99 -210.5t-182 -74.5q-118 0 -217 94z" />
    <glyph glyph-name="currency.allsmall" 
d="M72 506v16h78q34 146 153 239t283 93q26 0 52 -2.5t48 -6.5t43 -9t39 -11.5t32.5 -12t27 -11.5t20 -10t14.5 -7l6 -4l-4 -16q-20 12 -49 25.5t-96.5 31t-132.5 17.5q-155 0 -268 -89t-148 -227h633l-4 -16h-633q-8 -39 -8 -86q0 -38 6 -72h596l-4 -16h-590
q30 -145 145 -238.5t275 -93.5q45 0 90 6t78 15t57.5 17.5t40.5 15.5l16 7v-16l-16 -7q-16 -7 -40.5 -15.5t-57.5 -17.5t-78 -15t-90 -6q-168 0 -289.5 98t-151.5 250h-73v16h69q-4 23 -4 72q0 47 8 86h-73z" />
    <glyph glyph-name="percent.allsmall" horiz-adv-x="1179" 
d="M551 647q0 -90 -62.5 -152.5t-154.5 -62.5t-153.5 62.5t-61.5 152.5t61.5 152.5t153.5 62.5t154.5 -62.5t62.5 -152.5zM535 647q0 84 -57.5 142.5t-143.5 58.5q-84 0 -141.5 -58.5t-57.5 -142.5t57.5 -142.5t141.5 -58.5q86 0 143.5 58.5t57.5 142.5zM629 193
q0 90 62.5 152.5t154.5 62.5t153.5 -62.5t61.5 -152.5t-62 -153t-153 -63q-92 0 -154.5 63t-62.5 153zM645 193q0 -84 57.5 -142.5t143.5 -58.5q84 0 141 58.5t57 142.5t-57 142t-141 58q-86 0 -143.5 -58t-57.5 -142zM911 862l-635 -897h-18l635 897h18z" />
    <glyph glyph-name="perthousand.allsmall" horiz-adv-x="1710" 
d="M1176 193q0 -84 57 -142.5t141 -58.5q86 0 143.5 58.5t57.5 142.5t-57.5 142t-143.5 58q-84 0 -141 -58t-57 -142zM1159 193q0 90 61.5 152.5t153.5 62.5q93 0 155 -62.5t62 -152.5t-62 -153t-155 -63q-91 0 -153 63t-62 153zM551 647q0 -90 -62.5 -152.5t-154.5 -62.5
t-153.5 62.5t-61.5 152.5t61.5 152.5t153.5 62.5t154.5 -62.5t62.5 -152.5zM535 647q0 84 -57.5 142.5t-143.5 58.5q-84 0 -141.5 -58.5t-57.5 -142.5t57.5 -142.5t141.5 -58.5q86 0 143.5 58.5t57.5 142.5zM629 193q0 90 62.5 152.5t154.5 62.5t153.5 -62.5t61.5 -152.5
t-62 -153t-153 -63q-92 0 -154.5 63t-62.5 153zM645 193q0 -84 57.5 -142.5t143.5 -58.5q84 0 141 58.5t57 142.5t-57 142t-141 58q-86 0 -143.5 -58t-57.5 -142zM911 862l-635 -897h-18l635 897h18z" />
    <glyph glyph-name="plus.allsmall" horiz-adv-x="1019" 
d="M901 418h-383v-369h-16v369h-383v16h383v365h16v-365h383v-16z" />
    <glyph glyph-name="minus.allsmall" horiz-adv-x="884" 
d="M766 418h-647v16h647v-16z" />
    <glyph glyph-name="multiply.allsmall" horiz-adv-x="1107" 
d="M907 770l-342 -342l342 -342l-10 -12l-342 342l-342 -342l-12 12l342 342l-342 342l12 10l342 -342l342 342z" />
    <glyph glyph-name="equal.allsmall" horiz-adv-x="884" 
d="M766 287h-647v16h647v-16zM766 541h-647v16h647v-16z" />
    <glyph glyph-name="less.allsmall" horiz-adv-x="679" 
d="M94 418v16l492 291v-18l-477 -281l477 -281v-18z" />
    <glyph glyph-name="greater.allsmall" horiz-adv-x="679" 
d="M586 434v-16l-492 -291v18l477 281l-477 281v18z" />
    <glyph glyph-name="slash.allsmall" horiz-adv-x="495" 
d="M473 862l-434 -887h-16l434 887h16z" />
    <glyph glyph-name="ampersand.allsmall" horiz-adv-x="864" 
d="M72 248q0 188 231 291l-197 295v4h533v-19h-500l475 -708q66 66 107.5 157.5t52.5 186.5h17q-10 -103 -54 -199t-110 -162l6 -10q29 -45 55.5 -65.5t63.5 -20.5q60 0 102 59l10 -8q-45 -67 -114 -67q-46 0 -76.5 21.5t-65.5 74.5q-105 -94 -246 -94q-132 0 -211 73.5
t-79 190.5zM92 248q0 -108 74 -178t196 -70q132 0 236 94l-287 430q-219 -96 -219 -276z" />
    <glyph glyph-name="paragraph.allsmall" horiz-adv-x="671" 
d="M416 0h-19v614h-96q-117 0 -197.5 80.5t-80.5 196.5q0 112 88 192t219 80h223v-1163h-18v1145h-119v-207h-103l-45 43l-94 -92l94 -96l45 43h103v-836z" />
    <glyph glyph-name="numbersign.allsmall" horiz-adv-x="825" 
d="M188 326l58 264h-187l4 16h185l59 277h-180l4 16h180l58 264h16l-57 -264h237l58 264h16l-57 -264h184l-4 -16h-182l-62 -277h180l-4 -16h-178l-57 -264h-17l58 264h-238l-57 -264h-17zM326 883l-62 -277h238l61 277h-237z" />
    <glyph glyph-name="mu.allsmall" horiz-adv-x="942" 
d="M197 -410h-21v1248h21v-555q0 -126 74.5 -204.5t197.5 -78.5q162 0 276 145v693h21v-838h-21v123q-110 -139 -278 -139q-100 0 -171 50.5t-99 137.5v-582z" />
    <glyph glyph-name="c_t" horiz-adv-x="1218" 
d="M928 723h264l-4 -16h-260v-527q0 -93 40.5 -134.5t100.5 -41.5q75 0 127 39v-18q-65 -37 -127 -37q-70 0 -115 43.5t-45 148.5v527h-135l4 16h131v158q0 79 -58 134.5t-138 55.5q-77 0 -134 -56t-57 -134q0 -22 4 -42t12 -36t16.5 -30t22 -26t23 -20t24 -17t22 -13
t20 -10t14.5 -7v-18q-118 59 -231 59q-150 0 -248.5 -104.5t-98.5 -254.5q0 -153 98.5 -256.5t245.5 -103.5q23 0 45 2t41 5.5t36.5 7.5t32.5 9t27 10t22 9.5t16.5 8t11.5 6.5l6 3v-20l-6 -3l-14 -8t-20 -9.5t-27 -10.5t-33.5 -10.5t-39.5 -9t-46 -6t-52 -2.5
q-155 0 -259.5 109t-104.5 269q0 157 104.5 267t262.5 110q67 0 139 -22q-82 63 -82 164q0 86 62 147.5t147 61.5q88 0 150.5 -61t62.5 -148v-158z" />
    <glyph glyph-name="c_t.alt" horiz-adv-x="1110" 
d="M918 0h-19v707h-135l4 16h131v158q0 79 -55.5 134.5t-134.5 55.5q-77 0 -132 -56t-55 -134q0 -22 4 -42t12 -36t16.5 -30t22 -26t23 -20t24 -17t22 -13t20 -10t14.5 -7v-18q-118 59 -231 59q-150 0 -248.5 -104.5t-98.5 -254.5q0 -153 98.5 -256.5t245.5 -103.5
q23 0 45 2t41 5.5t36.5 7.5t32.5 9t27 10t22 9.5t16.5 8t11.5 6.5l6 3v-20l-6 -3l-14 -8t-20 -9.5t-27 -10.5t-33.5 -10.5t-39.5 -9t-46 -6t-52 -2.5q-155 0 -259.5 109t-104.5 269q0 157 104.5 267t262.5 110q67 0 139 -22q-82 63 -82 164q0 86 60 147.5t145 61.5
q88 0 147.5 -60.5t59.5 -148.5v-158h188l-4 -16h-184v-707z" />
    <glyph glyph-name="f_b" horiz-adv-x="1226" 
d="M158 723v229q0 117 58.5 181.5t150.5 64.5q108 0 188 -80v-448q103 69 227 69q150 0 256.5 -110t106.5 -269t-106.5 -267.5t-256.5 -108.5q-117 0 -227 71v-55h-18v1114q-76 68 -168 68q-83 0 -138 -59t-55 -171v-229h230l-5 -16h-225v-707h-18v707h-127l6 16h121zM782 0
q142 0 242 104.5t100 255.5q0 152 -100 257.5t-242 105.5q-26 0 -51 -3t-46 -9t-38 -12.5t-33.5 -15t-25.5 -13.5t-20.5 -12.5t-12.5 -8.5v-573q106 -76 227 -76z" />
    <glyph glyph-name="f_b.alt" horiz-adv-x="1288" 
d="M537 301v932q-74 67 -168 67q-83 0 -138 -59t-55 -170v-348h230l-5 -16h-225v-707h-18v707h-127l6 16h121v348q0 117 58.5 181.5t150.5 64.5q108 0 186 -78v-606q37 37 115 71.5t166 34.5q161 0 266.5 -104.5t105.5 -274.5q0 -168 -103.5 -272t-248.5 -104
q-130 0 -223.5 91.5t-93.5 225.5zM553 610v-309q0 -126 89 -212.5t212 -86.5q137 0 234.5 99.5t97.5 258.5q0 163 -99 263t-253 100q-78 0 -151.5 -30t-129.5 -83z" />
    <glyph glyph-name="ff.alt" horiz-adv-x="811" 
d="M158 0v707h-127l6 16h121v334q0 123 67 191.5t168 68.5q121 0 207 -86q58 86 164 86q102 0 180 -78l-12 -10q-71 71 -166 71q-81 0 -132.5 -56.5t-51.5 -164.5v-356h202l-4 -16h-198v-707h-19v707h-387v-707h-18zM176 723h387v356q0 78 29 138q-83 83 -197 83
q-95 0 -157 -64.5t-62 -178.5v-334z" />
    <glyph glyph-name="f_f_b" horiz-adv-x="1632" 
d="M961 670q103 69 227 69q150 0 256 -110t106 -269t-106 -267.5t-256 -108.5q-117 0 -227 71v-55h-19v1106q-11 11 -26.5 23.5t-60 32.5t-89.5 20q-81 0 -132.5 -56.5t-51.5 -164.5v-238h202l-4 -16h-198v-707h-19v707h-387v-707h-18v707h-127l6 16h121v215q0 123 67 191.5
t168 68.5q121 0 207 -86q58 86 164 86q109 0 197 -88v-440zM1188 0q142 0 242 104.5t100 255.5q0 152 -100 257.5t-242 105.5q-26 0 -51 -3t-46 -9t-38 -12.5t-33.5 -15t-25.5 -13.5t-20.5 -12.5t-12.5 -8.5v-573q106 -76 227 -76zM176 723h387v238q0 77 29 137
q-84 84 -197 84q-95 0 -157 -65t-62 -179v-215z" />
    <glyph glyph-name="f_f_b.alt" horiz-adv-x="1693" 
d="M942 301v924q-11 11 -26.5 23.5t-60 32t-89.5 19.5q-81 0 -132.5 -56.5t-51.5 -164.5v-356h202l-4 -16h-198v-707h-19v707h-387v-707h-18v707h-127l6 16h121v334q0 123 67 191.5t168 68.5q121 0 207 -86q58 86 164 86q108 0 194 -86v-598q37 37 115 71.5t166 34.5
q161 0 267 -104.5t106 -274.5q0 -168 -103.5 -272t-248.5 -104q-130 0 -224 91.5t-94 225.5zM958 610v-309q0 -126 89.5 -212.5t212.5 -86.5q137 0 234 99.5t97 258.5q0 163 -99 263t-253 100q-78 0 -151.5 -30t-129.5 -83zM176 723h387v356q0 78 29 138q-83 83 -197 83
q-95 0 -157 -64.5t-62 -178.5v-334z" />
    <glyph glyph-name="f_f_h" horiz-adv-x="1599" 
d="M961 582q37 56 71 85q82 72 191 72q112 0 178.5 -69t66.5 -203v-467h-18v467q0 125 -62 190.5t-165 65.5q-47 0 -89 -15t-67 -31.5t-51.5 -47.5t-33 -41t-21.5 -35v-553h-19v1106q-11 11 -26.5 23.5t-60 32.5t-89.5 20q-81 0 -132.5 -56.5t-51.5 -164.5v-238h202l-4 -16
h-198v-707h-19v707h-387v-707h-18v707h-127l6 16h121v215q0 123 67 191.5t168 68.5q121 0 207 -86q58 86 164 86q109 0 197 -88v-528zM176 723h387v238q0 77 29 137q-84 84 -197 84q-95 0 -157 -65t-62 -179v-215z" />
    <glyph glyph-name="f_f_h.alt" horiz-adv-x="1593" 
d="M961 723h501v-723h-18v707h-483v-707h-19v1225q-11 11 -26.5 23.5t-60 32t-89.5 19.5q-81 0 -132.5 -56.5t-51.5 -164.5v-356h202l-4 -16h-198v-707h-19v707h-387v-707h-18v707h-127l6 16h121v334q0 123 67 191.5t168 68.5q121 0 207 -86q58 86 164 86q109 0 197 -88
v-506zM176 723h387v356q0 78 29 138q-83 83 -197 83q-95 0 -157 -64.5t-62 -178.5v-334z" />
    <glyph glyph-name="ffi.alt" horiz-adv-x="1126" 
d="M582 709v-709h-19v709h-387v-709h-18v709h-127l6 14h121v334q0 123 67 191.5t168 68.5q121 0 207 -86q58 86 164 86q102 0 180 -78l-12 -10q-71 71 -166 71q-81 0 -132.5 -56.5t-51.5 -164.5v-356h393v-723h-19v709h-374zM176 723h387v356q0 78 29 138q-83 83 -197 83
q-95 0 -157 -64.5t-62 -178.5v-334z" />
    <glyph glyph-name="ffl.alt" horiz-adv-x="1091" 
d="M961 0h-19v1225q-11 11 -26.5 23.5t-60 32t-89.5 19.5q-81 0 -132.5 -56.5t-51.5 -164.5v-356h202l-4 -16h-198v-707h-19v707h-387v-707h-18v707h-127l6 16h121v334q0 123 67 191.5t168 68.5q121 0 207 -86q58 86 164 86q109 0 197 -88v-1229zM176 723h387v356
q0 78 29 138q-83 83 -197 83q-95 0 -157 -64.5t-62 -178.5v-334z" />
    <glyph glyph-name="f_f_t" horiz-adv-x="1249" 
d="M764 1198q109 0 197 -88v-387h262l-4 -16h-258v-527q0 -93 40.5 -134.5t100.5 -41.5q73 0 125 39v-18q-65 -37 -125 -37q-70 0 -115 43.5t-45 148.5v527h-360v-707h-19v707h-387v-707h-18v707h-127l6 16h121v215q0 123 67 191.5t168 68.5q121 0 207 -86q58 86 164 86z
M176 723h387v238q0 77 29 137q-84 84 -197 84q-95 0 -157 -65t-62 -179v-215zM582 723h360v383q-11 11 -26.5 23.5t-60 32.5t-89.5 20q-81 0 -132.5 -56.5t-51.5 -164.5v-238z" />
    <glyph glyph-name="f_f_t.alt" horiz-adv-x="1155" 
d="M764 1317q109 0 197 -88v-506h190l-4 -16h-186v-707h-19v707h-360v-707h-19v707h-387v-707h-18v707h-127l6 16h121v334q0 123 67 191.5t168 68.5q121 0 207 -86q58 86 164 86zM176 723h387v356q0 78 29 138q-83 83 -197 83q-95 0 -157 -64.5t-62 -178.5v-334zM766 1300
q-81 0 -132.5 -56.5t-51.5 -164.5v-356h360v502q-11 11 -26.5 23.5t-60 32t-89.5 19.5z" />
    <glyph glyph-name="f_f_y" horiz-adv-x="1388" 
d="M1100 25l260 698h18l-268 -723l-174 -463h-18l172 463l-265 707h-243v-707h-19v707h-387v-707h-18v707h-127l6 16h121v215q0 123 67 191.5t168 68.5q121 0 207 -86q58 86 164 86q102 0 180 -78l-12 -10q-72 72 -166 72q-81 0 -132.5 -56.5t-51.5 -164.5v-238h258z
M176 723h387v238q0 77 29 137q-84 84 -197 84q-95 0 -157 -65t-62 -179v-215z" />
    <glyph glyph-name="f_f_y.alt" horiz-adv-x="1388" 
d="M1100 25l260 698h18l-268 -723l-213 -567h-18l211 567l-265 707h-243v-707h-19v707h-387v-707h-18v707h-127l6 16h121v334q0 123 67 191.5t168 68.5q121 0 207 -86q58 86 164 86q102 0 180 -78l-12 -10q-71 71 -166 71q-81 0 -132.5 -56.5t-51.5 -164.5v-356h258z
M176 723h387v356q0 78 29 138q-83 83 -197 83q-95 0 -157 -64.5t-62 -178.5v-334z" />
    <glyph glyph-name="f_h" horiz-adv-x="1193" 
d="M537 1114q-76 68 -168 68q-83 0 -138 -59t-55 -171v-229h230l-5 -16h-225v-707h-18v707h-127l6 16h121v229q0 117 58.5 181.5t150.5 64.5q108 0 188 -80v-536q37 56 71 85q82 72 191 72q112 0 179 -69.5t67 -202.5v-467h-19v467q0 125 -62 190.5t-165 65.5q-47 0 -89 -15
t-67 -31.5t-51.5 -47.5t-33 -41t-21.5 -35v-553h-18v1114z" />
    <glyph glyph-name="f_h.alt" horiz-adv-x="1187" 
d="M1038 0v707h-483v-707h-18v1233q-74 67 -168 67q-83 0 -138 -59t-55 -170v-348h230l-5 -16h-225v-707h-18v707h-127l6 16h121v348q0 117 58.5 181.5t150.5 64.5q108 0 188 -80v-514h502v-723h-19z" />
    <glyph glyph-name="fi.alt" horiz-adv-x="720" 
d="M176 723h393v-723h-18v707h-375v-707h-18v707h-127l6 16h121v356q0 113 56 175.5t144 62.5q103 0 181 -78l-13 -10q-71 71 -166 71q-81 0 -132.5 -56.5t-51.5 -164.5v-356z" />
    <glyph glyph-name="fl.alt" horiz-adv-x="686" 
d="M555 0h-18v1225q-10 10 -26.5 23t-61 32.5t-89.5 19.5q-81 0 -132.5 -56.5t-51.5 -164.5v-356h203l-4 -16h-199v-707h-18v707h-127l6 16h121v356q0 113 56 175.5t144 62.5q109 0 197 -88v-1229z" />
    <glyph glyph-name="f_t" horiz-adv-x="843" 
d="M555 723h262l-4 -16h-258v-527q0 -93 40.5 -134.5t100.5 -41.5q73 0 125 39v-18q-65 -37 -125 -37q-69 0 -114 43.5t-45 148.5v527h-361v-707h-18v707h-127l6 16h121v238q0 113 56 175t144 62q109 0 197 -88v-387zM537 1106q-11 11 -27 24t-60.5 32.5t-89.5 19.5
q-81 0 -132.5 -56.5t-51.5 -164.5v-238h361v383z" />
    <glyph glyph-name="f_t.alt" horiz-adv-x="749" 
d="M555 0h-18v707h-361v-707h-18v707h-127l6 16h121v356q0 113 56 175.5t144 62.5q109 0 197 -88v-506h190l-4 -16h-186v-707zM176 1079v-356h361v502q-10 10 -26.5 23t-61 32.5t-89.5 19.5q-81 0 -132.5 -56.5t-51.5 -164.5z" />
    <glyph glyph-name="f_y" horiz-adv-x="983" 
d="M176 723h258l260 -698l260 698h19l-268 -723l-175 -463h-18l172 463l-264 707h-244v-707h-18v707h-127l6 16h121v238q0 113 56 175t144 62q103 0 181 -78l-13 -10q-72 72 -166 72q-81 0 -132.5 -56.5t-51.5 -164.5v-238z" />
    <glyph glyph-name="f_y.alt" horiz-adv-x="983" 
d="M176 723h258l260 -698l260 698h19l-268 -723l-213 -567h-19l211 567l-264 707h-244v-707h-18v707h-127l6 16h121v356q0 113 56 175.5t144 62.5q103 0 181 -78l-13 -10q-71 71 -166 71q-81 0 -132.5 -56.5t-51.5 -164.5v-356z" />
    <glyph glyph-name="g_i" horiz-adv-x="1060" 
d="M909 0h-18v707h-246l-57 -74q71 -87 71 -207q0 -129 -85 -218t-207 -89q-81 0 -148 39l-92 -117l309 -90q232 -67 232 -248q0 -104 -86.5 -175t-208.5 -71q-133 0 -221.5 76.5t-88.5 190.5q0 147 181 266l-144 43l105 135q-61 40 -96 108t-35 150q0 129 85 221t208 92
q124 0 208 -94l62 78h272v-723zM92 426q0 -123 79.5 -208t193.5 -85t195 85t81 208q0 125 -80.5 211t-195.5 86q-112 0 -192.5 -86t-80.5 -211zM80 -276q0 -106 83.5 -178t209.5 -72q114 0 196 67t82 162q0 166 -221 231l-168 50q-18 -10 -34.5 -21.5t-45.5 -37.5t-49.5 -53
t-36.5 -66.5t-16 -81.5zM866 956l35 35l33 -35l-35 -34z" />
    <glyph glyph-name="g_i.alt" horiz-adv-x="1146" 
d="M713 707l-51 -66q50 -48 78 -113.5t28 -136.5q0 -141 -100 -243t-240 -105v-610h-18v610q-141 3 -239.5 105t-98.5 243q0 143 102 245.5t246 102.5q131 0 229 -88l56 72h290v-723h-18v707h-264zM420 59q135 0 231.5 97.5t96.5 234.5t-96.5 234.5t-231.5 97.5
t-231.5 -97.5t-96.5 -234.5t96.5 -234.5t231.5 -97.5zM1020 956l-68 -34l35 69z" />
    <glyph glyph-name="g_y" horiz-adv-x="1316" 
d="M1028 25l260 698h19l-269 -723l-174 -463h-18l172 463l-262 707h-111l-57 -74q71 -87 71 -207q0 -129 -85 -218t-207 -89q-81 0 -148 39l-92 -117l309 -90q232 -67 232 -248q0 -104 -86.5 -175t-208.5 -71q-133 0 -221.5 76.5t-88.5 190.5q0 147 181 266l-144 43l105 135
q-61 40 -96 108t-35 150q0 129 85 221t208 92q124 0 208 -94l62 78h131zM92 426q0 -123 79.5 -208t193.5 -85t195 85t81 208q0 125 -80.5 211t-195.5 86q-112 0 -192.5 -86t-80.5 -211zM80 -276q0 -106 83.5 -178t209.5 -72q114 0 196 67t82 162q0 166 -221 231l-168 50
q-18 -10 -34.5 -21.5t-45.5 -37.5t-49.5 -53t-36.5 -66.5t-16 -81.5z" />
    <glyph glyph-name="g_y.alt" horiz-adv-x="1402" 
d="M1114 25l260 698h19l-269 -723l-213 -567h-18l211 567l-262 707h-129l-51 -66q50 -48 78 -113.5t28 -136.5q0 -141 -100 -243t-240 -105v-610h-18v610q-141 3 -239.5 105t-98.5 243q0 143 102 245.5t246 102.5q131 0 229 -88l56 72h149zM420 59q135 0 231.5 97.5
t96.5 234.5t-96.5 234.5t-231.5 97.5t-231.5 -97.5t-96.5 -234.5t96.5 -234.5t231.5 -97.5z" />
    <glyph glyph-name="o_f" horiz-adv-x="1413" 
d="M877 879h-289v-297h235v-17h-235v-325h-19v657h308v-18zM1313 582q0 -165 -78 -304t-218 -221t-310 -82t-310 82t-218.5 221t-78.5 304t78.5 304t218 220.5t310.5 81.5q170 0 310 -81.5t218 -220.5t78 -304zM1290 582q0 161 -75 295t-209 213t-299 79t-299.5 -79
t-209.5 -213t-75 -295q0 -120 44.5 -228.5t121 -187.5t186 -125.5t232.5 -46.5q165 0 299 79t209 213.5t75 295.5z" />
    <glyph glyph-name="o_f.alt" horiz-adv-x="1150" 
d="M745 879h-288v-297h235v-17h-235v-325h-19v657h307v-18zM975 0h-799v1163h799v-1163zM197 18h757v1127h-757v-1127z" />
    <glyph glyph-name="o_f.small" horiz-adv-x="1462" 
d="M549 -16q-193 0 -321 126.5t-128 309.5q0 182 128 308t321 126q159 0 272 -88t154 -227l-2 299h407v-17h-387v-391h316v-14h-316v-416h-20l2 299q-41 -139 -154 -227t-272 -88zM975 420q0 174 -122 296t-304 122q-184 0 -306 -122t-122 -296q0 -175 122 -297.5
t306 -122.5q182 0 304 122.5t122 297.5z" />
    <glyph glyph-name="o_f.altsmall" horiz-adv-x="1206" 
d="M1124 838v-17h-387v-391h316v-14h-316v-416h-606v838h993zM717 16v805h-565v-805h565zM465 420l-31 -31l-31 31l31 31z" />
    <glyph glyph-name="s_t.alt" horiz-adv-x="960" 
d="M502 115l-436 495q117 129 282 129q42 0 98 -14q-90 62 -90 168q0 86 60 147.5t145 61.5q88 0 147.5 -60.5t59.5 -148.5v-170h188l-4 -16h-184v-707h-18v707h-136l4 16h132v170q0 79 -55.5 134.5t-135.5 55.5q-76 0 -131 -56t-55 -134q0 -41 13 -73.5t37 -54.5t42 -34
t45 -26v-19q-74 37 -162 37q-74 0 -142 -30.5t-116 -82.5l436 -495q-112 -131 -280 -131q-20 0 -41 3t-36.5 6.5t-32 9t-25 9t-19.5 8.5l-10 5v18q86 -43 164 -43q74 0 141 30.5t115 84.5z" />
    <glyph glyph-name="zero.ltab" horiz-adv-x="917" 
d="M799 582q0 -157 -37.5 -292.5t-116.5 -225t-186 -89.5t-186 89.5t-116.5 225t-37.5 292.5q0 156 37.5 291.5t116.5 225t186 89.5t186 -89.5t116.5 -225t37.5 -291.5zM778 582q0 112 -20.5 216t-59.5 188t-101 134.5t-138 50.5q-101 0 -175.5 -87.5t-109.5 -218.5
t-35 -283q0 -113 21 -217t59.5 -188t101 -134.5t138.5 -50.5q101 0 175.5 87.5t109 218.5t34.5 284z" />
    <glyph glyph-name="one.ltab" horiz-adv-x="917" 
d="M469 0h-20v1155l20 14v-1169z" />
    <glyph glyph-name="two.ltab" horiz-adv-x="917" 
d="M129 6l358 408q3 4 35.5 40t42 47.5t39 48t41.5 56.5t33 57t30 65.5t17 65.5t8 72q0 137 -84.5 218t-214.5 81q-125 0 -214 -89.5t-89 -211.5h-18q0 128 93.5 224t227.5 96q141 0 230.5 -86.5t89.5 -231.5q0 -38 -8 -76.5t-17.5 -68.5t-30.5 -67t-34.5 -59t-42 -58
t-40.5 -49.5t-43 -48t-36 -40.5l-338 -381h596v-18h-631v6z" />
    <glyph glyph-name="three.ltab" horiz-adv-x="917" 
d="M283 604l-9 10q159 92 267 226t145 305h-543v18h566v-10q-14 -69 -40.5 -134t-54.5 -111.5t-66 -91.5t-64 -70.5t-61.5 -53t-46.5 -34t-29 -17.5q-2 -2 -3 -2q1 0 10.5 2.5t18 4.5t24 3.5t31.5 1.5q125 0 215 -85t90 -228q0 -163 -101 -263t-245 -100q-152 0 -276 103
l12 12q16 -14 42.5 -31t92.5 -41t131 -24q134 0 229 94.5t95 249.5q0 135 -85.5 215t-207.5 80q-43 0 -85.5 -11t-51.5 -18z" />
    <glyph glyph-name="four.ltab" horiz-adv-x="917" 
d="M618 375h-542l-2 8l549 780h16v-770h229v-18h-229v-375h-21v375zM102 393h516v733z" />
    <glyph glyph-name="five.ltab" horiz-adv-x="917" 
d="M106 121q141 -127 300 -127q132 0 227.5 97.5t95.5 254.5q0 156 -96.5 251t-231.5 95q-92 0 -182 -45l-4 2l35 514h469v-18h-453l-33 -473q86 37 173 37q144 0 244 -99.5t100 -263.5t-101.5 -267.5t-242.5 -103.5q-165 0 -312 134z" />
    <glyph glyph-name="six.ltab" horiz-adv-x="917" 
d="M770 338q0 151 -93.5 254.5t-250.5 103.5q-62 0 -124.5 -17.5t-92 -32.5t-43.5 -25q0 -1 -3.5 -13t-7 -28.5t-7.5 -37.5t-6.5 -48.5t-2.5 -53.5q0 -89 20 -167.5t59.5 -142t106 -100t152.5 -36.5q84 0 152.5 50.5t104.5 128.5t36 165zM174 645q122 68 254 68
q165 0 264 -106.5t99 -268.5q0 -143 -88.5 -253t-225.5 -110q-115 0 -197.5 62t-121.5 165t-39 236q0 180 91 342.5t248 269.5t341 128v-17q-213 -27 -385 -167t-240 -349z" />
    <glyph glyph-name="seven.ltab" horiz-adv-x="917" 
d="M807 1157l-506 -1157h-25l504 1145h-669v18h692z" />
    <glyph glyph-name="eight.ltab" horiz-adv-x="917" 
d="M459 625q39 17 73.5 37t70.5 48.5t61.5 60t42 71.5t16.5 82q0 106 -76.5 176.5t-187.5 70.5t-187.5 -70.5t-76.5 -176.5q0 -42 16.5 -82t42 -71.5t61.5 -60t70.5 -48.5t73.5 -37zM459 -6q117 0 197.5 83.5t80.5 201.5q0 58 -24 109t-68 91t-87 68t-99 57q-44 -23 -79 -44
t-74.5 -52t-65.5 -63.5t-43 -75.5t-17 -90q0 -118 80.5 -201.5t198.5 -83.5zM459 -25q-126 0 -212.5 88.5t-86.5 212.5q0 33 7.5 64t23 58t31.5 49.5t40.5 44t42 36.5t44.5 31.5t39 24t34 18.5l22 12q-113 55 -172 112q-96 91 -96 202q0 112 80.5 186t202.5 74t202 -74
t80 -186q0 -185 -261 -311q-5 -2 -7 -3q1 0 22.5 -11.5t34 -19t39 -23.5t44 -31.5t42 -36.5t41 -44t32 -50t23 -58t7.5 -64q0 -124 -86.5 -212.5t-212.5 -88.5z" />
    <glyph glyph-name="nine.ltab" horiz-adv-x="917" 
d="M147 825q0 -151 94 -254.5t251 -103.5q62 0 124.5 17.5t92 32.5t43.5 26q0 1 3.5 13t7 28t7 37.5t6 48.5t2.5 53q0 89 -20 167.5t-59.5 142t-106 100t-152.5 36.5q-84 0 -152.5 -50.5t-104.5 -128.5t-36 -165zM743 518q-121 -67 -254 -67q-165 0 -263.5 106t-98.5 268
q0 92 38 174.5t111 135.5t164 53q172 0 265.5 -129.5t93.5 -333.5q0 -179 -91 -342t-248 -269.5t-341 -127.5v16q213 26 384.5 166.5t239.5 349.5z" />
    <glyph glyph-name="zero.oprp" horiz-adv-x="1220" 
d="M1102 473q0 -137 -66.5 -250.5t-179.5 -178t-246 -64.5t-246 64.5t-179 178t-66 250.5q0 103 39 195t105 157t156.5 103.5t190.5 38.5q133 0 246 -64.5t179.5 -178.5t66.5 -251zM1081 473q0 200 -137.5 338.5t-333.5 138.5t-333.5 -138.5t-137.5 -338.5t137.5 -338.5
t333.5 -138.5t333.5 138.5t137.5 338.5z" />
    <glyph glyph-name="one.oprp" horiz-adv-x="421" 
d="M221 0h-20v936h20v-936z" />
    <glyph glyph-name="two.oprp" horiz-adv-x="815" 
d="M403 967q120 0 206.5 -84.5t86.5 -204.5q0 -30 -7 -60.5t-15.5 -54t-25.5 -50.5t-29 -43.5t-34 -40t-31.5 -32.5t-31.5 -29t-24 -22l-359 -326h545v-20h-590v6l383 350q3 3 24.5 22.5t32 29.5t32 32.5t33.5 39t29 42t26 48.5t15.5 51.5t6.5 56.5q0 111 -80 190.5
t-193 79.5q-114 0 -197 -88t-83 -209l2 -28h-19l-2 28q0 130 88.5 223t210.5 93z" />
    <glyph glyph-name="three.oprp" horiz-adv-x="788" 
d="M219 377l-8 10q159 92 267 226t145 305h-543v18h565v-10q-14 -69 -40.5 -134t-54.5 -111.5t-66 -91.5t-64 -71t-61.5 -53t-46 -33.5t-28.5 -17.5q-2 -2 -3 -2q1 0 10.5 2.5t18 4.5t24 3.5t31.5 1.5q125 0 215 -85t90 -228q0 -163 -101 -263t-245 -100q-54 0 -105.5 13.5
t-89.5 35t-53.5 32t-28.5 21.5l12 13q16 -13 42.5 -30.5t93 -41.5t131.5 -24q134 0 228.5 94.5t94.5 249.5q0 135 -85.5 215t-207.5 80q-43 0 -85.5 -11t-51.5 -18z" />
    <glyph glyph-name="four.oprp" horiz-adv-x="864" 
d="M592 147h-543l-2 9l549 780h16v-770h230v-19h-230v-374h-20v374zM76 166h516v733z" />
    <glyph glyph-name="five.oprp" horiz-adv-x="821" 
d="M59 -106q141 -127 299 -127q132 0 228 97.5t96 254.5q0 156 -96.5 251t-231.5 95q-92 0 -182 -45l-4 2l35 514h469v-18h-453l-33 -474q86 37 172 37q145 0 244.5 -99t99.5 -263t-101.5 -267.5t-242.5 -103.5q-165 0 -311 133z" />
    <glyph glyph-name="six.oprp" horiz-adv-x="960" 
d="M842 1169q-131 -9 -257.5 -66.5t-234 -166t-162.5 -248.5q45 28 117.5 54t145.5 26q159 0 266.5 -107t107.5 -290q0 -167 -100 -281.5t-240 -114.5q-86 0 -156.5 36.5t-115.5 97.5t-69.5 140.5t-24.5 166.5q0 135 42.5 256.5t114.5 211t165 157t195 104t204 43.5z
M451 750q-82 0 -159 -30t-112 -56q-41 -115 -41 -248q0 -113 39 -207.5t119.5 -154.5t187.5 -60q132 0 226 109.5t94 267.5q0 174 -102.5 276.5t-251.5 102.5z" />
    <glyph glyph-name="seven.oprp" horiz-adv-x="790" 
d="M719 930l-506 -1157h-25l504 1145h-669v18h692z" />
    <glyph glyph-name="eight.oprp" horiz-adv-x="835" 
d="M418 625q39 17 73.5 37t70.5 48.5t61.5 60t42 71.5t16.5 82q0 106 -76.5 176.5t-187.5 70.5t-187.5 -70.5t-76.5 -176.5q0 -42 16.5 -82t42 -71.5t61.5 -60t70.5 -48.5t73.5 -37zM418 -6q117 0 197.5 83.5t80.5 201.5q0 58 -24 109t-68 91t-87 68t-99 57q-44 -23 -79 -44
t-74.5 -52t-65.5 -63.5t-43 -75.5t-17 -90q0 -118 80.5 -201.5t198.5 -83.5zM418 -25q-126 0 -212.5 88.5t-86.5 212.5q0 33 7.5 64t23 58t31.5 49.5t40.5 44t42 36.5t44.5 31.5t39 24t34 18.5l22 12q-113 55 -172 112q-96 91 -96 202q0 112 80.5 186t202.5 74t202 -74
t80 -186q0 -185 -261 -311q-5 -2 -7 -3q1 0 22.5 -11.5t34 -19t39 -23.5t44 -31.5t42 -36.5t41 -44t32 -50t23 -58t7.5 -64q0 -124 -86.5 -212.5t-212.5 -88.5z" />
    <glyph glyph-name="nine.oprp" horiz-adv-x="960" 
d="M119 -227q131 9 257.5 66.5t233.5 166t162 248.5q-45 -29 -117 -54.5t-145 -25.5q-103 0 -187 46t-136 137.5t-52 213.5q0 167 100 281.5t240 114.5q114 0 199 -62.5t126.5 -161.5t41.5 -217q0 -135 -42.5 -256.5t-114.5 -211t-165 -157t-195 -104t-204 -43.5zM510 193
q82 0 158.5 30t111.5 56q41 115 41 247q0 113 -39 207.5t-119.5 154.5t-187.5 60q-132 0 -225.5 -109.5t-93.5 -267.5q0 -174 102.5 -276t251.5 -102z" />
    <glyph glyph-name="percent.oprp" horiz-adv-x="1329" 
d="M72 918q0 117 81.5 198.5t198.5 81.5t199 -81.5t82 -198.5t-82 -199t-199 -82t-198.5 82t-81.5 199zM1257 264q0 -117 -81.5 -198.5t-198.5 -81.5t-199 81.5t-82 198.5t82 199t199 82t198.5 -82t81.5 -199zM1241 264q0 110 -77 188t-187 78t-187 -78t-77 -188t77 -188
t187 -78t187 78t77 188zM88 918q0 -111 77 -189t187 -78t187 78t77 189q0 110 -77 188t-187 78t-187 -78t-77 -188zM1085 1198h21l-877 -1233h-18z" />
    <glyph glyph-name="perthousand.oprp" horiz-adv-x="2013" 
d="M1085 1198h21l-877 -1233h-18zM72 918q0 117 81.5 198.5t198.5 81.5t199 -81.5t82 -198.5t-82 -199t-199 -82t-198.5 82t-81.5 199zM88 918q0 -111 77 -189t187 -78t187 78t77 189q0 110 -77 188t-187 78t-187 -78t-77 -188zM1257 264q0 -117 -81.5 -198.5t-198.5 -81.5
t-199 81.5t-82 198.5t82 199t199 82t198.5 -82t81.5 -199zM1241 264q0 110 -77 188t-187 78t-187 -78t-77 -188t77 -188t187 -78t187 78t77 188zM1942 264q0 -117 -82 -198.5t-199 -81.5t-199 81.5t-82 198.5t82 199t199 82t199 -82t82 -199zM1925 264q0 110 -77 188
t-187 78t-187 -78t-77 -188t77 -188t187 -78t187 78t77 188z" />
    <glyph glyph-name="zero.otab" horiz-adv-x="960" 
d="M844 473q0 -210 -103.5 -351.5t-259.5 -141.5t-259 141.5t-103 351.5t103 352t259 142t259.5 -142t103.5 -352zM823 473q0 203 -97 340t-245 137t-245 -137t-97 -340t97 -340t245 -137t245 137t97 340z" />
    <glyph glyph-name="one.otab" horiz-adv-x="960" 
d="M489 0h-20v936h20v-936z" />
    <glyph glyph-name="two.otab" horiz-adv-x="960" 
d="M475 967q120 0 206.5 -84.5t86.5 -204.5q0 -30 -7 -60.5t-16 -54.5t-25.5 -50.5t-29 -43t-34 -39.5t-31.5 -33t-31.5 -29t-24.5 -22l-358 -326h545v-20h-590v6l383 350q3 3 24.5 22.5t32 29.5t32 32.5t33.5 39t29 42t26 48.5t15.5 51.5t6.5 56.5q0 111 -80 190.5
t-193 79.5q-114 0 -197 -88t-83 -209l2 -28h-19l-2 28q0 130 88.5 223t210.5 93z" />
    <glyph glyph-name="three.otab" horiz-adv-x="960" 
d="M305 377l-8 10q159 92 267 226t145 305h-543v18h565v-10q-14 -69 -40.5 -134t-54.5 -111.5t-66 -91.5t-64 -71t-61.5 -53t-46 -33.5t-28.5 -17.5q-2 -2 -3 -2q1 0 10.5 2.5t18 4.5t24 3.5t31.5 1.5q125 0 215 -85t90 -228q0 -163 -101 -263t-245 -100q-54 0 -105.5 13.5
t-89.5 35t-53.5 32t-28.5 21.5l12 13q16 -13 42.5 -30.5t93 -41.5t131.5 -24q134 0 228.5 94.5t94.5 249.5q0 135 -85.5 215t-207.5 80q-43 0 -85.5 -11t-51.5 -18z" />
    <glyph glyph-name="four.otab" horiz-adv-x="960" 
d="M639 147h-543l-2 9l549 780h16v-770h230v-19h-230v-374h-20v374zM123 166h516v733z" />
    <glyph glyph-name="five.otab" horiz-adv-x="960" 
d="M129 -106q141 -127 299 -127q132 0 228 97.5t96 254.5q0 156 -96.5 251t-231.5 95q-92 0 -182 -45l-4 2l34 514h469v-18h-452l-33 -474q86 37 172 37q145 0 244.5 -99t99.5 -263t-101.5 -267.5t-242.5 -103.5q-165 0 -311 133z" />
    <glyph glyph-name="six.otab" horiz-adv-x="960" 
d="M842 1169q-131 -9 -257.5 -66.5t-234 -166t-162.5 -248.5q45 28 117.5 54t145.5 26q159 0 266.5 -107t107.5 -290q0 -167 -100 -281.5t-240 -114.5q-86 0 -156.5 36.5t-115.5 97.5t-69.5 140.5t-24.5 166.5q0 135 42.5 256.5t114.5 211t165 157t195 104t204 43.5z
M451 750q-82 0 -159 -30t-112 -56q-41 -115 -41 -248q0 -113 39 -207.5t119.5 -154.5t187.5 -60q132 0 226 109.5t94 267.5q0 174 -102.5 276.5t-251.5 102.5z" />
    <glyph glyph-name="seven.otab" horiz-adv-x="960" 
d="M803 930l-506 -1157h-25l504 1145h-670v18h693z" />
    <glyph glyph-name="eight.otab" horiz-adv-x="960" 
d="M479 625q39 17 73.5 37t70.5 48.5t61.5 60t42 71.5t16.5 82q0 106 -76.5 176.5t-187.5 70.5t-187.5 -70.5t-76.5 -176.5q0 -42 16.5 -82t42 -71.5t61.5 -60t70.5 -48.5t73.5 -37zM479 -6q118 0 198.5 83.5t80.5 201.5q0 47 -17 90t-43 75.5t-65.5 63.5t-74.5 52t-79 44
q-56 -29 -99 -57t-87 -68t-68 -91t-24 -109q0 -118 80.5 -201.5t197.5 -83.5zM479 -25q-126 0 -212.5 88.5t-86.5 212.5q0 33 7.5 64t23 58t32 50t41 44t42 36.5t44 31.5t39 23.5t34 19t22.5 11.5q-113 55 -172 112q-96 91 -96 202q0 112 80 186t202 74t202.5 -74t80.5 -186
q0 -185 -261 -311q-5 -2 -7 -3l22 -12q22 -11 34 -18.5t39 -24t44.5 -31.5t42 -36.5t40.5 -44t31.5 -49.5t23 -58t7.5 -64q0 -124 -86.5 -212.5t-212.5 -88.5z" />
    <glyph glyph-name="nine.otab" horiz-adv-x="960" 
d="M119 -227q131 9 257.5 66.5t233.5 166t162 248.5q-45 -29 -117 -54.5t-145 -25.5q-103 0 -187 46t-136 137.5t-52 213.5q0 167 100 281.5t240 114.5q114 0 199 -62.5t126.5 -161.5t41.5 -217q0 -135 -42.5 -256.5t-114.5 -211t-165 -157t-195 -104t-204 -43.5zM510 193
q82 0 158.5 30t111.5 56q41 115 41 247q0 113 -39 207.5t-119.5 154.5t-187.5 60q-132 0 -225.5 -109.5t-93.5 -267.5q0 -174 102.5 -276t251.5 -102z" />
    <glyph glyph-name="zero.small" horiz-adv-x="790" 
d="M672 418q0 -111 -32.5 -210t-97 -163.5t-147.5 -64.5t-147 64.5t-96.5 163t-32.5 210.5q0 113 32.5 212t96.5 163.5t147 64.5t147.5 -64.5t97 -164t32.5 -211.5zM651 418q0 109 -30 204.5t-89.5 157.5t-136.5 62t-136.5 -62t-89.5 -157.5t-30 -204.5q0 -108 30 -203
t89.5 -157t136.5 -62t136.5 62t89.5 157t30 203z" />
    <glyph glyph-name="one.small" horiz-adv-x="401" 
d="M211 0h-21v829l21 15v-844z" />
    <glyph glyph-name="two.small" horiz-adv-x="704" 
d="M586 0h-480v6l281 305q36 40 47.5 53t43 54t44.5 67t26 65.5t13 76.5q0 96 -63 153.5t-160 57.5q-93 0 -159 -63t-68 -150h-17q0 92 70.5 160.5t173.5 68.5q108 0 176 -61.5t68 -165.5q0 -38 -12.5 -77.5t-27.5 -68.5t-45.5 -69t-46.5 -58.5t-51 -56.5l-258 -279h445v-18
z" />
    <glyph glyph-name="three.small" horiz-adv-x="651" 
d="M59 59l11 11q91 -68 200 -68q101 0 171.5 67t70.5 177q0 95 -63.5 151t-153.5 56q-59 0 -107 -19l-6 10q255 141 310 375h-408v19h430v-11q-13 -58 -36 -109.5t-54.5 -90.5t-56.5 -66t-60 -51.5t-44 -30t-29 -16.5q-2 -2 -3 -2q50 10 70 10q94 0 162.5 -61t68.5 -164
q0 -119 -77 -190.5t-187 -71.5q-109 0 -209 75z" />
    <glyph glyph-name="four.small" horiz-adv-x="673" 
d="M35 279l418 559h16v-549h170v-19h-170v-270h-20v270h-412zM449 801l-383 -512h383v512z" />
    <glyph glyph-name="five.small" horiz-adv-x="651" 
d="M35 80l10 10q113 -88 227 -88q98 0 169 68.5t71 181.5q0 110 -71.5 177t-172.5 67q-69 0 -137 -29l-4 2l27 369h356v-19h-340l-25 -332q67 25 127 25q110 0 185 -71t75 -189q0 -119 -76.5 -193.5t-183.5 -74.5q-125 0 -237 96z" />
    <glyph glyph-name="six.small" horiz-adv-x="753" 
d="M635 848v-17q-162 -19 -290.5 -120t-178.5 -244q1 0 8 4.5t15 8t20.5 9t27 10t32.5 8.5t40 6.5t45 2.5q125 0 200 -76.5t75 -193.5q0 -103 -67 -182.5t-171 -79.5q-130 0 -201 93.5t-71 239.5q0 129 69 246t188 193.5t259 91.5zM158 442q-19 -65 -19 -125q0 -137 66 -226
t186 -89q96 0 156.5 74t60.5 170q0 108 -69.5 181t-184.5 73q-98 0 -196 -58z" />
    <glyph glyph-name="seven.small" horiz-adv-x="624" 
d="M184 0h-22l377 819h-504v19h526l4 -7z" />
    <glyph glyph-name="eight.small" horiz-adv-x="692" 
d="M346 -16q-98 0 -162.5 63.5t-64.5 153.5q0 42 20 81.5t43.5 64t60 48.5t51 31t34.5 16q-12 5 -25.5 11t-47.5 27t-58.5 44.5t-45 62t-20.5 79.5q0 81 61 134.5t154 53.5t154 -53.5t61 -134.5q0 -49 -27 -93t-65.5 -71.5t-64 -41t-39.5 -18.5q161 -78 197 -180
q11 -30 11 -61q0 -90 -64.5 -153.5t-162.5 -63.5zM346 432q-16 -7 -33 -15t-51.5 -30t-59 -46.5t-44 -62t-19.5 -77.5q0 -81 60 -140t147 -59t147 59t60 140q0 40 -19.5 77.5t-44 62t-59 46.5t-51.5 30t-33 15zM346 838q-83 0 -139.5 -50t-56.5 -122q0 -128 196 -215
q180 80 196 194q1 11 1 21q0 72 -57 122t-140 50z" />
    <glyph glyph-name="nine.small" horiz-adv-x="753" 
d="M119 -10v16q162 18 290.5 120t178.5 245q-1 0 -8.5 -4.5t-15 -8t-20 -9t-27.5 -10t-33 -8.5t-40 -6.5t-45 -2.5q-125 0 -199.5 76.5t-74.5 193.5q0 104 66.5 183t170.5 79q130 0 201.5 -94t71.5 -240q0 -129 -69 -245.5t-188 -193t-259 -91.5zM596 395q18 62 18 125
q0 137 -66 226.5t-186 89.5q-96 0 -156.5 -74t-60.5 -170q0 -108 69.5 -181t184.5 -73q101 0 197 57z" />
    <glyph glyph-name="onequarter.small" horiz-adv-x="1253" 
d="M1030 217h119v-16h-119v-201h-16v201h-322l-6 14l332 426h12v-424zM707 217h307v395zM1063 1202l-852 -1202h-21l852 1202h21zM293 528v635l16 8v-643h-16z" />
    <glyph glyph-name="onehalf.small" horiz-adv-x="1347" 
d="M293 528v635l16 8v-643h-16zM819 475h-14q0 71 58.5 125.5t137.5 54.5q85 0 139 -49t54 -131q0 -16 -3 -31.5t-6 -28.5t-11.5 -29.5t-13.5 -26.5t-16.5 -26.5t-17 -23.5t-20 -23.5t-18.5 -21t-19.5 -21t-17.5 -18.5l-203 -211h348v-14h-379v4l215 223q2 2 17.5 18
t20 20.5t19 20.5t20 23.5t17.5 23.5t17.5 26.5t13.5 26t11.5 29t6.5 29t3 31.5q0 75 -49.5 119.5t-127.5 44.5q-73 0 -127.5 -49.5t-54.5 -114.5zM1063 1202l-852 -1202h-21l852 1202h21z" />
    <glyph glyph-name="threequarters.small" horiz-adv-x="1349" 
d="M319 508q-42 0 -82.5 14.5t-57.5 25.5t-23 17l8 8q10 -8 26.5 -18t53.5 -21.5t75 -11.5q81 0 136 50.5t55 134.5q0 73 -48.5 116t-115.5 43q-40 0 -88 -12l-4 6q80 50 118 87q91 86 122 200h-318v14h336v-6q-7 -29 -18 -55.5t-22.5 -48t-25.5 -42t-27 -35.5t-28 -29.5
t-26 -24t-24 -18.5t-20 -13.5t-15 -9.5l-9 -5q21 7 49 7q73 0 126.5 -47t53.5 -125q0 -91 -60.5 -146t-146.5 -55zM1159 1202l-852 -1202h-20l852 1202h20zM1126 217h119v-16h-119v-201h-16v201h-322l-6 14l332 426h12v-424zM803 217h307v395z" />
    <glyph glyph-name="zero.oprpsmall" horiz-adv-x="948" 
d="M848 338q0 -149 -109.5 -251.5t-265.5 -102.5q-155 0 -264 103t-109 251t109 250t264 102q156 0 265.5 -102t109.5 -250zM827 338q0 140 -103.5 238t-250.5 98t-249.5 -97.5t-102.5 -238.5t103 -239.5t249 -98.5q147 0 250.5 98.5t103.5 239.5z" />
    <glyph glyph-name="one.oprpsmall" horiz-adv-x="421" 
d="M221 0h-20v674h20v-674z" />
    <glyph glyph-name="two.oprpsmall" horiz-adv-x="671" 
d="M94 6l295 254q2 2 18 15t25.5 22t26.5 26t27.5 33t22.5 36.5t17.5 43t5.5 45.5q0 78 -59.5 134.5t-142.5 56.5q-85 0 -148 -61.5t-63 -147.5h-17q0 93 67.5 160t160.5 67q91 0 157 -61t66 -148q0 -22 -5 -44t-12 -39t-20 -36t-22.5 -31t-26 -28t-24 -23t-24 -20.5
t-18.5 -15.5l-264 -224h406v-20h-449v6z" />
    <glyph glyph-name="three.oprpsmall" horiz-adv-x="663" 
d="M72 -104l10 10q91 -68 201 -68q101 0 171 67t70 177q0 95 -63.5 151t-153.5 56q-59 0 -106 -19l-6 11q254 140 309 374h-408v19h430v-10q-15 -71 -50 -134.5t-66 -100t-76.5 -72t-56.5 -42t-33 -18.5q50 10 69 10q94 0 163 -61t69 -164q0 -119 -77 -190.5t-187 -71.5
q-108 0 -209 76z" />
    <glyph glyph-name="four.oprpsmall" horiz-adv-x="673" 
d="M31 115l418 559h16v-549h170v-19h-170v-270h-21v270h-411zM444 637l-383 -512h383v512z" />
    <glyph glyph-name="five.oprpsmall" horiz-adv-x="663" 
d="M47 -84l10 10q113 -88 228 -88q98 0 168.5 68.5t70.5 181.5q0 110 -71 177t-172 67q-70 0 -138 -29l-4 2l27 369h356v-19h-340l-24 -331q64 24 127 24q110 0 185 -71t75 -189q0 -119 -76.5 -193.5t-183.5 -74.5q-126 0 -238 96z" />
    <glyph glyph-name="six.oprpsmall" horiz-adv-x="782" 
d="M664 831q-94 -6 -186 -45.5t-171.5 -112.5t-122.5 -167q88 43 176 43q119 0 205 -79.5t86 -203.5q0 -120 -75.5 -201t-180.5 -81q-128 0 -202 92t-74 223q0 96 32.5 182.5t87.5 150t125.5 111.5t147 74t152.5 31v-17zM360 532q-93 0 -184 -47q-37 -99 -37 -186
q0 -124 68.5 -210.5t187.5 -86.5q96 0 166 76.5t70 187.5q0 116 -80.5 191t-190.5 75z" />
    <glyph glyph-name="seven.oprpsmall" horiz-adv-x="624" 
d="M184 -164h-22l377 819h-504v19h526l4 -6z" />
    <glyph glyph-name="eight.oprpsmall" horiz-adv-x="692" 
d="M346 -16q-98 0 -162.5 63.5t-64.5 153.5q0 42 20 81.5t43.5 64t60 48.5t51 31t34.5 16q-12 5 -25.5 11t-47.5 27t-58.5 44.5t-45 62t-20.5 79.5q0 81 61 134.5t154 53.5t154 -53.5t61 -134.5q0 -49 -27 -93t-65.5 -71.5t-64 -41t-39.5 -18.5q161 -78 197 -180
q11 -30 11 -61q0 -90 -64.5 -153.5t-162.5 -63.5zM346 432q-16 -7 -33 -15t-51.5 -30t-59 -46.5t-44 -62t-19.5 -77.5q0 -81 60 -140t147 -59t147 59t60 140q0 40 -19.5 77.5t-44 62t-59 46.5t-51.5 30t-33 15zM346 838q-83 0 -139.5 -50t-56.5 -122q0 -128 196 -215
q180 80 196 194q1 11 1 21q0 72 -57 122t-140 50z" />
    <glyph glyph-name="nine.oprpsmall" horiz-adv-x="782" 
d="M119 -158q145 9 280 97t199 229q-88 -43 -176 -43q-119 0 -205 79.5t-86 203.5q0 120 75.5 201t180.5 81q128 0 202.5 -92t74.5 -223q0 -96 -32.5 -182.5t-87.5 -150t-125.5 -111.5t-147 -74t-152.5 -31v16zM422 141q93 0 184 47q37 99 37 187q0 124 -68.5 211.5
t-187.5 87.5q-96 0 -165.5 -77.5t-69.5 -188.5q0 -116 80 -191.5t190 -75.5z" />
    <glyph glyph-name="zero.nfra" horiz-adv-x="641" 
d="M530 844q0 -85 -24 -160t-72.5 -124.5t-111.5 -49.5t-112 49.5t-74 124.5t-25 160q0 133 58.5 233.5t152.5 100.5q63 0 111.5 -49t72.5 -124t24 -161zM516 844q0 128 -53.5 224.5t-140.5 96.5q-88 0 -141.5 -96t-53.5 -225q0 -82 22.5 -154.5t68 -120t104.5 -47.5
q58 0 103.5 47.5t68 120t22.5 154.5z" />
    <glyph glyph-name="one.nfra" horiz-adv-x="346" 
d="M180 526h-14v631l14 10v-641z" />
    <glyph glyph-name="two.nfra" horiz-adv-x="575" 
d="M465 526h-363v4l213 234q26 28 35.5 39t32.5 41.5t33.5 51t20 50.5t9.5 58q0 72 -47.5 115.5t-122.5 43.5q-70 0 -120 -48.5t-52 -113.5h-12q0 70 53.5 122.5t130.5 52.5q83 0 135 -47t52 -125q0 -36 -11.5 -70.5t-35.5 -69t-42.5 -56.5t-49.5 -56l-197 -211h338v-15z
" />
    <glyph glyph-name="three.nfra" horiz-adv-x="536" 
d="M66 571l8 9q10 -8 26.5 -18t52.5 -22t72 -12q77 0 131 51t54 134q0 72 -48.5 114.5t-117.5 42.5q-52 0 -80 -14l-4 8q192 105 233 285h-309v14h328v-8q0 -35 -9 -67.5t-22.5 -57t-33 -47t-37.5 -37.5t-38.5 -29t-34.5 -21t-27 -13l-13 -6q32 8 53 8q71 0 123.5 -47
t52.5 -125q0 -90 -59 -144.5t-142 -54.5q-16 0 -32.5 2.5t-29.5 6t-26 8.5t-23 10t-19 10.5t-14 9t-10 7.5z" />
    <glyph glyph-name="four.nfra" horiz-adv-x="552" 
d="M47 737l318 426h12v-418h129v-14h-129v-205h-17v205h-311zM360 1135l-290 -390h290v390z" />
    <glyph glyph-name="five.nfra" horiz-adv-x="536" 
d="M47 588l8 6q1 -1 7.5 -6t12 -9t16 -10.5t20.5 -11.5t24 -10.5t27.5 -9.5t30.5 -6.5t34 -2.5q74 0 128.5 52.5t54.5 136.5t-54.5 135t-130.5 51q-32 0 -62.5 -8t-41.5 -14l-4 2l20 280h271v-14h-258l-19 -252q54 18 96 18q85 0 142 -53.5t57 -144.5q0 -89 -59 -146
t-140 -57q-45 0 -89 18t-62 31.5t-29 24.5z" />
    <glyph glyph-name="six.nfra" horiz-adv-x="614" 
d="M504 1171v-12q-124 -15 -222 -92t-135 -186q52 39 142 39q96 0 152.5 -59t56.5 -148q0 -78 -50.5 -138.5t-130.5 -60.5q-99 0 -152.5 71.5t-53.5 182.5q0 149 115 266.5t278 136.5zM141 862q-14 -43 -14 -94q0 -104 50 -172t140 -68q73 0 119.5 56t46.5 129q0 82 -53 137
t-141 55q-83 0 -148 -43z" />
    <glyph glyph-name="seven.nfra" horiz-adv-x="516" 
d="M160 526h-17l287 623h-383v14h399l5 -4z" />
    <glyph glyph-name="eight.nfra" horiz-adv-x="567" 
d="M283 1163q-63 0 -106.5 -38t-43.5 -93q0 -17 4.5 -33t13 -29t18.5 -25t22.5 -22t23.5 -18t23.5 -15t20.5 -11t16 -7l8 -4q149 64 149 164q0 55 -43 93t-106 38zM283 514q-74 0 -123 48.5t-49 115.5q0 32 14.5 62t33.5 49.5t44.5 36.5t40 24t26.5 12l-6 2q-6 3 -12.5 6
t-17 9t-20.5 12t-21.5 15t-21.5 18.5t-19.5 21.5t-16 25t-10.5 29t-4 32q0 61 46.5 102.5t115.5 41.5q70 0 116.5 -41t46.5 -103q0 -16 -4 -32t-10.5 -29t-16 -25t-19.5 -21.5t-21.5 -18.5t-21.5 -15t-20.5 -12t-17 -9t-12.5 -6l-6 -2q12 -5 26.5 -12t40 -24t45 -36.5
t34 -49.5t14.5 -62q0 -67 -49.5 -115.5t-124.5 -48.5zM283 854q-12 -5 -24.5 -11t-38.5 -22.5t-44.5 -35t-33.5 -47.5t-15 -60q0 -61 45.5 -105.5t110.5 -44.5q66 0 111.5 44.5t45.5 105.5q0 38 -20.5 72t-50.5 55.5t-50.5 32.5t-35.5 16z" />
    <glyph glyph-name="nine.nfra" horiz-adv-x="614" 
d="M111 518v12q123 13 221 91.5t135 187.5q-52 -39 -143 -39q-95 0 -152 58.5t-57 148.5q0 78 51 138.5t131 60.5q98 0 152.5 -72t54.5 -182q0 -149 -115 -267t-278 -137zM473 827q14 43 14 95q0 104 -50 171.5t-140 67.5q-73 0 -119.5 -56t-46.5 -128q0 -82 53 -138.5
t140 -56.5q74 0 149 45z" />
    <glyph glyph-name="zero.dfra" horiz-adv-x="641" 
d="M530 317q0 -85 -24 -160t-72.5 -124t-111.5 -49t-112 49t-74 124t-25 160q0 133 58.5 233.5t152.5 100.5q63 0 111.5 -49t72.5 -124t24 -161zM516 317q0 82 -22.5 155t-68 120t-103.5 47q-88 0 -141.5 -96.5t-53.5 -225.5q0 -82 22.5 -154t68 -119.5t104.5 -47.5
q58 0 103.5 47.5t68 119.5t22.5 154z" />
    <glyph glyph-name="one.dfra" horiz-adv-x="346" 
d="M180 0h-14v631l14 10v-641z" />
    <glyph glyph-name="two.dfra" horiz-adv-x="575" 
d="M465 0h-363v4l213 234q32 36 45 51t38.5 51t36.5 69t11 68q0 72 -47.5 116t-122.5 44q-70 0 -120 -48.5t-52 -113.5h-12q0 70 53.5 122t130.5 52q83 0 135 -47t52 -125q0 -36 -11.5 -70.5t-35.5 -69t-42.5 -56.5t-49.5 -56l-197 -211h338v-14z" />
    <glyph glyph-name="three.dfra" horiz-adv-x="536" 
d="M66 45l8 8q10 -8 26.5 -18t52.5 -21.5t72 -11.5q77 0 131 50.5t54 133.5q0 72 -48.5 115t-117.5 43q-52 0 -80 -14l-4 8q192 105 233 285h-309v14h328v-8q0 -35 -9 -67.5t-22.5 -57t-33 -47t-37.5 -38t-39 -29t-34.5 -21t-26.5 -13.5l-13 -6q32 8 53 8q71 0 123.5 -47
t52.5 -125q0 -90 -59 -144t-142 -54q-16 0 -32.5 2.5t-29.5 6t-26 8.5t-23 10t-19 10.5t-14 9t-10 7.5z" />
    <glyph glyph-name="four.dfra" horiz-adv-x="552" 
d="M47 211l318 426h12v-418h129v-14h-129v-205h-17v205h-311zM360 608l-290 -389h290v389z" />
    <glyph glyph-name="five.dfra" horiz-adv-x="536" 
d="M47 61l8 7q1 -1 7.5 -6t12 -9t16 -10.5t20.5 -11.5t24 -10.5t27.5 -9.5t30.5 -6.5t34 -2.5q74 0 128.5 52t54.5 136t-54.5 135.5t-130.5 51.5q-32 0 -62.5 -8t-41.5 -15l-4 2l20 281h271v-14h-258l-19 -252q54 18 96 18q85 0 142 -54t57 -145q0 -89 -59 -145.5
t-140 -56.5q-45 0 -89 17.5t-62 31t-29 24.5z" />
    <glyph glyph-name="six.dfra" horiz-adv-x="614" 
d="M504 645v-12q-124 -15 -222 -92.5t-135 -186.5q52 39 142 39q96 0 152.5 -59t56.5 -148q0 -78 -50.5 -138t-130.5 -60q-99 0 -152.5 71.5t-53.5 182.5q0 149 115 266.5t278 136.5zM141 336q-14 -43 -14 -94q0 -104 50 -172t140 -68q73 0 119.5 55.5t46.5 128.5
q0 82 -53 137.5t-141 55.5q-83 0 -148 -43z" />
    <glyph glyph-name="seven.dfra" horiz-adv-x="516" 
d="M160 0h-17l287 623h-383v14h399l5 -4z" />
    <glyph glyph-name="eight.dfra" horiz-adv-x="567" 
d="M283 637q-63 0 -106.5 -38t-43.5 -93q0 -17 4.5 -33t13 -29t18.5 -25t22.5 -22t23.5 -18t23.5 -15t20.5 -11t16 -7l8 -4q149 64 149 164q0 55 -43 93t-106 38zM283 -12q-74 0 -123 48.5t-49 115.5q0 32 14.5 62t33.5 49.5t44.5 36.5t40 24t26.5 12l-6 2q-6 3 -12.5 6
t-17 9t-20.5 12t-21.5 15t-21.5 18.5t-19.5 21.5t-16 25t-10.5 29t-4 32q0 61 46.5 102t115.5 41q70 0 116.5 -40.5t46.5 -102.5q0 -16 -4 -32t-10.5 -29t-16 -25t-19.5 -21.5t-21.5 -18.5t-21.5 -15t-20.5 -12t-17 -9t-12.5 -6l-6 -2q12 -5 26.5 -12t40 -24t45 -36.5
t34 -49.5t14.5 -62q0 -67 -49.5 -115.5t-124.5 -48.5zM283 328q-12 -5 -24.5 -11t-38.5 -22.5t-44.5 -35t-33.5 -47.5t-15 -60q0 -61 45.5 -105.5t110.5 -44.5q66 0 111.5 44.5t45.5 105.5q0 38 -20.5 72t-50.5 55.5t-50.5 32.5t-35.5 16z" />
    <glyph glyph-name="nine.dfra" horiz-adv-x="614" 
d="M111 -8v12q123 13 221 91.5t135 187.5q-52 -39 -143 -39q-95 0 -152 58.5t-57 148.5q0 78 51 138t131 60q98 0 152.5 -72t54.5 -182q0 -149 -115 -266.5t-278 -136.5zM473 301q14 43 14 94q0 104 -50 172t-140 68q-73 0 -119.5 -56t-46.5 -128q0 -82 53 -138.5t140 -56.5
q74 0 149 45z" />
    <glyph glyph-name="A.alt" horiz-adv-x="892" 
d="M23 0l413 1163h21l413 -1163h-847zM438 1112l-387 -1096h791l-387 1096l-9 29z" />
    <glyph glyph-name="J.alt" horiz-adv-x="372" 
d="M197 1163v-1689h-21v1689h21z" />
    <glyph glyph-name="K.alt" horiz-adv-x="1028" 
d="M915 1163h29l-706 -585l587 -521q60 -53 107 -53q29 0 47 10t37 33l12 -10q-40 -53 -96 -53q-55 0 -121 59l-602 535zM197 1163v-1163h-21v1163h21z" />
    <glyph glyph-name="M.alt" horiz-adv-x="1683" 
d="M850 0v856q0 156 -76 240t-215 84q-63 0 -125 -22.5t-110.5 -59t-76 -62t-50.5 -51.5v-985h-21v1163h21v-151q22 25 50.5 49.5t76.5 59t110 56t125 21.5q104 0 176.5 -45t106.5 -131q176 176 354 176q149 0 230 -88t81 -254v-856h-20v856q0 156 -76 240t-215 84
q-57 0 -113.5 -18.5t-101.5 -48t-76 -56t-55 -53.5q20 -68 20 -148v-856h-20z" />
    <glyph glyph-name="N.alt" horiz-adv-x="1146" 
d="M197 952v-952h-21v1163h21v-184q204 219 424 219q167 0 258.5 -99t91.5 -286v-813h-21v813q0 178 -85.5 272.5t-243.5 94.5q-210 0 -417 -221z" />
    <glyph glyph-name="O.alt" horiz-adv-x="1150" 
d="M610 582l-35 -35l-34 35l34 34zM975 0h-799v1163h799v-1163zM197 18h757v1127h-757v-1127z" />
    <glyph glyph-name="P.alt" horiz-adv-x="913" 
d="M762 510h-565v-510h-21v1163h586v-653zM741 526v619h-544v-619h544z" />
    <glyph glyph-name="R.alt" horiz-adv-x="905" 
d="M752 479h-308l285 -407q23 -35 46.5 -51.5t55.5 -16.5q28 0 46 11t38 34l13 -12q-39 -53 -97 -53q-41 0 -67 19t-53 58l-291 418h-223v-479h-21v1163h576v-684zM731 496v649h-534v-649h534z" />
    <glyph glyph-name="S.alt" horiz-adv-x="858" 
d="M760 160l-688 835q79 92 192.5 141.5t241.5 49.5q58 0 117.5 -13.5t87 -24.5t43.5 -20v-20q-16 9 -43.5 20.5t-86.5 25t-116 13.5q-119 0 -226.5 -44.5t-183.5 -127.5l688 -835q-83 -87 -196 -135t-242 -48q-37 0 -73.5 5t-66 14t-51 16.5t-40 15.5t-21.5 9v20
q124 -61 250 -61q120 0 227.5 43t186.5 121z" />
    <glyph glyph-name="T.alt" horiz-adv-x="942" 
d="M461 616v547h20v-547h426v-18h-426v-598h-20v598h-426v18h426z" />
    <glyph glyph-name="U.alt" horiz-adv-x="1110" 
d="M934 1163v-1163h-21v195l-737 -230v1198h21v-1173l716 223v950h21z" />
    <glyph glyph-name="Y.alt" horiz-adv-x="843" 
d="M811 1163h23l-586 -1163h-23l217 430l-419 733h22l408 -710z" />
    <glyph glyph-name="Oslash.alt" horiz-adv-x="1150" 
d="M319 -193l-12 5l64 188h-195v1163h588l65 193l13 -4l-64 -189h197v-1163h-590zM954 1145h-182l-381 -1127h563v1127zM197 18h180l381 1127h-561v-1127z" />
    <glyph glyph-name="AE.alt" horiz-adv-x="1368" 
d="M0 0l657 1163h584v-18h-555v-567h432v-19h-432v-541h582v-18h-1268zM666 18v1127l-635 -1127h635z" />
    <glyph glyph-name="OE.alt" horiz-adv-x="1656" 
d="M1556 0h-1380v1163h1354v-18h-555v-549h432v-16h-432v-562h581v-18zM610 582l-35 -35l-34 35l34 34zM197 18h757v1127h-757v-1127z" />
    <glyph glyph-name="a.alt" horiz-adv-x="856" 
d="M82 362q0 157 107.5 267t265.5 110q73 0 140 -24.5t112 -63.5l2 72h16v-723h-16l-2 80q-45 -42 -113 -69t-143 -27q-154 0 -261.5 110t-107.5 268zM707 102v525q-45 42 -112 69t-140 27q-150 0 -251.5 -105.5t-101.5 -255.5t101 -255t248 -105q75 0 143 28t113 72z" />
    <glyph glyph-name="b.alt" horiz-adv-x="860" 
d="M106 1294h19v-661q37 37 115 71.5t166 34.5q161 0 266.5 -104.5t105.5 -274.5q0 -168 -103.5 -272t-248.5 -104q-131 0 -225.5 92t-94.5 225v993zM125 610v-309q0 -126 89 -212.5t212 -86.5q137 0 234.5 99.5t97.5 258.5q0 163 -99 263t-253 100q-78 0 -151.5 -30
t-129.5 -83z" />
    <glyph glyph-name="d.alt" horiz-adv-x="860" 
d="M735 1294h19v-993q0 -133 -94.5 -225t-225.5 -92q-145 0 -248.5 104t-103.5 272q0 170 106 274.5t267 104.5q88 0 165.5 -34.5t114.5 -71.5v661zM735 610q-119 113 -280 113q-154 0 -253.5 -100.5t-99.5 -262.5q0 -159 97.5 -258.5t234.5 -99.5q123 0 212 86.5t89 212.5
v309z" />
    <glyph glyph-name="e.alt" horiz-adv-x="806" 
d="M426 721q-133 0 -228.5 -105t-95.5 -256q0 -33 7 -73l591 153q-8 120 -82 200.5t-192 80.5zM426 739q130 0 211 -89t84 -222l-608 -158q28 -119 118 -193.5t211 -74.5q138 0 258 72v-21q-115 -69 -258 -69q-154 0 -257 108t-103 268t101.5 269.5t242.5 109.5z" />
    <glyph glyph-name="f.alt" horiz-adv-x="405" 
d="M358 1317q103 0 181 -78l-13 -10q-71 71 -166 71q-81 0 -132.5 -56.5t-51.5 -164.5v-356h203l-4 -16h-199v-707h-18v707h-127l6 16h121v356q0 113 56 175.5t144 62.5z" />
    <glyph glyph-name="g.alt" horiz-adv-x="825" 
d="M428 -567h-18v610q-141 3 -239.5 105t-98.5 243q0 143 102 245.5t246 102.5q131 0 229 -88l56 72h151v-16h-143l-51 -66q50 -48 78 -113.5t28 -136.5q0 -141 -100 -243t-240 -105v-610zM420 59q135 0 231.5 97.5t96.5 234.5t-96.5 234.5t-231.5 97.5t-231.5 -97.5
t-96.5 -234.5t96.5 -234.5t231.5 -97.5z" />
    <glyph glyph-name="h.alt" horiz-adv-x="782" 
d="M131 1294h19v-571h501v-723h-18v707h-483v-707h-19v1294z" />
    <glyph glyph-name="i.alt" horiz-adv-x="321" 
d="M195 956l-68 -34l35 69zM170 0h-18v723h18v-723z" />
    <glyph glyph-name="j.alt" horiz-adv-x="321" 
d="M195 956l-68 -34l35 69zM170 -567h-18v1290h18v-1290z" />
    <glyph glyph-name="k.alt" horiz-adv-x="669" 
d="M610 723h29l-473 -377l305 -285q58 -55 104 -55q13 0 24.5 3t19.5 7t15.5 10t11.5 10l8 8l3 5l13 -10q-38 -51 -95 -51q-56 0 -118 59l-307 289v-336h-19v1294h19v-940z" />
    <glyph glyph-name="l.alt" horiz-adv-x="280" 
d="M150 0h-19v1294h19v-1294z" />
    <glyph glyph-name="n.alt" horiz-adv-x="800" 
d="M670 0h-19v707h-501v-707h-19v723h539v-723z" />
    <glyph glyph-name="o.alt" horiz-adv-x="825" 
d="M694 0h-563v723h563v-723zM676 16v691h-526v-691h526z" />
    <glyph glyph-name="p.alt" horiz-adv-x="860" 
d="M125 -567h-19v989q0 133 94.5 225t225.5 92q145 0 248.5 -104.5t103.5 -272.5q0 -170 -105.5 -274t-266.5 -104q-88 0 -166 34.5t-115 71.5v-657zM125 113q56 -53 129.5 -83t151.5 -30q154 0 253 100t99 262q0 159 -97.5 259t-234.5 100q-123 0 -212 -86.5t-89 -212.5
v-309z" />
    <glyph glyph-name="q.alt" horiz-adv-x="860" 
d="M754 -567h-19v657q-37 -37 -114.5 -71.5t-165.5 -34.5q-161 0 -267 104t-106 274q0 168 103.5 272.5t248.5 104.5q131 0 225.5 -92t94.5 -225v-989zM735 113v309q0 126 -89 212.5t-212 86.5q-137 0 -234.5 -100t-97.5 -259q0 -162 99.5 -262t253.5 -100q161 0 280 113z
" />
    <glyph glyph-name="s.alt" horiz-adv-x="589" 
d="M510 700v-16q-78 39 -162 39q-74 0 -142 -30.5t-116 -82.5l436 -495q-112 -131 -280 -131q-20 0 -41 3t-36.5 6.5t-32 9t-25 9t-19.5 8.5l-10 5v18q86 -43 164 -43q74 0 141 30.5t115 84.5l-436 495q117 129 282 129q84 0 162 -39z" />
    <glyph glyph-name="t.alt" horiz-adv-x="346" 
d="M182 0h-18v977h-189l5 16h184v301h18v-301h160l-4 -16h-156v-977z" />
    <glyph glyph-name="u.alt" horiz-adv-x="782" 
d="M633 723h18v-723h-520v723h19v-707h483v707z" />
    <glyph glyph-name="y.alt" horiz-adv-x="577" 
d="M289 25l260 698h18l-268 -723l-213 -567h-18l211 567l-269 723h19z" />
    <glyph glyph-name="oslash.alt" horiz-adv-x="825" 
d="M694 0h-391l-59 -193l-13 5l60 188h-160v723h387l62 192l12 -4l-60 -188h162v-723zM676 16v691h-150l-217 -691h367zM150 707v-691h145l219 691h-364z" />
    <glyph glyph-name="ae.alt" horiz-adv-x="1243" 
d="M862 739q130 0 211 -89t84 -222l-608 -158q28 -119 118.5 -193.5t211.5 -74.5q138 0 258 72v-21q-115 -69 -258 -69q-92 0 -170.5 42.5t-126.5 116.5q-9 -14 -20.5 -28.5t-37 -39t-54.5 -42.5t-72.5 -31.5t-90.5 -13.5q-100 0 -167.5 62t-67.5 165q0 112 83.5 178
t223.5 80l143 14v220h-397l4 16h412l-2 -252q31 119 119.5 193.5t203.5 74.5zM522 360v111l-141 -14q-135 -14 -213 -76.5t-78 -165.5q0 -96 62 -153.5t155 -57.5q55 0 103.5 18t81.5 46.5t51 49t30 40.5q-51 90 -51 202zM862 721q-133 0 -228 -105t-95 -256q0 -38 6 -73
l592 153q-8 120 -82.5 200.5t-192.5 80.5z" />
    <glyph glyph-name="oe.alt" horiz-adv-x="1396" 
d="M694 0h-563v723h563l-2 -242q34 113 124 185.5t200 72.5q130 0 211 -89t84 -222l-609 -158q28 -119 118.5 -193.5t211.5 -74.5q138 0 258 72v-21q-115 -69 -258 -69q-122 0 -214 70t-126 184zM1016 721q-133 0 -228.5 -105t-95.5 -256q0 -38 6 -73l592 153
q-8 120 -82 200.5t-192 80.5zM676 16v691h-526v-691h526z" />
    <glyph glyph-name="Aacute.alt" horiz-adv-x="892" 
d="M457 1270h-17l187 379h18zM23 0l413 1163h21l413 -1163h-847zM438 1112l-387 -1096h791l-387 1096l-9 29z" />
    <glyph glyph-name="Acircumflex.alt" horiz-adv-x="892" 
d="M453 1647l204 -377h-16l-195 358l-194 -358h-16l204 377h13zM23 0l413 1163h21l413 -1163h-847zM438 1112l-387 -1096h791l-387 1096l-9 29z" />
    <glyph glyph-name="Adieresis.alt" horiz-adv-x="892" 
d="M23 0l413 1163h21l413 -1163h-847zM438 1112l-387 -1096h791l-387 1096l-9 29zM352 1399l29 -29l-29 -29l-28 29zM510 1370l29 29l28 -29l-28 -29z" />
    <glyph glyph-name="Agrave.alt" horiz-adv-x="892" 
d="M453 1270h-17l-188 379h18zM23 0l413 1163h21l413 -1163h-847zM438 1112l-387 -1096h791l-387 1096l-9 29z" />
    <glyph glyph-name="Aring.alt" horiz-adv-x="892" 
d="M23 0l413 1163h21l413 -1163h-847zM438 1112l-387 -1096h791l-387 1096l-9 29zM602 1423q0 -65 -44 -109t-109 -44t-108.5 43.5t-43.5 109.5q0 65 44 109.5t108 44.5t108.5 -44.5t44.5 -109.5zM584 1423q0 59 -38.5 99.5t-96.5 40.5t-96 -40.5t-38 -99.5q0 -60 38 -99.5
t96 -39.5t96.5 40t38.5 99z" />
    <glyph glyph-name="Atilde.alt" horiz-adv-x="892" 
d="M209 1321h-16q3 79 33 121.5t85 42.5q9 0 18.5 -1.5t16.5 -2.5t16 -5.5t14 -6.5t14.5 -8.5t13 -8.5t13 -10.5t11.5 -10t13 -11.5t12 -11q56 -51 81 -63q24 -11 48 -11q96 0 102 148h16q-3 -79 -33 -121.5t-85 -42.5q-9 0 -18.5 1.5t-16.5 2.5t-16 5.5t-14 6.5t-15 9
t-13 8.5t-13.5 10.5t-12 10.5t-13 12t-12.5 11.5q-4 3 -14.5 12.5t-14.5 13.5t-13.5 12t-15 11t-15 8.5t-17 7.5t-17.5 4t-20 2q-96 0 -102 -147zM23 0l413 1163h21l413 -1163h-847zM438 1112l-387 -1096h791l-387 1096l-9 29z" />
    <glyph glyph-name="Ntilde.alt" horiz-adv-x="1146" 
d="M338 1321h-16q3 79 33 121.5t85 42.5q9 0 18.5 -1.5t16.5 -2.5t16 -5.5t14 -6.5t14.5 -8.5t13 -8.5t13 -10.5t11.5 -10t13 -11.5t12 -11q56 -51 81 -63q24 -11 48 -11q96 0 102 148h16q-3 -79 -33 -121.5t-85 -42.5q-9 0 -18.5 1.5t-16.5 2.5t-16 5.5t-14 6.5t-15 9
t-13 8.5t-13.5 10.5t-12 10.5t-13 12t-12.5 11.5q-4 3 -14.5 12.5t-14.5 13.5t-13.5 12t-15 11t-15 8.5t-17 7.5t-17.5 4t-20 2q-96 0 -102 -147zM197 952v-952h-21v1163h21v-184q204 219 424 219q167 0 258.5 -99t91.5 -286v-813h-21v813q0 178 -85.5 272.5t-243.5 94.5
q-210 0 -417 -221z" />
    <glyph glyph-name="Oacute.alt" horiz-adv-x="1150" 
d="M586 1270h-17l187 379h18zM610 582l-35 -35l-34 35l34 34zM975 0h-799v1163h799v-1163zM197 18h757v1127h-757v-1127z" />
    <glyph glyph-name="Ocircumflex.alt" horiz-adv-x="1150" 
d="M582 1647l204 -377h-16l-195 358l-194 -358h-16l204 377h13zM610 582l-35 -35l-34 35l34 34zM975 0h-799v1163h799v-1163zM197 18h757v1127h-757v-1127z" />
    <glyph glyph-name="Odieresis.alt" horiz-adv-x="1150" 
d="M610 582l-35 -35l-34 35l34 34zM975 0h-799v1163h799v-1163zM197 18h757v1127h-757v-1127zM481 1399l29 -29l-29 -29l-28 29zM639 1370l29 29l28 -29l-28 -29z" />
    <glyph glyph-name="Ograve.alt" horiz-adv-x="1150" 
d="M582 1270h-17l-188 379h18zM610 582l-35 -35l-34 35l34 34zM975 0h-799v1163h799v-1163zM197 18h757v1127h-757v-1127z" />
    <glyph glyph-name="Otilde.alt" horiz-adv-x="1150" 
d="M338 1321h-16q3 79 33 121.5t85 42.5q9 0 18.5 -1.5t16.5 -2.5t16 -5.5t14 -6.5t14.5 -8.5t13 -8.5t13 -10.5t11.5 -10t13 -11.5t12 -11q56 -51 81 -63q24 -11 48 -11q96 0 102 148h16q-3 -79 -33 -121.5t-85 -42.5q-9 0 -18.5 1.5t-16.5 2.5t-16 5.5t-14 6.5t-15 9
t-13 8.5t-13.5 10.5t-12 10.5t-13 12t-12.5 11.5q-4 3 -14.5 12.5t-14.5 13.5t-13.5 12t-15 11t-15 8.5t-17 7.5t-17.5 4t-20 2q-96 0 -102 -147zM610 582l-35 -35l-34 35l34 34zM975 0h-799v1163h799v-1163zM197 18h757v1127h-757v-1127z" />
    <glyph glyph-name="Scaron.alt" horiz-adv-x="858" 
d="M639 1649l-205 -377h-12l-205 377h16l195 -359l195 359h16zM760 160l-688 835q79 92 192.5 141.5t241.5 49.5q58 0 117.5 -13.5t87 -24.5t43.5 -20v-20q-16 9 -43.5 20.5t-86.5 25t-116 13.5q-119 0 -226.5 -44.5t-183.5 -127.5l688 -835q-83 -87 -196 -135t-242 -48
q-37 0 -73.5 5t-66 14t-51 16.5t-40 15.5t-21.5 9v20q124 -61 250 -61q120 0 227.5 43t186.5 121z" />
    <glyph glyph-name="Thorn.alt" horiz-adv-x="833" 
d="M762 274h-565v-274h-21v1163h21v-235h565v-654zM741 291v618h-544v-618h544z" />
    <glyph glyph-name="Uacute.alt" horiz-adv-x="1110" 
d="M559 1270h-16l186 379h19zM934 1163v-1163h-21v195l-737 -230v1198h21v-1173l716 223v950h21z" />
    <glyph glyph-name="Ucircumflex.alt" horiz-adv-x="1110" 
d="M559 1647l205 -377h-16l-195 358l-195 -358h-16l205 377h12zM934 1163v-1163h-21v195l-737 -230v1198h21v-1173l716 223v950h21z" />
    <glyph glyph-name="Udieresis.alt" horiz-adv-x="1110" 
d="M934 1163v-1163h-21v195l-737 -230v1198h21v-1173l716 223v950h21zM463 1399l29 -29l-29 -29l-29 29zM621 1370l28 29l29 -29l-29 -29z" />
    <glyph glyph-name="Ugrave.alt" horiz-adv-x="1110" 
d="M559 1270h-16l-189 379h19zM934 1163v-1163h-21v195l-737 -230v1198h21v-1173l716 223v950h21z" />
    <glyph glyph-name="Yacute.alt" horiz-adv-x="843" 
d="M442 1270h-16l186 379h19zM811 1163h23l-586 -1163h-23l217 430l-419 733h22l408 -710z" />
    <glyph glyph-name="Ydieresis.alt" horiz-adv-x="843" 
d="M811 1163h23l-586 -1163h-23l217 430l-419 733h22l408 -710zM334 1399l28 -29l-28 -29l-29 29zM492 1370l28 29l29 -29l-29 -29z" />
    <glyph glyph-name="aacute.alt" horiz-adv-x="856" 
d="M82 362q0 157 107.5 267t265.5 110q73 0 140 -24.5t112 -63.5l2 72h16v-723h-16l-2 80q-45 -42 -113 -69t-143 -27q-154 0 -261.5 110t-107.5 268zM707 102v525q-45 42 -112 69t-140 27q-150 0 -251.5 -105.5t-101.5 -255.5t101 -255t248 -105q75 0 143 28t113 72z
M444 803h-16l186 379h19z" />
    <glyph glyph-name="acircumflex.alt" horiz-adv-x="856" 
d="M82 362q0 157 107.5 267t265.5 110q73 0 140 -24.5t112 -63.5l2 72h16v-723h-16l-2 80q-45 -42 -113 -69t-143 -27q-154 0 -261.5 110t-107.5 268zM707 102v525q-45 42 -112 69t-140 27q-150 0 -251.5 -105.5t-101.5 -255.5t101 -255t248 -105q75 0 143 28t113 72z
M471 1180l205 -377h-17l-194 358l-195 -358h-16l205 377h12z" />
    <glyph glyph-name="adieresis.alt" horiz-adv-x="856" 
d="M82 362q0 157 107.5 267t265.5 110q73 0 140 -24.5t112 -63.5l2 72h16v-723h-16l-2 80q-45 -42 -113 -69t-143 -27q-154 0 -261.5 110t-107.5 268zM707 102v525q-45 42 -112 69t-140 27q-150 0 -251.5 -105.5t-101.5 -255.5t101 -255t248 -105q75 0 143 28t113 72z
M362 932l29 -29l-29 -29l-28 29zM520 903l29 29l29 -29l-29 -29z" />
    <glyph glyph-name="agrave.alt" horiz-adv-x="856" 
d="M82 362q0 157 107.5 267t265.5 110q73 0 140 -24.5t112 -63.5l2 72h16v-723h-16l-2 80q-45 -42 -113 -69t-143 -27q-154 0 -261.5 110t-107.5 268zM707 102v525q-45 42 -112 69t-140 27q-150 0 -251.5 -105.5t-101.5 -255.5t101 -255t248 -105q75 0 143 28t113 72z
M500 803h-17l-188 379h18z" />
    <glyph glyph-name="aring.alt" horiz-adv-x="856" 
d="M82 362q0 157 107.5 267t265.5 110q73 0 140 -24.5t112 -63.5l2 72h16v-723h-16l-2 80q-45 -42 -113 -69t-143 -27q-154 0 -261.5 110t-107.5 268zM707 102v525q-45 42 -112 69t-140 27q-150 0 -251.5 -105.5t-101.5 -255.5t101 -255t248 -105q75 0 143 28t113 72z
M612 956q0 -64 -44 -108.5t-109 -44.5t-108.5 43.5t-43.5 109.5q0 65 44 109.5t108 44.5t108.5 -44.5t44.5 -109.5zM594 956q0 59 -38.5 99.5t-96.5 40.5t-95.5 -40.5t-37.5 -99.5q0 -60 37.5 -99.5t95.5 -39.5t96.5 40t38.5 99z" />
    <glyph glyph-name="atilde.alt" horiz-adv-x="856" 
d="M82 362q0 157 107.5 267t265.5 110q73 0 140 -24.5t112 -63.5l2 72h16v-723h-16l-2 80q-45 -42 -113 -69t-143 -27q-154 0 -261.5 110t-107.5 268zM707 102v525q-45 42 -112 69t-140 27q-150 0 -251.5 -105.5t-101.5 -255.5t101 -255t248 -105q75 0 143 28t113 72z
M223 854h-16q3 79 33.5 121.5t85.5 42.5q10 0 19.5 -1t19 -4.5t16.5 -5.5t16.5 -8.5t14 -9.5t15 -11.5t13.5 -11t14 -12.5t13 -12q56 -51 81 -63q24 -11 48 -11q96 0 102 148h17q-3 -79 -33.5 -121.5t-85.5 -42.5q-10 0 -19.5 1t-19.5 4.5t-16.5 5.5t-16.5 9t-14 9.5
t-15 11.5t-13.5 11t-14.5 13t-14 13q-4 3 -14.5 12.5t-14.5 13.5t-13.5 12t-15 11t-15 8.5t-17 7.5t-17.5 4t-20 2q-97 0 -103 -147z" />
    <glyph glyph-name="eacute.alt" horiz-adv-x="806" 
d="M442 803h-16l186 379h19zM426 721q-133 0 -228.5 -105t-95.5 -256q0 -33 7 -73l591 153q-8 120 -82 200.5t-192 80.5zM426 739q130 0 211 -89t84 -222l-608 -158q28 -119 118 -193.5t211 -74.5q138 0 258 72v-21q-115 -69 -258 -69q-154 0 -257 108t-103 268t101.5 269.5
t242.5 109.5z" />
    <glyph glyph-name="ecircumflex.alt" horiz-adv-x="806" 
d="M438 1180l205 -377h-16l-195 358l-194 -358h-17l205 377h12zM426 721q-133 0 -228.5 -105t-95.5 -256q0 -33 7 -73l591 153q-8 120 -82 200.5t-192 80.5zM426 739q130 0 211 -89t84 -222l-608 -158q28 -119 118 -193.5t211 -74.5q138 0 258 72v-21q-115 -69 -258 -69
q-154 0 -257 108t-103 268t101.5 269.5t242.5 109.5z" />
    <glyph glyph-name="edieresis.alt" horiz-adv-x="806" 
d="M426 721q-133 0 -228.5 -105t-95.5 -256q0 -33 7 -73l591 153q-8 120 -82 200.5t-192 80.5zM426 739q130 0 211 -89t84 -222l-608 -158q28 -119 118 -193.5t211 -74.5q138 0 258 72v-21q-115 -69 -258 -69q-154 0 -257 108t-103 268t101.5 269.5t242.5 109.5zM338 932
l29 -29l-29 -29l-29 29zM496 903l28 29l29 -29l-29 -29z" />
    <glyph glyph-name="egrave.alt" horiz-adv-x="806" 
d="M438 803h-16l-189 379h19zM426 721q-133 0 -228.5 -105t-95.5 -256q0 -33 7 -73l591 153q-8 120 -82 200.5t-192 80.5zM426 739q130 0 211 -89t84 -222l-608 -158q28 -119 118 -193.5t211 -74.5q138 0 258 72v-21q-115 -69 -258 -69q-154 0 -257 108t-103 268
t101.5 269.5t242.5 109.5z" />
    <glyph glyph-name="germandbls.alt" horiz-adv-x="841" 
d="M137 913v-913h-18v913q0 119 75 197t185 78q111 0 186.5 -76t75.5 -194q0 -63 -22.5 -114.5t-56.5 -81.5t-61 -46t-50 -23q12 -4 26 -8.5t46.5 -19.5t61 -32.5t62 -47t57.5 -63t40 -81t16 -100.5q0 -133 -93 -225t-227 -92q-139 0 -237 59v20l7 -3q6 -4 13.5 -8.5
t21 -10.5t27.5 -11t33.5 -11t39.5 -10t45 -6.5t50 -2.5q125 0 213 87.5t88 213.5q0 72 -32 133.5t-73 97.5t-93.5 64.5t-80.5 38t-48 14.5v8q19 4 42 13.5t54 30.5t55 48.5t41 72t17 96.5q0 111 -70.5 182t-173.5 71q-102 0 -172 -73.5t-70 -184.5z" />
    <glyph glyph-name="lslash.alt" horiz-adv-x="280" 
d="M150 0h-19v518l-113 -147v16l113 148v759h19v-735l112 148v-17l-112 -147v-543z" />
    <glyph glyph-name="ntilde.alt" horiz-adv-x="800" 
d="M162 854h-17q3 79 33.5 121.5t85.5 42.5q9 0 18.5 -1.5t16.5 -2.5t16 -5.5t14 -6.5t14.5 -8.5t13 -8.5t13 -10.5t11.5 -10t13 -11.5t12 -11q56 -51 81 -63q24 -11 48 -11q96 0 102 148h16q-3 -79 -33 -121.5t-85 -42.5q-9 0 -18.5 1.5t-16.5 2.5t-16 5.5t-14 6.5t-15 9
t-13 8.5t-13.5 10.5t-12 10.5t-13 12t-12.5 11.5q-4 3 -14.5 12.5t-14.5 13.5t-13.5 12t-15 11t-15 8.5t-17 7.5t-17.5 4t-20 2q-96 0 -102 -147zM670 0h-19v707h-501v-707h-19v723h539v-723z" />
    <glyph glyph-name="oacute.alt" horiz-adv-x="825" 
d="M422 803h-16l186 379h18zM694 0h-563v723h563v-723zM676 16v691h-526v-691h526z" />
    <glyph glyph-name="ocircumflex.alt" horiz-adv-x="825" 
d="M418 1180l205 -377h-17l-194 358l-195 -358h-16l205 377h12zM694 0h-563v723h563v-723zM676 16v691h-526v-691h526z" />
    <glyph glyph-name="odieresis.alt" horiz-adv-x="825" 
d="M319 932l29 -29l-29 -29l-28 29zM477 903l29 29l29 -29l-29 -29zM694 0h-563v723h563v-723zM676 16v691h-526v-691h526z" />
    <glyph glyph-name="ograve.alt" horiz-adv-x="825" 
d="M418 803h-17l-188 379h18zM694 0h-563v723h563v-723zM676 16v691h-526v-691h526z" />
    <glyph glyph-name="otilde.alt" horiz-adv-x="825" 
d="M195 854h-17q3 79 33.5 121.5t85.5 42.5q10 0 19.5 -1t19 -4.5t16.5 -5.5t16.5 -8.5t14 -9.5t15 -11.5t13.5 -11t14 -12.5t13 -12q56 -51 81 -63q24 -11 48 -11q97 0 103 148h16q-3 -79 -33.5 -121.5t-85.5 -42.5q-10 0 -19.5 1t-19.5 4.5t-16.5 5.5t-16.5 9t-14 9.5
t-15 11.5t-13.5 11t-14.5 13t-14 13q-4 3 -14.5 12.5t-14.5 13.5t-13.5 12t-15 11t-15 8.5t-17 7.5t-17.5 4t-20 2q-96 0 -102 -147zM694 0h-563v723h563v-723zM676 16v691h-526v-691h526z" />
    <glyph glyph-name="scaron.alt" horiz-adv-x="589" 
d="M506 1182l-205 -377h-12l-205 377h16l195 -359l194 359h17zM510 700v-16q-78 39 -162 39q-74 0 -142 -30.5t-116 -82.5l436 -495q-112 -131 -280 -131q-20 0 -41 3t-36.5 6.5t-32 9t-25 9t-19.5 8.5l-10 5v18q86 -43 164 -43q74 0 141 30.5t115 84.5l-436 495
q117 129 282 129q84 0 162 -39z" />
    <glyph glyph-name="thorn.alt" horiz-adv-x="860" 
d="M406 0q154 0 253 100t99 262q0 159 -97.5 259t-234.5 100q-124 0 -212.5 -88t-88.5 -207v-313q48 -51 127.5 -82t153.5 -31zM406 -16q-74 0 -153.5 29t-127.5 77v-657h-19v1861h19v-772q31 94 114.5 155.5t186.5 61.5q145 0 248.5 -104.5t103.5 -272.5
q0 -170 -105.5 -274t-266.5 -104z" />
    <glyph glyph-name="uacute.alt" horiz-adv-x="782" 
d="M395 803h-16l186 379h19zM633 723h18v-723h-520v723h19v-707h483v707z" />
    <glyph glyph-name="ucircumflex.alt" horiz-adv-x="782" 
d="M180 803l205 377h12l205 -377h-16l-195 358l-194 -358h-17zM633 723h18v-723h-520v723h19v-707h483v707z" />
    <glyph glyph-name="udieresis.alt" horiz-adv-x="782" 
d="M297 932l29 -29l-29 -29l-29 29zM455 903l28 29l29 -29l-29 -29zM633 723h18v-723h-520v723h19v-707h483v707z" />
    <glyph glyph-name="ugrave.alt" horiz-adv-x="782" 
d="M403 803h-16l-188 379h18zM633 723h18v-723h-520v723h19v-707h483v707z" />
    <glyph glyph-name="yacute.alt" horiz-adv-x="577" 
d="M303 803h-16l186 379h19zM289 25l260 698h18l-268 -723l-213 -567h-18l211 567l-269 723h19z" />
    <glyph glyph-name="ydieresis.alt" horiz-adv-x="577" 
d="M289 25l260 698h18l-268 -723l-213 -567h-18l211 567l-269 723h19zM195 932l28 -29l-28 -29l-29 29zM352 903l29 29l29 -29l-29 -29z" />
    <glyph glyph-name="florin.alt" horiz-adv-x="784" 
d="M207 709v14h166l67 377q18 102 77.5 157.5t137.5 55.5q87 0 150 -66l-10 -10q-56 59 -140 59q-70 0 -124.5 -52.5t-71.5 -145.5l-68 -375h197v-14h-199l-160 -922q-30 -179 -129.5 -276t-236.5 -97q-154 0 -287 123l10 12q128 -118 277 -118q130 0 224.5 94t123.5 264
l160 920h-164z" />
    <glyph glyph-name="asterisk.alt" horiz-adv-x="819" 
d="M401 840l-4 342h25l-4 -342l295 174l12 -21l-299 -166l299 -170l-12 -20l-295 176l4 -344h-25l4 344l-295 -176l-12 20l299 170l-299 166l12 21z" />
    <glyph glyph-name="ampersand.alt" horiz-adv-x="1277" 
d="M823 0h-20v1145h-651v-346h321v-17h-321v-356h417v-18h-438v755h1112v-18h-420v-1145z" />
    <glyph glyph-name="registered.alt" horiz-adv-x="1005" 
d="M934 768q0 -178 -127 -305t-305 -127t-304 126.5t-126 305.5q0 178 126 304t304 126q179 0 305.5 -126t126.5 -304zM926 768q0 173 -125.5 298.5t-298.5 125.5t-297.5 -125.5t-124.5 -298.5q0 -175 124.5 -300.5t297.5 -125.5t298.5 125.5t125.5 300.5zM612 733h-131
l127 -174q1 -2 5 -6l5.5 -5.5t4.5 -5t4.5 -5t4.5 -4t5.5 -3.5t5.5 -2t6 -1.5t6 -0.5q18 0 37 23l8 -10q-19 -29 -47 -29q-30 0 -61 43l-131 180h-86v-215h-17v512h254v-297zM375 1016v-268h221v268h-221z" />
    <glyph glyph-name="trademark.alt" horiz-adv-x="1767" 
d="M360 795v-387h-16v387h-297v14h297v354h16v-354h297v-14h-297zM1235 408v536q0 108 -53.5 167.5t-149.5 59.5q-45 0 -90.5 -17.5t-80.5 -45.5t-51 -43t-28 -29v-628h-16v755h16v-104q127 127 250 127q148 0 199 -123q68 63 119 89q65 34 129 34q105 0 161 -62t56 -180
v-536h-17v536q0 109 -52.5 168t-147.5 59q-126 0 -242 -124q14 -51 14 -103v-536h-16z" />
    <glyph glyph-name="A.altsmall" horiz-adv-x="704" 
d="M682 0h-659l319 838h20zM344 791l-293 -775h602l-293 775l-8 26z" />
    <glyph glyph-name="J.altsmall" horiz-adv-x="372" 
d="M197 -399h-21v1237h21v-1237z" />
    <glyph glyph-name="K.altsmall" horiz-adv-x="827" 
d="M197 838v-838h-21v838h21zM233 416l416 -355q63 -55 105 -55q34 0 63 29l10 -8q-26 -39 -73 -39q-52 0 -119 59l-430 369l530 422h29z" />
    <glyph glyph-name="M.altsmall" horiz-adv-x="1363" 
d="M1167 0v608q0 110 -56.5 170t-160.5 60q-72 0 -141 -39.5t-119 -87.5q17 -49 17 -103v-608h-21v608q0 110 -57.5 170t-161.5 60q-132 0 -270 -138v-700h-21v838h21v-113q137 129 270 129q161 0 215 -127q134 127 268 127q113 0 175.5 -63.5t62.5 -182.5v-608h-21z" />
    <glyph glyph-name="N.altsmall" horiz-adv-x="956" 
d="M176 0v838h21v-140l4 4q149 152 313 152q127 0 196.5 -71t69.5 -205v-578h-20v578q0 126 -63.5 193t-182.5 67q-158 0 -312 -156q-3 -4 -5 -6v-676h-21z" />
    <glyph glyph-name="O.altsmall" horiz-adv-x="868" 
d="M737 0h-606v838h606v-838zM717 16v805h-565v-805h565zM465 420l-31 -31l-31 31l31 31z" />
    <glyph glyph-name="P.altsmall" horiz-adv-x="774" 
d="M176 0v838h447v-471h-426v-367h-21zM197 821v-440h405v440h-405z" />
    <glyph glyph-name="R.altsmall" horiz-adv-x="765" 
d="M176 0v838h447v-496h-234l213 -287q36 -49 80 -49q8 0 16 2t14 5t12 7.5t9 7.5t7 7.5t5 5.5l11 -10q-32 -43 -74 -43q-35 0 -55 14.5t-43 44.5l-219 295h-168v-342h-21zM197 821v-465h405v465h-405z" />
    <glyph glyph-name="S.altsmall" horiz-adv-x="686" 
d="M90 29v20q90 -47 193 -47q180 0 305 125l-516 580q62 71 147 109t182 38q89 0 189 -43v-18q-9 5 -31.5 14t-68.5 19t-89 10q-88 0 -167.5 -34t-137.5 -95l518 -580q-62 -68 -148 -105.5t-183 -37.5q-23 0 -47.5 3t-42.5 7t-37.5 10t-30 10.5t-22.5 9.5t-13 5z" />
    <glyph glyph-name="T.altsmall" horiz-adv-x="704" 
d="M362 0h-20v428h-307v18h307v392h20v-392h308v-18h-308v-428z" />
    <glyph glyph-name="U.altsmall" horiz-adv-x="929" 
d="M733 0v139l-557 -164v863h21v-838l536 156v682h21v-838h-21z" />
    <glyph glyph-name="Y.altsmall" horiz-adv-x="649" 
d="M616 838h23l-440 -838h-23l162 309l-315 529h22l303 -510z" />
    <glyph glyph-name="Oslash.altsmall" horiz-adv-x="868" 
d="M231 -135l48 135h-148v838h444l50 139l12 -4l-47 -135h147v-838h-444l-49 -139zM717 16v805h-133l-285 -805h418zM152 821v-805h133l284 805h-417z" />
    <glyph glyph-name="AE.altsmall" horiz-adv-x="1064" 
d="M965 0h-965l500 838h444v-17h-418v-405h324v-15h-324v-385h439v-16zM506 813l-473 -797h473v797z" />
    <glyph glyph-name="OE.altsmall" horiz-adv-x="1275" 
d="M1155 838v-17h-418v-391h324v-14h-324v-400h439v-16h-1045v838h1024zM717 16v805h-565v-805h565zM465 420l-31 -31l-31 31l31 31z" />
    <glyph glyph-name="Aacute.altsmall" horiz-adv-x="704" 
d="M360 940h-16l186 379h19zM682 0h-659l319 838h20zM344 791l-293 -775h602l-293 775l-8 26z" />
    <glyph glyph-name="Acircumflex.altsmall" horiz-adv-x="704" 
d="M358 1317l205 -377h-16l-195 358l-194 -358h-17l205 377h12zM682 0h-659l319 838h20zM344 791l-293 -775h602l-293 775l-8 26z" />
    <glyph glyph-name="Adieresis.altsmall" horiz-adv-x="704" 
d="M682 0h-659l319 838h20zM344 791l-293 -775h602l-293 775l-8 26zM258 1063l29 -29l-29 -28l-29 28zM416 1034l28 29l29 -29l-29 -28z" />
    <glyph glyph-name="Agrave.altsmall" horiz-adv-x="704" 
d="M360 940h-16l-188 379h18zM682 0h-659l319 838h20zM344 791l-293 -775h602l-293 775l-8 26z" />
    <glyph glyph-name="Aring.altsmall" horiz-adv-x="704" 
d="M682 0h-659l319 838h20zM344 791l-293 -775h602l-293 775l-8 26zM350 954q58 0 96.5 40.5t38.5 99.5t-38.5 99t-96.5 40t-96.5 -40t-38.5 -99t38.5 -99.5t96.5 -40.5zM350 940q-64 0 -108.5 44.5t-44.5 109.5q0 64 44.5 108.5t108.5 44.5q65 0 109.5 -44.5t44.5 -108.5
t-45 -109t-109 -45z" />
    <glyph glyph-name="Atilde.altsmall" horiz-adv-x="704" 
d="M115 991h-17q3 79 33.5 121.5t85.5 42.5q10 0 19.5 -1t19 -4.5t16.5 -5.5t16.5 -8.5t14 -9.5t15 -11.5t13.5 -11t14 -12.5t13 -12q30 -27 42.5 -37.5t37.5 -23t49 -12.5q97 0 103 147h16q-3 -79 -33.5 -121.5t-85.5 -42.5q-10 0 -19.5 1t-19.5 4.5t-16.5 5.5t-16.5 9
t-14 9.5t-15 11.5t-13.5 11t-14.5 13t-14 13q-1 1 -18 16.5t-20.5 18.5t-18 13.5t-22.5 13.5t-21.5 6.5t-26.5 3.5q-96 0 -102 -148zM682 0h-659l319 838h20zM344 791l-293 -775h602l-293 775l-8 26z" />
    <glyph glyph-name="Ntilde.altsmall" horiz-adv-x="956" 
d="M240 991h-17q3 79 33.5 121.5t85.5 42.5q10 0 19.5 -1t19 -4.5t16.5 -5.5t16.5 -8.5t14 -9.5t15 -11.5t13.5 -11t14 -12.5t13 -12q30 -27 42.5 -37.5t37.5 -23t49 -12.5q97 0 103 147h16q-3 -79 -33.5 -121.5t-85.5 -42.5q-10 0 -19.5 1t-19.5 4.5t-16.5 5.5t-16.5 9
t-14 9.5t-15 11.5t-13.5 11t-14.5 13t-14 13q-1 1 -18 16.5t-20.5 18.5t-18 13.5t-22.5 13.5t-21.5 6.5t-26.5 3.5q-96 0 -102 -148zM176 0v838h21v-140l4 4q149 152 313 152q127 0 196.5 -71t69.5 -205v-578h-20v578q0 126 -63.5 193t-182.5 67q-158 0 -312 -156
q-3 -4 -5 -6v-676h-21z" />
    <glyph glyph-name="Oacute.altsmall" horiz-adv-x="868" 
d="M444 940h-16l186 379h19zM737 0h-606v838h606v-838zM717 16v805h-565v-805h565zM465 420l-31 -31l-31 31l31 31z" />
    <glyph glyph-name="Ocircumflex.altsmall" horiz-adv-x="868" 
d="M440 1317l205 -377h-16l-195 358l-194 -358h-17l205 377h12zM737 0h-606v838h606v-838zM717 16v805h-565v-805h565zM465 420l-31 -31l-31 31l31 31z" />
    <glyph glyph-name="Odieresis.altsmall" horiz-adv-x="868" 
d="M340 1063l29 -29l-29 -28l-29 28zM498 1034l28 29l29 -29l-29 -28zM737 0h-606v838h606v-838zM717 16v805h-565v-805h565zM465 420l-31 -31l-31 31l31 31z" />
    <glyph glyph-name="Ograve.altsmall" horiz-adv-x="868" 
d="M440 940h-16l-188 379h18zM737 0h-606v838h606v-838zM717 16v805h-565v-805h565zM465 420l-31 -31l-31 31l31 31z" />
    <glyph glyph-name="Otilde.altsmall" horiz-adv-x="868" 
d="M217 991h-16q3 79 33 121.5t85 42.5q9 0 18.5 -1.5t16.5 -2.5t16 -5.5t14 -6.5t14.5 -8.5t13 -8.5t13 -10.5t11.5 -10t13 -11.5t12 -11q30 -27 42.5 -37.5t37.5 -23t49 -12.5q96 0 102 147h17q-3 -79 -33.5 -121.5t-85.5 -42.5q-9 0 -18.5 1.5t-16.5 2.5t-16 5.5t-14 6.5
t-15 9t-13 8.5t-13.5 10.5t-12 10.5t-13 12t-12.5 11.5t-18 16.5t-20.5 18.5t-18 13.5t-22.5 13.5t-21.5 6.5t-26.5 3.5q-96 0 -102 -148zM737 0h-606v838h606v-838zM717 16v805h-565v-805h565zM465 420l-31 -31l-31 31l31 31z" />
    <glyph glyph-name="Scaron.altsmall" horiz-adv-x="686" 
d="M553 1311l-205 -377h-12l-205 377h16l195 -359l195 359h16zM90 29v20q90 -47 193 -47q180 0 305 125l-516 580q62 71 147 109t182 38q89 0 189 -43v-18q-9 5 -31.5 14t-68.5 19t-89 10q-88 0 -167.5 -34t-137.5 -95l518 -580q-62 -68 -148 -105.5t-183 -37.5
q-23 0 -47.5 3t-42.5 7t-37.5 10t-30 10.5t-22.5 9.5t-13 5z" />
    <glyph glyph-name="Thorn.altsmall" horiz-adv-x="774" 
d="M176 0v838h21v-170h426v-471h-426v-197h-21zM197 651v-440h405v440h-405z" />
    <glyph glyph-name="Uacute.altsmall" horiz-adv-x="929" 
d="M469 940h-16l186 379h18zM733 0v139l-557 -164v863h21v-838l536 156v682h21v-838h-21z" />
    <glyph glyph-name="Ucircumflex.altsmall" horiz-adv-x="929" 
d="M254 940l205 377h12l205 -377h-17l-194 358l-195 -358h-16zM733 0v139l-557 -164v863h21v-838l536 156v682h21v-838h-21z" />
    <glyph glyph-name="Udieresis.altsmall" horiz-adv-x="929" 
d="M733 0v139l-557 -164v863h21v-838l536 156v682h21v-838h-21zM373 1063l28 -29l-28 -28l-29 28zM530 1034l29 29l29 -29l-29 -28z" />
    <glyph glyph-name="Ugrave.altsmall" horiz-adv-x="929" 
d="M477 940h-16l-189 379h19zM733 0v139l-557 -164v863h21v-838l536 156v682h21v-838h-21z" />
    <glyph glyph-name="Yacute.altsmall" horiz-adv-x="649" 
d="M616 838h23l-440 -838h-23l162 309l-315 529h22l303 -510zM346 940h-16l186 379h19z" />
    <glyph glyph-name="Ydieresis.altsmall" horiz-adv-x="649" 
d="M616 838h23l-440 -838h-23l162 309l-315 529h22l303 -510zM238 1063l28 -29l-28 -28l-29 28zM395 1034l29 29l29 -29l-29 -28z" />
    <glyph glyph-name="ampersand.altallsmall" horiz-adv-x="1009" 
d="M662 0h-21v819h-489v-241h239v-17h-239v-250h311v-18h-332v545h844v-19h-313v-819z" />
    <glyph glyph-name="florin.altallsmall" horiz-adv-x="647" 
d="M-258 -322l10 13q100 -90 207 -90q99 0 169 69.5t93 198.5l117 645h-121v14h123l47 250q13 77 59 119.5t107 42.5q69 0 113 -53l-11 -10q-41 47 -102 47q-54 0 -94.5 -39t-52.5 -109l-48 -248h140v-14h-142l-116 -645q-23 -136 -99 -210.5t-182 -74.5q-118 0 -217 94z
" />
    <glyph glyph-name="mu.altallsmall" horiz-adv-x="942" 
d="M197 -410h-21v1248h21v-555q0 -126 74.5 -204.5t197.5 -78.5q162 0 276 145v693h21v-838h-21v123q-110 -139 -278 -139q-100 0 -171 50.5t-99 137.5v-582z" />
    <glyph glyph-name="orn.001" 
d="M526 727l-45 -45l-45 45l45 45zM672 582l-45 -45l-45 45l45 45zM526 582l-45 -45l-45 45l45 45zM381 582l-45 -45l-45 45l45 45zM526 436l-45 -45l-45 45l45 45z" />
    <glyph glyph-name="orn.002" 
d="M616 717v-64h-63v64h63zM410 717v-64h-64v64h64zM514 614v-65h-65v65h65zM616 510v-64h-63v64h63zM410 510v-64h-64v64h64z" />
    <glyph glyph-name="orn.003" horiz-adv-x="757" 
d="M379 602l-29 29l29 28l29 -28zM426 555l-29 29l29 28l29 -28zM332 555l-29 29l29 28l28 -28zM379 508l-29 29l29 28l29 -28z" />
    <glyph glyph-name="orn.004" 
d="M604 809l27 -104l-27 -105l-26 105zM252 705l104 26l105 -26l-105 -27zM709 457l-105 -27l-104 27l104 26zM383 457l-27 -105l-26 105l26 104z" />
    <glyph glyph-name="orn.005" 
d="M604 731l105 -26l-105 -27l-104 27zM330 705l26 104l27 -104l-27 -105zM578 457l26 104l27 -104l-27 -105zM356 430l-104 27l104 26l105 -26z" />
    <glyph glyph-name="orn.006" 
d="M481 928l27 -101l-27 -100l-26 100zM705 805l-37 -64l-62 -34l35 61zM356 707l-61 34l-37 64l64 -37zM627 582l100 26l102 -26l-102 -27zM133 582l103 26l100 -26l-100 -27zM705 358l-64 37l-35 62l62 -35zM356 457l-34 -62l-64 -37l37 64zM481 436l27 -100l-27 -100
l-26 100z" />
    <glyph glyph-name="orn.007" 
d="M463 827l18 70l19 -70l-19 -69zM637 774l90 53l-53 -90l-90 -53zM326 774l53 -90l-90 53l-53 90zM727 563l-70 19l70 18l70 -18zM236 563l-70 19l70 18l69 -18zM674 426l53 -90l-90 53l-53 90zM289 426l90 53l-53 -90l-90 -53zM463 336l18 70l19 -70l-19 -70z" />
    <glyph glyph-name="orn.008" 
d="M461 805l20 127l21 -127l-21 -125zM705 602l126 -20l-126 -21l-125 21zM432 582l49 49l49 -49l-49 -50zM258 602l125 -20l-125 -21l-127 21zM461 358l20 125l21 -125l-21 -127z" />
    <glyph glyph-name="orn.009" 
d="M653 725l-102 -74l74 103l104 75zM338 754l74 -103l-103 74l-76 104zM516 616v-69h-70v69h70zM653 438l76 -104l-104 76l-74 102zM338 410l-105 -76l76 104l103 74z" />
    <glyph glyph-name="orn.010" 
d="M461 805l20 127l21 -127l-21 -125zM705 602l126 -20l-126 -21l-125 21zM516 616v-69h-70v69h70zM258 602l125 -20l-125 -21l-127 21zM461 358l20 125l21 -125l-21 -127z" />
    <glyph glyph-name="orn.011" 
d="M625 754l104 75l-76 -104l-102 -74zM309 725l-76 104l105 -75l74 -103zM481 631l49 -49l-49 -50l-49 50zM625 410l-74 102l102 -74l76 -104zM309 438l103 74l-74 -102l-105 -76z" />
    <glyph glyph-name="orn.012" 
d="M498 842h-33v30h33v-30zM633 707l-115 -89l88 115l111 84zM330 707l-84 110l110 -84l88 -115zM741 565v33h31v-33h-31zM514 614v-65h-65v65h65zM221 598v-33h-31v33h31zM633 457l84 -111l-111 84l-88 115zM356 430l-110 -84l84 111l114 88zM465 322h33v-31h-33v31z" />
    <glyph glyph-name="orn.013" 
d="M676 754l-23 22l23 23l22 -23zM463 776l18 139l19 -139l-19 -141zM309 776l-22 -22l-23 22l23 23zM676 563l-141 19l141 18l139 -18zM526 582l-45 -45l-45 45l45 45zM287 563l-140 19l140 18l141 -18zM500 387l-19 -139l-18 139l18 141zM653 387l23 23l22 -23l-22 -22z
M287 410l22 -23l-22 -22l-23 22z" />
    <glyph glyph-name="orn.014" 
d="M721 797l-178 -154l153 178zM420 643l-178 154l24 24zM506 557h-49v49h49v-49zM696 342l-153 178l178 -153zM266 342l-24 25l178 153z" />
    <glyph glyph-name="orn.015" 
d="M498 903l-17 -235l-16 235h33zM803 565l-236 17l236 16v-33zM516 582l-35 -35l-35 35l35 34zM395 582l-235 -17v33zM498 260h-33l16 236z" />
    <glyph glyph-name="orn.016" 
d="M481 930l15 -258h-29zM829 582l-258 -15v29zM532 582l-51 -52l-51 52l51 51zM391 567l-258 15l258 14v-29zM496 492l-15 -259l-14 259h29z" />
    <glyph glyph-name="orn.017" 
d="M727 827l-172 -192l-20 20zM236 827l192 -172l-20 -20zM518 618v-73h-74v73h74zM555 528l172 -192l-192 172zM428 508l-192 -172l172 192z" />
    <glyph glyph-name="orn.018" 
d="M584 625l-129 280l26 27l27 -27zM438 684l-280 -129l-27 27l27 26zM524 479l281 129l26 -26l-26 -27zM379 539l129 -281l-27 -27l-26 27z" />
    <glyph glyph-name="orn.019" 
d="M524 684l-291 109v36h37zM584 539l108 290h37v-36zM379 625l-109 -291h-37v37zM438 479l291 -108v-37h-37z" />
    <glyph glyph-name="orn.020" 
d="M496 596l204 233h29v-28zM467 596l-234 205v28h29zM481 555l-26 27l26 26l27 -26zM496 567l233 -205v-28h-29zM467 567l-205 -233h-29v28z" />
    <glyph glyph-name="orn.021" 
d="M481 602l-20 309l20 21l21 -21zM502 582l309 20l20 -20l-20 -21zM500 563h-37v37h37v-37zM461 582l-309 -21l-21 21l21 20zM481 561l21 -309l-21 -21l-20 21z" />
    <glyph glyph-name="orn.022" 
d="M729 801l-246 -217l217 245h29v-28zM262 829l217 -245l-246 217v28h29zM483 580l246 -218v-28h-29zM479 580l-217 -246h-29v28z" />
    <glyph glyph-name="orn.023" 
d="M502 911l-21 -325l-20 325l20 21zM811 561l-326 21l326 20l20 -20zM477 582l-325 -21l-21 21l21 20zM481 578l21 -326l-21 -21l-20 21z" />
    <glyph glyph-name="orn.024" 
d="M483 584l109 137l137 108l-108 -137zM479 584l-137 108l-109 137l138 -108zM483 580l138 -109l108 -137l-137 108zM479 580l-108 -138l-138 -108l109 137z" />
    <glyph glyph-name="orn.025" 
d="M502 758l-21 -172l-20 172l20 174zM485 582l172 20l174 -20l-174 -21zM305 602l172 -20l-172 -21l-174 21zM481 578l21 -172l-21 -175l-20 175z" />
    <glyph glyph-name="orn.026" 
d="M481 932l19 -135l-19 -179l-18 179zM649 721l-102 -74l74 103l108 79zM313 721l-80 108l109 -79l74 -103zM831 582l-135 -19l-178 19l178 18zM131 582l135 18l178 -18l-178 -19zM649 442l80 -108l-108 80l-74 102zM313 442l103 74l-74 -102l-109 -80zM481 231l-18 136
l18 178l19 -178z" />
    <glyph glyph-name="orn.027" 
d="M813 582l-22 -23l-23 23l23 22zM653 582l-18 -217l-19 217l19 217zM504 582l-23 -420l-22 420l22 419zM346 582l-18 -217l-19 217l19 217zM195 582l-23 -23l-22 23l22 22z" />
    <glyph glyph-name="orn.028" 
d="M481 913l23 -22l-23 -23l-22 23zM481 754l217 -19l-217 -18l-217 18zM481 604l420 -22l-420 -23l-420 23zM481 446l217 -18l-217 -18l-217 18zM481 295l23 -23l-23 -22l-22 22z" />
    <glyph glyph-name="orn.029" 
d="M469 883l12 59l13 -59l-13 -60zM481 647l-32 86l32 86l33 -86zM782 594l60 -12l-60 -13l-59 13zM547 582l86 32l86 -32l-86 -33zM420 582l61 61l62 -61l-62 -62zM330 614l86 -32l-86 -33l-86 33zM121 582l59 12l60 -12l-60 -13zM449 430l32 86l33 -86l-33 -86zM481 221
l-12 60l12 59l13 -59z" />
    <glyph glyph-name="orn.030" 
d="M686 803l49 33l-33 -50l-51 -34zM260 786l-33 50l49 -33l35 -51zM528 629l37 84l84 37l-37 -84zM434 629l-84 37l-37 84l84 -37zM438 539v86h86v-86h-86zM565 451l-37 84l84 -37l37 -84zM350 498l84 37l-37 -84l-84 -37zM735 328l-49 32l-35 52l51 -35zM227 328l33 49
l51 35l-35 -52z" />
    </font>
</defs>
</svg>
